<svg viewBox="0 0 48 48" xmlns="http://www.w3.org/2000/svg"><path d="m24 1a18.15 18.15 0 1 1 -18.15 18.15 18.17 18.17 0 0 1 18.15-18.15" fill="#ed1c24"/><path d="m24.05 4.63a14.54 14.54 0 1 1 -14.54 14.54 14.55 14.55 0 0 1 14.54-14.54" fill="#fff"/><path d="m37.08 38.53h-26.14a1.28 1.28 0 0 0 -1.28 1.28v5.91a1.28 1.28 0 0 0 1.28 1.28h26.14a1.27 1.27 0 0 0 1.27-1.28v-5.91a1.27 1.27 0 0 0 -1.27-1.28z" fill="#fff" stroke="#272525" stroke-width=".53"/><g fill="#1d1d1b"><path d="m15.53 40.84h2.36v.59h-1.67v1h1.41v.57h-1.41v1.16h1.78v.59h-2.47z"/><path d="m19.28 43.23-.88-1.41h.75l.33.56.13.25.14.25c0-.08.07-.17.11-.25l.12-.25.28-.56h.74l-.87 1.49.94 1.46h-.74l-.33-.58-.15-.27-.15-.26c0 .09-.09.17-.13.26l-.13.27-.31.58h-.72z"/><path d="m21.26 43.3a1.69 1.69 0 0 1 .12-.66 1.49 1.49 0 0 1 .32-.48 1.48 1.48 0 0 1 .47-.31 1.54 1.54 0 0 1 .56-.1 1.09 1.09 0 0 1 .5.1 1.25 1.25 0 0 1 .37.24l-.33.44a1.11 1.11 0 0 0 -.24-.16.58.58 0 0 0 -.26-.06.72.72 0 0 0 -.58.27 1.09 1.09 0 0 0 -.22.72 1.13 1.13 0 0 0 .21.71.71.71 0 0 0 .57.27.73.73 0 0 0 .33-.08 1.12 1.12 0 0 0 .28-.18l.29.44a1.5 1.5 0 0 1 -.47.28 1.24 1.24 0 0 1 -.5.1 1.47 1.47 0 0 1 -.56-.1 1.19 1.19 0 0 1 -.45-.3 1.35 1.35 0 0 1 -.3-.49 1.67 1.67 0 0 1 -.11-.65z"/><path d="m23.89 43.3a1.63 1.63 0 0 1 .41-1.14 1.32 1.32 0 0 1 .44-.3 1.31 1.31 0 0 1 1 0 1.1 1.1 0 0 1 .38.29 1.23 1.23 0 0 1 .23.44 2 2 0 0 1 .08.57 1.39 1.39 0 0 1 0 .32h-1.87a.92.92 0 0 0 .28.62.84.84 0 0 0 .59.22 1 1 0 0 0 .35-.06 1.66 1.66 0 0 0 .33-.16l.24.43a2.28 2.28 0 0 1 -.47.23 1.61 1.61 0 0 1 -.54.09 1.48 1.48 0 0 1 -.57-.11 1.31 1.31 0 0 1 -.46-.3 1.21 1.21 0 0 1 -.31-.44 1.67 1.67 0 0 1 -.11-.7zm2-.27a.9.9 0 0 0 -.15-.55.54.54 0 0 0 -.45-.2.66.66 0 0 0 -.46.19.94.94 0 0 0 -.25.56z"/><path d="m27.81 45v.92h-.69v-4.1h.57v.31a2.52 2.52 0 0 1 .42-.27 1.12 1.12 0 0 1 .47-.11 1.1 1.1 0 0 1 .49.1 1.06 1.06 0 0 1 .36.31 1.38 1.38 0 0 1 .23.47 2.39 2.39 0 0 1 .08.62 2 2 0 0 1 -.11.67 1.42 1.42 0 0 1 -.28.5 1.08 1.08 0 0 1 -.4.31 1.12 1.12 0 0 1 -.47.11.92.92 0 0 1 -.39-.09 1.49 1.49 0 0 1 -.37-.23zm0-1a1 1 0 0 0 .31.2 1 1 0 0 0 .28.05.63.63 0 0 0 .5-.26 1.23 1.23 0 0 0 .19-.76 1.29 1.29 0 0 0 -.15-.68.51.51 0 0 0 -.48-.25 1 1 0 0 0 -.65.33z"/><path d="m30.61 42.37h-.42v-.52h.45l.09-.8h.57v.8h.75v.55h-.75v1.4c0 .35.14.52.42.52h.16l.14-.05.12.51-.27.08a1.69 1.69 0 0 1 -.33 0 1.1 1.1 0 0 1 -.43-.08.64.64 0 0 1 -.29-.22.73.73 0 0 1 -.16-.33 1.52 1.52 0 0 1 -.05-.44z"/></g></svg>