<svg viewBox="0 0 48 48" xmlns="http://www.w3.org/2000/svg"><path d="m24 1.8a22.2 22.2 0 1 1 -22.2 22.2 22.21 22.21 0 0 1 22.2-22.2v-.3a22.5 22.5 0 1 0 22.5 22.5 22.52 22.52 0 0 0 -22.5-22.5z" fill="#4679bb"/><path d="m24 2.47a21.46 21.46 0 1 1 -21.45 21.46 21.45 21.45 0 0 1 21.45-21.46" fill="#4679bb"/><path d="m15.86 19.26a1.32 1.32 0 0 1 -.06-.49 1.6 1.6 0 0 1 1.59-1.59 1.31 1.31 0 0 1 .62.14 1.14 1.14 0 0 1 .5.35 1.93 1.93 0 0 1 .36.52 1.53 1.53 0 0 1 .13.62 1.38 1.38 0 0 1 -.08.48h9.77a1.24 1.24 0 0 1 -.06-.48 1.8 1.8 0 0 1 .13-.62 1.68 1.68 0 0 1 .36-.52 1.74 1.74 0 0 1 .5-.35 1.34 1.34 0 0 1 .62-.14 1.77 1.77 0 0 1 1.14.49 1.9 1.9 0 0 1 .35.52 2 2 0 0 1 .13.62 1.7 1.7 0 0 1 -.06.48l5.53-1.12v-4.79a1.66 1.66 0 0 0 -1.62-1.63h-23.31a.31.31 0 0 0 -.31.3l-.17 3.55a.34.34 0 0 0 -.34.33v2.73a.64.64 0 0 0 .64.64h3.59z" fill="#fff"/><path d="m14.81 13.34a.31.31 0 0 0 -.31-.34h-1a.31.31 0 0 0 -.31.32v4.68a.31.31 0 0 0 .31.31h1a.31.31 0 0 0 .31-.31z" fill="#4679bb"/><path d="m21.55 15.26a.32.32 0 0 1 -.31-.33v-1.61a.31.31 0 0 1 .31-.32h3.85a.33.33 0 0 1 .34.32v1.61a.34.34 0 0 1 -.34.33z" fill="#4679bb"/><path d="m16.27 15.26a.34.34 0 0 1 -.34-.33v-1.61a.32.32 0 0 1 .34-.32h3.85a.34.34 0 0 1 .31.32v1.61a.31.31 0 0 1 -.31.31z" fill="#4679bb"/><path d="m30.68 15.26a.34.34 0 0 0 .34-.33v-1.61a.34.34 0 0 0 -.34-.34h-3.84a.32.32 0 0 0 -.32.34v1.61a.33.33 0 0 0 .32.33z" fill="#4679bb"/><path d="m32.14 15.26a.32.32 0 0 1 -.32-.33v-1.61a.32.32 0 0 1 .32-.32h3.21a1 1 0 0 1 .95.95v1a.31.31 0 0 1 -.32.31z" fill="#4679bb"/><path d="m17.39 17.5a1.27 1.27 0 1 1 -1.27 1.27 1.26 1.26 0 0 1 1.27-1.27" fill="#fff"/><path d="m17.39 18.14a.64.64 0 1 1 -.63.63.63.63 0 0 1 .63-.63" fill="#4679bb"/><path d="m30.2 17.5a1.28 1.28 0 1 1 -1.29 1.27 1.3 1.3 0 0 1 1.29-1.27z" fill="#fff"/><path d="m30.2 18.14a.63.63 0 0 1 .63.63.64.64 0 0 1 -.63.64.64.64 0 1 1 0-1.27" fill="#4679bb"/><path d="m36.73 33.62h-2v.38h-1.28a.83.83 0 0 1 -1.65 0h-1.23a.82.82 0 0 1 -.8.82.82.82 0 0 1 -.82-.82h-8.95a.83.83 0 0 1 -1.65 0h-1.28a.81.81 0 0 1 -.82.82.82.82 0 0 1 -.82-.82h-1.23v-.41h-2v-3.65l.69-2.82a.63.63 0 0 1 .6-.45h8.12l.28-.28a.45.45 0 0 1 .28-.11h1.83l-2-1.44 1.95-1.44v-.61a.2.2 0 0 1 .2-.21h.62a.2.2 0 0 1 .2.21v.61l1.95 1.44-2.06 1.44h1.89a.39.39 0 0 1 .28.13l.3.28h8.12a.63.63 0 0 1 .6.45l.67 2.86v3.66z" fill="#fff"/><g fill="#4679bb"><path d="m24.45 23.38-1.94 1.44 1.94 1.33 1.94-1.33z"/><path d="m15.45 28a.27.27 0 0 1 .28-.32h1a.29.29 0 0 1 .29.3v4.91a.29.29 0 0 1 -.29.3h-1a.29.29 0 0 1 -.3-.3z"/><path d="m17.5 28a.29.29 0 0 1 .28-.32h1a.31.31 0 0 1 .32.3v4.91a.3.3 0 0 1 -.32.3h-1a.29.29 0 0 1 -.3-.3z"/><path d="m31.82 28a.28.28 0 0 1 .28-.32h1a.28.28 0 0 1 .28.3v4.91a.29.29 0 0 1 -.28.3h-1a.3.3 0 0 1 -.3-.3z"/><path d="m29.79 28a.29.29 0 0 1 .28-.32h1a.31.31 0 0 1 .31.3v4.91a.3.3 0 0 1 -.31.3h-1a.29.29 0 0 1 -.3-.3z"/><path d="m25.76 29.62a.28.28 0 0 1 -.28.28h-2.06a.3.3 0 0 1 -.3-.28v-1.62a.29.29 0 0 1 .3-.3h2.06a.29.29 0 0 1 .29.3v1.66z"/><path d="m22.41 29.62a.27.27 0 0 1 -.28.28h-2.05a.32.32 0 0 1 -.32-.28v-1.62a.31.31 0 0 1 .32-.3h2.05a.29.29 0 0 1 .28.3v1.66z"/><path d="m29.08 29.62a.27.27 0 0 1 -.28.28h-2.06a.29.29 0 0 1 -.29-.28v-1.62a.29.29 0 0 1 .29-.3h2.06a.29.29 0 0 1 .3.3z"/><path d="m34.2 29.62a.27.27 0 0 0 .28.28h1a.4.4 0 0 0 .4-.41.13.13 0 0 0 0-.09l-.38-1.53a.27.27 0 0 0 -.28-.21h-.72a.31.31 0 0 0 -.32.3z"/><path d="m14.7 29.62a.28.28 0 0 1 -.3.28h-1a.42.42 0 0 1 -.41-.41.13.13 0 0 1 0-.09l.38-1.53a.26.26 0 0 1 .28-.21h.74a.31.31 0 0 1 .32.3z"/></g></svg>