<svg viewBox="0 0 48 48" xmlns="http://www.w3.org/2000/svg"><path d="m44 44.33a3.05 3.05 0 0 0 2.61-4.52l-20-34.67a3.05 3.05 0 0 0 -5.22 0l-20 34.67a3.05 3.05 0 0 0 2.61 4.52z" fill="#e30613"/><path d="m24 8.8-18.19 31.51h36.38z" fill="#fff"/><path d="m34.33 31.29v-1.61h-.58v-.93l-1.3-1.64-1.3 1.64v.93h-1.63v-.93l-1.3-1.64-1.31 1.64v.93h-1.61v-.93l-1.3-1.64-1.3 1.64v.93h-1.62v-.93l-1.31-1.64-1.3 1.64v.93h-1.62v-.93l-1.3-1.64-1.3 1.64v.93h-.66v1.61h.66v4.46h-.66v1.61h.66v1.64h2.6v-1.64h1.62v1.64h2.61v-1.64h1.62v1.64h2.6v-1.64h1.61v1.64h2.61v-1.64h1.63v1.64h2.6v-1.64h.58v-1.61h-.58v-4.46z"/><g fill="#fff"><path d="m16.85 31.29h1.62v4.46h-1.62z"/><path d="m21.08 31.29h1.62v4.46h-1.62z"/><path d="m25.3 31.29h1.61v4.46h-1.61z"/><path d="m29.52 31.29h1.63v4.46h-1.63z"/></g></svg>