<svg viewBox="0 0 48 48" xmlns="http://www.w3.org/2000/svg"><path d="m44 44.33a3.05 3.05 0 0 0 2.61-4.52l-20-34.67a3.05 3.05 0 0 0 -5.22 0l-20 34.67a3.05 3.05 0 0 0 2.61 4.52z" fill="#e30613"/><path d="m24 8.8-18.19 31.51h36.38z" fill="#fff"/><circle cx="29.76" cy="37.55" r="1.45" transform="matrix(.11857727 -.99294483 .99294483 .11857727 -11.05 62.65)"/><circle cx="32.93" cy="37.55" r="1.45"/><path d="m34.54 34.36h-.89v-4.52h-1.2s-.11-.67.36-.67v-.73h-2.81v.73c.47 0 .36.67.36.67h-5.58a1.52 1.52 0 0 0 -.66-1.42h-1.34a1.55 1.55 0 0 0 -.66 1.42h-3.7v-1.41h-4.16v1.78h1.58v2.62h-2.47v3.1h.88a2.36 2.36 0 0 0 -.18.89 2.22 2.22 0 0 0 4.44 0 2.18 2.18 0 0 0 -.19-.89h.68a2.18 2.18 0 0 0 -.18.89 2.22 2.22 0 1 0 4.43 0 2.18 2.18 0 0 0 -.18-.89h.68a2.36 2.36 0 0 0 -.18.89 2.22 2.22 0 0 0 4.44 0 2.18 2.18 0 0 0 -.19-.89h6.68z"/><path d="m28.27 22.29a2.93 2.93 0 0 0 -2.55-1.49 2.56 2.56 0 0 0 -.39 0 3 3 0 1 0 -2.45 4.81 2.66 2.66 0 0 0 .75-.1 2.81 2.81 0 0 0 2.09.92 2.75 2.75 0 0 0 1.21-.27 2 2 0 0 0 2.77.57.9.9 0 0 1 .42-.15.83.83 0 0 1 .56.5v1.15h1.4a5.65 5.65 0 0 0 -3.81-5.94z"/></svg>