<svg viewBox="0 0 48 48" xmlns="http://www.w3.org/2000/svg"><path d="m24 1.14a18 18 0 1 1 -18 18 18 18 0 0 1 18-18v-.14a18.16 18.16 0 1 0 18.16 18.16 18.18 18.18 0 0 0 -18.16-18.16z" fill="#ed1c24"/><path d="m24 1.77a17.36 17.36 0 1 1 -17.32 17.35 17.37 17.37 0 0 1 17.32-17.35" fill="#ed1c24"/><path d="m9.55 22.75a1 1 0 0 1 -1-1v-5.3a1 1 0 0 1 1-1h28.94a1 1 0 0 1 .95 1v5.3a1 1 0 0 1 -.95 1z" fill="#fff"/><path d="m37.1 38.51h-26.2a1.28 1.28 0 0 0 -1.28 1.28v5.93a1.28 1.28 0 0 0 1.28 1.28h26.2a1.28 1.28 0 0 0 1.28-1.28v-5.93a1.28 1.28 0 0 0 -1.28-1.28z" fill="#fff" stroke="#272525" stroke-width=".53"/><g fill="#1d1d1b"><path d="m15.54 40.67h2.37v.59h-1.67v1h1.41v.59h-1.41v1.15h1.76v.58h-2.46z"/><path d="m19.29 43.06-.87-1.41h.74l.33.56.14.25.13.24.12-.24c0-.09.08-.17.11-.25l.28-.56h.73l-.87 1.49.93 1.45h-.74l-.32-.59-.15-.26-.15-.26a2.1 2.1 0 0 0 -.13.26l-.13.26-.31.58h-.72z"/><path d="m21.27 43.12a1.67 1.67 0 0 1 .12-.65 1.51 1.51 0 0 1 .33-.49 1.35 1.35 0 0 1 .47-.3 1.5 1.5 0 0 1 .56-.1 1.12 1.12 0 0 1 .5.1 1.13 1.13 0 0 1 .36.24l-.33.44a1.11 1.11 0 0 0 -.28-.16.55.55 0 0 0 -.26-.06.72.72 0 0 0 -.58.27 1.06 1.06 0 0 0 -.22.71 1.09 1.09 0 0 0 .22.72.72.72 0 0 0 .57.26.72.72 0 0 0 .37-.1 1.27 1.27 0 0 0 .27-.18l.29.44a1.46 1.46 0 0 1 -.46.28 1.54 1.54 0 0 1 -.51.1 1.51 1.51 0 0 1 -.56-.11 1.11 1.11 0 0 1 -.45-.3 1.31 1.31 0 0 1 -.3-.48 1.9 1.9 0 0 1 -.11-.63z"/><path d="m23.9 43.12a1.83 1.83 0 0 1 .11-.64 1.42 1.42 0 0 1 .31-.49 1.48 1.48 0 0 1 .43-.31 1.29 1.29 0 0 1 .51-.1 1.21 1.21 0 0 1 .52.1 1 1 0 0 1 .39.29 1.41 1.41 0 0 1 .23.44 2 2 0 0 1 .07.56 1.42 1.42 0 0 1 0 .33h-1.9a1 1 0 0 0 .28.62.85.85 0 0 0 .59.21 1.36 1.36 0 0 0 .36-.05 2.49 2.49 0 0 0 .33-.16l.23.43a2.28 2.28 0 0 1 -.47.23 1.61 1.61 0 0 1 -.54.09 1.56 1.56 0 0 1 -.57-.11 1.41 1.41 0 0 1 -.46-.3 1.47 1.47 0 0 1 -.31-.48 1.9 1.9 0 0 1 -.11-.66zm2-.26a.88.88 0 0 0 -.14-.55.54.54 0 0 0 -.46-.2.63.63 0 0 0 -.46.19.91.91 0 0 0 -.24.56z"/><path d="m27.82 44.83v.93h-.69v-4.11h.57l.05.31a2.42 2.42 0 0 1 .41-.27 1 1 0 0 1 .47-.11 1.07 1.07 0 0 1 .49.1 1 1 0 0 1 .37.3 1.41 1.41 0 0 1 .22.48 2 2 0 0 1 .08.62 2 2 0 0 1 -.1.67 1.59 1.59 0 0 1 -.28.5 1.31 1.31 0 0 1 -.4.31 1.16 1.16 0 0 1 -.48.11.88.88 0 0 1 -.38-.09 1.17 1.17 0 0 1 -.37-.24zm0-1a1 1 0 0 0 .32.19.74.74 0 0 0 .28.06.61.61 0 0 0 .49-.26 1.23 1.23 0 0 0 .2-.76 1.36 1.36 0 0 0 -.15-.69.53.53 0 0 0 -.49-.24 1 1 0 0 0 -.65.33z"/><path d="m30.62 42.19h-.42v-.51h.46l.08-.81h.58v.81h.75v.54h-.75v1.38c0 .34.13.51.41.51h.16l.15-.05.12.51-.28.07a1.27 1.27 0 0 1 -.76 0 .8.8 0 0 1 -.29-.22 1.07 1.07 0 0 1 -.16-.34 1.88 1.88 0 0 1 -.05-.43z"/></g></svg>