<svg viewBox="0 0 48 48" xmlns="http://www.w3.org/2000/svg"><circle cx="24" cy="24" fill="#ed1c24" r="22.5"/><circle cx="24" cy="24" fill="#fff" r="18.03"/><path d="m32.78 14.1a3.78 3.78 0 0 1 2.31 3.5h-.59a3.21 3.21 0 0 1 -3.2 3.2 3.16 3.16 0 0 1 -2.79-1.65h-5.58a1.43 1.43 0 0 1 -1.54-1.55 3.55 3.55 0 0 0 -1.29-2.75l-.18.3a3.21 3.21 0 1 1 -2.08-.76 3.33 3.33 0 0 1 1.14.2l.18-.3a3.46 3.46 0 0 0 -1.3-.24h-.12v-1.31h.81a2.76 2.76 0 0 0 2.33-1.38c.25-.45 1.37-2.23 1.37-2.23s.07-.13.15-.13.06.12.05.17-.61 2.83-.61 2.83-.09.37.13.48.41 0 .46-.08l.93-.73.85-1.48s.09-.2 0-.2a.69.69 0 0 1 -.77-.7v-.76h-.28v-.11a1.22 1.22 0 1 1 2.44 0 1.07 1.07 0 0 1 -.25.72v.48h.25l1.55.68 1.52 1.7a1.47 1.47 0 0 1 .45 1.2h3s.66-.08.66.9z"/><path d="m19.25 16.27a2 2 0 0 1 .51 1.31 1.92 1.92 0 1 1 -1.92-1.92 2.14 2.14 0 0 1 .45.05l-.38.65h-.07a1.22 1.22 0 1 0 1.22 1.22 1.12 1.12 0 0 0 -.19-.66z" fill="#fff"/><path d="m31.16 15.68h.14a1.91 1.91 0 1 1 -1.18.4l.27.69a1.17 1.17 0 0 0 -.32.83 1.23 1.23 0 0 0 2.45 0 1.24 1.24 0 0 0 -1.09-1.23z" fill="#fff"/><path d="m28.16 16.93a3.1 3.1 0 0 1 1-1.73c.06-.06.1-.26-.05-.26h-1.21v2s0 .15.11.15.15-.09.15-.16z" fill="#fff"/><path d="m25.72 13.17a1.62 1.62 0 0 1 -.81-1l-2.58 1.48 2.56.83z" fill="#fff"/><path d="m24.08 35.74c1.72 0 5.73-.22 5.73-.22v2.86a1.57 1.57 0 0 0 1.39.69 1.84 1.84 0 0 0 1.47-.66v-3.12a1.31 1.31 0 0 0 .69-1.19v-4a1.39 1.39 0 0 0 -1.29-1.45l-.71-4.46a2.43 2.43 0 0 0 -2.42-2.19h-9.73a2.43 2.43 0 0 0 -2.42 2.2l-.71 4.46a1.37 1.37 0 0 0 -1.29 1.45v4a1.3 1.3 0 0 0 .69 1.19v3.12a1.82 1.82 0 0 0 1.47.66 1.57 1.57 0 0 0 1.39-.69v-2.87s4.01.22 5.74.22z"/><g fill="#fff"><circle cx="17.17" cy="30.9" r="1.34"/><path d="m24.08 27.62c1.21 0 4.79.21 5.76.21a.94.94 0 0 0 1-1.17l-.2-1.34a2.11 2.11 0 0 0 -2-1.7c-.15 0-2.82-.2-3.07-.2h-3.04c-.25 0-2.92.18-3.07.2a2.14 2.14 0 0 0 -2 1.7l-.2 1.34a1 1 0 0 0 1 1.17c1.04-.02 4.6-.21 5.82-.21z"/><path d="m24.08 30.74c.51 0 4.18 0 4.76.13v.64h-9.51v-.66c.56-.07 4.24-.11 4.75-.11z"/><path d="m24.08 34.43c.51 0 4.18 0 4.76-.13v-.64h-9.51v.64c.56.08 4.24.13 4.75.13z"/><path d="m19.31 32.19h9.52v.76h-9.52z"/><circle cx="30.98" cy="30.9" r="1.34"/></g></svg>