<svg viewBox="0 0 48 48" xmlns="http://www.w3.org/2000/svg"><path d="m24 1.5a22.5 22.5 0 1 1 -22.5 22.5 22.52 22.52 0 0 1 22.5-22.5" fill="#ed1c24"/><path d="m24 6a18 18 0 1 1 -18 18 18 18 0 0 1 18-18" fill="#fff"/><path d="m12.71 13.05h21.83c.52 0 .62.11.62.62v21.22c0 .53-.12.62-.62.62q-10.62 0-21.23 0c-.52 0-.62-.11-.62-.62q.03-10.89.02-21.84z" fill="#fefefe"/><path d="m33.52 18.21c-.05-1.55-.13-1.62-1.65-1.3a11.29 11.29 0 0 0 -.44-2.4 1.79 1.79 0 0 0 -1.64-1.33 66.32 66.32 0 0 0 -11.62 0 1.82 1.82 0 0 0 -1.68 1.41 15 15 0 0 0 -.49 2.41c-1.43-.43-1.64-.28-1.62 1.13 0 .62-.06 1.23-.06 1.87 0 1.6.08 1.67 1.74 1.37v3.63c0 .32-.1.66.17.94s.37.66-.12.89a.5.5 0 0 0 -.28.49c0 2.45-.21 4.93.47 7.31.06.22.21.41.4.39a.49.49 0 0 0 .17.06h1.15c.37 0 .69-.17.81-.85.05-.28.39-.17.6-.17h9c.22 0 .58-.09.62.15.09.64.36.83.7.85h.07 1.26a.28.28 0 0 0 .12 0 .4.4 0 0 0 .39-.38c0-1 .59-1.86.53-2.88s0-2.24 0-3.35c0-.64.28-1.4-.58-1.81-.17-.08-.15-.38 0-.51.49-.38.31-.9.34-1.36 0-1.13 0-2.26 0-3.41 1.59.36 1.74.25 1.74-1.22-.02-.69-.08-1.31-.1-1.93zm-15.05 12.11c-.45 0-1 .08-.94-.64 0-.43 0-.85 0-1.28 0-.32 0-.66 0-1 0-.47.07-.81.66-.81s.94.11.94.79 0 1.49.11 2.24-.24.72-.77.7zm1.58-.11v-.21h7.82v.17zm7.88-.91h-7.93v-.2h8zm-8-.88v-.19h8.07v.19zm0-.89v-.19h8.07v.19zm4-5.82c-2.07 0-4.13 0-6.2 0-.79 0-1.13-.26-1.09-1.07.07-1.3.07-2.62.09-3.94 0-.66.32-.91 1-.91h12.7c.6 0 .94.19 1 .83 0 1.45 0 2.87.08 4.32 0 .71-.46.75-1 .75-2.32 0-4.51.02-6.65.02zm4.82 7.71c0-.64.08-1.3.08-2s.24-.85.88-.85.76.34.72.87v1.07s0 .6 0 .87c.11.79-.3.9-1 .92s-.79-.3-.75-.88z" fill="#222"/></svg>