<svg viewBox="0 0 48 48" xmlns="http://www.w3.org/2000/svg"><path d="m43.58 43.89a3 3 0 0 0 2.55-4.43l-19.58-33.91a3 3 0 0 0 -5.1 0l-19.58 33.91a3 3 0 0 0 2.55 4.43z" fill="#ec1c24"/><path d="m24 9.13-17.79 30.83h35.59z" fill="#fff"/><path d="m19.43 32.99h1.63v.68h-1.63z"/><path d="m11.96 32.99h1.63v.68h-1.63z"/><path d="m21.92 32.99h1.63v.68h-1.63z"/><path d="m29.39 32.99h1.63v.68h-1.63z"/><path d="m29.39 32.99h1.63v.68h-1.63z"/><path d="m29.39 32.99h1.63v.68h-1.63z"/><path d="m31.88 32.99h1.63v.68h-1.63z"/><path d="m31.88 32.99h1.63v.68h-1.63z"/><path d="m31.88 32.99h1.63v.68h-1.63z"/><path d="m29.39 32.99h1.63v.68h-1.63z"/><path d="m29.39 32.99h1.63v.68h-1.63z"/><path d="m34.37 32.99h1.63v.68h-1.63z"/><path d="m19.43 38.3h1.63v.68h-1.63z"/><path d="m16.94 38.3h1.63v.68h-1.63z"/><path d="m14.45 38.3h1.63v.68h-1.63z"/><path d="m11.96 38.3h1.63v.68h-1.63z"/><path d="m9.47 38.3h1.63v.68h-1.63z"/><path d="m21.92 38.3h1.63v.68h-1.63z"/><path d="m24.41 38.3h1.63v.68h-1.63z"/><path d="m29.39 38.3h1.63v.68h-1.63z"/><path d="m29.39 38.3h1.63v.68h-1.63z"/><path d="m29.39 38.3h1.63v.68h-1.63z"/><path d="m31.88 38.3h1.63v.68h-1.63z"/><path d="m31.88 38.3h1.63v.68h-1.63z"/><path d="m31.88 38.3h1.63v.68h-1.63z"/><path d="m26.9 38.3h1.63v.68h-1.63z"/><path d="m26.9 38.3h1.63v.68h-1.63z"/><path d="m26.9 38.3h1.63v.68h-1.63z"/><path d="m29.39 38.3h1.63v.68h-1.63z"/><path d="m29.39 38.3h1.63v.68h-1.63z"/><path d="m34.37 38.3h1.63v.68h-1.63z"/><path d="m34.37 38.3h1.63v.68h-1.63z"/><path d="m34.37 38.3h1.63v.68h-1.63z"/><path d="m36.86 38.3h1.63v.68h-1.63z"/><path d="m31.31 24.1a.31.31 0 0 0 -.31.18 5.63 5.63 0 0 1 -3.6-3.6 5.78 5.78 0 0 0 -1.78-2.8c-.13-.11-.43-.4 0-.6a1.8 1.8 0 0 0 1-1.65 1.83 1.83 0 1 0 -3.65 0 1.77 1.77 0 0 0 .38 1.11c0 .05.25.41-.23.47a4.27 4.27 0 0 0 -2.67 1 10.6 10.6 0 0 0 -3.05 6.65.57.57 0 0 0 -.42.52 1.65 1.65 0 0 0 1.63 1.13.52.52 0 0 0 .55-.51 1.42 1.42 0 0 0 -.05-.47 4.79 4.79 0 0 1 -.09-1.25 4.43 4.43 0 0 1 1.63-2.88s.77 6.21-5.69 12c0 0 1 1.83 1 1.9a1.24 1.24 0 0 0 .87.62l.87.1c.05 0 .29 0 .29-.12s-.07-.22-.13-.25a.86.86 0 0 1 -.51-.63s-.28-1.07-.29-1.21l.19-.14h1.26v-.67h-.42a18.51 18.51 0 0 0 4.32-5.88 21.41 21.41 0 0 1 3.37 5.88h-1.37v.68h1.59a25.71 25.71 0 0 1 1 3.44l3.48-1.53a.28.28 0 0 0 .13-.2c0-.12-.13-.18-.22-.2l-2.06-.19a.11.11 0 0 1 -.12-.11 18.46 18.46 0 0 0 -1-4.94 4.71 4.71 0 0 0 -.31-.73c-1.52-2.39-2-4.15-1.32-7a6.38 6.38 0 0 0 5.09 3.55.43.43 0 0 0 .33.17c.47 0 .62-1.27.62-1.41a.35.35 0 0 0 -.31-.43z"/></svg>