<svg viewBox="0 0 48 48" xmlns="http://www.w3.org/2000/svg"><path d="m46.3 31.52a3.74 3.74 0 0 1 -3.73 3.72h-37.12a3.75 3.75 0 0 1 -3.75-3.72v-15a3.77 3.77 0 0 1 3.75-3.75h37.12a3.77 3.77 0 0 1 3.73 3.75z" fill="#fff"/><path d="m46.5 31.52v-15a4 4 0 0 0 -3.93-4h-37.12a4 4 0 0 0 -3.95 4v15a4 4 0 0 0 4 3.93h37.07a3.94 3.94 0 0 0 3.93-3.93z" fill="#4679bb"/><path d="m46.09 31.52a3.53 3.53 0 0 1 -3.52 3.48h-37.12a3.54 3.54 0 0 1 -3.54-3.52v-15a3.55 3.55 0 0 1 3.54-3.48h37.12a3.54 3.54 0 0 1 3.52 3.55v15" fill="#fff"/><path d="m44.42 31.46a1.91 1.91 0 0 1 -1.9 1.91h-37a1.91 1.91 0 0 1 -1.9-1.91v-14.93a1.91 1.91 0 0 1 1.9-1.87h37a1.91 1.91 0 0 1 1.9 1.87z" fill="#4679bb"/><g fill="#fff"><path d="m13.28 19.86h-3.4v-1.76h8.89v1.76h-3.4v10h-2.09z"/><path d="m18.7 25.46a5.27 5.27 0 0 1 .34-2 4.35 4.35 0 0 1 .96-1.46 4.19 4.19 0 0 1 1.34-.91 4 4 0 0 1 1.58-.31 4.15 4.15 0 0 1 1.6.31 4.08 4.08 0 0 1 1.34.91 4.69 4.69 0 0 1 .93 1.46 5.66 5.66 0 0 1 0 3.92 4.57 4.57 0 0 1 -.93 1.46 3.77 3.77 0 0 1 -1.34.9 4.15 4.15 0 0 1 -1.6.31 4 4 0 0 1 -1.58-.31 3.86 3.86 0 0 1 -1.34-.9 4.25 4.25 0 0 1 -1-1.42 5.23 5.23 0 0 1 -.3-1.96zm2.12 0a3.73 3.73 0 0 0 .55 2.13 1.84 1.84 0 0 0 3.05 0 3.58 3.58 0 0 0 .58-2.13 3.63 3.63 0 0 0 -.56-2.15 1.85 1.85 0 0 0 -3.05 0 3.78 3.78 0 0 0 -.57 2.15z"/><path d="m29.16 17.16h2.07v10.55a.8.8 0 0 0 .14.53.45.45 0 0 0 .31.16h.13.19l.27 1.55a2.77 2.77 0 0 1 -1.1.18 1.73 1.73 0 0 1 -1.56-.67 3.2 3.2 0 0 1 -.45-1.82z"/><path d="m34 17.16h2.07v10.55a.75.75 0 0 0 .14.53.45.45 0 0 0 .31.16h.13.19l.27 1.55a2.8 2.8 0 0 1 -1.1.18 1.73 1.73 0 0 1 -1.56-.67 3.2 3.2 0 0 1 -.45-1.86z"/></g></svg>