<svg viewBox="0 0 48 48" xmlns="http://www.w3.org/2000/svg"><path d="m46.5 32.2a3 3 0 0 1 -3 3h-39a3 3 0 0 1 -3-3v-16.4a3 3 0 0 1 3-3h39a3 3 0 0 1 3 3z" fill="#fff" stroke="#0079c1"/><path d="m45.09 32.2a1.58 1.58 0 0 1 -1.58 1.57h-39a1.58 1.58 0 0 1 -1.6-1.57v-16.4a1.58 1.58 0 0 1 1.58-1.57h39a1.58 1.58 0 0 1 1.58 1.57z" fill="#0079c1"/><g fill="#fff"><path d="m5.57 17.06h.92v3a2.86 2.86 0 0 0 .08.72 1.21 1.21 0 0 0 .22.47.73.73 0 0 0 .33.25 1.18 1.18 0 0 0 .43.08 1.23 1.23 0 0 0 .45-.08.76.76 0 0 0 .34-.25 1.38 1.38 0 0 0 .23-.47 2.86 2.86 0 0 0 .08-.72v-3h.89v2.94a3.87 3.87 0 0 1 -.14 1.1 1.81 1.81 0 0 1 -.4.74 1.55 1.55 0 0 1 -.62.42 2.35 2.35 0 0 1 -.82.13 2.35 2.35 0 0 1 -.82-.13 1.55 1.55 0 0 1 -.62-.42 1.81 1.81 0 0 1 -.4-.74 3.55 3.55 0 0 1 -.15-1.1z"/><path d="m10.75 18.36h.76l.06.53a2.71 2.71 0 0 1 .57-.44 1.37 1.37 0 0 1 .71-.19 1.05 1.05 0 0 1 .92.41 1.9 1.9 0 0 1 .29 1.15v2.47h-.92v-2.35a1.25 1.25 0 0 0 -.14-.68.54.54 0 0 0 -.47-.2.88.88 0 0 0 -.46.12 2.49 2.49 0 0 0 -.44.36v2.75h-.92z"/><path d="m15.27 21.25a2.09 2.09 0 0 0 .52.32 1.35 1.35 0 0 0 .57.12.75.75 0 0 0 .47-.13.43.43 0 0 0 .15-.34.36.36 0 0 0 -.07-.22.77.77 0 0 0 -.19-.16 1.46 1.46 0 0 0 -.28-.13l-.3-.13a3.2 3.2 0 0 1 -.39-.16 1.74 1.74 0 0 1 -.36-.24 1.07 1.07 0 0 1 -.25-.31.83.83 0 0 1 -.1-.43 1.08 1.08 0 0 1 .38-.85 1.57 1.57 0 0 1 1-.33 1.78 1.78 0 0 1 .74.15 2.36 2.36 0 0 1 .56.33l-.42.56a2.32 2.32 0 0 0 -.42-.25 1.13 1.13 0 0 0 -.45-.09.65.65 0 0 0 -.43.12.43.43 0 0 0 -.14.31.31.31 0 0 0 .07.21.54.54 0 0 0 .18.14.89.89 0 0 0 .26.12l.31.12a3.2 3.2 0 0 1 .39.16 1.54 1.54 0 0 1 .37.23.93.93 0 0 1 .26.33 1 1 0 0 1 .1.47 1 1 0 0 1 -.1.47 1 1 0 0 1 -.29.39 1.57 1.57 0 0 1 -.48.26 2.17 2.17 0 0 1 -.65.09 2.28 2.28 0 0 1 -.81-.15 2.63 2.63 0 0 1 -.68-.39z"/><path d="m18.64 18.36h.92v2.34a1.27 1.27 0 0 0 .14.69.52.52 0 0 0 .47.2.77.77 0 0 0 .45-.13 1.76 1.76 0 0 0 .42-.41v-2.69h.96v3.93h-.75l-.08-.58a2.12 2.12 0 0 1 -.56.49 1.33 1.33 0 0 1 -.7.18 1 1 0 0 1 -.92-.4 1.91 1.91 0 0 1 -.29-1.16z"/><path d="m23.59 17.67a.62.62 0 0 1 -.41-.14.48.48 0 0 1 -.16-.38.49.49 0 0 1 .16-.38.58.58 0 0 1 .41-.15.59.59 0 0 1 .41.15.53.53 0 0 1 .16.38.51.51 0 0 1 -.16.38.64.64 0 0 1 -.41.14zm-.46.69h.92v3.93h-.92z"/><path d="m25.36 19.09h-.56v-.69h.61l.11-1.07h.77v1.07h1v.73h-1v1.87c0 .46.18.69.55.69a.76.76 0 0 0 .21 0 .66.66 0 0 0 .2-.06l.16.68a2.8 2.8 0 0 1 -.37.1 2 2 0 0 1 -.44 0 1.39 1.39 0 0 1 -.57-.1 1.05 1.05 0 0 1 -.39-.29 1.17 1.17 0 0 1 -.21-.45 2.1 2.1 0 0 1 -.07-.58z"/><path d="m27.82 21.23a1.09 1.09 0 0 1 .55-1 4.41 4.41 0 0 1 1.76-.48 1 1 0 0 0 0-.3.55.55 0 0 0 -.12-.24.52.52 0 0 0 -.22-.17.78.78 0 0 0 -.33-.06 1.56 1.56 0 0 0 -.57.11 5.28 5.28 0 0 0 -.53.27l-.36-.58a3.82 3.82 0 0 1 .73-.36 2.5 2.5 0 0 1 .88-.16 1.34 1.34 0 0 1 1.1.44 1.93 1.93 0 0 1 .34 1.3v2.33h-.75l-.07-.43a2.92 2.92 0 0 1 -.57.37 1.44 1.44 0 0 1 -.65.15 1.13 1.13 0 0 1 -.84-.31 1.11 1.11 0 0 1 -.35-.88zm.9-.07a.45.45 0 0 0 .15.38.66.66 0 0 0 .41.12.85.85 0 0 0 .44-.11 1.84 1.84 0 0 0 .41-.32v-.88a4.43 4.43 0 0 0 -.67.13 1.46 1.46 0 0 0 -.43.18.67.67 0 0 0 -.24.23.5.5 0 0 0 -.07.27z"/><path d="m32.17 16.64h.92v1.46.65a2.18 2.18 0 0 1 .54-.35 1.39 1.39 0 0 1 .6-.14 1.51 1.51 0 0 1 .65.14 1.46 1.46 0 0 1 .49.4 2 2 0 0 1 .3.63 3 3 0 0 1 .11.83 2.83 2.83 0 0 1 -.14.9 2.32 2.32 0 0 1 -.37.66 1.65 1.65 0 0 1 -.54.42 1.38 1.38 0 0 1 -.63.14 1.37 1.37 0 0 1 -.55-.12 2 2 0 0 1 -.52-.37l-.08.4h-.73zm.92 4.66a1.33 1.33 0 0 0 .42.25 1.06 1.06 0 0 0 .38.07.78.78 0 0 0 .65-.34 1.58 1.58 0 0 0 .27-1 1.82 1.82 0 0 0 -.2-.92.71.71 0 0 0 -.61-.36 1.3 1.3 0 0 0 -.87.44z"/><path d="m36.69 16.64h.91v4.69a.33.33 0 0 0 .07.23.17.17 0 0 0 .14.07h.19l.12.68a1.14 1.14 0 0 1 -.49.08.76.76 0 0 1 -.69-.29 1.39 1.39 0 0 1 -.2-.81z"/><path d="m38.6 20.33a2.41 2.41 0 0 1 .15-.87 1.88 1.88 0 0 1 .4-.64 1.66 1.66 0 0 1 .58-.41 1.64 1.64 0 0 1 .68-.15 1.71 1.71 0 0 1 .7.14 1.48 1.48 0 0 1 .51.38 1.69 1.69 0 0 1 .3.6 2.56 2.56 0 0 1 .11.75 1.69 1.69 0 0 1 0 .43h-2.5a1.29 1.29 0 0 0 .38.82 1 1 0 0 0 .78.29 1.51 1.51 0 0 0 .48-.07 1.94 1.94 0 0 0 .43-.22l.32.58a3.05 3.05 0 0 1 -.63.3 2.18 2.18 0 0 1 -.72.12 1.94 1.94 0 0 1 -.76-.14 1.66 1.66 0 0 1 -.61-.4 1.72 1.72 0 0 1 -.41-.64 2.41 2.41 0 0 1 -.19-.87zm2.63-.33a1.23 1.23 0 0 0 -.2-.74.68.68 0 0 0 -.6-.26.86.86 0 0 0 -.62.25 1.31 1.31 0 0 0 -.33.75z"/><path d="m10.52 25.37a.94.94 0 0 0 -.43-.1c-.33 0-.49.22-.49.67v.42h.77v.73h-.77v3.2h-.92v-3.2h-.53v-.69h.53v-.4a2 2 0 0 1 .07-.56 1.05 1.05 0 0 1 .64-.74 1.48 1.48 0 0 1 .59-.11 2.58 2.58 0 0 1 .4 0 2 2 0 0 1 .32.1z"/><path d="m10.72 28.33a2.33 2.33 0 0 1 .15-.87 1.85 1.85 0 0 1 .41-.65 1.78 1.78 0 0 1 .6-.41 1.86 1.86 0 0 1 .7-.14 1.91 1.91 0 0 1 .71.14 1.89 1.89 0 0 1 .6.41 2 2 0 0 1 .41.65 2.33 2.33 0 0 1 .15.87 2.41 2.41 0 0 1 -.15.87 2.12 2.12 0 0 1 -.41.65 1.86 1.86 0 0 1 -.6.4 1.9 1.9 0 0 1 -.71.13 1.85 1.85 0 0 1 -.7-.13 1.75 1.75 0 0 1 -.6-.4 2 2 0 0 1 -.41-.65 2.41 2.41 0 0 1 -.15-.87zm.94 0a1.62 1.62 0 0 0 .25 1 .77.77 0 0 0 .67.35.79.79 0 0 0 .68-.35 1.95 1.95 0 0 0 0-1.91.77.77 0 0 0 -.68-.35.75.75 0 0 0 -.67.35 1.63 1.63 0 0 0 -.25.91z"/><path d="m15.36 26.36h.76l.07.7a1.65 1.65 0 0 1 .5-.59 1 1 0 0 1 .61-.21 1.1 1.1 0 0 1 .45.08l-.16.8h-.19-.22a.9.9 0 0 0 -.49.18 1.45 1.45 0 0 0 -.44.63v2.4h-.92z"/><path d="m20 24.64h.92v1.46.65a2.62 2.62 0 0 1 .54-.35 1.46 1.46 0 0 1 .6-.14 1.56 1.56 0 0 1 .66.14 1.43 1.43 0 0 1 .48.4 1.86 1.86 0 0 1 .31.63 3 3 0 0 1 .1.83 2.58 2.58 0 0 1 -.14.9 1.92 1.92 0 0 1 -.37.66 1.47 1.47 0 0 1 -.54.42 1.38 1.38 0 0 1 -.63.14 1.4 1.4 0 0 1 -.55-.12 2.17 2.17 0 0 1 -.52-.37l-.08.4h-.78zm.92 4.66a1.29 1.29 0 0 0 .41.25 1.1 1.1 0 0 0 .38.07.81.81 0 0 0 .66-.34 1.65 1.65 0 0 0 .26-1 1.82 1.82 0 0 0 -.2-.92.7.7 0 0 0 -.65-.33 1.3 1.3 0 0 0 -.86.44z"/><path d="m24.46 26.36h.92v2.34a1.27 1.27 0 0 0 .14.69.52.52 0 0 0 .47.2.77.77 0 0 0 .45-.13 1.76 1.76 0 0 0 .42-.41v-2.69h.92v3.93h-.78v-.58a2.09 2.09 0 0 1 -.55.49 1.36 1.36 0 0 1 -.71.18 1 1 0 0 1 -.92-.4 2 2 0 0 1 -.29-1.16z"/><path d="m29 29.25a2.09 2.09 0 0 0 .52.32 1.35 1.35 0 0 0 .57.12.75.75 0 0 0 .47-.13.43.43 0 0 0 .15-.34.36.36 0 0 0 -.07-.22.77.77 0 0 0 -.19-.16 1.46 1.46 0 0 0 -.28-.13l-.3-.13a3.2 3.2 0 0 1 -.39-.16 1.74 1.74 0 0 1 -.36-.24 1.07 1.07 0 0 1 -.25-.31.83.83 0 0 1 -.1-.43 1 1 0 0 1 .38-.85 1.57 1.57 0 0 1 1.05-.33 1.7 1.7 0 0 1 .73.15 2.24 2.24 0 0 1 .57.33l-.42.56a2.32 2.32 0 0 0 -.42-.25 1.13 1.13 0 0 0 -.46-.05.65.65 0 0 0 -.43.12.43.43 0 0 0 -.14.31.31.31 0 0 0 .07.21.54.54 0 0 0 .18.14.89.89 0 0 0 .26.12l.3.12a2.78 2.78 0 0 1 .4.16 1.54 1.54 0 0 1 .37.23.93.93 0 0 1 .26.33 1 1 0 0 1 .1.47 1 1 0 0 1 -.1.47 1 1 0 0 1 -.29.39 1.57 1.57 0 0 1 -.48.26 2.19 2.19 0 0 1 -.66.09 2.22 2.22 0 0 1 -.8-.15 2.63 2.63 0 0 1 -.68-.39z"/><path d="m32.14 28.33a2.41 2.41 0 0 1 .15-.87 1.9 1.9 0 0 1 .41-.64 1.58 1.58 0 0 1 .58-.41 1.59 1.59 0 0 1 .67-.15 1.68 1.68 0 0 1 .7.14 1.39 1.39 0 0 1 .51.38 1.71 1.71 0 0 1 .31.6 2.57 2.57 0 0 1 .1.75 1.69 1.69 0 0 1 0 .43h-2.57a1.24 1.24 0 0 0 .37.82 1.07 1.07 0 0 0 .79.29 1.41 1.41 0 0 0 .47-.07 2.26 2.26 0 0 0 .44-.22l.31.58a3 3 0 0 1 -.62.3 2.18 2.18 0 0 1 -.72.12 1.9 1.9 0 0 1 -.76-.14 1.7 1.7 0 0 1 -.62-.4 1.85 1.85 0 0 1 -.41-.64 2.41 2.41 0 0 1 -.11-.87zm2.63-.33a1.23 1.23 0 0 0 -.19-.74.69.69 0 0 0 -.58-.26.84.84 0 0 0 -.61.25 1.19 1.19 0 0 0 -.39.75z"/><path d="m36.49 29.25a2.14 2.14 0 0 0 .53.32 1.31 1.31 0 0 0 .56.12.75.75 0 0 0 .47-.13.43.43 0 0 0 .15-.34.36.36 0 0 0 -.07-.22.77.77 0 0 0 -.19-.16 1.69 1.69 0 0 0 -.27-.13l-.31-.13-.36-.16a1.45 1.45 0 0 1 -.35-.24 1.1 1.1 0 0 1 -.26-.31.83.83 0 0 1 -.1-.43 1.08 1.08 0 0 1 .38-.85 1.57 1.57 0 0 1 1-.33 1.78 1.78 0 0 1 .74.15 2.24 2.24 0 0 1 .57.33l-.43.56a2.32 2.32 0 0 0 -.42-.25 1.12 1.12 0 0 0 -.44-.09.68.68 0 0 0 -.44.12.43.43 0 0 0 -.14.31.38.38 0 0 0 .07.21.86.86 0 0 0 .18.14 1 1 0 0 0 .26.12l.38.14a3.33 3.33 0 0 1 .4.16 1.69 1.69 0 0 1 .36.23 1.09 1.09 0 0 1 .27.33 1.12 1.12 0 0 1 .1.47 1.2 1.2 0 0 1 -.1.47 1.14 1.14 0 0 1 -.3.39 1.36 1.36 0 0 1 -.48.26 2.17 2.17 0 0 1 -.65.09 2.32 2.32 0 0 1 -.81-.15 2.63 2.63 0 0 1 -.68-.39z"/></g></svg>