<svg viewBox="0 0 48 48" xmlns="http://www.w3.org/2000/svg"><path d="m46 38.71a2.86 2.86 0 0 1 -2.86 2.88h-38.22a2.87 2.87 0 0 1 -2.92-2.82v-29.48a2.86 2.86 0 0 1 2.86-2.88h38.22a2.87 2.87 0 0 1 2.92 2.82z" fill="#fff" stroke="#0079c1"/><path d="m44.6 38.71a1.53 1.53 0 0 1 -1.52 1.52h-38.16a1.53 1.53 0 0 1 -1.52-1.52v-29.42a1.53 1.53 0 0 1 1.52-1.52h38.16a1.53 1.53 0 0 1 1.52 1.52z" fill="#0079c1"/><g fill="#fff"><path d="m8.76 15a1.2 1.2 0 0 0 1.11-1.28v-3.17h.84v3.24a1.9 1.9 0 0 1 -1.86 1.94h-.14a1.91 1.91 0 0 1 -2-1.82v-3.36h.89v3.11a1.22 1.22 0 0 0 1.09 1.34z"/><path d="m15 13.13v2.5h-.81v-2.32a.7.7 0 0 0 -.63-.61.8.8 0 0 0 -.76.76v2.17h-.8v-3.63h.81v.33a1.34 1.34 0 0 1 1-.41 1.26 1.26 0 0 1 1.19 1.21z"/><path d="m16.59 13c0 .17.21.32.54.37a2.47 2.47 0 0 1 .75.21.92.92 0 0 1 .64 1 1.21 1.21 0 0 1 -1.26 1.16 2.19 2.19 0 0 1 -1.6-.66l.51-.5a1.32 1.32 0 0 0 1 .43c.37 0 .58-.13.58-.38s-.16-.28-.91-.48c-.91-.26-1-.74-1-1.09 0-.51.38-1.14 1.42-1.14a1.92 1.92 0 0 1 1.26.53l-.43.56a1.31 1.31 0 0 0 -.83-.38c-.39-.03-.67.15-.67.37z"/><path d="m19.48 14.52v-2.52h.78v2.33a.58.58 0 0 0 .53.63h.1a.83.83 0 0 0 .73-.78v-2.18h.81v3.59h-.81v-.32c-.25.42-1 .42-1 .42a1.12 1.12 0 0 1 -1.14-1.1z"/><path d="m23.62 12h.81v3.61h-.81z"/><path d="m23.52 11a.5.5 0 0 1 .48-.48.5.5 0 0 1 0 1 .52.52 0 0 1 -.48-.52z"/><path d="m26 12v-1.14l.78-.33v1.47h.93v.66h-.93v1.87c0 .28.13.41.35.41a1.89 1.89 0 0 0 .53-.08l.08.71a3.85 3.85 0 0 1 -.83.1c-.66 0-.91-.33-.91-1.11v-1.9h-.64v-.66z"/><path d="m29.64 15.68a1.28 1.28 0 0 1 -1.34-1.18 1.24 1.24 0 0 1 1.16-1.12l1-.1v-.12c0-.33-.16-.53-.56-.53a2.84 2.84 0 0 0 -1.14.27l-.3-.6a3 3 0 0 1 1.46-.38 1.22 1.22 0 0 1 1.32 1.08v1.71c0 .18.07.28.3.38l-.35.63a1.14 1.14 0 0 1 -.61-.35 2 2 0 0 1 -.94.31z"/></g><path d="m29.08 14.55a.59.59 0 0 0 .63.5c.41 0 .71-.23.71-.5v-.55l-.81.07a.51.51 0 0 0 -.53.48z" fill="#0079c1"/><path d="m32.54 10.55h.81v1.77a1.12 1.12 0 0 1 1-.38 1.64 1.64 0 0 1 1.58 1.71.81.81 0 0 1 0 .16 1.57 1.57 0 0 1 -2.53 1.52v.3h-.81z" fill="#fff"/><path d="m37.9 14.93h.43l.1.7a5.65 5.65 0 0 1 -.71 0c-.75.08-.93-.3-.93-1.18v-3.85h.81v3.87c-.03.33.05.46.3.46z" fill="#fff"/><path d="m38.84 13.81a1.69 1.69 0 0 1 1.5-1.81h.19c1 0 1.57.71 1.57 2.05v.13h-2.43a.85.85 0 0 0 .87.83 1.3 1.3 0 0 0 .86-.35l.48.6a2 2 0 0 1 -1.31.53 1.69 1.69 0 0 1 -1.78-1.61 1.58 1.58 0 0 1 .05-.37z" fill="#fff"/><path d="m39.67 13.51h1.62a.78.78 0 0 0 -.76-.88.84.84 0 0 0 -.86.82z" fill="#0079c1"/><path d="m20.87 18.94v.33h.65v.73h-.65v2.93h-.81v-2.93h-.58v-.69h.58v-.65c0-.53.53-.81 1.06-.81a2.48 2.48 0 0 1 .61.07l-.08.66h-.38c-.27-.04-.4.09-.4.36z" fill="#fff"/><path d="m22.28 21.07a1.74 1.74 0 1 1 3.46-.37 2.29 2.29 0 0 1 0 .37 1.7 1.7 0 0 1 -1.45 1.93h-.29a1.76 1.76 0 0 1 -1.73-1.79c0-.05.01-.09.01-.14z" fill="#fff"/><path d="m24.94 21.07c0-.71-.36-1.16-.94-1.16s-.91.48-.91 1.16.33 1.16.91 1.16a1 1 0 0 0 1-1.05.45.45 0 0 0 -.06-.11z" fill="#0079c1"/><path d="m28.68 20.06c-1.09-.21-1.09 1-1.09 1v1.82h-.78v-3.61h.78v.38a1.23 1.23 0 0 1 1.09-.43z" fill="#fff"/><path d="m7.24 30.17a1.28 1.28 0 0 1 -1.34-1.17 1.23 1.23 0 0 1 1.17-1.11l1-.1v-.16a.48.48 0 0 0 -.42-.53.29.29 0 0 0 -.13 0 2.82 2.82 0 0 0 -1.14.28l-.31-.6a3 3 0 0 1 1.47-.38 1.22 1.22 0 0 1 1.31 1.13v1.7c0 .17.08.27.31.38l-.36.63a1.13 1.13 0 0 1 -.6-.36 1.74 1.74 0 0 1 -.96.29z" fill="#fff"/><path d="m6.69 29a.59.59 0 0 0 .63.51c.4 0 .71-.23.71-.51v-.58l-.81.07a.51.51 0 0 0 -.53.49z" fill="#0079c1"/><path d="m12 27.29c-1.08-.21-1.08 1-1.08 1v1.82h-.79v-3.61h.87v.38a1.24 1.24 0 0 1 1-.43z" fill="#fff"/><path d="m13.36 26.5v-1.16l.78-.33v1.47h.94v.65h-.94v1.87c0 .28.13.41.36.41a1.89 1.89 0 0 0 .53-.08l.07.71a3.85 3.85 0 0 1 -.83.1c-.66 0-.91-.33-.91-1.11v-1.9h-.63v-.65h.63z" fill="#fff"/><path d="m15.91 26.5h.81v3.61h-.81z" fill="#fff"/><path d="m15.84 25.52a.49.49 0 1 1 .5.5.49.49 0 0 1 -.5-.48z" fill="#fff"/><path d="m20.84 27.36-.66.33a.91.91 0 0 0 -.78-.53c-.53 0-.91.53-.91 1.21a1 1 0 0 0 .88 1.11 1.23 1.23 0 0 0 .83-.53l.64.28a1.81 1.81 0 0 1 -1.57 1 1.7 1.7 0 0 1 -1.62-1.78 1.69 1.69 0 0 1 3.16-1z" fill="#fff"/><path d="m21.65 29v-2.45h.78v2.33a.58.58 0 0 0 .53.63h.1a.85.85 0 0 0 .74-.78v-2.18h.81v3.59h-.81v-.33c-.25.43-1 .43-1 .43a1.14 1.14 0 0 1 -1.16-1.1c0-.05.01-.09.01-.14z" fill="#fff"/><path d="m26.91 29.41a3.15 3.15 0 0 0 .43-.05l.1.71a5.65 5.65 0 0 1 -.71.05c-.76.07-.94-.31-.94-1.19v-3.93h.81v3.84c-.02.44.08.57.31.57z" fill="#fff"/><path d="m29.18 30.17a1.28 1.28 0 0 1 -1.34-1.17 1.23 1.23 0 0 1 1.16-1.13l1-.1v-.16c0-.32-.15-.53-.56-.53a2.77 2.77 0 0 0 -1.13.28l-.31-.6a3 3 0 0 1 1.47-.38 1.22 1.22 0 0 1 1.31 1.13v1.7c0 .17.08.27.31.38l-.36.63a1.13 1.13 0 0 1 -.6-.36 1.79 1.79 0 0 1 -.95.31z" fill="#fff"/><path d="m28.65 29a.59.59 0 0 0 .63.51c.41 0 .71-.23.71-.51v-.58l-.81.07a.52.52 0 0 0 -.53.51z" fill="#0079c1"/><path d="m32.42 26.5v-1.16l.78-.34v1.47h.94v.65h-.94v1.88c0 .28.13.41.35.41a1.89 1.89 0 0 0 .53-.08l.08.71a3.85 3.85 0 0 1 -.83.1c-.66 0-.91-.33-.91-1.11v-1.9h-.64v-.65h.64z" fill="#fff"/><path d="m34.77 28.3a1.68 1.68 0 0 1 1.48-1.86h.21c1 0 1.57.7 1.57 2v.13h-2.43a.83.83 0 0 0 .85.83h.06a1.3 1.3 0 0 0 .86-.35l.48.61a2 2 0 0 1 -1.31.53 1.71 1.71 0 0 1 -1.78-1.62 2.26 2.26 0 0 1 .01-.27z" fill="#fff"/><path d="m35.6 28h1.62a.78.78 0 0 0 -.76-.88c-.46 0-.78.24-.86.88z" fill="#0079c1"/><path d="m41.24 29.81a1.68 1.68 0 0 1 -1 .36 1.72 1.72 0 0 1 -1.54-1.87c0-1.09.61-1.87 1.57-1.87a1.18 1.18 0 0 1 1 .38v-1.81h.81v5.08h-.81z" fill="#fff"/><path d="m41.24 28.6v-.66a.84.84 0 0 0 -.81-.78 1.06 1.06 0 0 0 -.91 1.11 1 1 0 0 0 .88 1.09.85.85 0 0 0 .84-.76z" fill="#0079c1"/><path d="m13 37.37h-1l-1.19-3.59h.89l.75 2.48.81-2.48h.86z" fill="#fff"/><path d="m14.57 35.55a1.68 1.68 0 0 1 1.48-1.86h.22c1 0 1.56.71 1.56 2v.12h-2.42a.84.84 0 0 0 .84.84h.07a1.31 1.31 0 0 0 .86-.36l.48.61a2 2 0 0 1 -1.32.53 1.71 1.71 0 0 1 -1.78-1.62 2.09 2.09 0 0 1 .01-.26z" fill="#fff"/><path d="m15.41 35.22h1.59a.78.78 0 0 0 -.75-.88.87.87 0 0 0 -.84.88z" fill="#0079c1"/><path d="m21.7 34.74v2.61h-.7v-2.2a.69.69 0 0 0 -.61-.76.73.73 0 0 0 -.76.7v2.26h-.79v-5.08h.79v1.79c.22-.43.91-.43.91-.43a1.2 1.2 0 0 1 1.16 1.11z" fill="#fff"/><path d="m22.71 33.73h.81v3.61h-.81z" fill="#fff"/><path d="m22.64 32.77a.5.5 0 0 1 .48-.48.5.5 0 0 1 0 1 .52.52 0 0 1 -.48-.52z" fill="#fff"/><path d="m27.64 34.59-.66.33a.91.91 0 0 0 -.78-.53c-.53 0-.91.53-.91 1.21a1 1 0 0 0 .88 1.11 1.23 1.23 0 0 0 .83-.53l.63.28a1.78 1.78 0 0 1 -1.56 1 1.86 1.86 0 1 1 1.54-2.83z" fill="#fff"/><path d="m29.56 36.66a3.09 3.09 0 0 0 .43 0l.1.71a4.21 4.21 0 0 1 -.71 0c-.75.08-.93-.3-.93-1.19v-3.89h.81v3.87c-.03.38.07.5.3.5z" fill="#fff"/><path d="m30.5 35.55a1.68 1.68 0 0 1 1.5-1.86h.21c1 0 1.57.71 1.57 2v.12h-2.45a.84.84 0 0 0 .86.84h.05a1.31 1.31 0 0 0 .86-.36l.48.61a2 2 0 0 1 -1.31.53 1.71 1.71 0 0 1 -1.78-1.62 2.09 2.09 0 0 1 .01-.26z" fill="#fff"/><path d="m31.33 35.22h1.67a.78.78 0 0 0 -.76-.88.9.9 0 0 0 -.91.88z" fill="#0079c1"/><path d="m35.25 34.74c0 .18.2.33.53.38a4.05 4.05 0 0 1 .76.2.94.94 0 0 1 .63 1 1.22 1.22 0 0 1 -1.27 1.17 2.15 2.15 0 0 1 -1.59-.66l.5-.51a1.32 1.32 0 0 0 1 .43c.38 0 .58-.12.58-.38s-.15-.27-.91-.48c-.91-.25-1-.73-1-1.08 0-.51.38-1.14 1.42-1.14a1.87 1.87 0 0 1 1.26.53l-.43.56a1.31 1.31 0 0 0 -.83-.38c-.4-.04-.65.11-.65.36z" fill="#fff"/><path d="m34.16 12.68a.88.88 0 0 0 -.81.78v.66a.85.85 0 0 0 .84.76 1 1 0 0 0 .88-1.09 1 1 0 0 0 -.91-1.11z" fill="#0079c1"/></svg>