<svg viewBox="0 0 48 48" xmlns="http://www.w3.org/2000/svg"><path d="m46.5 35.38a3 3 0 0 1 -3 2.95h-39.05a3 3 0 0 1 -2.95-2.95v-22.76a3 3 0 0 1 3-2.95h39.1a3 3 0 0 1 3 2.95z" fill="#fff" stroke="#0079c1"/><path d="m45.1 35.38a1.56 1.56 0 0 1 -1.55 1.55h-39.1a1.56 1.56 0 0 1 -1.55-1.55v-22.76a1.56 1.56 0 0 1 1.55-1.55h39.1a1.56 1.56 0 0 1 1.55 1.55z" fill="#0079c1"/><g fill="#fff"><path d="m7.05 14.07h.87v2.82a2.55 2.55 0 0 0 .07.67 1.05 1.05 0 0 0 .2.44.79.79 0 0 0 .31.24 1.3 1.3 0 0 0 .41.07 1.35 1.35 0 0 0 .41-.07.82.82 0 0 0 .32-.24 1.2 1.2 0 0 0 .21-.44 2.51 2.51 0 0 0 .08-.67v-2.82h.83v2.75a3.4 3.4 0 0 1 -.13 1 1.73 1.73 0 0 1 -.37.7 1.39 1.39 0 0 1 -.59.39 2.5 2.5 0 0 1 -1.53 0 1.39 1.39 0 0 1 -.59-.39 1.73 1.73 0 0 1 -.37-.7 3.4 3.4 0 0 1 -.13-1z"/><path d="m11.91 15.29h.71l.06.5a2.6 2.6 0 0 1 .53-.41 1.28 1.28 0 0 1 .68-.18 1 1 0 0 1 .86.38 1.87 1.87 0 0 1 .27 1.09v2.33h-.86v-2.22a1.16 1.16 0 0 0 -.14-.65.52.52 0 0 0 -.44-.18.79.79 0 0 0 -.43.11 2.7 2.7 0 0 0 -.41.34v2.6h-.86z"/><path d="m16.14 18a2.4 2.4 0 0 0 .49.3 1.2 1.2 0 0 0 .53.11.66.66 0 0 0 .44-.12.39.39 0 0 0 .15-.32.29.29 0 0 0 -.07-.2.45.45 0 0 0 -.18-.15 1.46 1.46 0 0 0 -.25-.13l-.25-.11-.37-.16a1.46 1.46 0 0 1 -.33-.22 1 1 0 0 1 -.24-.29.88.88 0 0 1 -.09-.41 1 1 0 0 1 .36-.79 1.41 1.41 0 0 1 1-.31 1.74 1.74 0 0 1 .69.14 2.94 2.94 0 0 1 .53.3l-.4.53a2.65 2.65 0 0 0 -.39-.23 1 1 0 0 0 -.42-.09.61.61 0 0 0 -.41.12.39.39 0 0 0 -.13.29.26.26 0 0 0 .07.19.61.61 0 0 0 .17.14 1.08 1.08 0 0 0 .24.11l.29.11a2.87 2.87 0 0 1 .37.15 1.63 1.63 0 0 1 .34.21.87.87 0 0 1 .25.32.94.94 0 0 1 .09.43 1.13 1.13 0 0 1 -.09.45 1 1 0 0 1 -.27.36 1.21 1.21 0 0 1 -.45.24 1.72 1.72 0 0 1 -.62.09 2 2 0 0 1 -.75-.14 2.34 2.34 0 0 1 -.64-.37z"/><path d="m19.3 15.29h.86v2.2a1.12 1.12 0 0 0 .14.64.48.48 0 0 0 .43.19.8.8 0 0 0 .43-.12 1.78 1.78 0 0 0 .39-.39v-2.52h.86v3.71h-.7l-.07-.54a2.21 2.21 0 0 1 -.52.46 1.22 1.22 0 0 1 -.67.17 1 1 0 0 1 -.86-.37 1.89 1.89 0 0 1 -.27-1.09z"/><path d="m23.94 14.65a.56.56 0 0 1 -.38-.14.45.45 0 0 1 -.15-.35.48.48 0 0 1 .15-.36.55.55 0 0 1 .38-.13.56.56 0 0 1 .39.13.48.48 0 0 1 .15.36.45.45 0 0 1 -.15.35.56.56 0 0 1 -.39.14zm-.43.64h.86v3.71h-.86z"/><path d="m25.6 16h-.52v-.64h.57l.1-1h.72v1h.94v.64h-.94v1.76c0 .43.17.65.52.65h.2a.55.55 0 0 0 .18-.06l.15.64a2.37 2.37 0 0 1 -.34.09 1.78 1.78 0 0 1 -.41 0 1.42 1.42 0 0 1 -.54-.09.92.92 0 0 1 -.36-.28 1 1 0 0 1 -.21-.42 2.23 2.23 0 0 1 -.06-.54z"/><path d="m27.91 18a1 1 0 0 1 .52-.91 4.07 4.07 0 0 1 1.65-.45 1.17 1.17 0 0 0 0-.27.55.55 0 0 0 -.12-.24.5.5 0 0 0 -.2-.15.68.68 0 0 0 -.31-.06 1.47 1.47 0 0 0 -.54.1 4.59 4.59 0 0 0 -.49.26l-.32-.58a4 4 0 0 1 .69-.34 2.39 2.39 0 0 1 .82-.14 1.26 1.26 0 0 1 1 .41 1.79 1.79 0 0 1 .34 1.18v2.19h-.71l-.06-.4a2.85 2.85 0 0 1 -.53.35 1.29 1.29 0 0 1 -.62.14 1.09 1.09 0 0 1 -.79-.29 1.06 1.06 0 0 1 -.33-.8zm.84-.06a.43.43 0 0 0 .15.36.6.6 0 0 0 .37.11 1 1 0 0 0 .42-.1 2.39 2.39 0 0 0 .39-.31v-.82a3.94 3.94 0 0 0 -.63.12 1.81 1.81 0 0 0 -.41.17.56.56 0 0 0 -.22.21.48.48 0 0 0 -.07.24z"/><path d="m32 13.68h.86v1.32.62a2.12 2.12 0 0 1 .51-.33 1.39 1.39 0 0 1 .56-.13 1.48 1.48 0 0 1 .61.13 1.4 1.4 0 0 1 .46.38 1.7 1.7 0 0 1 .28.59 2.66 2.66 0 0 1 .1.77 2.43 2.43 0 0 1 -.13.84 1.91 1.91 0 0 1 -.35.63 1.45 1.45 0 0 1 -.5.39 1.37 1.37 0 0 1 -.59.13 1.39 1.39 0 0 1 -.52-.11 1.93 1.93 0 0 1 -.49-.35l-.08.37h-.72zm.85 4.32a1 1 0 0 0 .75.31.72.72 0 0 0 .61-.32 1.5 1.5 0 0 0 .25-1 1.61 1.61 0 0 0 -.19-.86.66.66 0 0 0 -.61-.3 1.17 1.17 0 0 0 -.81.41z"/><path d="m36.22 13.68h.86v4.4a.34.34 0 0 0 .06.22.19.19 0 0 0 .13.06h.06.07l.12.65a1.2 1.2 0 0 1 -.46.07.73.73 0 0 1 -.65-.27 1.32 1.32 0 0 1 -.19-.76z"/><path d="m38 17.14a2.09 2.09 0 0 1 .15-.81 1.84 1.84 0 0 1 .37-.61 1.6 1.6 0 0 1 .55-.38 1.52 1.52 0 0 1 .63-.14 1.69 1.69 0 0 1 .66.13 1.31 1.31 0 0 1 .47.36 1.42 1.42 0 0 1 .29.56 2.24 2.24 0 0 1 .1.7 1.45 1.45 0 0 1 0 .4h-2.37a1.24 1.24 0 0 0 .35.78 1 1 0 0 0 .74.27 1.63 1.63 0 0 0 .45-.07 2.49 2.49 0 0 0 .4-.2l.3.54a2.68 2.68 0 0 1 -.59.28 1.89 1.89 0 0 1 -.67.11 1.8 1.8 0 0 1 -.71-.13 1.5 1.5 0 0 1 -.58-.38 1.56 1.56 0 0 1 -.39-.6 2.29 2.29 0 0 1 -.15-.81zm2.47-.33a1.13 1.13 0 0 0 -.18-.69.67.67 0 0 0 -.57-.25.82.82 0 0 0 -.58.24 1.14 1.14 0 0 0 -.3.7z"/><path d="m13.9 21.86a1 1 0 0 0 -.4-.09c-.31 0-.47.21-.47.62v.4h.72v.68h-.75v3h-.86v-3h-.49v-.64h.49v-.38a1.79 1.79 0 0 1 .07-.53 1.06 1.06 0 0 1 .22-.42.88.88 0 0 1 .38-.27 1.29 1.29 0 0 1 .55-.1 1.58 1.58 0 0 1 .38 0 1.32 1.32 0 0 1 .3.09z"/><path d="m14.08 24.64a2.1 2.1 0 0 1 .15-.82 1.68 1.68 0 0 1 .94-1 1.85 1.85 0 0 1 .66-.13 2 2 0 0 1 .67.13 1.75 1.75 0 0 1 .55.38 2 2 0 0 1 .39.61 2.1 2.1 0 0 1 .15.82 2.18 2.18 0 0 1 -.15.82 1.83 1.83 0 0 1 -.39.6 1.6 1.6 0 0 1 -.55.38 1.93 1.93 0 0 1 -.67.12 1.84 1.84 0 0 1 -.66-.12 1.64 1.64 0 0 1 -.56-.38 1.67 1.67 0 0 1 -.38-.6 2.18 2.18 0 0 1 -.15-.81zm.89 0a1.51 1.51 0 0 0 .23.89.72.72 0 0 0 .63.33.75.75 0 0 0 .64-.33 1.86 1.86 0 0 0 0-1.79.75.75 0 0 0 -.64-.33.72.72 0 0 0 -.63.33 1.5 1.5 0 0 0 -.2.9z"/><path d="m18.44 22.79h.71l.06.66a1.57 1.57 0 0 1 .48-.56 1 1 0 0 1 1-.11l-.15.75-.18-.05h-.21a.75.75 0 0 0 -.45.17 1.36 1.36 0 0 0 -.42.58v2.25h-.86z"/><path d="m22.78 21.18h.86v4.4a.34.34 0 0 0 .06.22.18.18 0 0 0 .13.06h.05.08l.11.65a1.12 1.12 0 0 1 -.45.07.76.76 0 0 1 -.66-.27 1.4 1.4 0 0 1 -.18-.76z"/><path d="m24.57 24.64a2.31 2.31 0 0 1 .14-.82 2 2 0 0 1 .39-.61 1.79 1.79 0 0 1 .56-.38 1.74 1.74 0 0 1 1.32 0 1.68 1.68 0 0 1 .94 1 2.1 2.1 0 0 1 .15.82 2.18 2.18 0 0 1 -.15.82 1.67 1.67 0 0 1 -.38.6 1.64 1.64 0 0 1 -.56.38 1.88 1.88 0 0 1 -1.32 0 1.64 1.64 0 0 1 -.56-.38 1.83 1.83 0 0 1 -.39-.6 2.39 2.39 0 0 1 -.14-.83zm.88 0a1.59 1.59 0 0 0 .23.89.74.74 0 0 0 .64.33.72.72 0 0 0 .63-.33 1.79 1.79 0 0 0 0-1.79.72.72 0 0 0 -.63-.33.74.74 0 0 0 -.64.33 1.58 1.58 0 0 0 -.23.9z"/><path d="m28.93 22.79h.71l.06.5a2.41 2.41 0 0 1 .54-.41 1.22 1.22 0 0 1 .67-.18 1 1 0 0 1 .86.38 1.87 1.87 0 0 1 .27 1.09v2.3h-.86v-2.19a1.16 1.16 0 0 0 -.14-.65.52.52 0 0 0 -.44-.18.73.73 0 0 0 -.42.11 2.32 2.32 0 0 0 -.42.34v2.57h-.86z"/><path d="m32.88 27.14a.75.75 0 0 1 .13-.43 1.37 1.37 0 0 1 .39-.36.92.92 0 0 1 -.23-.25.6.6 0 0 1 -.1-.37.59.59 0 0 1 .13-.39 1 1 0 0 1 .28-.29 1.2 1.2 0 0 1 -.33-.4 1.09 1.09 0 0 1 -.15-.65 1.25 1.25 0 0 1 .12-.56 1.21 1.21 0 0 1 .32-.42 1.36 1.36 0 0 1 .46-.25 1.67 1.67 0 0 1 .55-.09 1.36 1.36 0 0 1 .29 0l.25.06h1.32v.64h-.67a.87.87 0 0 1 .15.27 1 1 0 0 1 .06.35 1.27 1.27 0 0 1 -.11.54 1 1 0 0 1 -.3.39 1.11 1.11 0 0 1 -.44.24 1.63 1.63 0 0 1 -.55.08 1 1 0 0 1 -.24 0 1.25 1.25 0 0 1 -.26-.07.87.87 0 0 0 -.13.15.37.37 0 0 0 0 .2.28.28 0 0 0 .13.25.9.9 0 0 0 .47.09h.58a2 2 0 0 1 1 .21.74.74 0 0 1 .34.69.94.94 0 0 1 -.14.51 1.29 1.29 0 0 1 -.39.42 2.36 2.36 0 0 1 -.62.27 2.9 2.9 0 0 1 -.81.1 2.87 2.87 0 0 1 -.58-.07 1.66 1.66 0 0 1 -.49-.18 1 1 0 0 1 -.32-.3.82.82 0 0 1 -.11-.38zm.72-.14a.42.42 0 0 0 .25.39 1.48 1.48 0 0 0 .69.14 1.34 1.34 0 0 0 .73-.18.48.48 0 0 0 .27-.41.29.29 0 0 0 -.17-.29 1 1 0 0 0 -.48-.08h-.5a2.44 2.44 0 0 1 -.51 0 .59.59 0 0 0 -.28.43zm.85-2.25a.58.58 0 0 0 .45-.19.88.88 0 0 0 0-1.08.63.63 0 0 0 -.46-.2.62.62 0 0 0 -.45.19.88.88 0 0 0 0 1.09.58.58 0 0 0 .46.2z"/><path d="m11 30.29h.88l.58 1.92c.05.17.1.36.16.54l.15.56c.06-.19.11-.37.16-.56s.1-.37.16-.54l.58-1.92h.83l-1.23 3.71h-1z"/><path d="m14.88 32.14a2.09 2.09 0 0 1 .14-.81 1.71 1.71 0 0 1 .38-.61 1.56 1.56 0 0 1 .54-.38 1.6 1.6 0 0 1 .63-.14 1.69 1.69 0 0 1 .66.13 1.44 1.44 0 0 1 .48.36 1.74 1.74 0 0 1 .29.56 2.58 2.58 0 0 1 .09.7 2.1 2.1 0 0 1 0 .4h-2.37a1.23 1.23 0 0 0 .34.78 1.05 1.05 0 0 0 .74.27 1.63 1.63 0 0 0 .45-.07 2.58 2.58 0 0 0 .41-.2l.29.54a2.6 2.6 0 0 1 -.58.28 1.94 1.94 0 0 1 -.68.11 1.87 1.87 0 0 1 -.71-.13 1.58 1.58 0 0 1 -.58-.38 1.83 1.83 0 0 1 -.4-.55 2.3 2.3 0 0 1 -.12-.86zm2.46-.33a1.13 1.13 0 0 0 -.18-.69.65.65 0 0 0 -.57-.25.78.78 0 0 0 -.57.24 1.09 1.09 0 0 0 -.31.7z"/><path d="m18.92 28.68h.86v1.32.72a3.14 3.14 0 0 1 .51-.39 1.31 1.31 0 0 1 .67-.17 1 1 0 0 1 .86.38 1.87 1.87 0 0 1 .27 1.09v2.37h-.89v-2.22a1.16 1.16 0 0 0 -.14-.65.51.51 0 0 0 -.44-.18.73.73 0 0 0 -.42.11 2.72 2.72 0 0 0 -.42.34v2.6h-.86z"/><path d="m23.54 29.65a.54.54 0 0 1 -.38-.14.45.45 0 0 1 -.15-.35.48.48 0 0 1 .15-.36.53.53 0 0 1 .38-.13.55.55 0 0 1 .38.13.48.48 0 0 1 .15.36.45.45 0 0 1 -.15.35.56.56 0 0 1 -.38.14zm-.44.64h.9v3.71h-.9z"/><path d="m24.83 32.14a2.1 2.1 0 0 1 .15-.82 1.85 1.85 0 0 1 .4-.61 1.93 1.93 0 0 1 .59-.38 2.07 2.07 0 0 1 .7-.13 1.39 1.39 0 0 1 .63.13 1.48 1.48 0 0 1 .45.3l-.41.55a1.31 1.31 0 0 0 -.34-.18.71.71 0 0 0 -.32-.07.9.9 0 0 0 -.73.33 1.38 1.38 0 0 0 -.28.9 1.34 1.34 0 0 0 .33.84.86.86 0 0 0 .7.33 1 1 0 0 0 .42-.09 1.69 1.69 0 0 0 .34-.23l.36.55a1.76 1.76 0 0 1 -.58.36 2 2 0 0 1 -.63.11 2 2 0 0 1 -.7-.12 1.64 1.64 0 0 1 -.56-.38 1.67 1.67 0 0 1 -.35-.53 2.39 2.39 0 0 1 -.17-.86z"/><path d="m28.53 28.68h.87v4.4a.34.34 0 0 0 .06.22.17.17 0 0 0 .12.06h.06.08l.11.65a1.17 1.17 0 0 1 -.46.07.74.74 0 0 1 -.65-.27 1.4 1.4 0 0 1 -.19-.76z"/><path d="m30.33 32.14a2.09 2.09 0 0 1 .14-.81 1.71 1.71 0 0 1 .38-.61 1.56 1.56 0 0 1 .54-.38 1.6 1.6 0 0 1 .61-.14 1.69 1.69 0 0 1 .66.13 1.44 1.44 0 0 1 .48.36 1.74 1.74 0 0 1 .29.56 2.58 2.58 0 0 1 .09.7 1.45 1.45 0 0 1 0 .4h-2.35a1.23 1.23 0 0 0 .34.78 1.05 1.05 0 0 0 .74.27 1.63 1.63 0 0 0 .45-.07 2.58 2.58 0 0 0 .41-.2l.29.54a2.48 2.48 0 0 1 -.59.28 2 2 0 0 1 -1.38 0 1.58 1.58 0 0 1 -.58-.38 1.83 1.83 0 0 1 -.39-.6 2.3 2.3 0 0 1 -.13-.83zm2.46-.33a1.13 1.13 0 0 0 -.18-.69.65.65 0 0 0 -.57-.25.82.82 0 0 0 -.58.24 1.14 1.14 0 0 0 -.3.7z"/><path d="m34.4 33a2.21 2.21 0 0 0 .5.3 1.13 1.13 0 0 0 .52.11.71.71 0 0 0 .45-.12.42.42 0 0 0 .13-.29.29.29 0 0 0 -.07-.2.45.45 0 0 0 -.18-.15 1.46 1.46 0 0 0 -.25-.13l-.29-.11-.37-.16a1.46 1.46 0 0 1 -.33-.22 1 1 0 0 1 -.24-.29.88.88 0 0 1 -.09-.41 1 1 0 0 1 .36-.79 1.42 1.42 0 0 1 1-.31 1.74 1.74 0 0 1 .69.14 2.94 2.94 0 0 1 .53.3l-.4.53a2.65 2.65 0 0 0 -.39-.23 1 1 0 0 0 -.42-.09.56.56 0 0 0 -.4.12.37.37 0 0 0 -.14.29.32.32 0 0 0 .07.19.61.61 0 0 0 .17.14 1.33 1.33 0 0 0 .24.11l.29.11.38.15a2.39 2.39 0 0 1 .34.21 1 1 0 0 1 .24.32.83.83 0 0 1 .1.43 1 1 0 0 1 -.1.45 1 1 0 0 1 -.27.36 1.21 1.21 0 0 1 -.47.24 1.7 1.7 0 0 1 -.61.09 2 2 0 0 1 -.76-.14 2.34 2.34 0 0 1 -.64-.37z"/></g></svg>