<svg viewBox="0 0 48 48" xmlns="http://www.w3.org/2000/svg"><path d="m24 1.6a17.64 17.64 0 1 1 -17.64 17.64 17.66 17.66 0 0 1 17.64-17.64v-.23a17.88 17.88 0 1 0 17.88 17.87 17.91 17.91 0 0 0 -17.88-17.87z" fill="#4679bb"/><path d="m24 2.13a17.06 17.06 0 1 1 -17 17.05 17.06 17.06 0 0 1 17-17.05" fill="#4679bb"/><path d="m36.9 38.3h-25.8a1.26 1.26 0 0 0 -1.26 1.26v5.82a1.27 1.27 0 0 0 1.26 1.27h25.8a1.27 1.27 0 0 0 1.26-1.27v-5.83a1.26 1.26 0 0 0 -1.26-1.25z" fill="#fff" stroke="#272525" stroke-width=".53"/><path d="m16 40.47h2.37v.59h-1.67v1h1.41v.59h-1.41v1.15h1.73v.59h-2.43z"/><path d="m19.81 42.86-.87-1.41h.74l.32.55.14.25c0 .09.09.17.13.25 0-.08.07-.16.11-.25a2.72 2.72 0 0 0 .11-.25l.29-.55h.71l-.87 1.48.94 1.46h-.75l-.36-.58c0-.09-.09-.18-.14-.26l-.16-.26c-.05.08-.09.17-.13.25l-.13.27-.31.58h-.72z"/><path d="m21.85 42.92a1.67 1.67 0 0 1 .12-.65 1.51 1.51 0 0 1 .33-.49 1.35 1.35 0 0 1 .47-.3 1.5 1.5 0 0 1 .56-.1 1.28 1.28 0 0 1 .5.09 1.36 1.36 0 0 1 .36.25l-.33.43a1.05 1.05 0 0 0 -.24-.15.54.54 0 0 0 -.25-.06.74.74 0 0 0 -.59.27 1.26 1.26 0 0 0 0 1.42.71.71 0 0 0 .57.27.72.72 0 0 0 .33-.07 1.27 1.27 0 0 0 .27-.18l.29.44a1.67 1.67 0 0 1 -.46.28 1.51 1.51 0 0 1 -.5.09 1.47 1.47 0 0 1 -.56-.1 1.29 1.29 0 0 1 -.76-.78 1.94 1.94 0 0 1 -.11-.66z"/><path d="m24.54 42.92a1.71 1.71 0 0 1 .12-.65 1.31 1.31 0 0 1 .3-.48 1.43 1.43 0 0 1 .43-.31 1.32 1.32 0 0 1 .51-.1 1.29 1.29 0 0 1 .53.1 1 1 0 0 1 .38.28 1.37 1.37 0 0 1 .23.45 2 2 0 0 1 .08.56 1.42 1.42 0 0 1 0 .33h-1.91a1 1 0 0 0 .28.61.82.82 0 0 0 .59.22 1 1 0 0 0 .36-.06 1.25 1.25 0 0 0 .33-.16l.23.44a2.57 2.57 0 0 1 -.47.23 1.91 1.91 0 0 1 -.54.08 1.56 1.56 0 0 1 -.57-.1 1.41 1.41 0 0 1 -.46-.3 1.64 1.64 0 0 1 -.31-.49 1.84 1.84 0 0 1 -.11-.65zm2-.26a.88.88 0 0 0 -.15-.55.51.51 0 0 0 -.45-.2.66.66 0 0 0 -.47.19.88.88 0 0 0 -.24.56z"/><path d="m28.53 44.63v.93h-.69v-4.11h.57v.31a1.62 1.62 0 0 1 .41-.27 1 1 0 0 1 .48-.11 1.13 1.13 0 0 1 .49.1 1 1 0 0 1 .36.3 1.65 1.65 0 0 1 .23.48 2.35 2.35 0 0 1 .07.62 2 2 0 0 1 -.1.67 1.51 1.51 0 0 1 -.28.5 1.49 1.49 0 0 1 -.4.31 1.12 1.12 0 0 1 -.48.1.9.9 0 0 1 -.38-.08 1.38 1.38 0 0 1 -.37-.24zm0-1a1 1 0 0 0 .31.19.72.72 0 0 0 .28 0 .58.58 0 0 0 .49-.25 1.23 1.23 0 0 0 .2-.76 1.31 1.31 0 0 0 -.15-.69.54.54 0 0 0 -.49-.25 1 1 0 0 0 -.64.33z"/><path d="m31.38 42h-.38v-.51h.46l.08-.81h.58v.81h.75v.51h-.75v1.4c0 .34.14.51.41.51a.44.44 0 0 0 .16 0h.15l.12.51-.27.07a1.84 1.84 0 0 1 -.33 0 1.16 1.16 0 0 1 -.44-.07.88.88 0 0 1 -.28-.22 1 1 0 0 1 -.17-.34 1.88 1.88 0 0 1 -.05-.43z"/></svg>