<svg viewBox="0 0 48 48" xmlns="http://www.w3.org/2000/svg"><path d="m24 1.8a22.2 22.2 0 1 1 -22.2 22.2 22.21 22.21 0 0 1 22.2-22.2v-.3a22.5 22.5 0 1 0 22.5 22.5 22.52 22.52 0 0 0 -22.5-22.5z" fill="#4679bb"/><path d="m24 2.47a21.46 21.46 0 1 1 -21.45 21.46 21.45 21.45 0 0 1 21.45-21.46" fill="#4679bb"/><path d="m20 9.87c.22-.79.48-1.55.71-2.36a.11.11 0 0 0 -.06-.1.76.76 0 0 1 .28-1.45h1.31v.76h-1.15a.11.11 0 0 0 -.1.1s0 .05 0 .09c.24.15.39.3.39.56a2.3 2.3 0 0 1 0 .26c0 .08-.13.37-.13.37h5.07c.1-.24.21-.48.3-.74-.37-.1-.76-.21-1.15-.3a.18.18 0 0 1 -.15-.17.21.21 0 0 1 .2-.19h2.6a.75.75 0 0 1 -.73.75c-.1.21-.17.43-.26.65.31.6.63 1.2 1 1.78a2.55 2.55 0 0 1 1-.21 2.79 2.79 0 1 1 -2.78 3.06h-.32a1.05 1.05 0 0 1 -.46.66l.28.56h.43v.37h-.28a.3.3 0 0 1 -.21.1.25.25 0 0 1 -.2-.1h-.38v-.42h.36l-.23-.43a.88.88 0 0 1 -.37 0 1.1 1.1 0 0 1 -1.1-1.1 1.46 1.46 0 0 1 0-.31c-1.05-.73-2.11-1.44-3.18-2.19a2.63 2.63 0 0 1 -.09.3 2.71 2.71 0 0 1 1.08 2.22 2.79 2.79 0 1 1 -2.8-2.78 2.56 2.56 0 0 1 1 .21" fill="#fff"/><path d="m24.24 12.48a.74.74 0 0 0 .75.75.76.76 0 0 0 .77-.75.78.78 0 0 0 -.77-.77.75.75 0 0 0 -.75.77z" fill="#4679bb"/><path d="m20.4 11.15c0 .15-.1.32-.15.49a1.89 1.89 0 0 1 -1.25 1.1s0 0-.09 0a.28.28 0 0 1 -.26-.28.24.24 0 0 1 .11-.22 0 0 0 0 0 0 0 1.77 1.77 0 0 0 .71-.79c.07-.24.15-.48.22-.76a1.88 1.88 0 0 0 -.8-.17 2 2 0 1 0 2 2 2 2 0 0 0 -.49-1.37z" fill="#4679bb"/><path d="m25.74 11.64c.37-.92.74-1.83 1.1-2.75.24.43.46.88.71 1.33a2.76 2.76 0 0 0 -1.14 2h-.32a1 1 0 0 0 -.31-.54z" fill="#fff"/><path d="m27.94 11a1.92 1.92 0 0 0 -.71 1.21h1.34c-.2-.41-.41-.82-.63-1.21z" fill="#4679bb"/><path d="m29.41 12.35a.33.33 0 0 1 0 .13.29.29 0 0 1 -.28.28h-1.9a2 2 0 1 0 1.94-2.24 2.06 2.06 0 0 0 -.65.11c.3.56.6 1.12.89 1.72z" fill="#4679bb"/><path d="m24.37 11.53-.28-.53h-.44v-.38h.29a.33.33 0 0 1 .21-.09.27.27 0 0 1 .2.09h.38v.38h-.34a4.25 4.25 0 0 1 .21.43 1.06 1.06 0 0 1 .34-.06h.06c.35-.88.71-1.73 1.06-2.59h-5c0 .16-.1.33-.15.52l3.36 2.31s.08-.05.1-.08z" fill="#4679bb"/><path d="m25.74 11.64c.37-.93.76-1.85 1.1-2.75.2.41.45.88.71 1.33a2.66 2.66 0 0 0 -.78.86 3.2 3.2 0 0 0 -.38 1.1h-.39a.81.81 0 0 0 -.3-.56" fill="#4679bb"/><path d="m11.62 28.82a2.26 2.26 0 0 1 -.09-.71 2.33 2.33 0 0 1 2.31-2.32 2.11 2.11 0 0 1 .9.19 2 2 0 0 1 .73.5 2.81 2.81 0 0 1 .5.75 2.24 2.24 0 0 1 .19.9 2.67 2.67 0 0 1 -.11.71h14.17a2 2 0 0 1 -.1-.71 2.45 2.45 0 0 1 .19-.9 2.18 2.18 0 0 1 .51-.75 2.81 2.81 0 0 1 .72-.5 2.23 2.23 0 0 1 1.8 0 2 2 0 0 1 .74.5 2.3 2.3 0 0 1 .69 1.65 2.71 2.71 0 0 1 -.09.71l8-1.62v-7a2.37 2.37 0 0 0 -2.35-2.36h-33.71a.47.47 0 0 0 -.47.43l-.24 5.14a.48.48 0 0 0 -.49.49v3.95a.94.94 0 0 0 .93.94h5.21z" fill="#fff"/><g fill="#4679bb"><path d="m10.11 20.21a.47.47 0 0 0 -.47-.47h-1.38a.47.47 0 0 0 -.47.47v6.79a.45.45 0 0 0 .47.45h1.38a.47.47 0 0 0 .47-.45z"/><path d="m19.87 23a.47.47 0 0 1 -.46-.49v-2.32a.46.46 0 0 1 .46-.47h5.59a.48.48 0 0 1 .48.47v2.33a.48.48 0 0 1 -.48.49z"/><path d="m12.2 23a.49.49 0 0 1 -.49-.49v-2.32a.47.47 0 0 1 .49-.47h5.58a.48.48 0 0 1 .45.47v2.33a.46.46 0 0 1 -.45.47z"/><path d="m33.13 23a.49.49 0 0 0 .49-.49v-2.32a.48.48 0 0 0 -.49-.48h-5.58a.47.47 0 0 0 -.47.48v2.33a.48.48 0 0 0 .47.49z"/><path d="m35.22 23a.47.47 0 0 1 -.46-.49v-2.32a.46.46 0 0 1 .46-.47h4.65a1.38 1.38 0 0 1 1.38 1.39v1.4a.45.45 0 0 1 -.44.46z"/></g><path d="m13.82 26.26a1.85 1.85 0 1 1 -1.82 1.85 1.84 1.84 0 0 1 1.84-1.85" fill="#fff"/><path d="m13.82 27.19a.94.94 0 1 1 -.93.94.94.94 0 0 1 .93-.94" fill="#4679bb"/><path d="m32.42 26.26a1.86 1.86 0 1 1 -1.87 1.85 1.88 1.88 0 0 1 1.87-1.85z" fill="#fff"/><path d="m32.42 27.19a.92.92 0 0 1 .93.94.93.93 0 1 1 -.93-.94" fill="#4679bb"/></svg>