<svg viewBox="0 0 48 48" xmlns="http://www.w3.org/2000/svg"><path d="m24 1.8a22.2 22.2 0 1 1 -22.2 22.2 22.21 22.21 0 0 1 22.2-22.2v-.3a22.5 22.5 0 1 0 22.5 22.5 22.52 22.52 0 0 0 -22.5-22.5z" fill="#4679bb"/><path d="m24 2.47a21.46 21.46 0 1 1 -21.45 21.46 21.45 21.45 0 0 1 21.45-21.46" fill="#4679bb"/><path d="m11.62 28.84a2.26 2.26 0 0 1 -.09-.71 2.33 2.33 0 0 1 2.31-2.32 2.11 2.11 0 0 1 .9.19 2 2 0 0 1 .73.5 2.81 2.81 0 0 1 .5.75 2.24 2.24 0 0 1 .19.9 2.54 2.54 0 0 1 -.11.7h14.17a2 2 0 0 1 -.1-.71 2.45 2.45 0 0 1 .19-.9 2.18 2.18 0 0 1 .51-.75 2.81 2.81 0 0 1 .72-.5 2.23 2.23 0 0 1 1.8 0 2 2 0 0 1 .74.5 2.3 2.3 0 0 1 .69 1.65 2.71 2.71 0 0 1 -.09.71l8-1.62v-7a2.37 2.37 0 0 0 -2.35-2.36h-33.71a.47.47 0 0 0 -.47.43l-.24 5.14a.48.48 0 0 0 -.49.49v4a.94.94 0 0 0 .93.94h5.21z" fill="#fff"/><g fill="#4679bb"><path d="m10.11 20.23a.47.47 0 0 0 -.47-.47h-1.38a.47.47 0 0 0 -.47.47v6.77a.45.45 0 0 0 .47.45h1.38a.47.47 0 0 0 .47-.45z"/><path d="m19.87 23a.47.47 0 0 1 -.46-.49v-2.3a.46.46 0 0 1 .46-.47h5.59a.48.48 0 0 1 .48.47v2.33a.48.48 0 0 1 -.48.49z"/><path d="m12.2 23a.49.49 0 0 1 -.49-.49v-2.3a.47.47 0 0 1 .49-.47h5.58a.48.48 0 0 1 .45.47v2.33a.47.47 0 0 1 -.45.47z"/><path d="m33.13 23a.49.49 0 0 0 .49-.49v-2.3a.49.49 0 0 0 -.49-.49h-5.58a.47.47 0 0 0 -.47.49v2.33a.49.49 0 0 0 .47.49z"/><path d="m35.22 23a.47.47 0 0 1 -.46-.49v-2.3a.46.46 0 0 1 .46-.47h4.65a1.38 1.38 0 0 1 1.38 1.38v1.4a.45.45 0 0 1 -.44.47z"/></g><path d="m13.82 26.28a1.85 1.85 0 1 1 -1.82 1.85 1.84 1.84 0 0 1 1.84-1.85" fill="#fff"/><path d="m13.82 27.21a.94.94 0 1 1 -.93.94.92.92 0 0 1 .93-.94" fill="#4679bb"/><path d="m32.42 26.26a1.86 1.86 0 1 1 -1.87 1.85 1.9 1.9 0 0 1 1.87-1.85z" fill="#fff"/><path d="m32.42 27.21a.92.92 0 0 1 .93.94.93.93 0 0 1 -1.86 0 .92.92 0 0 1 .93-.94" fill="#4679bb"/><path d="m20 9.45c.22-.78.48-1.55.71-2.35a.11.11 0 0 0 -.09-.1.76.76 0 0 1 .28-1.45h1.31v.76h-1.14a.1.1 0 0 0 -.09.09.15.15 0 0 0 0 .1.63.63 0 0 1 .42.5 1.15 1.15 0 0 1 0 .26c0 .07-.13.37-.13.37h5.08c.09-.24.2-.48.29-.74-.37-.1-.76-.21-1.15-.3a.18.18 0 0 1 -.15-.17.21.21 0 0 1 .2-.19h2.6a.75.75 0 0 1 -.73.75c-.09.21-.17.43-.26.65.32.6.63 1.2 1 1.78a2.55 2.55 0 0 1 1-.21 2.79 2.79 0 1 1 0 5.57 2.82 2.82 0 0 1 -2.78-2.51h-.37a1.11 1.11 0 0 1 -.47.66l.28.56h.43v.37h-.24a.29.29 0 0 1 -.21.09.24.24 0 0 1 -.2-.09h-.39v-.37h.35c-.07-.15-.15-.28-.22-.43a1 1 0 0 1 -.38 0 1.1 1.1 0 0 1 -1.1-1.1 1.46 1.46 0 0 1 0-.31c-1.05-.73-2.11-1.44-3.18-2.19a2.63 2.63 0 0 1 -.09.3 2.7 2.7 0 0 1 1.14 2.25 2.79 2.79 0 1 1 -2.8-2.78 2.4 2.4 0 0 1 1 .2" fill="#fff"/><path d="m24.24 12.05a.74.74 0 0 0 .75.75.76.76 0 0 0 .77-.75.76.76 0 1 0 -1.52 0z" fill="#4679bb"/><path d="m20.38 10.74c0 .15-.1.32-.15.49a1.89 1.89 0 0 1 -1.23 1.1s0 0-.09 0a.28.28 0 0 1 -.26-.28.27.27 0 0 1 .11-.23s0 0 0 0a1.77 1.77 0 0 0 .71-.79c.07-.24.15-.48.22-.76a1.88 1.88 0 0 0 -.8-.17 2 2 0 1 0 2 2 1.87 1.87 0 0 0 -.51-1.36z" fill="#4679bb"/><path d="m25.72 11.21c.37-.92.74-1.83 1.1-2.75.24.43.47.88.71 1.33a2.76 2.76 0 0 0 -1.14 2h-.32a1 1 0 0 0 -.31-.54s-.04-.02-.04-.04z" fill="#fff"/><path d="m27.92 10.54a1.92 1.92 0 0 0 -.71 1.21h1.35c-.21-.39-.41-.8-.64-1.21z" fill="#4679bb"/><path d="m29.4 11.92a.61.61 0 0 1 0 .13.29.29 0 0 1 -.28.28h-1.91a2 2 0 1 0 1.94-2.24 2.06 2.06 0 0 0 -.65.11z" fill="#4679bb"/><path d="m24.35 11.12-.28-.56h-.44v-.38h.3a.33.33 0 0 1 .21-.09.27.27 0 0 1 .2.09h.38v.38h-.34a4.25 4.25 0 0 1 .21.43 0 0 0 0 0 0 0 1.06 1.06 0 0 1 .34-.06h.07c.35-.88.71-1.74 1.06-2.59h-5c0 .16-.09.33-.15.52l3.36 2.31z" fill="#4679bb"/><path d="m25.72 11.21c.37-.93.76-1.85 1.1-2.75.21.42.45.88.71 1.33a2.66 2.66 0 0 0 -.78.86 2.83 2.83 0 0 0 -.38 1.1h-.37a.92.92 0 0 0 -.32-.56" fill="#4679bb"/><path d="m19 36.08h-.49v-.61h.53l.1-.94h.67v.94h.88v.64h-.88v1.63c0 .41.16.61.48.61a.63.63 0 0 0 .19 0h.17l.14.59a1.35 1.35 0 0 1 -.32.09 1.53 1.53 0 0 1 -.38 0 1.29 1.29 0 0 1 -.51-.09.85.85 0 0 1 -.33-.26 1 1 0 0 1 -.19-.39 2 2 0 0 1 -.06-.51z" fill="#fff"/><path d="m21.12 38a1 1 0 0 1 .49-.85 3.83 3.83 0 0 1 1.54-.42.75.75 0 0 0 0-.26.53.53 0 0 0 -.11-.21.4.4 0 0 0 -.19-.15.6.6 0 0 0 -.29-.05 1.43 1.43 0 0 0 -.5.09 4 4 0 0 0 -.46.24l-.3-.54a4.21 4.21 0 0 1 .64-.31 2.19 2.19 0 0 1 .77-.13 1.16 1.16 0 0 1 1 .38 1.68 1.68 0 0 1 .31 1.1v2h-.66l-.06-.38a2.63 2.63 0 0 1 -.49.33 1.25 1.25 0 0 1 -.57.13 1 1 0 0 1 -.74-.28 1 1 0 0 1 -.38-.69zm.79-.06a.41.41 0 0 0 .13.34.66.66 0 0 0 .36.1.7.7 0 0 0 .38-.1 1.72 1.72 0 0 0 .37-.28v-.77a4.86 4.86 0 0 0 -.59.11 1.55 1.55 0 0 0 -.38.16.58.58 0 0 0 -.21.2.53.53 0 0 0 -.06.19z" fill="#fff"/><path d="m25.61 37.08-1-1.64h.87l.38.65.16.29.16.29c0-.09.08-.19.13-.29s.09-.2.13-.29l.33-.65h.83l-1 1.73 1.09 1.71h-.87l-.42-.68a3.07 3.07 0 0 0 -.17-.31l-.18-.3-.15.3-.15.31-.36.68h-.84z" fill="#fff"/><path d="m28.71 34.84a.53.53 0 0 1 -.36-.13.39.39 0 0 1 -.14-.33.42.42 0 0 1 .14-.33.48.48 0 0 1 .36-.13.48.48 0 0 1 .35.13.42.42 0 0 1 .14.33.39.39 0 0 1 -.14.33.52.52 0 0 1 -.35.13zm-.41.6h.8v3.44h-.8z" fill="#fff"/></svg>