<svg viewBox="0 0 48 48" xmlns="http://www.w3.org/2000/svg"><circle cx="24" cy="24" fill="#ed1c24" r="22.5"/><circle cx="24" cy="24" fill="#fff" r="18.03"/><circle cx="15.85" cy="27.32" r="1.52"/><circle cx="30.82" cy="27.32" r="1.52"/><circle cx="15.85" cy="27.32" fill="#fff" r=".76"/><circle cx="30.82" cy="27.32" fill="#fff" r=".76"/><path d="m32.63 27.8a1.91 1.91 0 0 0 .07-.47 1.88 1.88 0 0 0 -3.76 0 1.44 1.44 0 0 0 .06.47h-11.31a1.91 1.91 0 0 0 .07-.47 1.88 1.88 0 0 0 -3.76 0 1.44 1.44 0 0 0 .06.47h-4.06a.84.84 0 0 1 -.83-.88v-3c0-.33.38-.36.38-.36l.13-3.83c0-.74.58-.66.58-.66h27a1.92 1.92 0 0 1 1.74 1.84v5.65z"/><g fill="#fff"><path d="m19 23.19a.41.41 0 0 0 .41-.41v-1.78a.41.41 0 0 0 -.41-.42h-4.41a.41.41 0 0 0 -.41.42v1.78a.41.41 0 0 0 .41.41z"/><path d="m12.43 26.86a.41.41 0 0 0 .41-.42v-5.44a.41.41 0 0 0 -.41-.41h-1.06a.41.41 0 0 0 -.37.41v5.46a.41.41 0 0 0 .41.42z"/><path d="m25.22 23.19a.41.41 0 0 0 .41-.41v-1.78a.41.41 0 0 0 -.41-.42h-4.44a.41.41 0 0 0 -.41.42v1.78a.41.41 0 0 0 .41.41z"/><path d="m31.4 23.19a.41.41 0 0 0 .41-.41v-1.78a.41.41 0 0 0 -.41-.42h-4.4a.41.41 0 0 0 -.41.42v1.78a.41.41 0 0 0 .41.41z"/><path d="m37.5 23.19a.41.41 0 0 0 .42-.41v-1a1.17 1.17 0 0 0 -1.16-1.18h-3.66a.41.41 0 0 0 -.42.41v1.78a.41.41 0 0 0 .42.41h4.4z"/></g></svg>