<svg viewBox="0 0 48 48" xmlns="http://www.w3.org/2000/svg"><circle cx="24" cy="24" fill="#ed1c24" r="22.5"/><circle cx="24" cy="24" fill="#fff" r="18.03"/><path d="m24 6.12a17.88 17.88 0 1 1 -17.88 17.88 17.89 17.89 0 0 1 17.88-17.88" fill="#fff"/><path d="m15.71 22.63c.48-1.58.94-3.17 1.42-4.77v-.05a.18.18 0 0 0 -.11-.17 1.51 1.51 0 0 1 .56-2.9h2.61v1.5h-2.28a.2.2 0 0 0 -.17.18.16.16 0 0 0 .09.15 1.27 1.27 0 0 1 .79 1.14 1.26 1.26 0 0 1 -.09.54c0 .13-.24.78-.24.78h10.24c.2-.49.41-1 .63-1.47-.78-.2-1.55-.38-2.33-.59a.36.36 0 0 1 -.26-.37.37.37 0 0 1 .36-.38h5.27a1.51 1.51 0 0 1 -1.48 1.52l-.53 1.26c.64 1.19 1.29 2.41 1.93 3.62a5.38 5.38 0 0 1 2.09-.42 5.62 5.62 0 1 1 -5.59 6.18h-.62a2.14 2.14 0 0 1 -.91 1.3c.2.38.38.76.56 1.14h.89v.74h-.61a.59.59 0 0 1 -.44.2.51.51 0 0 1 -.42-.2h-.79v-.74h.72c-.15-.28-.3-.58-.46-.89a2.07 2.07 0 0 1 -.75.11 2.26 2.26 0 0 1 -2.24-2.24 2.39 2.39 0 0 1 .11-.65c-2.13-1.45-4.27-2.94-6.4-4.41-.05.18-.12.4-.18.61a5.54 5.54 0 0 1 2.19 4.44 5.61 5.61 0 1 1 -5.61-5.62 4.5 4.5 0 0 1 2 .38s0 0 0 0" fill="#221f1f"/><g fill="#fff"><path d="m24.3 27.85a1.48 1.48 0 0 0 1.48 1.48 1.5 1.5 0 0 0 1.52-1.48 1.5 1.5 0 1 0 -3 0z"/><path d="m16.52 25.19c-.1.31-.2.66-.3 1a3.63 3.63 0 0 1 -2.47 2.21.32.32 0 0 1 -.12 0 .57.57 0 0 1 -.56-.56.54.54 0 0 1 .23-.45l.09-.07a3.26 3.26 0 0 0 1.38-1.56c.15-.5.3-1 .48-1.52a3.69 3.69 0 0 0 -1.58-.35 3.94 3.94 0 1 0 3.93 3.93 4 4 0 0 0 -1.06-2.64z"/><path d="m27.32 26.16c.74-1.83 1.47-3.68 2.23-5.54.48.89.94 1.78 1.42 2.67a4 4 0 0 0 -2.3 4h-.67a2 2 0 0 0 -.64-1.08s-.03-.03-.04-.05z"/><path d="m31.74 24.81a3.83 3.83 0 0 0 -1.4 2.46v.05h2.74c-.43-.84-.88-1.67-1.32-2.53z"/><path d="m34.75 27.63a.59.59 0 0 1 0 .23.58.58 0 0 1 -.57.56h-3.82a3.93 3.93 0 1 0 3.89-4.52 4.08 4.08 0 0 0 -1.32.23c.58 1.17 1.19 2.33 1.82 3.5z"/><path d="m24.54 26c-.16-.36-.36-.74-.54-1.12h-.92v-.78h.64a.51.51 0 0 1 .4-.2.61.61 0 0 1 .41.2h.79v.76h-.71c.13.28.28.56.43.87h.05a2.21 2.21 0 0 1 .68-.12h.1c.7-1.74 1.42-3.5 2.13-5.27h-10.11c-.08.36-.2.73-.29 1.07 2.24 1.56 4.5 3.11 6.76 4.66a.35.35 0 0 0 .18-.07z"/></g></svg>