<svg viewBox="0 0 48 48" xmlns="http://www.w3.org/2000/svg"><path d="m24 1.5a22.5 22.5 0 1 1 -22.5 22.5 22.51 22.51 0 0 1 22.5-22.5" fill="#ed1c24"/><path d="m24 6a18 18 0 1 1 -18 18 18 18 0 0 1 18-18" fill="#fff"/><path d="m18.17 24.94a.63.63 0 0 0 -.49-.58 2.71 2.71 0 0 1 -1.68-.84l-2.55-2.63a4.35 4.35 0 0 0 -3.24-1.42h-1.45l-.23.2-.12.23v.23l.12.35v.49l-.09.53v.46l.08.46-.08.49.14.69-.1.4v.38.31l.08.31-.11.32.11.46-.11.61v.19.35l.15.35v.26l-.11.35v.23l.08.14-.08.32h2.09v-.27a2.31 2.31 0 1 1 4.61 0v.23l3-.23h9.81a2.28 2.28 0 1 1 4.55 0h5.49a1.66 1.66 0 0 0 1.68-1.68v-5.69a2.67 2.67 0 0 0 -2.29-2.67s-1.59-.26-3.35-.41c-2-.15-4-.15-4-.15s-1.91 0-3.77.2-3.66.38-3.66.38a2.72 2.72 0 0 0 -2.22 2.71v5.6a1.79 1.79 0 0 0 .34 1h-2.6v-2.7"/><path d="m8.96 20.68h2.37l2.7 2.81h-5.07z" fill="#fff"/><path d="m12.87 26.21a2 2 0 1 1 -2 2 2 2 0 0 1 2-2"/><path d="m12.87 27.19a1.07 1.07 0 1 1 -1.07 1.07 1.06 1.06 0 0 1 1.07-1.07" fill="#fff"/><path d="m30.3 26.21a2 2 0 1 1 -2 2 2 2 0 0 1 2-2"/><g fill="#fff"><path d="m30.3 27.19a1.07 1.07 0 1 1 -1.07 1.07 1.06 1.06 0 0 1 1.07-1.07"/><path d="m23.13 20.71v2.09a.31.31 0 0 0 .31.31h3a.31.31 0 0 0 .31-.31v-2.09a.31.31 0 0 0 -.31-.31h-3a.33.33 0 0 0 -.31.31"/><path d="m30.6 23.11h6.63a.29.29 0 0 0 .23-.3v-2.09a.28.28 0 0 0 -.23-.29h-6.63a.28.28 0 0 0 -.26.31v2.09a.27.27 0 0 0 .26.28"/></g></svg>