<svg viewBox="0 0 48 48" xmlns="http://www.w3.org/2000/svg"><circle cx="24" cy="24" fill="#ec1d24" r="22.5"/><circle cx="24" cy="24" fill="#fff" r="18.02"/><g fill="#1d1d1b"><path d="m20.09 10.9h.84l1.43 2.57.46 1c0-.24 0-.5-.06-.77a7.21 7.21 0 0 1 0-.79v-2h.77v4.58h-.83l-1.44-2.59-.47-1c0 .24 0 .49.06.76a7 7 0 0 1 0 .78v2h-.78z"/><path d="m24.39 13.76a2 2 0 0 1 .14-.76 1.39 1.39 0 0 1 .36-.57 1.54 1.54 0 0 1 .52-.35 1.58 1.58 0 0 1 .59-.08 1.63 1.63 0 0 1 .62.12 1.45 1.45 0 0 1 .52.35 1.64 1.64 0 0 1 .36.57 1.84 1.84 0 0 1 .14.76 1.81 1.81 0 0 1 -.14.76 1.64 1.64 0 0 1 -.36.57 1.33 1.33 0 0 1 -.52.35 1.63 1.63 0 0 1 -.62.12 1.58 1.58 0 0 1 -.61-.12 1.41 1.41 0 0 1 -.52-.35 1.39 1.39 0 0 1 -.36-.57 2 2 0 0 1 -.12-.8zm.83 0a1.46 1.46 0 0 0 .21.83.67.67 0 0 0 .59.31.69.69 0 0 0 .6-.31 1.46 1.46 0 0 0 .22-.83 1.49 1.49 0 0 0 -.22-.84.71.71 0 0 0 -.6-.31.69.69 0 0 0 -.59.31 1.49 1.49 0 0 0 -.21.84z"/><path d="m12.94 21.68h-.49v-.61l.55-.07.09-.94h.68v.94h.87v.64h-.87v1.63c0 .4.16.61.48.61a.57.57 0 0 0 .18 0l.18-.05.14.59a1.5 1.5 0 0 1 -.32.09 1.58 1.58 0 0 1 -.38 0 1.29 1.29 0 0 1 -.51-.09.88.88 0 0 1 -.34-.26 1.18 1.18 0 0 1 -.19-.39 2 2 0 0 1 -.06-.51z"/><path d="m15.35 21h.65l.05.61a1.43 1.43 0 0 1 .44-.52.9.9 0 0 1 .53-.17 1.09 1.09 0 0 1 .4.06l-.14.7h-.17-.11a.72.72 0 0 0 -.43.16 1.09 1.09 0 0 0 -.38.55v2.1h-.81z"/><path d="m17.63 23.55a.94.94 0 0 1 .48-.85 3.83 3.83 0 0 1 1.54-.42.75.75 0 0 0 0-.26.51.51 0 0 0 -.1-.21.45.45 0 0 0 -.19-.15.65.65 0 0 0 -.29-.05 1.39 1.39 0 0 0 -.5.09 4.16 4.16 0 0 0 -.47.24l-.29-.54a3.46 3.46 0 0 1 .64-.31 2.09 2.09 0 0 1 .76-.13 1.16 1.16 0 0 1 1 .38 1.68 1.68 0 0 1 .31 1.1v2h-.72l-.07-.38a2.63 2.63 0 0 1 -.49.33 1.25 1.25 0 0 1 -.57.13 1 1 0 0 1 -.74-.28 1 1 0 0 1 -.3-.69zm.78-.06a.43.43 0 0 0 .14.34.63.63 0 0 0 .35.1.76.76 0 0 0 .39-.1 2 2 0 0 0 .36-.28v-.77a5.27 5.27 0 0 0 -.59.11 1.73 1.73 0 0 0 -.38.16.68.68 0 0 0 -.21.2.53.53 0 0 0 -.06.24z"/><path d="m21.21 22.76a2 2 0 0 1 .14-.76 1.54 1.54 0 0 1 .38-.57 1.67 1.67 0 0 1 .55-.35 1.78 1.78 0 0 1 .65-.12 1.35 1.35 0 0 1 .59.11 1.81 1.81 0 0 1 .42.28l-.38.52a1.39 1.39 0 0 0 -.28-.19.67.67 0 0 0 -.31-.07.84.84 0 0 0 -.67.31 1.24 1.24 0 0 0 -.26.84 1.26 1.26 0 0 0 .25.83.81.81 0 0 0 .66.31.86.86 0 0 0 .39-.09 1.16 1.16 0 0 0 .32-.2l.34.51a2.18 2.18 0 0 1 -.54.33 1.73 1.73 0 0 1 -1.24 0 1.37 1.37 0 0 1 -.53-.35 1.49 1.49 0 0 1 -.35-.57 2 2 0 0 1 -.13-.77z"/><path d="m24.67 19.53h.79v3.09l1.29-1.62h.89l-1.18 1.4 1.3 2h-.88l-.88-1.4-.54.62v.88h-.79z"/><path d="m27.94 22.76a2.06 2.06 0 0 1 .13-.76 1.84 1.84 0 0 1 .35-.56 1.63 1.63 0 0 1 .51-.36 1.65 1.65 0 0 1 1.21 0 1.34 1.34 0 0 1 .44.34 1.43 1.43 0 0 1 .27.52 2.29 2.29 0 0 1 .09.66 1.83 1.83 0 0 1 0 .37h-2.22a1.11 1.11 0 0 0 .33.72 1 1 0 0 0 .69.26 1.1 1.1 0 0 0 .41-.07 1.5 1.5 0 0 0 .38-.19l.28.51a3.12 3.12 0 0 1 -.55.27 2.19 2.19 0 0 1 -.63.1 1.76 1.76 0 0 1 -.66-.12 1.61 1.61 0 0 1 -.9-.92 2 2 0 0 1 -.13-.77zm2.3-.31a1.08 1.08 0 0 0 -.17-.64.62.62 0 0 0 -.53-.23.76.76 0 0 0 -.54.22 1.09 1.09 0 0 0 -.29.65z"/><path d="m31.5 22.76a2.29 2.29 0 0 1 .12-.76 1.63 1.63 0 0 1 .33-.56 1.44 1.44 0 0 1 .46-.36 1.33 1.33 0 0 1 .59-.08 1 1 0 0 1 .49.1 1.93 1.93 0 0 1 .41.27v-.55-1.29h.81v4.95h-.71v-.38a2 2 0 0 1 -.44.33 1.13 1.13 0 0 1 -.54.13 1.28 1.28 0 0 1 -1-.47 2.1 2.1 0 0 1 -.52-1.33zm.83 0a1.5 1.5 0 0 0 .2.85.66.66 0 0 0 .58.29.93.93 0 0 0 .72-.38v-1.6a1.11 1.11 0 0 0 -.35-.23 1.07 1.07 0 0 0 -.35-.06.73.73 0 0 0 -.57.29 1.38 1.38 0 0 0 -.23.83z"/><path d="m11.61 30h.82l.57 1.82c0 .17.09.34.14.51s.1.35.14.53l.15-.53c0-.17.09-.34.14-.51l.56-1.82h.78l-1.17 3.44h-.93z"/><path d="m15.24 31.76a2.06 2.06 0 0 1 .13-.76 1.84 1.84 0 0 1 .35-.56 1.63 1.63 0 0 1 .51-.36 1.52 1.52 0 0 1 .59-.12 1.45 1.45 0 0 1 .61.11 1.28 1.28 0 0 1 .45.34 1.43 1.43 0 0 1 .27.52 2.29 2.29 0 0 1 .09.66 1.26 1.26 0 0 1 0 .37h-2.24a1.11 1.11 0 0 0 .33.72 1 1 0 0 0 .69.26 1.1 1.1 0 0 0 .41-.07 1.5 1.5 0 0 0 .38-.19l.28.51a3.12 3.12 0 0 1 -.55.27 2.19 2.19 0 0 1 -.63.1 1.76 1.76 0 0 1 -.66-.12 1.61 1.61 0 0 1 -.9-.92 2 2 0 0 1 -.11-.76zm2.3-.31a1.08 1.08 0 0 0 -.17-.64.63.63 0 0 0 -.53-.23.73.73 0 0 0 -.54.22 1.09 1.09 0 0 0 -.29.65z"/><path d="m19 28.53h.8v1.28.66a3 3 0 0 1 .48-.36 1.21 1.21 0 0 1 .62-.15.91.91 0 0 1 .8.35 1.69 1.69 0 0 1 .25 1v2.16h-.8v-2.05a1 1 0 0 0 -.13-.6.48.48 0 0 0 -.41-.17.69.69 0 0 0 -.4.11 2.3 2.3 0 0 0 -.39.32v2.4h-.82z"/><path d="m23.32 29.44a.57.57 0 0 1 -.36-.13.42.42 0 0 1 -.14-.33.45.45 0 0 1 .14-.33.52.52 0 0 1 .36-.13.48.48 0 0 1 .36.13.45.45 0 0 1 .14.33.42.42 0 0 1 -.14.33.53.53 0 0 1 -.36.13zm-.4.6h.8v3.44h-.8z"/><path d="m24.53 31.76a1.84 1.84 0 0 1 .14-.76 1.65 1.65 0 0 1 .37-.57 1.77 1.77 0 0 1 .55-.35 1.84 1.84 0 0 1 .66-.12 1.31 1.31 0 0 1 .58.11 1.68 1.68 0 0 1 .43.28l-.39.52a1.16 1.16 0 0 0 -.28-.19.6.6 0 0 0 -.3-.07.86.86 0 0 0 -.68.31 1.3 1.3 0 0 0 -.26.84 1.27 1.27 0 0 0 .26.83.81.81 0 0 0 .66.31.86.86 0 0 0 .39-.09 1.32 1.32 0 0 0 .32-.2l.33.51a1.87 1.87 0 0 1 -.54.33 1.71 1.71 0 0 1 -.59.11 1.75 1.75 0 0 1 -.65-.12 1.44 1.44 0 0 1 -.53-.35 1.62 1.62 0 0 1 -.35-.57 2.2 2.2 0 0 1 -.12-.76z"/><path d="m28 28.53h.81v4.11a.34.34 0 0 0 .05.2.17.17 0 0 0 .12.06h.13l.1.6a1 1 0 0 1 -.42.07.69.69 0 0 1 -.61-.26 1.22 1.22 0 0 1 -.18-.71z"/><path d="m29.66 31.76a2.06 2.06 0 0 1 .13-.76 1.84 1.84 0 0 1 .35-.56 1.63 1.63 0 0 1 .51-.36 1.52 1.52 0 0 1 .59-.12 1.45 1.45 0 0 1 .61.11 1.28 1.28 0 0 1 .45.34 1.43 1.43 0 0 1 .27.52 2.29 2.29 0 0 1 .09.66 1.26 1.26 0 0 1 0 .37h-2.22a1.11 1.11 0 0 0 .33.72 1 1 0 0 0 .69.26 1.14 1.14 0 0 0 .41-.07 1.5 1.5 0 0 0 .38-.19l.28.51a3.12 3.12 0 0 1 -.55.27 2.19 2.19 0 0 1 -.63.1 1.76 1.76 0 0 1 -.66-.12 1.61 1.61 0 0 1 -.9-.92 2 2 0 0 1 -.13-.76zm2.3-.31a1.08 1.08 0 0 0 -.17-.64.63.63 0 0 0 -.53-.23.73.73 0 0 0 -.54.22 1.09 1.09 0 0 0 -.29.65z"/><path d="m33.46 32.57a2.58 2.58 0 0 0 .46.28 1.18 1.18 0 0 0 .5.1.61.61 0 0 0 .41-.12.35.35 0 0 0 .13-.29.33.33 0 0 0 -.06-.19.61.61 0 0 0 -.17-.14l-.24-.12-.26-.09-.35-.14a1.69 1.69 0 0 1 -.31-.21 1 1 0 0 1 -.22-.27.76.76 0 0 1 -.09-.38.91.91 0 0 1 .34-.74 1.36 1.36 0 0 1 .91-.28 1.67 1.67 0 0 1 .65.12 2.63 2.63 0 0 1 .5.29l-.38.49a2.32 2.32 0 0 0 -.36-.22 1.09 1.09 0 0 0 -.39-.08.57.57 0 0 0 -.38.11.37.37 0 0 0 -.13.27.28.28 0 0 0 .06.18.7.7 0 0 0 .16.13l.23.1.27.1.35.15a1.32 1.32 0 0 1 .32.2 1 1 0 0 1 .23.29.86.86 0 0 1 .09.41 1 1 0 0 1 -.09.41 1.06 1.06 0 0 1 -.26.34 1.39 1.39 0 0 1 -.42.23 2 2 0 0 1 -.57.08 1.9 1.9 0 0 1 -.7-.14 1.92 1.92 0 0 1 -.6-.34z"/></g></svg>