<svg viewBox="0 0 48 48" xmlns="http://www.w3.org/2000/svg"><path d="m9 44a2.51 2.51 0 0 0 2.51 2.5h25a2.51 2.51 0 0 0 2.49-2.5v-40a2.51 2.51 0 0 0 -2.49-2.5h-25a2.51 2.51 0 0 0 -2.51 2.5z" fill="#4679bb"/><path d="m9.22 4a2.27 2.27 0 0 1 2.27-2.27h25a2.27 2.27 0 0 1 2.29 2.27v40a2.27 2.27 0 0 1 -2.27 2.26h-25a2.27 2.27 0 0 1 -2.29-2.26z" fill="#fff"/><path d="m10.29 4a1.18 1.18 0 0 1 1.18-1.19h25a1.19 1.19 0 0 1 1.23 1.19v40a1.19 1.19 0 0 1 -1.19 1.18h-25a1.2 1.2 0 0 1 -1.22-1.18z" fill="#4679bb"/><path d="m20.86 42.9v-25.19l-6.29 6.29v-9.43l9.44-9.45 9.42 9.45v9.43l-6.28-6.29v25.19z" fill="#fff"/></svg>