<svg viewBox="0 0 48 48" xmlns="http://www.w3.org/2000/svg"><path d="m24 1.8a22.2 22.2 0 1 1 -22.2 22.2 22.21 22.21 0 0 1 22.2-22.2v-.3a22.5 22.5 0 1 0 22.5 22.5 22.52 22.52 0 0 0 -22.5-22.5z" fill="#4679bb"/><path d="m24 2.47a21.46 21.46 0 1 1 -21.45 21.46 21.45 21.45 0 0 1 21.45-21.46" fill="#4679bb"/><path d="m18.68 31.15c.28-1 .61-2 .91-3a.1.1 0 0 0 -.07-.11 1 1 0 0 1 -.58-.88 1 1 0 0 1 .93-1h1.67v1h-1.46a.12.12 0 0 0 -.11.11.13.13 0 0 0 .05.11c.3.19.51.38.51.73a.93.93 0 0 1 -.06.34c0 .09-.17.48-.17.48h6.54a9.42 9.42 0 0 0 .37-1c-.48-.13-1-.26-1.47-.37a.22.22 0 0 1 -.19-.23.26.26 0 0 1 .26-.24h3.34a1 1 0 0 1 -.93 1c-.11.27-.22.55-.34.83.4.78.81 1.53 1.25 2.29a3.49 3.49 0 0 1 1.35-.26 3.58 3.58 0 1 1 -3.57 3.94h-.41a1.26 1.26 0 0 1 -.6.82c.12.25.25.47.36.73h.56v.47h-.37a.4.4 0 0 1 -.27.11.36.36 0 0 1 -.26-.11h-.48v-.47h.45c-.1-.19-.19-.35-.28-.56a1 1 0 0 1 -.47.08 1.42 1.42 0 0 1 -1.42-1.42 1.35 1.35 0 0 1 .06-.41c-1.35-.94-2.73-1.85-4.09-2.82a3.19 3.19 0 0 1 -.13.37 3.53 3.53 0 0 1 1.44 2.76 3.59 3.59 0 1 1 -3.61-3.59 4.42 4.42 0 0 1 1.33.3" fill="#fff"/><path d="m24.17 34.51a.94.94 0 0 0 .95 1 1 1 0 0 0 1-1 1 1 0 0 0 -1-1 1 1 0 0 0 -.95 1z" fill="#4679bb"/><path d="m19.22 32.81c-.06.21-.13.41-.21.64a2.31 2.31 0 0 1 -1.56 1.4s-.06 0-.12 0a.37.37 0 0 1 -.33-.36.28.28 0 0 1 .15-.28s0 0 .05 0a2.16 2.16 0 0 0 .9-1c.09-.3.19-.64.28-1a2.29 2.29 0 0 0 -1-.23 2.51 2.51 0 1 0 2.52 2.52 2.46 2.46 0 0 0 -.68-1.69z" fill="#4679bb"/><path d="m26.09 33.43c.47-1.18.95-2.33 1.42-3.53l.9 1.7a3.56 3.56 0 0 0 -1.46 2.54h-.41a1.36 1.36 0 0 0 -.41-.69s-.04 0-.04-.02z" fill="#fff"/><g fill="#4679bb"><path d="m28.91 32.57a2.46 2.46 0 0 0 -.9 1.57h1.74c-.28-.52-.54-1-.84-1.57z"/><path d="m30.82 34.34a1.22 1.22 0 0 1 0 .17.37.37 0 0 1 -.35.36h-2.47a2.51 2.51 0 1 0 2.5-2.87 2.65 2.65 0 0 0 -.84.15c.39.72.76 1.45 1.16 2.19z"/><path d="m24.34 33.3c-.12-.24-.25-.47-.36-.73h-.58v-.47h.39a.35.35 0 0 1 .53 0h.48v.47h-.43a4 4 0 0 1 .26.56 1.61 1.61 0 0 1 .47-.13h.08c.44-1.12.91-2.24 1.36-3.34h-6.46c-.06.22-.13.42-.21.67 1.44 1 2.88 2 4.34 3a.13.13 0 0 0 .13-.03z"/><path d="m26.09 33.43c.49-1.2 1-2.37 1.42-3.53.26.52.58 1.12.9 1.7a3.56 3.56 0 0 0 -1.48 2.52h-.43a1.18 1.18 0 0 0 -.41-.71"/></g><path d="m16.76 14.51a3.2 3.2 0 1 1 -3.2 3.2 3.19 3.19 0 0 1 3.2-3.2" fill="#fff"/><path d="m16.74 15.75a2 2 0 1 1 -2 2 2 2 0 0 1 2-2z" fill="#4679bb"/><path d="m16.74 16.49a1.22 1.22 0 1 1 -1.22 1.22 1.22 1.22 0 0 1 1.22-1.22z" fill="#fff"/><path d="m30.44 14.51a3.2 3.2 0 1 1 -3.19 3.2 3.19 3.19 0 0 1 3.19-3.2" fill="#fff"/><path d="m30.44 15.75a2 2 0 1 1 -2 2 2 2 0 0 1 2-2z" fill="#4679bb"/><path d="m30.44 16.49a1.22 1.22 0 1 1 0 2.43 1.21 1.21 0 0 1 -1.21-1.21 1.22 1.22 0 0 1 1.21-1.22z" fill="#fff"/><path d="m30.27 15.5.45 1.33-1.01.28-.44-1.33z" fill="#fff"/><path d="m17.67 17.32 1.57-2.58-1.03-.62-1.59 2.6z" fill="#fff"/><path d="m31.94 14.12a4 4 0 0 1 2.39 3.61h-1.33l-.65-1.73-2.15-.94-2.2 1.49v2.69h-2.79c-1.32 0-2.24 0-3.38 0a1.42 1.42 0 0 1 -1.51-1.55 3.63 3.63 0 0 0 -3.6-3.61h-.06v-1.28h.8a2.64 2.64 0 0 0 2-1l1.68-2.5c.21-.33.36-.14.3 0l-.67 2.82c-.09.36.34.58.67.24l.82-.76.88-1.48v-.12a.7.7 0 0 1 -.76-.64v-1h-.28a1.24 1.24 0 0 1 1.28-1.26 1.17 1.17 0 0 1 1.25 1.25c0 .64-.13.62-.24.81v.44a1.1 1.1 0 0 1 .41.08 9.29 9.29 0 0 1 1 .43 1.31 1.31 0 0 1 .39.3l1.57 1.64a1.43 1.43 0 0 1 .38 1.1h3.21c.43 0 .58.26.58.8v.17" fill="#fff"/><path d="m23.89 12.26-2.5 1.43 2 .82 1.38-1.38a2.3 2.3 0 0 1 -.88-.87z" fill="#4679bb"/><path d="m27.3 17a3.09 3.09 0 0 1 1.2-1.87c.09-.1.07-.21-.09-.21h-1.31v2.08a.1.1 0 0 0 .2 0z" fill="#4679bb"/></svg>