<svg viewBox="0 0 48 48" xmlns="http://www.w3.org/2000/svg"><circle cx="24" cy="24" fill="#fff" r="22.5" stroke="#0079c1"/><circle cx="24" cy="24" fill="#0079c1" r="21.64"/><path d="m30.72 30.26a1.29 1.29 0 0 0 2.57 0h1.71a1.29 1.29 0 0 0 2.57 0h1.85v-.61h3.12v-5.65l-1-4.17a1 1 0 0 0 -1-.81h-12.23l-.31-.35a.71.71 0 0 0 -.58-.25h-2.56l3.07-2.18-3.15-2.19v-.66a.53.53 0 0 0 -.53-.53h-.45a.52.52 0 0 0 -.53.53v.66l-3.18 2.19 3.07 2.18h-2.51a.71.71 0 0 0 -.58.25l-.36.38h-12.23a1 1 0 0 0 -1 .81l-1.03 4.14v5.62h3.12v.61h1.84a1.29 1.29 0 0 0 2.58 0h1.73a1.29 1.29 0 0 0 2.58 0z" fill="#fff"/><g fill="#0079c1"><path d="m20.57 24a.52.52 0 0 0 .52-.53v-2.36a.52.52 0 0 0 -.52-.53h-3.27a.52.52 0 0 0 -.53.53v2.39a.52.52 0 0 0 .53.53z"/><path d="m8.9 24a.52.52 0 0 0 .52-.53v-2.36a.52.52 0 0 0 -.52-.53l-.9.02a.58.58 0 0 0 -.55.51l-.63 2.39a.52.52 0 0 0 .52.53z"/><path d="m15.47 29a.52.52 0 0 0 .52-.53v-7.36a.52.52 0 0 0 -.52-.53h-1.47a.52.52 0 0 0 -.53.53v7.38a.52.52 0 0 0 .53.51z"/><path d="m12.36 29a.52.52 0 0 0 .53-.53v-7.36a.52.52 0 0 0 -.53-.53h-1.43a.52.52 0 0 0 -.53.53v7.38a.52.52 0 0 0 .53.53z"/><path d="m24 14.1 3.05 2.14-3.05 2.18-3.07-2.18z"/><path d="m27.42 24a.52.52 0 0 1 -.53-.53v-2.36a.52.52 0 0 1 .53-.53h3.27a.52.52 0 0 1 .52.53v2.39a.52.52 0 0 1 -.52.53z"/><path d="m39.09 24a.52.52 0 0 1 -.53-.53v-2.36a.52.52 0 0 1 .53-.53h.91c.47 0 .54.51.54.51l.63 2.39a.52.52 0 0 1 -.53.53z"/><path d="m32.52 29a.52.52 0 0 1 -.53-.53v-7.36a.52.52 0 0 1 .53-.53h1.48a.52.52 0 0 1 .53.53v7.38a.52.52 0 0 1 -.53.51z"/><path d="m35.62 29a.52.52 0 0 1 -.53-.53v-7.36a.52.52 0 0 1 .53-.53h1.44a.53.53 0 0 1 .53.53v7.38a.53.53 0 0 1 -.53.53z"/><path d="m25.62 24a.53.53 0 0 0 .53-.53v-2.36a.53.53 0 0 0 -.53-.53h-3.27a.52.52 0 0 0 -.53.53v2.39a.52.52 0 0 0 .53.53z"/></g></svg>