<svg viewBox="0 0 48 48" xmlns="http://www.w3.org/2000/svg"><path d="m46 35.13a2.88 2.88 0 0 1 -2.89 2.87h-38.22a2.88 2.88 0 0 1 -2.89-2.87v-22.26a2.88 2.88 0 0 1 2.89-2.87h38.22a2.88 2.88 0 0 1 2.89 2.87z" fill="#fff" stroke="#0079c1"/><path d="m44.63 35.13a1.53 1.53 0 0 1 -1.52 1.52h-38.22a1.53 1.53 0 0 1 -1.52-1.52v-22.26a1.53 1.53 0 0 1 1.52-1.52h38.22a1.53 1.53 0 0 1 1.52 1.52z" fill="#0079c1"/><g fill="#fff"><path d="m6.69 14.38h.87v2.82a2.51 2.51 0 0 0 .08.67 1 1 0 0 0 .2.44.79.79 0 0 0 .31.24 1 1 0 0 0 .4.07 1.16 1.16 0 0 0 .45-.07.82.82 0 0 0 .32-.24 1.13 1.13 0 0 0 .21-.44 2.55 2.55 0 0 0 .07-.67v-2.82h.84v2.76a3.85 3.85 0 0 1 -.13 1 1.89 1.89 0 0 1 -.37.69 1.39 1.39 0 0 1 -.59.39 2 2 0 0 1 -.77.13 2 2 0 0 1 -.76-.13 1.39 1.39 0 0 1 -.59-.39 1.75 1.75 0 0 1 -.37-.69 3.47 3.47 0 0 1 -.14-1z"/><path d="m11.63 15.61h.71l.06.49a3 3 0 0 1 .54-.41 1.22 1.22 0 0 1 .67-.17 1 1 0 0 1 .86.37 1.89 1.89 0 0 1 .3 1.11v2.31h-.86v-2.2a1.12 1.12 0 0 0 -.14-.64.49.49 0 0 0 -.44-.19.82.82 0 0 0 -.42.11 3.5 3.5 0 0 0 -.42.35v2.57h-.86z"/><path d="m15.94 18.31a3 3 0 0 0 .49.31 1.36 1.36 0 0 0 .53.11.66.66 0 0 0 .44-.13.39.39 0 0 0 .15-.32.37.37 0 0 0 -.07-.2l-.18-.15a1.57 1.57 0 0 0 -.26-.12l-.28-.12a3.76 3.76 0 0 1 -.37-.16 1.85 1.85 0 0 1 -.33-.21 1.13 1.13 0 0 1 -.24-.3.85.85 0 0 1 -.1-.4 1 1 0 0 1 .36-.8 1.5 1.5 0 0 1 1-.3 1.73 1.73 0 0 1 .69.13 2.46 2.46 0 0 1 .53.31l-.4.52a2.65 2.65 0 0 0 -.39-.23 1.16 1.16 0 0 0 -.42-.08.67.67 0 0 0 -.41.11.41.41 0 0 0 -.13.29.25.25 0 0 0 .07.19.44.44 0 0 0 .16.14l.22.1.29.1.37.15a1.33 1.33 0 0 1 .34.22.84.84 0 0 1 .25.31 1 1 0 0 1 .09.44 1 1 0 0 1 -.09.44 1 1 0 0 1 -.25.34 1.22 1.22 0 0 1 -.45.25 2 2 0 0 1 -.62.09 2 2 0 0 1 -.75-.15 2.61 2.61 0 0 1 -.64-.36z"/><path d="m19.17 15.61h.83v2.19a1.17 1.17 0 0 0 .13.65.52.52 0 0 0 .44.19.74.74 0 0 0 .42-.12 1.78 1.78 0 0 0 .39-.39v-2.52h.87v3.68h-.71l-.07-.54a2.23 2.23 0 0 1 -.52.46 1.3 1.3 0 0 1 -.66.17 1 1 0 0 1 -.87-.38 1.83 1.83 0 0 1 -.27-1.08z"/><path d="m23.89 15a.55.55 0 0 1 -.38-.13.46.46 0 0 1 -.15-.36.45.45 0 0 1 .15-.35.51.51 0 0 1 .38-.14.5.5 0 0 1 .38.14.45.45 0 0 1 .15.35.46.46 0 0 1 -.15.36.53.53 0 0 1 -.38.13zm-.43.65h.86v3.68h-.86z"/><path d="m25.62 16.29h-.52v-.65h.57l.1-1h.72v1h.94v.68h-.94v1.68c0 .43.18.65.52.65h.2l.18-.06.15.63a2.31 2.31 0 0 1 -.34.1 2.48 2.48 0 0 1 -.41 0 1.27 1.27 0 0 1 -.54-.1.9.9 0 0 1 -.36-.27 1.17 1.17 0 0 1 -.2-.42 2.36 2.36 0 0 1 -.07-.55z"/><path d="m28 18.3a1 1 0 0 1 .52-.92 4.24 4.24 0 0 1 1.65-.45 1.26 1.26 0 0 0 0-.27.56.56 0 0 0 -.12-.23.53.53 0 0 0 -.2-.16.71.71 0 0 0 -.31-.06 1.45 1.45 0 0 0 -.54.11 3.33 3.33 0 0 0 -.5.25l-.34-.57a3.17 3.17 0 0 1 .69-.34 2.17 2.17 0 0 1 .82-.14 1.26 1.26 0 0 1 1 .4 1.82 1.82 0 0 1 .33 1.19v2.18h-.71l-.06-.41a3 3 0 0 1 -.52.36 1.44 1.44 0 0 1 -.62.14 1.09 1.09 0 0 1 -.79-.3 1.06 1.06 0 0 1 -.3-.78zm.84-.07a.41.41 0 0 0 .15.36.54.54 0 0 0 .37.11.87.87 0 0 0 .42-.1 2.27 2.27 0 0 0 .39-.3v-.83a3.94 3.94 0 0 0 -.63.12 1.81 1.81 0 0 0 -.41.17.58.58 0 0 0 -.22.22.45.45 0 0 0 -.06.25z"/><path d="m32.16 14h.84v1.37.63a2.78 2.78 0 0 1 .51-.33 1.38 1.38 0 0 1 .56-.12 1.33 1.33 0 0 1 .61.13 1.18 1.18 0 0 1 .46.37 1.71 1.71 0 0 1 .29.59 3.07 3.07 0 0 1 .09.77 2.49 2.49 0 0 1 -.13.85 1.79 1.79 0 0 1 -.35.62 1.45 1.45 0 0 1 -.5.39 1.38 1.38 0 0 1 -.59.14 1.19 1.19 0 0 1 -.51-.12 1.82 1.82 0 0 1 -.5-.35l-.07.38h-.69zm.84 4.36a1.49 1.49 0 0 0 .38.24 1.27 1.27 0 0 0 .36.07.75.75 0 0 0 .61-.32 1.52 1.52 0 0 0 .25-1 1.59 1.59 0 0 0 -.19-.86.63.63 0 0 0 -.6-.31 1.21 1.21 0 0 0 -.81.41z"/><path d="m36.47 14h.86v4.4a.32.32 0 0 0 .06.22.18.18 0 0 0 .13.06h.13l.12.64a1.19 1.19 0 0 1 -.46.08.71.71 0 0 1 -.65-.28 1.3 1.3 0 0 1 -.19-.76z"/><path d="m38.34 17.45a2.09 2.09 0 0 1 .14-.81 1.8 1.8 0 0 1 .38-.61 1.83 1.83 0 0 1 .54-.38 1.58 1.58 0 0 1 .63-.13 1.69 1.69 0 0 1 .66.12 1.44 1.44 0 0 1 .48.36 1.85 1.85 0 0 1 .29.56 2.58 2.58 0 0 1 .09.7 2.22 2.22 0 0 1 0 .41h-2.37a1.23 1.23 0 0 0 .34.77 1.05 1.05 0 0 0 .74.27 1.33 1.33 0 0 0 .45-.07 1.93 1.93 0 0 0 .41-.2l.29.54a2.62 2.62 0 0 1 -.58.29 2.2 2.2 0 0 1 -.68.11 2.08 2.08 0 0 1 -.71-.13 1.88 1.88 0 0 1 -.58-.38 1.8 1.8 0 0 1 -.38-.61 2 2 0 0 1 -.14-.81zm2.46-.33a1.18 1.18 0 0 0 -.18-.69.67.67 0 0 0 -.57-.25.78.78 0 0 0 -.57.24 1.11 1.11 0 0 0 -.31.7z"/><path d="m13 22.18a1 1 0 0 0 -.41-.09c-.31 0-.46.2-.46.62v.4h.72v.68h-.72v3h-.86v-3h-.5v-.65h.5v-.39a2.26 2.26 0 0 1 .06-.53 1.2 1.2 0 0 1 .22-.42 1.19 1.19 0 0 1 .38-.27 1.52 1.52 0 0 1 .56-.1 2.21 2.21 0 0 1 .37 0l.3.09z"/><path d="m13.2 25a2.14 2.14 0 0 1 .15-.82 1.67 1.67 0 0 1 .38-.6 1.59 1.59 0 0 1 .56-.38 1.65 1.65 0 0 1 .71-.2 1.74 1.74 0 0 1 .67.13 1.47 1.47 0 0 1 .55.38 1.83 1.83 0 0 1 .39.6 2.14 2.14 0 0 1 .15.82 2.1 2.1 0 0 1 -.15.82 2 2 0 0 1 -.39.61 1.57 1.57 0 0 1 -.55.37 1.74 1.74 0 0 1 -.67.13 1.65 1.65 0 0 1 -.66-.13 1.71 1.71 0 0 1 -.56-.37 1.8 1.8 0 0 1 -.38-.61 2.1 2.1 0 0 1 -.2-.75zm.89 0a1.56 1.56 0 0 0 .23.89.72.72 0 0 0 .63.33.75.75 0 0 0 .64-.33 1.56 1.56 0 0 0 .23-.89 1.62 1.62 0 0 0 -.23-.9.75.75 0 0 0 -.64-.33.72.72 0 0 0 -.63.33 1.62 1.62 0 0 0 -.23.9z"/><path d="m17.64 23.11h.71l.06.65a1.52 1.52 0 0 1 .47-.55 1 1 0 0 1 .57-.19 1 1 0 0 1 .42.07l-.15.75h-.18-.2a.82.82 0 0 0 -.46.17 1.26 1.26 0 0 0 -.41.59v2.25h-.86z"/><path d="m21.75 23.11h.87l.45 1.89c0 .17.07.35.1.52l.09.54c0-.18.07-.36.11-.54l.12-.52.51-1.89h.79l.49 1.89c0 .17.09.35.13.52l.12.54.09-.54c0-.17.07-.35.1-.52l.44-1.91h.84l-.93 3.68h-1.07l-.43-1.72c0-.17-.08-.35-.11-.52s-.07-.36-.11-.55c0 .19-.07.38-.11.55s-.07.35-.11.53l-.42 1.71h-1z"/><path d="m28.24 22.46a.55.55 0 0 1 -.38-.13.46.46 0 0 1 -.15-.36.45.45 0 0 1 .15-.35.51.51 0 0 1 .38-.14.5.5 0 0 1 .38.14.45.45 0 0 1 .15.35.46.46 0 0 1 -.15.36.53.53 0 0 1 -.38.13zm-.43.65h.86v3.68h-.86z"/><path d="m29.62 25a2.55 2.55 0 0 1 .13-.81 2.12 2.12 0 0 1 .35-.61 1.66 1.66 0 0 1 .5-.38 1.33 1.33 0 0 1 .58-.13 1.19 1.19 0 0 1 .53.1 2.86 2.86 0 0 1 .44.3v-.59-1.39h.85v5.3h-.71l-.06-.4a2.06 2.06 0 0 1 -.47.35 1.26 1.26 0 0 1 -.57.14 1.34 1.34 0 0 1 -1.19-.51 2.22 2.22 0 0 1 -.38-1.37zm.89 0a1.6 1.6 0 0 0 .22.91.7.7 0 0 0 .62.32 1 1 0 0 0 .77-.42v-1.81a1.08 1.08 0 0 0 -.38-.24 1 1 0 0 0 -.37-.07.75.75 0 0 0 -.61.31 1.46 1.46 0 0 0 -.25.94z"/><path d="m33.91 25a2.29 2.29 0 0 1 .14-.81 2.18 2.18 0 0 1 .38-.61 1.75 1.75 0 0 1 .55-.38 1.51 1.51 0 0 1 .63-.13 1.69 1.69 0 0 1 .66.12 1.31 1.31 0 0 1 .47.36 1.49 1.49 0 0 1 .29.56 2.24 2.24 0 0 1 .1.7 1.53 1.53 0 0 1 0 .41h-2.38a1.23 1.23 0 0 0 .35.77 1 1 0 0 0 .74.27 1.33 1.33 0 0 0 .45-.07 1.87 1.87 0 0 0 .4-.2l.3.54a2.7 2.7 0 0 1 -.59.29 2.14 2.14 0 0 1 -.67.11 2.09 2.09 0 0 1 -.72-.13 1.73 1.73 0 0 1 -.57-.38 1.68 1.68 0 0 1 -.39-.61 2.21 2.21 0 0 1 -.14-.81zm2.47-.33a1.18 1.18 0 0 0 -.18-.69.7.7 0 0 0 -.57-.25.82.82 0 0 0 -.58.24 1.17 1.17 0 0 0 -.31.7z"/><path d="m10.71 30.61h.88l.59 1.91.15.55.15.56c.06-.19.11-.38.16-.56s.1-.37.16-.55l.58-1.91h.84l-1.22 3.68h-1z"/><path d="m14.67 32.45a2.09 2.09 0 0 1 .15-.81 1.8 1.8 0 0 1 .38-.64 1.6 1.6 0 0 1 .54-.38 1.51 1.51 0 0 1 .63-.13 1.69 1.69 0 0 1 .66.12 1.44 1.44 0 0 1 .48.36 1.64 1.64 0 0 1 .28.56 2.24 2.24 0 0 1 .1.7 1.53 1.53 0 0 1 0 .41h-2.38a1.23 1.23 0 0 0 .35.77 1.05 1.05 0 0 0 .74.27 1.33 1.33 0 0 0 .45-.07 1.93 1.93 0 0 0 .41-.2l.29.54a2.7 2.7 0 0 1 -.59.29 2.14 2.14 0 0 1 -.67.11 2 2 0 0 1 -.71-.13 1.77 1.77 0 0 1 -.58-.38 1.82 1.82 0 0 1 -.39-.61 2.21 2.21 0 0 1 -.14-.78zm2.47-.33a1.18 1.18 0 0 0 -.18-.69.67.67 0 0 0 -.57-.25.82.82 0 0 0 -.58.24 1.16 1.16 0 0 0 -.3.7z"/><path d="m18.79 29h.86v1.37.71a4.15 4.15 0 0 1 .52-.39 1.29 1.29 0 0 1 .66-.16 1 1 0 0 1 .86.37 1.89 1.89 0 0 1 .24 1.1v2.31h-.86v-2.2a1.13 1.13 0 0 0 -.13-.64.51.51 0 0 0 -.45-.19.82.82 0 0 0 -.42.11 3.5 3.5 0 0 0 -.42.35v2.57h-.86z"/><path d="m23.49 30a.56.56 0 0 1 -.39-.13.46.46 0 0 1 -.15-.36.45.45 0 0 1 .15-.35.52.52 0 0 1 .39-.14.51.51 0 0 1 .38.14.45.45 0 0 1 .15.35.46.46 0 0 1 -.15.36.55.55 0 0 1 -.38.13zm-.44.65h.86v3.68h-.86z"/><path d="m24.85 32.45a2.14 2.14 0 0 1 .15-.82 1.73 1.73 0 0 1 .41-.6 1.54 1.54 0 0 1 .59-.38 1.82 1.82 0 0 1 .7-.13 1.46 1.46 0 0 1 .62.12 1.66 1.66 0 0 1 .46.3l-.42.55a1.74 1.74 0 0 0 -.3-.2.68.68 0 0 0 -.32-.07.92.92 0 0 0 -.73.33 1.42 1.42 0 0 0 -.27.9 1.37 1.37 0 0 0 .27.89.88.88 0 0 0 .71.33 1 1 0 0 0 .42-.09 2 2 0 0 0 .34-.22l.36.55a2 2 0 0 1 -.58.35 1.76 1.76 0 0 1 -.63.12 1.82 1.82 0 0 1 -.7-.13 1.56 1.56 0 0 1 -.57-.37 1.78 1.78 0 0 1 -.37-.61 2.31 2.31 0 0 1 -.14-.82z"/><path d="m28.63 29h.86v4.4a.32.32 0 0 0 .06.22.19.19 0 0 0 .13.06h.14l.11.64a1.19 1.19 0 0 1 -.46.08.71.71 0 0 1 -.65-.28 1.3 1.3 0 0 1 -.19-.76z"/><path d="m30.5 32.45a2.29 2.29 0 0 1 .14-.81 2 2 0 0 1 .36-.64 1.83 1.83 0 0 1 .54-.38 1.58 1.58 0 0 1 .63-.13 1.69 1.69 0 0 1 .66.12 1.44 1.44 0 0 1 .48.36 1.65 1.65 0 0 1 .29.56 2.57 2.57 0 0 1 .1.7 2.09 2.09 0 0 1 0 .41h-2.36a1.23 1.23 0 0 0 .35.77 1 1 0 0 0 .74.27 1.23 1.23 0 0 0 .44-.07 1.73 1.73 0 0 0 .41-.2l.29.54a2.62 2.62 0 0 1 -.58.29 2.2 2.2 0 0 1 -.68.11 2.08 2.08 0 0 1 -.71-.13 1.88 1.88 0 0 1 -.58-.38 1.8 1.8 0 0 1 -.38-.61 2.21 2.21 0 0 1 -.14-.78zm2.5-.33a1.11 1.11 0 0 0 -.19-.69.66.66 0 0 0 -.56-.25.8.8 0 0 0 -.58.24 1.11 1.11 0 0 0 -.31.7z"/><path d="m34.65 33.31a2.72 2.72 0 0 0 .5.31 1.27 1.27 0 0 0 .52.11.71.71 0 0 0 .45-.13.42.42 0 0 0 .14-.32.31.31 0 0 0 -.07-.2.71.71 0 0 0 -.18-.15 1.45 1.45 0 0 0 -.25-.12l-.29-.12a3.76 3.76 0 0 1 -.37-.16 1.85 1.85 0 0 1 -.33-.21 1.13 1.13 0 0 1 -.24-.3.84.84 0 0 1 -.09-.4 1 1 0 0 1 .36-.8 1.47 1.47 0 0 1 1-.3 1.73 1.73 0 0 1 .69.13 2.46 2.46 0 0 1 .51.35l-.4.52a2.65 2.65 0 0 0 -.39-.23 1.16 1.16 0 0 0 -.42-.08.62.62 0 0 0 -.4.11.38.38 0 0 0 -.14.29.29.29 0 0 0 .07.19.47.47 0 0 0 .17.14l.24.12.29.1.37.15a1.59 1.59 0 0 1 .35.22.92.92 0 0 1 .24.31.87.87 0 0 1 .1.44.92.92 0 0 1 -.1.44 1 1 0 0 1 -.27.36 1.22 1.22 0 0 1 -.45.25 2 2 0 0 1 -.62.09 2 2 0 0 1 -.75-.15 2.61 2.61 0 0 1 -.64-.36z"/></g></svg>