<svg viewBox="0 0 48 48" xmlns="http://www.w3.org/2000/svg"><path d="m46.5 39.27a3 3 0 0 1 -3 3h-39a3 3 0 0 1 -3-3v-30.54a3 3 0 0 1 3-3h39a3 3 0 0 1 3 3z" fill="#fff" stroke="#0079c1"/><path d="m45.09 39.27a1.57 1.57 0 0 1 -1.58 1.57h-39a1.57 1.57 0 0 1 -1.58-1.57v-30.54a1.57 1.57 0 0 1 1.56-1.57h39a1.57 1.57 0 0 1 1.58 1.57z" fill="#0079c1"/><g fill="#fff"><path d="m7 10.5h.9v2.82a2.55 2.55 0 0 0 .1.68 1.39 1.39 0 0 0 .2.44.82.82 0 0 0 .32.24 1.24 1.24 0 0 0 .4.07 1.3 1.3 0 0 0 .41-.07.7.7 0 0 0 .32-.24 1 1 0 0 0 .18-.44 2.16 2.16 0 0 0 .08-.67v-2.83h.83v2.75a3.78 3.78 0 0 1 -.12 1 1.74 1.74 0 0 1 -.38.7 1.36 1.36 0 0 1 -.58.39 2.3 2.3 0 0 1 -.77.13 2.34 2.34 0 0 1 -.77-.13 1.36 1.36 0 0 1 -.58-.34 1.74 1.74 0 0 1 -.38-.7 3.4 3.4 0 0 1 -.13-1z"/><path d="m11.89 11.72h.71l.06.5a3 3 0 0 1 .54-.41 1.24 1.24 0 0 1 .67-.18 1 1 0 0 1 .86.38 1.87 1.87 0 0 1 .27 1.09v2.31h-.86v-2.2a1.17 1.17 0 0 0 -.13-.65.53.53 0 0 0 -.45-.18.73.73 0 0 0 -.42.11 3.3 3.3 0 0 0 -.42.34v2.58h-.86z"/><path d="m16.13 14.43a2.16 2.16 0 0 0 .49.3 1.17 1.17 0 0 0 .53.11.66.66 0 0 0 .44-.12.39.39 0 0 0 .14-.32.36.36 0 0 0 -.06-.2.65.65 0 0 0 -.18-.15 1.58 1.58 0 0 0 -.26-.13l-.23-.11-.37-.16a1.33 1.33 0 0 1 -.34-.22 1.37 1.37 0 0 1 -.24-.29.87.87 0 0 1 -.09-.4 1 1 0 0 1 .36-.8 1.49 1.49 0 0 1 1-.31 1.67 1.67 0 0 1 .69.14 2.32 2.32 0 0 1 .54.31l-.4.52a2.3 2.3 0 0 0 -.4-.23 1 1 0 0 0 -.41-.08.59.59 0 0 0 -.41.11.37.37 0 0 0 -.13.29.29.29 0 0 0 .06.19.61.61 0 0 0 .14.12 1.33 1.33 0 0 0 .24.11l.29.11a3 3 0 0 1 .38.15 1.52 1.52 0 0 1 .34.22 1 1 0 0 1 .25.31 1 1 0 0 1 .09.44 1.08 1.08 0 0 1 -.09.44 1.09 1.09 0 0 1 -.28.36 1.39 1.39 0 0 1 -.45.25 1.91 1.91 0 0 1 -.61.09 2 2 0 0 1 -.76-.15 2.81 2.81 0 0 1 -.64-.36z"/><path d="m19.29 11.72h.86v2.2a1.17 1.17 0 0 0 .13.65.52.52 0 0 0 .44.18.74.74 0 0 0 .42-.12 1.79 1.79 0 0 0 .4-.39v-2.52h.86v3.69h-.71l-.06-.54a2 2 0 0 1 -.52.45 1.21 1.21 0 0 1 -.66.18 1 1 0 0 1 -.86-.38 1.89 1.89 0 0 1 -.3-1.12z"/><path d="m23.93 11.08a.54.54 0 0 1 -.38-.14.44.44 0 0 1 -.15-.35.49.49 0 0 1 .15-.36.53.53 0 0 1 .38-.13.55.55 0 0 1 .38.13.49.49 0 0 1 .15.36.44.44 0 0 1 -.15.35.56.56 0 0 1 -.38.14zm-.44.64h.87v3.69h-.87z"/><path d="m25.58 12.41h-.52v-.65h.57l.11-1h.72v1h.93v.69h-.93v1.75c0 .43.17.65.51.65a.69.69 0 0 0 .2 0 .6.6 0 0 0 .19-.06l.15.64a1.62 1.62 0 0 1 -.35.09 1.68 1.68 0 0 1 -.4.05 1.46 1.46 0 0 1 -.55-.1.92.92 0 0 1 -.36-.28 1 1 0 0 1 -.2-.42 2.21 2.21 0 0 1 -.07-.54z"/><path d="m27.9 14.42a1 1 0 0 1 .51-.92 4.35 4.35 0 0 1 1.65-.45 1.18 1.18 0 0 0 0-.27.9.9 0 0 0 -.12-.24.5.5 0 0 0 -.2-.15.75.75 0 0 0 -.31-.06 1.41 1.41 0 0 0 -.54.11 3.33 3.33 0 0 0 -.5.25l-.39-.58a3.66 3.66 0 0 1 .69-.33 2.21 2.21 0 0 1 .82-.15 1.28 1.28 0 0 1 1 .41 1.84 1.84 0 0 1 .33 1.18v2.19h-.7l.01-.41a2.56 2.56 0 0 1 -.53.35 1.28 1.28 0 0 1 -.61.15 1.08 1.08 0 0 1 -.79-.3 1.06 1.06 0 0 1 -.32-.78zm.84-.07a.43.43 0 0 0 .14.36.66.66 0 0 0 .38.11.8.8 0 0 0 .41-.1 1.7 1.7 0 0 0 .39-.3v-.83a3.94 3.94 0 0 0 -.63.12 2 2 0 0 0 -.41.17.64.64 0 0 0 -.22.21.58.58 0 0 0 -.06.26z"/><path d="m32 10.11h.86v1.37.61a2.41 2.41 0 0 1 .5-.33 1.39 1.39 0 0 1 .56-.13 1.52 1.52 0 0 1 .62.13 1.27 1.27 0 0 1 .45.38 1.71 1.71 0 0 1 .29.59 3.06 3.06 0 0 1 .1.77 2.38 2.38 0 0 1 -.14.84 1.89 1.89 0 0 1 -.34.63 1.58 1.58 0 0 1 -.51.39 1.35 1.35 0 0 1 -.59.14 1.19 1.19 0 0 1 -.51-.12 1.64 1.64 0 0 1 -.49-.35l-.07.38h-.73zm.86 4.37a1.49 1.49 0 0 0 .38.24 1.23 1.23 0 0 0 .36.06.74.74 0 0 0 .62-.32 1.53 1.53 0 0 0 .24-.94 1.76 1.76 0 0 0 -.18-.87.67.67 0 0 0 -.61-.3 1.17 1.17 0 0 0 -.81.41z"/><path d="m36.21 10.11h.86v4.4a.34.34 0 0 0 .06.22.17.17 0 0 0 .12.06h.14l.11.64a1.12 1.12 0 0 1 -.46.08.76.76 0 0 1 -.65-.28 1.4 1.4 0 0 1 -.18-.76z"/><path d="m38 13.57a2.09 2.09 0 0 1 .14-.81 2 2 0 0 1 .38-.61 1.83 1.83 0 0 1 .54-.38 1.6 1.6 0 0 1 .63-.14 1.69 1.69 0 0 1 .66.13 1.44 1.44 0 0 1 .48.36 1.65 1.65 0 0 1 .29.56 2.58 2.58 0 0 1 .09.7 2.22 2.22 0 0 1 0 .41h-2.37a1.18 1.18 0 0 0 .35.77 1 1 0 0 0 .73.27 1.63 1.63 0 0 0 .45-.07 2.22 2.22 0 0 0 .41-.2l.29.54a2.6 2.6 0 0 1 -.58.28 2 2 0 0 1 -.68.12 1.87 1.87 0 0 1 -.71-.14 1.69 1.69 0 0 1 -.58-.37 1.8 1.8 0 0 1 -.38-.61 2.09 2.09 0 0 1 -.14-.81zm2.46-.33a1.13 1.13 0 0 0 -.18-.69.65.65 0 0 0 -.57-.25.8.8 0 0 0 -.57.24 1.09 1.09 0 0 0 -.31.7z"/><path d="m11.39 18.29a1 1 0 0 0 -.4-.09c-.31 0-.47.21-.47.63v.39h.72v.69h-.72v3h-.86v-3h-.5v-.65h.5v-.38a1.79 1.79 0 0 1 .07-.53 1 1 0 0 1 .21-.42.94.94 0 0 1 .38-.27 1.37 1.37 0 0 1 .56-.1 1.45 1.45 0 0 1 .37 0 1.26 1.26 0 0 1 .31.09z"/><path d="m11.57 21.07a2.31 2.31 0 0 1 .14-.82 2 2 0 0 1 .39-.61 1.79 1.79 0 0 1 .56-.38 1.74 1.74 0 0 1 1.32 0 1.68 1.68 0 0 1 .56.38 2 2 0 0 1 .39.61 2.11 2.11 0 0 1 .14.82 2.14 2.14 0 0 1 -.14.82 1.83 1.83 0 0 1 -.39.6 1.55 1.55 0 0 1 -.56.38 1.74 1.74 0 0 1 -1.32 0 1.64 1.64 0 0 1 -.56-.38 1.83 1.83 0 0 1 -.39-.6 2.35 2.35 0 0 1 -.14-.82zm.89 0a1.51 1.51 0 0 0 .23.89.72.72 0 0 0 .63.33.75.75 0 0 0 .68-.29 1.86 1.86 0 0 0 0-1.79.75.75 0 0 0 -.64-.33.72.72 0 0 0 -.63.33 1.5 1.5 0 0 0 -.27.86z"/><path d="m15.93 19.22h.71l.06.66a1.65 1.65 0 0 1 .47-.56 1.08 1.08 0 0 1 .57-.19 1 1 0 0 1 .42.08l-.16.79-.18-.05h-.2a.77.77 0 0 0 -.46.17 1.33 1.33 0 0 0 -.41.59v2.25h-.86z"/><path d="m20.26 17.61h.87v1.39.71a2.46 2.46 0 0 1 .51-.39 1.3 1.3 0 0 1 .66-.17 1 1 0 0 1 .87.38 1.87 1.87 0 0 1 .27 1.09v2.31h-.87v-2.2a1.17 1.17 0 0 0 -.13-.65.52.52 0 0 0 -.44-.18.79.79 0 0 0 -.43.11 2.7 2.7 0 0 0 -.41.34v2.58h-.87z"/><path d="m24.21 21.07a2.29 2.29 0 0 1 .14-.81 2 2 0 0 1 .38-.61 1.83 1.83 0 0 1 .54-.38 1.6 1.6 0 0 1 .63-.14 1.69 1.69 0 0 1 .66.13 1.44 1.44 0 0 1 .48.36 1.65 1.65 0 0 1 .29.56 2.57 2.57 0 0 1 .1.7 2.09 2.09 0 0 1 0 .41h-2.38a1.23 1.23 0 0 0 .35.77 1 1 0 0 0 .74.27 1.56 1.56 0 0 0 .44-.07 2.22 2.22 0 0 0 .41-.2l.29.54a2.6 2.6 0 0 1 -.58.28 2 2 0 0 1 -.7.12 1.87 1.87 0 0 1 -.71-.14 1.69 1.69 0 0 1 -.58-.37 1.8 1.8 0 0 1 -.38-.61 2.09 2.09 0 0 1 -.12-.81zm2.47-.33a1.07 1.07 0 0 0 -.19-.69.64.64 0 0 0 -.56-.25.8.8 0 0 0 -.58.24 1.09 1.09 0 0 0 -.31.7z"/><path d="m28 21.92a1 1 0 0 1 .52-.92 4.35 4.35 0 0 1 1.65-.45.8.8 0 0 0 0-.27.66.66 0 0 0 -.17-.28.59.59 0 0 0 -.2-.15.76.76 0 0 0 -.32-.06 1.4 1.4 0 0 0 -.53.11 2.92 2.92 0 0 0 -.5.25l-.32-.58a3.66 3.66 0 0 1 .69-.33 2.21 2.21 0 0 1 .82-.15 1.28 1.28 0 0 1 1 .41 1.84 1.84 0 0 1 .36 1.22v2.19h-.7l-.07-.41a2.56 2.56 0 0 1 -.53.35 1.28 1.28 0 0 1 -.61.15 1 1 0 0 1 -1.09-1.08zm.84-.07a.43.43 0 0 0 .15.36.63.63 0 0 0 .38.11.8.8 0 0 0 .41-.1 1.7 1.7 0 0 0 .39-.3v-.83a3.94 3.94 0 0 0 -.63.12 2 2 0 0 0 -.41.17.64.64 0 0 0 -.22.21.59.59 0 0 0 -.07.26z"/><path d="m31.63 19.22h.87l.59 1.92.15.54c0 .19.11.38.16.57l.15-.57c.05-.18.11-.36.16-.54l.59-1.92h.83l-1.25 3.69h-1z"/><path d="m35.84 23.7a.36.36 0 0 0 .14 0 .66.66 0 0 0 .47-.17 1.1 1.1 0 0 0 .27-.46l.07-.23-1.45-3.64h.88l.63 1.8c.06.16.11.33.16.51s.11.35.17.53c0-.17.09-.35.13-.53s.1-.34.14-.51l.55-1.78h.83l-1.33 3.85a4.24 4.24 0 0 1 -.25.56 2.07 2.07 0 0 1 -.31.43 1.62 1.62 0 0 1 -.41.27 1.44 1.44 0 0 1 -.53.09h-.26-.22l.16-.68z"/><path d="m14.52 31.07a.76.76 0 0 1 .14-.43 1.22 1.22 0 0 1 .39-.35.69.69 0 0 1 -.24-.24.74.74 0 0 1 -.09-.38.67.67 0 0 1 .12-.39 1.11 1.11 0 0 1 .28-.29 1.5 1.5 0 0 1 -.33-.4 1.09 1.09 0 0 1 -.15-.58 1.28 1.28 0 0 1 .12-.56 1.26 1.26 0 0 1 .78-.67 1.73 1.73 0 0 1 .56-.09 1.43 1.43 0 0 1 .29 0l.25.06h1.36v.64h-.68a.87.87 0 0 1 .15.27 1 1 0 0 1 .06.35 1.13 1.13 0 0 1 -.11.54 1.05 1.05 0 0 1 -.29.39 1.18 1.18 0 0 1 -.44.24 1.67 1.67 0 0 1 -.55.09h-.25a1.17 1.17 0 0 1 -.25-.07 1 1 0 0 0 -.14.15.4.4 0 0 0 0 .2.28.28 0 0 0 .13.25.85.85 0 0 0 .47.09h.65a2 2 0 0 1 1 .21.78.78 0 0 1 .34.7 1.06 1.06 0 0 1 -.14.51 1.26 1.26 0 0 1 -.39.41 2.36 2.36 0 0 1 -.62.27 3 3 0 0 1 -.82.1 2.93 2.93 0 0 1 -.61-.06 1.5 1.5 0 0 1 -.48-.18.93.93 0 0 1 -.32-.3.74.74 0 0 1 -.19-.48zm.72-.12a.43.43 0 0 0 .25.38 1.5 1.5 0 0 0 .7.14 1.28 1.28 0 0 0 .72-.18.49.49 0 0 0 .28-.41.29.29 0 0 0 -.17-.29 1.28 1.28 0 0 0 -.49-.08h-.53a2.27 2.27 0 0 1 -.5-.05.62.62 0 0 0 -.26.54zm.86-2.25a.62.62 0 0 0 .45-.2.76.76 0 0 0 .19-.55.73.73 0 0 0 -.19-.53.58.58 0 0 0 -.45-.19.65.65 0 0 0 -.46.18.77.77 0 0 0 -.19.54.76.76 0 0 0 .19.55.63.63 0 0 0 .46.2z"/><path d="m18.31 28.57a2.31 2.31 0 0 1 .14-.82 2 2 0 0 1 .39-.61 1.79 1.79 0 0 1 .56-.38 1.74 1.74 0 0 1 1.32 0 1.79 1.79 0 0 1 .56.38 2 2 0 0 1 .39.61 2.31 2.31 0 0 1 .14.82 2.35 2.35 0 0 1 -.14.82 1.83 1.83 0 0 1 -.39.6 1.64 1.64 0 0 1 -.56.38 1.74 1.74 0 0 1 -1.32 0 1.64 1.64 0 0 1 -.56-.38 1.83 1.83 0 0 1 -.39-.6 2.35 2.35 0 0 1 -.14-.82zm.89 0a1.59 1.59 0 0 0 .22.89.79.79 0 0 0 1.28 0 1.86 1.86 0 0 0 0-1.79.79.79 0 0 0 -1.28 0 1.58 1.58 0 0 0 -.22.9z"/><path d="m22.43 28.57a2.31 2.31 0 0 1 .14-.82 1.82 1.82 0 0 1 .39-.61 1.79 1.79 0 0 1 .56-.38 1.74 1.74 0 0 1 1.32 0 1.68 1.68 0 0 1 .94 1 2.1 2.1 0 0 1 .15.82 2.14 2.14 0 0 1 -.15.82 1.67 1.67 0 0 1 -.38.6 1.64 1.64 0 0 1 -.56.38 1.74 1.74 0 0 1 -1.32 0 1.64 1.64 0 0 1 -.52-.38 1.69 1.69 0 0 1 -.39-.6 2.35 2.35 0 0 1 -.18-.83zm.88 0a1.59 1.59 0 0 0 .23.89.74.74 0 0 0 .64.33.72.72 0 0 0 .63-.33 1.86 1.86 0 0 0 0-1.79.72.72 0 0 0 -.63-.33.74.74 0 0 0 -.64.33 1.58 1.58 0 0 0 -.23.9z"/><path d="m26.56 28.57a2.3 2.3 0 0 1 .13-.81 2.12 2.12 0 0 1 .35-.61 1.66 1.66 0 0 1 .5-.38 1.34 1.34 0 0 1 .58-.14 1.19 1.19 0 0 1 .53.11 1.91 1.91 0 0 1 .44.3v-.59-1.34h.86v5.3h-.71l-.06-.4a2 2 0 0 1 -.47.34 1.16 1.16 0 0 1 -.57.15 1.34 1.34 0 0 1 -1.14-.5 2.22 2.22 0 0 1 -.44-1.43zm.89 0a1.55 1.55 0 0 0 .22.91.7.7 0 0 0 .62.31 1 1 0 0 0 .77-.41v-1.73a1.49 1.49 0 0 0 -.38-.24 1.19 1.19 0 0 0 -.37-.06.75.75 0 0 0 -.61.31 1.46 1.46 0 0 0 -.25.9z"/><path d="m31.05 29.43a2.4 2.4 0 0 0 .49.3 1.2 1.2 0 0 0 .53.11.71.71 0 0 0 .45-.12.42.42 0 0 0 .14-.32.31.31 0 0 0 -.07-.2.45.45 0 0 0 -.18-.15 1.46 1.46 0 0 0 -.25-.13l-.29-.11-.37-.16a1.46 1.46 0 0 1 -.33-.22 1 1 0 0 1 -.24-.29.87.87 0 0 1 -.09-.4 1 1 0 0 1 .36-.8 1.47 1.47 0 0 1 1-.31 1.74 1.74 0 0 1 .69.14 2.46 2.46 0 0 1 .53.31l-.4.52a2.65 2.65 0 0 0 -.39-.23 1 1 0 0 0 -.42-.08.61.61 0 0 0 -.41.11.41.41 0 0 0 -.13.29.25.25 0 0 0 .07.19.61.61 0 0 0 .17.14 1.33 1.33 0 0 0 .24.11l.29.11a2.87 2.87 0 0 1 .37.15 1.33 1.33 0 0 1 .34.22.76.76 0 0 1 .25.31 1 1 0 0 1 .1.44 1.09 1.09 0 0 1 -.1.44 1 1 0 0 1 -.27.36 1.39 1.39 0 0 1 -.45.25 2 2 0 0 1 -.62.09 2 2 0 0 1 -.75-.15 2.61 2.61 0 0 1 -.64-.36z"/><path d="m11 34.22h.87l.59 1.92.15.54c.05.19.11.38.16.57l.15-.57c.05-.18.11-.36.16-.54l.59-1.92h.83l-1.25 3.69h-1z"/><path d="m14.86 36.07a2.29 2.29 0 0 1 .14-.81 2 2 0 0 1 .38-.61 1.75 1.75 0 0 1 .55-.38 1.52 1.52 0 0 1 .63-.14 1.69 1.69 0 0 1 .66.13 1.4 1.4 0 0 1 .47.36 1.49 1.49 0 0 1 .29.56 2.57 2.57 0 0 1 .1.7 1.53 1.53 0 0 1 0 .41h-2.38a1.23 1.23 0 0 0 .35.77 1 1 0 0 0 .74.27 1.5 1.5 0 0 0 .44-.07 2.22 2.22 0 0 0 .41-.2l.3.54a2.68 2.68 0 0 1 -.59.28 1.93 1.93 0 0 1 -1.39 0 1.56 1.56 0 0 1 -.57-.37 1.68 1.68 0 0 1 -.39-.61 2.29 2.29 0 0 1 -.14-.83zm2.47-.33a1.07 1.07 0 0 0 -.19-.69.64.64 0 0 0 -.56-.25.82.82 0 0 0 -.58.2 1.14 1.14 0 0 0 -.31.7z"/><path d="m18.9 32.61h.87v1.39.71a2.46 2.46 0 0 1 .51-.39 1.3 1.3 0 0 1 .66-.17 1 1 0 0 1 .87.38 1.87 1.87 0 0 1 .19 1.07v2.31h-.86v-2.2a1.17 1.17 0 0 0 -.13-.65.52.52 0 0 0 -.44-.18.77.77 0 0 0 -.43.11 2.7 2.7 0 0 0 -.41.34v2.58h-.83z"/><path d="m23.52 33.58a.56.56 0 0 1 -.38-.14.44.44 0 0 1 -.15-.35.49.49 0 0 1 .15-.36.55.55 0 0 1 .38-.13.56.56 0 0 1 .39.13.53.53 0 0 1 .15.36.47.47 0 0 1 -.15.35.56.56 0 0 1 -.39.14zm-.43.64h.91v3.69h-.86z"/><path d="m24.81 36.07a2.1 2.1 0 0 1 .15-.82 1.87 1.87 0 0 1 .41-.61 1.81 1.81 0 0 1 .59-.38 2 2 0 0 1 .7-.13 1.32 1.32 0 0 1 .62.13 1.66 1.66 0 0 1 .46.3l-.41.55a1.94 1.94 0 0 0 -.3-.2.75.75 0 0 0 -.33-.07.88.88 0 0 0 -.72.33 1.33 1.33 0 0 0 -.28.9 1.39 1.39 0 0 0 .3.93.88.88 0 0 0 .71.33 1 1 0 0 0 .42-.09 2.84 2.84 0 0 0 .34-.22l.36.54a1.87 1.87 0 0 1 -.58.36 1.76 1.76 0 0 1 -.63.12 2 2 0 0 1 -.7-.13 1.59 1.59 0 0 1 -.57-.38 1.65 1.65 0 0 1 -.37-.6 2.35 2.35 0 0 1 -.17-.86z"/><path d="m28.52 32.61h.86v4.39a.34.34 0 0 0 .06.22.18.18 0 0 0 .13.06h.13l.12.64a1.19 1.19 0 0 1 -.46.08.73.73 0 0 1 -.65-.28 1.32 1.32 0 0 1 -.19-.76z"/><path d="m30.31 36.07a2.29 2.29 0 0 1 .14-.81 2 2 0 0 1 .38-.61 1.75 1.75 0 0 1 .55-.38 1.51 1.51 0 0 1 .62-.14 1.74 1.74 0 0 1 .67.13 1.4 1.4 0 0 1 .47.36 1.49 1.49 0 0 1 .29.56 2.24 2.24 0 0 1 .1.7 1.53 1.53 0 0 1 0 .41h-2.38a1.23 1.23 0 0 0 .35.77 1 1 0 0 0 .74.27 1.5 1.5 0 0 0 .44-.07 2.22 2.22 0 0 0 .41-.2l.29.54a2.6 2.6 0 0 1 -.58.28 2 2 0 0 1 -.68.12 1.87 1.87 0 0 1 -.71-.14 1.69 1.69 0 0 1 -.58-.37 1.8 1.8 0 0 1 -.38-.61 2.29 2.29 0 0 1 -.14-.81zm2.47-.33a1.07 1.07 0 0 0 -.19-.69.64.64 0 0 0 -.59-.25.82.82 0 0 0 -.58.24 1.14 1.14 0 0 0 -.31.7z"/><path d="m34.39 36.93a2.16 2.16 0 0 0 .49.3 1.17 1.17 0 0 0 .53.11.66.66 0 0 0 .44-.12.39.39 0 0 0 .15-.32.37.37 0 0 0 -.07-.2.65.65 0 0 0 -.18-.15l-.26-.13-.28-.11-.37-.16a1.12 1.12 0 0 1 -.33-.22 1 1 0 0 1 -.24-.29.77.77 0 0 1 -.1-.4 1 1 0 0 1 .36-.8 1.49 1.49 0 0 1 1-.31 1.75 1.75 0 0 1 .7.14 2.46 2.46 0 0 1 .53.31l-.4.52a2.65 2.65 0 0 0 -.39-.23 1 1 0 0 0 -.42-.08.59.59 0 0 0 -.41.11.37.37 0 0 0 -.13.29.29.29 0 0 0 .06.19.79.79 0 0 0 .17.14 1.17 1.17 0 0 0 .25.11l.28.11a3 3 0 0 1 .38.15 1.52 1.52 0 0 1 .34.22.86.86 0 0 1 .25.31 1 1 0 0 1 .09.44 1.08 1.08 0 0 1 -.09.44 1.07 1.07 0 0 1 -.27.36 1.5 1.5 0 0 1 -.45.25 2 2 0 0 1 -.62.09 1.93 1.93 0 0 1 -.75-.15 2.61 2.61 0 0 1 -.64-.36z"/></g></svg>