<svg viewBox="0 0 48 48" xmlns="http://www.w3.org/2000/svg"><path d="m46.5 35a2.8 2.8 0 0 1 -2.8 2.81h-39.4a2.8 2.8 0 0 1 -2.8-2.81v-22a2.8 2.8 0 0 1 2.8-2.81h39.4a2.8 2.8 0 0 1 2.8 2.81z" fill="#fff" stroke="#0079c1"/><path d="m45.17 35a1.48 1.48 0 0 1 -1.47 1.5h-39.4a1.48 1.48 0 0 1 -1.47-1.5v-22a1.48 1.48 0 0 1 1.47-1.5h39.4a1.48 1.48 0 0 1 1.47 1.5z" fill="#0079c1"/><g fill="#fff"><path d="m6.81 13.83h.87v2.82a3.13 3.13 0 0 0 .07.67 1.2 1.2 0 0 0 .21.44.73.73 0 0 0 .31.24 1.24 1.24 0 0 0 .4.07 1.3 1.3 0 0 0 .41-.07.78.78 0 0 0 .33-.24 1.2 1.2 0 0 0 .21-.44 2.6 2.6 0 0 0 .07-.67v-2.82h.83v2.75a3.78 3.78 0 0 1 -.12 1 1.94 1.94 0 0 1 -.37.7 1.45 1.45 0 0 1 -.59.39 2.3 2.3 0 0 1 -.77.12 2.35 2.35 0 0 1 -.77-.12 1.42 1.42 0 0 1 -.58-.39 2 2 0 0 1 -.38-.7 3.75 3.75 0 0 1 -.13-1z"/><path d="m11.67 15.05h.71l.06.5a3.06 3.06 0 0 1 .53-.42 1.33 1.33 0 0 1 .67-.17 1 1 0 0 1 .86.38 1.76 1.76 0 0 1 .27 1.08v2.31h-.77v-2.19a1.17 1.17 0 0 0 -.13-.65.52.52 0 0 0 -.44-.19.75.75 0 0 0 -.43.12 2.7 2.7 0 0 0 -.41.34v2.57h-.87z"/><path d="m15.91 17.76a2.16 2.16 0 0 0 .49.3 1.32 1.32 0 0 0 .53.11.66.66 0 0 0 .44-.12.4.4 0 0 0 .14-.32.34.34 0 0 0 -.06-.2.65.65 0 0 0 -.18-.15 1.58 1.58 0 0 0 -.26-.13l-.28-.11-.37-.14a1.12 1.12 0 0 1 -.33-.22.89.89 0 0 1 -.24-.3.72.72 0 0 1 -.1-.4 1 1 0 0 1 .36-.79 1.44 1.44 0 0 1 .95-.29 1.67 1.67 0 0 1 .69.14 2.73 2.73 0 0 1 .54.3l-.4.53a2 2 0 0 0 -.39-.23 1.06 1.06 0 0 0 -.42-.09.59.59 0 0 0 -.41.12.36.36 0 0 0 -.13.29.31.31 0 0 0 .06.19.79.79 0 0 0 .17.14 1.17 1.17 0 0 0 .25.11l.28.11a3 3 0 0 1 .38.15 1.94 1.94 0 0 1 .34.21 1 1 0 0 1 .25.32.94.94 0 0 1 .09.43 1.13 1.13 0 0 1 -.09.45 1 1 0 0 1 -.28.36 1.37 1.37 0 0 1 -.45.24 1.91 1.91 0 0 1 -.61.09 2.12 2.12 0 0 1 -.75-.14 2.4 2.4 0 0 1 -.65-.37z"/><path d="m19.07 15.05h.86v2.2a1.23 1.23 0 0 0 .13.64.51.51 0 0 0 .44.19.74.74 0 0 0 .42-.12 1.61 1.61 0 0 0 .4-.39v-2.52h.86v3.68h-.7l-.07-.54a2.06 2.06 0 0 1 -.53.46 1.16 1.16 0 0 1 -.66.17 1 1 0 0 1 -.86-.37 1.89 1.89 0 0 1 -.27-1.09z"/><path d="m23.71 14.41a.56.56 0 0 1 -.38-.14.45.45 0 0 1 -.15-.35.48.48 0 0 1 .15-.36.59.59 0 0 1 .76 0 .48.48 0 0 1 .15.36.45.45 0 0 1 -.15.35.56.56 0 0 1 -.38.14zm-.44.64h.87v3.68h-.87z"/><path d="m25.37 15.73h-.53v-.64h.57l.11-1h.72v1h.93v.68h-.93v1.76c0 .43.17.64.51.64a.65.65 0 0 0 .2 0 .6.6 0 0 0 .19-.06l.15.64-.34.09a1.84 1.84 0 0 1 -.41 0 1.47 1.47 0 0 1 -.55-.09 1 1 0 0 1 -.56-.7 2.23 2.23 0 0 1 -.06-.54z"/><path d="m27.68 17.74a1 1 0 0 1 .51-.91 4 4 0 0 1 1.65-.45 1.27 1.27 0 0 0 0-.28 1 1 0 0 0 -.12-.23.53.53 0 0 0 -.2-.16.91.91 0 0 0 -.31-.05 1.4 1.4 0 0 0 -.54.1 3.4 3.4 0 0 0 -.5.26l-.31-.58a3.92 3.92 0 0 1 .68-.34 2.48 2.48 0 0 1 .82-.14 1.28 1.28 0 0 1 1 .41 1.84 1.84 0 0 1 .34 1.18v2.18h-.7l-.07-.4a2.32 2.32 0 0 1 -.53.35 1.25 1.25 0 0 1 -.61.14 1.11 1.11 0 0 1 -.79-.29 1.06 1.06 0 0 1 -.32-.79zm.84-.06a.46.46 0 0 0 .14.36.66.66 0 0 0 .38.11.81.81 0 0 0 .41-.11 1.7 1.7 0 0 0 .39-.3v-.82a3.94 3.94 0 0 0 -.63.12 1.37 1.37 0 0 0 -.4.17.59.59 0 0 0 -.23.21.58.58 0 0 0 -.06.26z"/><path d="m31.76 13.44h.86v1.36.62a1.81 1.81 0 0 1 .5-.33 1.27 1.27 0 0 1 .56-.13 1.38 1.38 0 0 1 .62.13 1.18 1.18 0 0 1 .45.38 1.55 1.55 0 0 1 .29.59 3 3 0 0 1 .1.77 2.74 2.74 0 0 1 -.13.84 2.11 2.11 0 0 1 -.35.63 1.58 1.58 0 0 1 -.51.39 1.34 1.34 0 0 1 -.59.13 1.19 1.19 0 0 1 -.56-.12 1.73 1.73 0 0 1 -.49-.34l-.08.37h-.68zm.86 4.36a1 1 0 0 0 .38.2.91.91 0 0 0 .35.07.77.77 0 0 0 .62-.32 1.56 1.56 0 0 0 .25-.95 1.71 1.71 0 0 0 -.22-.8.68.68 0 0 0 -.61-.31 1.19 1.19 0 0 0 -.81.42z"/><path d="m36 13.44h.86v4.39a.3.3 0 0 0 .06.22.16.16 0 0 0 .13.07h.05.08l.11.65a1.12 1.12 0 0 1 -.45.07.76.76 0 0 1 -.66-.27 1.4 1.4 0 0 1 -.18-.76z"/><path d="m37.78 16.9a2.29 2.29 0 0 1 .14-.81 1.86 1.86 0 0 1 .38-.61 1.66 1.66 0 0 1 .54-.38 1.6 1.6 0 0 1 .63-.14 1.53 1.53 0 0 1 .66.13 1.22 1.22 0 0 1 .48.36 1.6 1.6 0 0 1 .29.55 2.65 2.65 0 0 1 .1.71 2 2 0 0 1 0 .4h-2.38a1.24 1.24 0 0 0 .35.78 1 1 0 0 0 .74.27 1.23 1.23 0 0 0 .44-.08 1.69 1.69 0 0 0 .41-.19l.29.54a2.6 2.6 0 0 1 -.58.28 1.94 1.94 0 0 1 -.68.11 1.87 1.87 0 0 1 -.71-.13 1.72 1.72 0 0 1 -.58-.38 1.67 1.67 0 0 1 -.38-.6 2.29 2.29 0 0 1 -.14-.81zm2.47-.33a1.07 1.07 0 0 0 -.19-.69.64.64 0 0 0 -.56-.25.8.8 0 0 0 -.58.24 1.09 1.09 0 0 0 -.31.7z"/><path d="m7.8 21.62a1 1 0 0 0 -.4-.09c-.31 0-.47.21-.47.62v.4h.72v.68h-.72v3h-.86v-3h-.49v-.64h.49v-.38a1.79 1.79 0 0 1 .07-.53 1 1 0 0 1 .21-.42 1 1 0 0 1 .38-.26 1.37 1.37 0 0 1 .56-.1 1.45 1.45 0 0 1 .37 0 1.26 1.26 0 0 1 .34.1z"/><path d="m8 24.4a2.31 2.31 0 0 1 .14-.82 2 2 0 0 1 .37-.58 1.79 1.79 0 0 1 .56-.38 1.74 1.74 0 0 1 1.32 0 1.68 1.68 0 0 1 .61.38 2 2 0 0 1 .39.61 2.44 2.44 0 0 1 0 1.63 1.88 1.88 0 0 1 -.39.61 1.55 1.55 0 0 1 -.56.38 1.87 1.87 0 0 1 -1.32 0 1.64 1.64 0 0 1 -.56-.38 1.88 1.88 0 0 1 -.39-.61 2.29 2.29 0 0 1 -.17-.84zm.89 0a1.51 1.51 0 0 0 .23.89.72.72 0 0 0 .63.33.75.75 0 0 0 .64-.33 1.86 1.86 0 0 0 0-1.79.75.75 0 0 0 -.64-.33.72.72 0 0 0 -.63.33 1.5 1.5 0 0 0 -.25.9z"/><path d="m12.34 22.55h.71l.06.65a1.61 1.61 0 0 1 .47-.55 1 1 0 0 1 .58-.19.93.93 0 0 1 .41.08l-.14.75-.19-.05h-.2a.83.83 0 0 0 -.46.16 1.49 1.49 0 0 0 -.41.59v2.25h-.86z"/><path d="m16.8 23.23h-.52v-.64h.57l.1-1h.72v1h.94v.68h-.94v1.73c0 .43.17.64.52.64a.71.71 0 0 0 .2 0 .48.48 0 0 0 .18-.06l.15.64-.34.09a1.78 1.78 0 0 1 -.41 0 1.45 1.45 0 0 1 -.54-.09.92.92 0 0 1 -.36-.28 1.09 1.09 0 0 1 -.2-.42 1.81 1.81 0 0 1 -.07-.52z"/><path d="m19.38 20.94h.86v1.36.72a2.83 2.83 0 0 1 .52-.39 1.3 1.3 0 0 1 .66-.17 1 1 0 0 1 .86.38 1.83 1.83 0 0 1 .27 1.08v2.31h-.86v-2.23a1.17 1.17 0 0 0 -.13-.65.53.53 0 0 0 -.45-.19.74.74 0 0 0 -.42.12 3.3 3.3 0 0 0 -.42.34v2.57h-.86z"/><path d="m23.57 22.55h.71l.06.65a1.61 1.61 0 0 1 .47-.55 1 1 0 0 1 .57-.19 1 1 0 0 1 .42.08l-.15.75-.18-.05h-.2a.8.8 0 0 0 -.46.16 1.31 1.31 0 0 0 -.41.59v2.25h-.86z"/><path d="m26.05 24.4a2.31 2.31 0 0 1 .14-.82 2 2 0 0 1 .39-.61 1.79 1.79 0 0 1 .56-.38 1.74 1.74 0 0 1 1.32 0 1.79 1.79 0 0 1 .54.41 2 2 0 0 1 .39.61 2.44 2.44 0 0 1 0 1.63 1.88 1.88 0 0 1 -.39.61 1.64 1.64 0 0 1 -.56.38 1.87 1.87 0 0 1 -1.32 0 1.64 1.64 0 0 1 -.56-.38 1.88 1.88 0 0 1 -.39-.61 2.29 2.29 0 0 1 -.12-.84zm.88 0a1.59 1.59 0 0 0 .23.89.75.75 0 0 0 .64.33.72.72 0 0 0 .63-.33 1.79 1.79 0 0 0 0-1.79.72.72 0 0 0 -.63-.33.75.75 0 0 0 -.64.33 1.58 1.58 0 0 0 -.23.9z"/><path d="m30.37 22.55h.86v2.2a1.12 1.12 0 0 0 .14.64.48.48 0 0 0 .43.19.8.8 0 0 0 .43-.12 1.78 1.78 0 0 0 .39-.39v-2.52h.86v3.68h-.7l-.07-.54a2.21 2.21 0 0 1 -.52.46 1.22 1.22 0 0 1 -.67.17 1 1 0 0 1 -.86-.37 1.89 1.89 0 0 1 -.27-1.09z"/><path d="m34.33 26.9a.83.83 0 0 1 .13-.43 1.37 1.37 0 0 1 .39-.36.76.76 0 0 1 -.23-.24.7.7 0 0 1 -.1-.37.65.65 0 0 1 .13-.39 1 1 0 0 1 .28-.29 1.2 1.2 0 0 1 -.33-.4 1.09 1.09 0 0 1 -.15-.58 1.25 1.25 0 0 1 .12-.56 1.34 1.34 0 0 1 .32-.42 1.21 1.21 0 0 1 .46-.25 1.67 1.67 0 0 1 .55-.09 1.36 1.36 0 0 1 .29 0 1.31 1.31 0 0 1 .25.06h1.32v.64h-.67a.87.87 0 0 1 .15.27 1 1 0 0 1 .06.35 1.27 1.27 0 0 1 -.11.54 1.05 1.05 0 0 1 -.29.39 1.22 1.22 0 0 1 -.45.24 1.63 1.63 0 0 1 -.55.08 1 1 0 0 1 -.24 0 1.25 1.25 0 0 1 -.26-.09.87.87 0 0 0 -.13.15.37.37 0 0 0 -.05.2.31.31 0 0 0 .13.25.9.9 0 0 0 .47.09h.65a1.93 1.93 0 0 1 1 .21.74.74 0 0 1 .34.69 1 1 0 0 1 -.13.51 1.45 1.45 0 0 1 -.4.42 2.23 2.23 0 0 1 -.62.27 2.9 2.9 0 0 1 -.81.1 2.93 2.93 0 0 1 -.61-.06 1.66 1.66 0 0 1 -.49-.18.89.89 0 0 1 -.31-.3.74.74 0 0 1 -.11-.45zm.72-.13a.42.42 0 0 0 .25.39 1.48 1.48 0 0 0 .69.14 1.32 1.32 0 0 0 .73-.18.49.49 0 0 0 .27-.41.29.29 0 0 0 -.17-.3 1.22 1.22 0 0 0 -.48-.07h-.5a2.44 2.44 0 0 1 -.51-.05.59.59 0 0 0 -.28.48zm.85-2.25a.58.58 0 0 0 .45-.19.88.88 0 0 0 0-1.08.61.61 0 0 0 -.46-.2.62.62 0 0 0 -.45.19.88.88 0 0 0 0 1.09.58.58 0 0 0 .46.19z"/><path d="m38.48 20.94h.86v1.36.72a2.76 2.76 0 0 1 .51-.39 1.31 1.31 0 0 1 .67-.17 1 1 0 0 1 .86.38 1.83 1.83 0 0 1 .27 1.08v2.31h-.86v-2.23a1.16 1.16 0 0 0 -.14-.65.52.52 0 0 0 -.44-.19.74.74 0 0 0 -.42.12 2.32 2.32 0 0 0 -.42.34v2.57h-.86z"/><path d="m14.78 30.73h-.52v-.64h.57l.1-1h.72v1h.94v.68h-.94v1.76c0 .43.17.64.52.64a.71.71 0 0 0 .2 0 .48.48 0 0 0 .18-.06l.15.64-.34.09a1.78 1.78 0 0 1 -.41 0 1.45 1.45 0 0 1 -.54-.09.92.92 0 0 1 -.36-.28 1.09 1.09 0 0 1 -.2-.42 1.81 1.81 0 0 1 -.07-.54z"/><path d="m17.36 30.05h.71l.06.65a1.53 1.53 0 0 1 .48-.55 1 1 0 0 1 .57-.19 1 1 0 0 1 .42.08l-.15.75-.18-.05h-.21a.8.8 0 0 0 -.45.16 1.4 1.4 0 0 0 -.42.59v2.25h-.86z"/><path d="m19.8 32.74a1 1 0 0 1 .52-.91 3.92 3.92 0 0 1 1.68-.45 1.26 1.26 0 0 0 0-.28 1 1 0 0 0 -.12-.23.53.53 0 0 0 -.2-.16.91.91 0 0 0 -.31-.05 1.44 1.44 0 0 0 -.54.1 3.4 3.4 0 0 0 -.5.26l-.33-.58a3.92 3.92 0 0 1 .68-.34 2.49 2.49 0 0 1 .83-.14 1.26 1.26 0 0 1 1 .41 1.79 1.79 0 0 1 .34 1.18v2.18h-.71l-.06-.4a2.32 2.32 0 0 1 -.53.35 1.25 1.25 0 0 1 -.61.14 1.13 1.13 0 0 1 -.79-.29 1.06 1.06 0 0 1 -.35-.79zm.84-.06a.43.43 0 0 0 .15.36.6.6 0 0 0 .37.11.88.88 0 0 0 .42-.11 2.27 2.27 0 0 0 .39-.3v-.82a3.94 3.94 0 0 0 -.63.12 1.45 1.45 0 0 0 -.41.17.5.5 0 0 0 -.22.21.48.48 0 0 0 -.07.26z"/><path d="m28 29.12a1 1 0 0 0 -.4-.09c-.31 0-.47.21-.47.62v.4h.72v.68h-.72v3h-.86v-3h-1.38v3h-.89v-3h-.5v-.64h.5v-.32a1.79 1.79 0 0 1 .07-.53 1 1 0 0 1 .63-.68 1.61 1.61 0 0 1 .57-.1 2.46 2.46 0 0 1 .4 0 1.74 1.74 0 0 1 .32.1l-.16.64a.86.86 0 0 0 -.21-.07 1 1 0 0 0 -.26 0 .46.46 0 0 0 -.36.15.69.69 0 0 0 -.14.47v.32h1.39v-.38a1.79 1.79 0 0 1 .07-.53 1 1 0 0 1 .21-.42.94.94 0 0 1 .38-.27 1.34 1.34 0 0 1 .56-.1 1.53 1.53 0 0 1 .38 0 1.32 1.32 0 0 1 .3.09z"/><path d="m28.93 29.41a.56.56 0 0 1 -.38-.14.45.45 0 0 1 -.15-.35.48.48 0 0 1 .15-.36.56.56 0 0 1 .38-.14.56.56 0 0 1 .39.14.48.48 0 0 1 .15.36.45.45 0 0 1 -.15.35.56.56 0 0 1 -.39.14zm-.43.64h.86v3.68h-.86z"/><path d="m30.22 31.9a2.1 2.1 0 0 1 .15-.82 1.87 1.87 0 0 1 .41-.61 1.83 1.83 0 0 1 1.29-.47 1.46 1.46 0 0 1 .62.12 2 2 0 0 1 .46.31l-.41.55a1.31 1.31 0 0 0 -.3-.2.72.72 0 0 0 -.33-.07.88.88 0 0 0 -.72.33 1.33 1.33 0 0 0 -.28.9 1.39 1.39 0 0 0 .27.89.88.88 0 0 0 .71.33.87.87 0 0 0 .42-.1 1.52 1.52 0 0 0 .34-.22l.36.55a1.84 1.84 0 0 1 -.58.35 1.76 1.76 0 0 1 -.63.12 2 2 0 0 1 -.7-.12 1.59 1.59 0 0 1 -.57-.38 1.69 1.69 0 0 1 -.37-.61 2.29 2.29 0 0 1 -.14-.85z"/></g></svg>