<svg viewBox="0 0 48 48" xmlns="http://www.w3.org/2000/svg"><path d="m24 1.8a22.2 22.2 0 1 1 -22.2 22.2 22.21 22.21 0 0 1 22.2-22.2v-.3a22.5 22.5 0 1 0 22.5 22.5 22.52 22.52 0 0 0 -22.5-22.5z" fill="#4679bb"/><path d="m24 2.47a21.46 21.46 0 1 1 -21.45 21.46 21.45 21.45 0 0 1 21.45-21.46" fill="#4679bb"/><path d="m13.73 24.67a4.56 4.56 0 1 1 -4.56 4.56 4.57 4.57 0 0 1 4.56-4.56" fill="#fff"/><path d="m13.71 26.41a2.82 2.82 0 1 1 -2.82 2.82 2.83 2.83 0 0 1 2.82-2.82z" fill="#4679bb"/><path d="m13.71 27.49a1.74 1.74 0 1 1 -1.71 1.74 1.75 1.75 0 0 1 1.71-1.74z" fill="#fff"/><path d="m33.26 24.67a4.56 4.56 0 1 1 -4.55 4.56 4.57 4.57 0 0 1 4.55-4.56" fill="#fff"/><path d="m33.26 26.41a2.82 2.82 0 1 1 -2.82 2.82 2.83 2.83 0 0 1 2.82-2.82z" fill="#4679bb"/><g fill="#fff"><path d="m33.26 27.49a1.75 1.75 0 0 1 1.74 1.74 1.74 1.74 0 0 1 -3.48 0 1.75 1.75 0 0 1 1.74-1.74z"/><path d="m33.02 26.07.65 1.89-1.44.41-.63-1.89z"/><path d="m15.04 28.67 2.26-3.68-1.48-.88-2.26 3.7z"/><path d="m35.41 24.11a5.61 5.61 0 0 1 3.4 5.16h-1.81l-1-2.45-3.06-1.33-3.17 2.11v3.83h-4c-1.9 0-3.19 0-4.82 0a2 2 0 0 1 -2.14-2.22 5.2 5.2 0 0 0 -5.16-5.16h-.07v-1.9h1.16a3.8 3.8 0 0 0 2.91-1.38l2.35-3.55c.3-.46.51-.2.43.06l-1 4c-.13.51.47.82 1 .36l1.18-1.09 1.25-2.11v-.26a1 1 0 0 1 -1.1-.91v-1.4h-.41a1.78 1.78 0 0 1 1.83-1.79 1.69 1.69 0 0 1 1.82 1.8c0 .89-.19.88-.36 1.16v.63a1.35 1.35 0 0 1 .58.11c.26.11 1.22.49 1.44.62a2.14 2.14 0 0 1 .56.43l2.24 2.35a2 2 0 0 1 .54 1.57h4.58c.61 0 .82.37.82 1.14v.22"/></g><path d="m23.93 21.42-3.57 2.06 2.89 1.17 2-2a3.19 3.19 0 0 1 -1.32-1.23z" fill="#4679bb"/><path d="m28.8 28.26a4.54 4.54 0 0 1 1.7-2.67c.13-.13.09-.28-.13-.28h-1.87v3c0 .12.24.15.3-.05z" fill="#4679bb"/></svg>