<svg viewBox="0 0 48 48" xmlns="http://www.w3.org/2000/svg"><circle cx="24" cy="24" fill="#ed1c24" r="22.5"/><circle cx="24" cy="24" fill="#fff" r="18.02"/><g fill="#1d1d1b"><path d="m20.69 12.68h.71l1.22 2.21.41.83c0-.2 0-.42-.06-.66s0-.46 0-.68v-1.7h.67v3.92h-.72l-1.22-2.21-.4-.83.06.65v.68 1.71h-.66z"/><path d="m24.37 15.13a1.88 1.88 0 0 1 .11-.65 1.52 1.52 0 0 1 .31-.49 1.42 1.42 0 0 1 1-.41 1.4 1.4 0 0 1 .53.11 1.37 1.37 0 0 1 .45.3 1.71 1.71 0 0 1 .31.49 1.88 1.88 0 0 1 .11.65 1.94 1.94 0 0 1 -.11.66 1.66 1.66 0 0 1 -.31.48 1.37 1.37 0 0 1 -.45.3 1.39 1.39 0 0 1 -.53.1 1.35 1.35 0 0 1 -.53-.1 1.37 1.37 0 0 1 -.45-.3 1.47 1.47 0 0 1 -.31-.48 1.94 1.94 0 0 1 -.13-.66zm.71 0a1.24 1.24 0 0 0 .18.71.58.58 0 0 0 .51.27.6.6 0 0 0 .51-.27 1.24 1.24 0 0 0 .18-.71 1.28 1.28 0 0 0 -.18-.72.62.62 0 0 0 -.51-.26.59.59 0 0 0 -.51.26 1.28 1.28 0 0 0 -.18.72z"/><path d="m9.86 24.81a.8.8 0 0 1 .41-.73 3.41 3.41 0 0 1 1.32-.36.78.78 0 0 0 0-.22.66.66 0 0 0 -.09-.19.61.61 0 0 0 -.16-.12.62.62 0 0 0 -.25-.05 1.07 1.07 0 0 0 -.43.09 2.14 2.14 0 0 0 -.4.2l-.26-.43a2.27 2.27 0 0 1 .54-.27 1.84 1.84 0 0 1 .66-.12 1 1 0 0 1 .83.33 1.45 1.45 0 0 1 .27.95v1.71h-.56l-.06-.32a2.36 2.36 0 0 1 -.42.28 1 1 0 0 1 -.49.11.89.89 0 0 1 -.63-.23.85.85 0 0 1 -.28-.63zm.67-.06a.33.33 0 0 0 .12.29.45.45 0 0 0 .3.09.62.62 0 0 0 .33-.08 2 2 0 0 0 .31-.24v-.66a2.58 2.58 0 0 0 -.5.1 1.33 1.33 0 0 0 -.33.13.59.59 0 0 0 -.18.17.49.49 0 0 0 -.05.2z"/><path d="m13.12 22.66h.57l.05.52a1.28 1.28 0 0 1 .38-.44.76.76 0 0 1 .46-.16.75.75 0 0 1 .33.06l-.12.6h-.14-.16a.64.64 0 0 0 -.37.13 1 1 0 0 0 -.33.47v1.8h-.69z"/><path d="m15.46 23.2h-.46v-.51h.46l.08-.81h.58v.81h.75v.54h-.75v1.41c0 .34.13.51.41.51a.47.47 0 0 0 .16 0h.15l.12.51-.28.07a1.66 1.66 0 0 1 -.32 0 1.13 1.13 0 0 1 -.36-.13.93.93 0 0 1 -.29-.22 1 1 0 0 1 -.16-.34 1.88 1.88 0 0 1 0-.43z"/><path d="m17.87 22.14a.44.44 0 0 1 -.3-.11.35.35 0 0 1 -.12-.28.38.38 0 0 1 .12-.29.44.44 0 0 1 .3-.11.45.45 0 0 1 .31.11.38.38 0 0 1 .12.29.35.35 0 0 1 -.12.28.45.45 0 0 1 -.31.11zm-.35.52h.69v2.94h-.69z"/><path d="m18.9 24.13a1.67 1.67 0 0 1 .12-.65 1.41 1.41 0 0 1 .33-.49 1.35 1.35 0 0 1 .47-.3 1.51 1.51 0 0 1 .56-.11 1.27 1.27 0 0 1 .5.1 1.36 1.36 0 0 1 .36.25l-.33.43a1.11 1.11 0 0 0 -.24-.16.7.7 0 0 0 -.25-.05.76.76 0 0 0 -.59.26 1.14 1.14 0 0 0 -.22.72 1.06 1.06 0 0 0 .22.71.71.71 0 0 0 .57.27.73.73 0 0 0 .33-.08 1.24 1.24 0 0 0 .27-.17l.29.43a1.49 1.49 0 0 1 -.46.29 1.51 1.51 0 0 1 -.5.09 1.56 1.56 0 0 1 -.57-.1 1.37 1.37 0 0 1 -.45-.3 1.31 1.31 0 0 1 -.3-.48 1.94 1.94 0 0 1 -.11-.66z"/><path d="m21.84 22.66h.69v1.75a.85.85 0 0 0 .11.52.38.38 0 0 0 .34.15.57.57 0 0 0 .34-.1 1.14 1.14 0 0 0 .32-.31v-2h.69v2.93h-.57l-.05-.43a2.07 2.07 0 0 1 -.42.37 1 1 0 0 1 -.53.13.81.81 0 0 1 -.69-.3 1.51 1.51 0 0 1 -.21-.87z"/><path d="m25.2 21.37h.69v3.51a.3.3 0 0 0 .05.18.16.16 0 0 0 .1.05h.11l.09.51a.9.9 0 0 1 -.36.06.59.59 0 0 1 -.53-.22 1.07 1.07 0 0 1 -.15-.6z"/><path d="m26.7 24.81a.8.8 0 0 1 .42-.73 3.3 3.3 0 0 1 1.32-.36.78.78 0 0 0 0-.22.5.5 0 0 0 -.1-.19.4.4 0 0 0 -.16-.12.58.58 0 0 0 -.25-.05 1.11 1.11 0 0 0 -.43.09 2.05 2.05 0 0 0 -.39.2l-.29-.43a2.56 2.56 0 0 1 .55-.27 1.76 1.76 0 0 1 .66-.12 1 1 0 0 1 .83.33 1.45 1.45 0 0 1 .27.95v1.71h-.57v-.32a2.36 2.36 0 0 1 -.42.28 1 1 0 0 1 -.49.11.89.89 0 0 1 -.63-.23.82.82 0 0 1 -.32-.63zm.68-.06a.33.33 0 0 0 .11.29.5.5 0 0 0 .31.09.62.62 0 0 0 .33-.08 2 2 0 0 0 .31-.24v-.66a2.88 2.88 0 0 0 -.51.1 1.41 1.41 0 0 0 -.32.13.5.5 0 0 0 -.18.17.37.37 0 0 0 -.05.2z"/><path d="m30.07 23.2h-.42v-.51h.46l.08-.81h.58v.81h.75v.54h-.75v1.41c0 .34.13.51.41.51a.47.47 0 0 0 .16 0h.15l.12.51-.28.07a1.66 1.66 0 0 1 -.32 0 1.13 1.13 0 0 1 -.44-.07.93.93 0 0 1 -.29-.22 1 1 0 0 1 -.16-.34 1.88 1.88 0 0 1 -.05-.43z"/><path d="m31.88 24.13a1.71 1.71 0 0 1 .12-.65 1.42 1.42 0 0 1 .73-.79 1.34 1.34 0 0 1 .51-.11 1.29 1.29 0 0 1 .53.11 1 1 0 0 1 .38.28 1.37 1.37 0 0 1 .23.45 2 2 0 0 1 .08.56 1.42 1.42 0 0 1 0 .33h-1.91a1 1 0 0 0 .28.61.82.82 0 0 0 .59.22 1 1 0 0 0 .36-.06 1.66 1.66 0 0 0 .33-.16l.23.44a2 2 0 0 1 -.47.22 1.61 1.61 0 0 1 -.54.09 1.56 1.56 0 0 1 -.57-.1 1.41 1.41 0 0 1 -.46-.3 1.64 1.64 0 0 1 -.31-.49 1.84 1.84 0 0 1 -.11-.65zm2-.26a.88.88 0 0 0 -.15-.55.51.51 0 0 0 -.45-.2.66.66 0 0 0 -.47.19.88.88 0 0 0 -.24.56z"/><path d="m34.94 24.13a1.93 1.93 0 0 1 .1-.65 1.41 1.41 0 0 1 .28-.48 1.31 1.31 0 0 1 .4-.31 1.07 1.07 0 0 1 .46-.11.94.94 0 0 1 .43.09 1.82 1.82 0 0 1 .35.24v-.48-1.06h.69v4.23h-.57v-.32a1.56 1.56 0 0 1 -.38.28.88.88 0 0 1 -.45.11 1.09 1.09 0 0 1 -.89-.4 1.76 1.76 0 0 1 -.42-1.14zm.71 0a1.29 1.29 0 0 0 .17.73.55.55 0 0 0 .5.25.81.81 0 0 0 .61-.33v-1.38a.84.84 0 0 0 -.3-.19.8.8 0 0 0 -.3-.06.59.59 0 0 0 -.48.26 1.11 1.11 0 0 0 -.2.71z"/><path d="m13.41 31.66h.71l.46 1.53.13.43.12.45c.05-.15.09-.3.13-.45s.08-.29.13-.43l.46-1.53h.67l-1 2.94h-.8z"/><path d="m16.52 33.13a1.71 1.71 0 0 1 .12-.65 1.42 1.42 0 0 1 .73-.79 1.34 1.34 0 0 1 .51-.11 1.29 1.29 0 0 1 .53.11 1 1 0 0 1 .38.28 1.37 1.37 0 0 1 .23.45 2 2 0 0 1 .08.56 1.42 1.42 0 0 1 0 .33h-1.91a1 1 0 0 0 .28.61.82.82 0 0 0 .59.22 1 1 0 0 0 .36-.06 1.66 1.66 0 0 0 .33-.16l.23.44a2 2 0 0 1 -.47.22 1.61 1.61 0 0 1 -.54.09 1.56 1.56 0 0 1 -.57-.1 1.41 1.41 0 0 1 -.46-.3 1.64 1.64 0 0 1 -.31-.49 1.84 1.84 0 0 1 -.11-.65zm2-.26a.88.88 0 0 0 -.15-.55.51.51 0 0 0 -.45-.2.66.66 0 0 0 -.47.19.88.88 0 0 0 -.24.56z"/><path d="m19.76 30.37h.69v1.09.57a2.45 2.45 0 0 1 .41-.31 1 1 0 0 1 .53-.14.76.76 0 0 1 .69.31 1.42 1.42 0 0 1 .22.86v1.85h-.69v-1.76a.92.92 0 0 0 -.11-.51.4.4 0 0 0 -.35-.15.64.64 0 0 0 -.34.09 1.78 1.78 0 0 0 -.33.27v2.06h-.69z"/><path d="m23.45 31.14a.44.44 0 0 1 -.3-.11.35.35 0 0 1 -.12-.28.38.38 0 0 1 .12-.29.44.44 0 0 1 .3-.11.45.45 0 0 1 .31.11.38.38 0 0 1 .12.29.35.35 0 0 1 -.12.28.45.45 0 0 1 -.31.11zm-.35.52h.69v2.94h-.69z"/><path d="m24.48 33.13a1.67 1.67 0 0 1 .12-.65 1.41 1.41 0 0 1 .33-.49 1.35 1.35 0 0 1 .47-.3 1.51 1.51 0 0 1 .56-.11 1.27 1.27 0 0 1 .5.1 1.36 1.36 0 0 1 .36.25l-.33.43a1.11 1.11 0 0 0 -.24-.16.7.7 0 0 0 -.25-.05.76.76 0 0 0 -.59.26 1.14 1.14 0 0 0 -.22.72 1.06 1.06 0 0 0 .22.71.71.71 0 0 0 .57.27.73.73 0 0 0 .33-.08 1.24 1.24 0 0 0 .27-.17l.29.43a1.49 1.49 0 0 1 -.46.29 1.51 1.51 0 0 1 -.5.09 1.56 1.56 0 0 1 -.57-.1 1.37 1.37 0 0 1 -.45-.3 1.31 1.31 0 0 1 -.3-.48 1.94 1.94 0 0 1 -.11-.66z"/><path d="m27.45 30.37h.69v3.51a.24.24 0 0 0 .05.18.14.14 0 0 0 .1 0h.11l.09.51a1 1 0 0 1 -.37.06.57.57 0 0 1 -.52-.22 1.07 1.07 0 0 1 -.15-.6z"/><path d="m28.88 33.13a1.71 1.71 0 0 1 .12-.65 1.42 1.42 0 0 1 .73-.79 1.34 1.34 0 0 1 .51-.11 1.29 1.29 0 0 1 .53.11 1 1 0 0 1 .38.28 1.37 1.37 0 0 1 .23.45 2 2 0 0 1 .08.56 1.42 1.42 0 0 1 0 .33h-1.91a1 1 0 0 0 .28.61.82.82 0 0 0 .59.22 1 1 0 0 0 .36-.06 1.66 1.66 0 0 0 .33-.16l.23.44a2 2 0 0 1 -.47.22 1.61 1.61 0 0 1 -.54.09 1.56 1.56 0 0 1 -.57-.1 1.41 1.41 0 0 1 -.46-.3 1.64 1.64 0 0 1 -.31-.49 1.84 1.84 0 0 1 -.11-.65zm2-.26a.88.88 0 0 0 -.15-.55.51.51 0 0 0 -.45-.2.66.66 0 0 0 -.47.19.88.88 0 0 0 -.24.56z"/><path d="m32.15 33.82a1.37 1.37 0 0 0 .39.24 1 1 0 0 0 .42.09.53.53 0 0 0 .36-.1.33.33 0 0 0 .11-.25.28.28 0 0 0 0-.16.44.44 0 0 0 -.15-.12 1.24 1.24 0 0 0 -.2-.1l-.23-.1a1.78 1.78 0 0 1 -.29-.12 1.27 1.27 0 0 1 -.27-.18.71.71 0 0 1 -.19-.23.67.67 0 0 1 -.08-.33.8.8 0 0 1 .29-.63 1.19 1.19 0 0 1 .79-.25 1.42 1.42 0 0 1 .55.11 2.12 2.12 0 0 1 .42.25l-.31.42a1.79 1.79 0 0 0 -.32-.19 1 1 0 0 0 -.33-.06.5.5 0 0 0 -.33.09.29.29 0 0 0 -.1.23.2.2 0 0 0 0 .15.47.47 0 0 0 .13.11.61.61 0 0 0 .2.09l.23.09a1.88 1.88 0 0 1 .3.12 1.24 1.24 0 0 1 .27.17.82.82 0 0 1 .2.25.75.75 0 0 1 .07.35.81.81 0 0 1 -.29.65 1.23 1.23 0 0 1 -.36.19 1.49 1.49 0 0 1 -.49.07 1.83 1.83 0 0 1 -.61-.11 2.51 2.51 0 0 1 -.51-.29z"/></g></svg>