<svg viewBox="0 0 48 48" xmlns="http://www.w3.org/2000/svg"><path d="m20.09 1.86a22.48 22.48 0 1 0 26.07 18.22 22.49 22.49 0 0 0 -26.07-18.22" fill="#eb2027"/><path d="m20.88 6.29a18 18 0 1 0 20.82 14.59 18 18 0 0 0 -20.82-14.59" fill="#fff"/><path d="m13.51 26.49a2.45 2.45 0 1 1 -2.46 2.45 2.46 2.46 0 0 1 2.46-2.45" fill="#221f1f"/><path d="m13.51 27.71a1.23 1.23 0 1 1 -1.22 1.23 1.23 1.23 0 0 1 1.22-1.23z" fill="#fff"/><path d="m32.85 26.49a2.45 2.45 0 1 1 -2.45 2.45 2.44 2.44 0 0 1 2.45-2.45" fill="#221f1f"/><path d="m32.86 27.71a1.23 1.23 0 1 1 -1.22 1.23 1.21 1.21 0 0 1 1.22-1.23z" fill="#fff"/><path d="m9.7 23.75.64-3.65a1.55 1.55 0 0 1 1.5-1.28h4.16a.6.6 0 0 1 .61.6v3.39h1.23v-5.52a.61.61 0 0 1 .61-.61h19.32a.6.6 0 0 1 .6.61v11.65h-2.82a2.71 2.71 0 0 0 -5.41 0h-14a2.71 2.71 0 0 0 -5.41 0h-.9l-.91-4.1a.55.55 0 0 1 0-.18.9.9 0 0 1 .8-.89" fill="#221f1f"/><path d="m14.44 19.81v3h-3.65l.44-2.55a.62.62 0 0 1 .6-.5h2.59z" fill="#fff"/><path d="m30.16 28.94h.98l.59-1.58h2.25l1.33 1.58h1.67l-2.23-3.13v-.08h-4.66z" fill="#221f1f"/></svg>