<svg viewBox="0 0 48 48" xmlns="http://www.w3.org/2000/svg"><path d="m37.1 38.5h-26.2a1.29 1.29 0 0 0 -1.29 1.29v5.93a1.29 1.29 0 0 0 1.29 1.28h26.2a1.29 1.29 0 0 0 1.29-1.28v-5.93a1.29 1.29 0 0 0 -1.29-1.29z" fill="#fff" stroke="#272525" stroke-width=".53"/><path d="m24 1a18.15 18.15 0 1 1 -18.15 18.15 18.16 18.16 0 0 1 18.15-18.15" fill="#ed1c24"/><path d="m24 4.59a14.52 14.52 0 1 1 -14.52 14.52 14.53 14.53 0 0 1 14.52-14.52" fill="#fff"/><path d="m21.89 12.79a3.63 3.63 0 0 0 -3.62 3.63v14.82h3.62v-13.61a1.22 1.22 0 0 1 1.22-1.21h11.25l2.36-1.82-2.36-1.81z" fill="#262425"/><path d="m12.16 30.92 2.32 1.95 21.38-25.49-2.31-1.94z" fill="#ed1c24"/><g fill="#1d1d1b"><path d="m16 40.76h2.36v.59h-1.67v1h1.41v.59h-1.41v1.15h1.73v.59h-2.42z"/><path d="m19.75 43.15-.88-1.41h.74l.33.55.14.25c0 .09.09.17.13.25 0-.08.07-.16.11-.25l.12-.25.28-.55h.71l-.87 1.48.94 1.46h-.75l-.36-.58a2.15 2.15 0 0 0 -.14-.26 2.26 2.26 0 0 0 -.16-.26l-.13.25c0 .09-.08.18-.13.27l-.31.58h-.72z"/><path d="m21.73 43.21a1.67 1.67 0 0 1 .12-.65 1.39 1.39 0 0 1 .32-.49 1.45 1.45 0 0 1 .47-.3 1.55 1.55 0 0 1 .56-.11 1.27 1.27 0 0 1 .5.1 1.41 1.41 0 0 1 .37.25l-.33.43a1.05 1.05 0 0 0 -.24-.15.58.58 0 0 0 -.26-.06.7.7 0 0 0 -.58.27 1 1 0 0 0 -.23.71 1.09 1.09 0 0 0 .22.71.71.71 0 0 0 .57.27.72.72 0 0 0 .33-.07 1.34 1.34 0 0 0 .28-.18l.28.44a1.67 1.67 0 0 1 -.46.28 1.53 1.53 0 0 1 -1.06 0 1.31 1.31 0 0 1 -.46-.3 1.63 1.63 0 0 1 -.3-.48 2 2 0 0 1 -.1-.67z"/><path d="m24.35 43.21a1.71 1.71 0 0 1 .12-.65 1.45 1.45 0 0 1 .3-.48 1.35 1.35 0 0 1 .44-.31 1.26 1.26 0 0 1 1 0 1 1 0 0 1 .38.28 1.37 1.37 0 0 1 .23.45 2 2 0 0 1 .08.56 1.42 1.42 0 0 1 0 .33h-1.9a1 1 0 0 0 .27.61.84.84 0 0 0 .6.22 1 1 0 0 0 .35-.06 1.66 1.66 0 0 0 .33-.16l.23.44a2.17 2.17 0 0 1 -.46.22 1.7 1.7 0 0 1 -.54.09 1.48 1.48 0 0 1 -.57-.1 1.45 1.45 0 0 1 -.47-.3 1.64 1.64 0 0 1 -.31-.49 1.84 1.84 0 0 1 -.08-.65zm2-.26a.88.88 0 0 0 -.15-.55.51.51 0 0 0 -.45-.2.62.62 0 0 0 -.46.19.84.84 0 0 0 -.29.61z"/><path d="m28.28 44.92v.93h-.69v-4.11h.57l.05.31a1.62 1.62 0 0 1 .41-.27 1 1 0 0 1 .48-.12 1.14 1.14 0 0 1 .49.11 1 1 0 0 1 .36.3 1.34 1.34 0 0 1 .23.48 2.31 2.31 0 0 1 .08.61 2 2 0 0 1 -.11.68 1.51 1.51 0 0 1 -.28.5 1.35 1.35 0 0 1 -.4.31 1.1 1.1 0 0 1 -.47.1.91.91 0 0 1 -.39-.08 1.67 1.67 0 0 1 -.37-.24zm0-1a1.18 1.18 0 0 0 .31.19.72.72 0 0 0 .28 0 .58.58 0 0 0 .49-.25 1.17 1.17 0 0 0 .2-.76 1.31 1.31 0 0 0 -.15-.69.53.53 0 0 0 -.48-.25 1 1 0 0 0 -.65.33z"/><path d="m31.07 42.28h-.42v-.51h.46l.08-.81h.58v.81h.75v.54h-.75v1.41c0 .34.14.51.41.51a.41.41 0 0 0 .16 0h.15l.12.51-.27.07a1.69 1.69 0 0 1 -.33 0 1.08 1.08 0 0 1 -.43-.07.82.82 0 0 1 -.29-.22 1 1 0 0 1 -.17-.34 1.88 1.88 0 0 1 -.05-.43z"/></g></svg>