<?xml version="1.0" encoding="UTF-8"?>
<svg id="Layer_1" data-name="Layer 1" xmlns="http://www.w3.org/2000/svg" width="100mm" height="100mm" viewBox="0 0 283.4646 283.4646">
  <g>
    <path d="M141.7323,21.2598c66.471,0,120.4725,54.0014,120.4725,120.4724s-54.0014,120.4725-120.4724,120.4725S21.2598,208.2033,21.2598,141.7323,75.2612,21.2598,141.7323,21.2598" fill="#ed1c24"/>
    <path d="M141.7323,45.3945c53.1969,0,96.3378,43.1408,96.3378,96.3377s-43.1408,96.3378-96.3377,96.3378-96.3377-43.1408-96.3377-96.3377c0-53.197,43.1408-96.3378,96.3377-96.3378" fill="#fff"/>
  </g>
  <path d="M81.2949,83.105c38.9172,0,77.935,0,116.8523-.1006,2.8157,0,3.3185.6034,3.3185,3.3185-.1006,37.9116-.1006,75.7227,0,113.6343,0,2.8157-.6034,3.3185-3.3185,3.3185-37.9116-.1006-75.7227-.1006-113.6343,0-2.8157,0-3.3185-.6034-3.3185-3.3185.1006-39.0178.1006-77.935.1006-116.8522Z" fill="#fefefe"/>
  <path d="M192.6833,110.7509c-.2282-8.3302-.6847-8.6725-8.7866-6.9608-.4564-4.3363-1.027-8.7866-2.3964-12.8946-1.4834-4.2221-4.2222-6.7326-8.7866-7.0749-20.7684-1.8258-41.5367-1.8258-62.191,0-4.7927.4564-7.6455,3.081-9.0148,7.5314-1.3694,4.2221-1.7117,8.4443-2.3964,12.7805-7.6455-2.2822-8.7866-1.4835-8.6725,6.0479,0,3.3092-.3423,6.6185-.3423,10.0418,0,8.5584.4564,8.9007,9.3572,7.3032v19.5131c0,1.7117-.5706,3.5375.9129,5.0209,2.1681,1.9399,1.9399,3.5375-.6847,4.7927-1.027.4564-1.4834,1.4835-1.4834,2.6246.1141,13.1229-1.1411,26.3599,2.5105,39.1404.3423,1.1411,1.1411,2.1681,2.1681,2.054.2282.1141.5706.3423.9129.3423h6.162c1.9399,0,3.6516-.9129,4.3362-4.5645.2282-1.4834,2.054-.9129,3.1951-.9129h48.0411c1.1411,0,3.081-.4564,3.3092.7988.4564,3.4234,1.9399,4.4504,3.7657,4.5645.1141,0,.2282.1141.3423.1141h6.7326c.2282,0,.4564-.1141.6847-.2282,1.1411-.1141,2.054-.9129,2.054-2.054,0-5.3633,3.1951-9.9277,2.8528-15.4051-.4564-5.9338,0-11.9817-.1141-17.9156-.1141-3.4234,1.4834-7.5314-3.081-9.6995-.9129-.4564-.7988-2.054.1141-2.7387,2.6246-2.054,1.7117-4.7927,1.8258-7.3032.1141-6.0479,0-12.0959,0-18.2579,8.5584,1.9399,9.3572,1.3693,9.3572-6.5044-.2281-3.5375-.5704-6.8467-.6845-10.156ZM112.1203,175.5665c-2.3964-.1141-5.135.4564-5.0209-3.4234.1141-2.2822,0-4.5645,0-6.8467h0c0-1.7117.1141-3.5375,0-5.2492-.1141-2.5105.3423-4.3363,3.5375-4.3363,3.081,0,5.0209.5706,5.0209,4.2221,0,3.9939.2282,7.9878.5706,11.9817.3423,3.4234-1.4835,3.7657-4.108,3.6516ZM120.5646,174.9959v-.9129h41.8791v.9129h-41.8791ZM162.786,170.0891h-42.5637v-1.027h42.5637v1.027ZM119.7658,165.4105v-1.027h43.5908v1.027h-43.5908ZM119.7658,160.6178v-1.027h43.4766v1.027h-43.4766ZM140.9906,129.4653c-11.0689,0-22.1377-.1141-33.2066.1141-4.2222.1141-6.0479-1.3693-5.8197-5.7056.3423-6.9608.3423-14.0358.4564-21.1107,0-3.5375,1.7117-4.9068,5.2492-4.9068,22.7083.1141,45.3024.1141,68.0107,0,3.1951,0,5.0209,1.027,5.135,4.4504.1141,7.7596.2282,15.4051.4564,23.1647.1141,3.7657-2.5105,3.9939-5.3633,3.9939-11.7535-.1141-23.3929,0-34.9182,0ZM166.7799,170.7738c.2282-3.4234.4564-6.9608.4564-10.4983,0-3.1951,1.2552-4.5645,4.6786-4.5645,3.5375.1141,4.108,1.8258,3.8798,4.6786-.1141,1.9399,0,3.8798,0,5.7056,0,1.5976-.1141,3.1951,0,4.6786.5706,4.2221-1.5976,4.7927-5.2492,4.9068-3.8798.1141-3.9939-2.054-3.7657-4.9068Z" fill="#222"/>
</svg>