<svg viewBox="0 0 48 48" xmlns="http://www.w3.org/2000/svg"><path d="m24 1.8a22.2 22.2 0 1 1 -22.2 22.2 22.21 22.21 0 0 1 22.2-22.2v-.3a22.5 22.5 0 1 0 22.5 22.5 22.52 22.52 0 0 0 -22.5-22.5z" fill="#4679bb"/><path d="m24 2.47a21.46 21.46 0 1 1 -21.45 21.46 21.45 21.45 0 0 1 21.45-21.46" fill="#4679bb"/><path d="m34.87 17.3c-.06-1.77-.16-1.85-1.86-1.47a12.83 12.83 0 0 0 -.5-2.74 2 2 0 0 0 -1.88-1.51 76.8 76.8 0 0 0 -13.22 0 2 2 0 0 0 -1.92 1.61 18.3 18.3 0 0 0 -.5 2.72c-1.64-.48-1.86-.32-1.86 1.29 0 .71-.06 1.42-.08 2.12 0 1.82.1 1.9 2 1.55v4.13c0 .36-.12.76.2 1.07s.4.74-.16 1a.58.58 0 0 0 -.3.57c0 2.78-.25 5.58.54 8.33.08.24.24.46.46.44a.39.39 0 0 0 .19.08h1.31c.42 0 .78-.2.9-1 .06-.32.45-.18.69-.18h10.2c.24 0 .67-.1.71.16.1.75.42 1 .8 1h.06 1.44a.3.3 0 0 0 .14-.06.44.44 0 0 0 .44-.44c0-1.13.69-2.12.6-3.29s0-2.54 0-3.81c0-.73.33-1.59-.64-2.06a.36.36 0 0 1 0-.58c.54-.43.36-1 .38-1.56 0-1.29 0-2.58 0-3.89 1.82.41 2 .29 2-1.37-.01-.69-.12-1.41-.14-2.11zm-17.12 13.78c-.5 0-1.09.1-1.05-.73 0-.48 0-1 0-1.45 0-.37 0-.75 0-1.11 0-.55.06-.93.77-.93s1.07.12 1.05.89 0 1.71.12 2.56-.33.81-.89.77zm1.79-.08v-.2h8.9v.2zm9-1h-9v-.23h9zm-9.16-1v-.3h9.26v.22zm0-1v-.22h9.24v.22zm4.5-6.61c-2.36 0-4.7 0-7.06 0-.9 0-1.29-.29-1.25-1.23.08-1.5.08-3 .1-4.48 0-.75.37-1.05 1.11-1.05q7.23 0 14.44 0c.66 0 1.07.22 1.09 1 0 1.63.06 3.29.08 4.92 0 .81-.53.87-1.13.87zm5.48 8.77c.06-.75.1-1.47.1-2.22s.27-1 1-1 .87.38.83 1v1.23a8.51 8.51 0 0 0 0 1c.12.88-.34 1-1.11 1s-.86-.5-.82-1.12z" fill="#fff"/></svg>