<svg viewBox="0 0 48 48" xmlns="http://www.w3.org/2000/svg"><path d="m24 1.8a22.2 22.2 0 1 1 -22.2 22.2 22.21 22.21 0 0 1 22.2-22.2v-.3a22.5 22.5 0 1 0 22.5 22.5 22.52 22.52 0 0 0 -22.5-22.5z" fill="#4679bb"/><path d="m24 2.47a21.46 21.46 0 1 1 -21.45 21.46 21.45 21.45 0 0 1 21.45-21.46" fill="#4679bb"/><path d="m16.49 21.52c.41-1.44.88-2.86 1.31-4.32 0-.08 0-.13-.11-.15a1.35 1.35 0 0 1 -.82-1.25 1.37 1.37 0 0 1 1.34-1.38h2.39v1.38h-2a.15.15 0 0 0 -.15.15.17.17 0 0 0 .07.15c.43.26.73.54.73 1a1.66 1.66 0 0 1 -.07.49c0 .13-.23.69-.23.69h9.34c.18-.43.35-.88.54-1.36-.69-.19-1.42-.36-2.11-.55a.29.29 0 0 1 -.26-.31.36.36 0 0 1 .35-.34h4.76a1.36 1.36 0 0 1 -1.34 1.36c-.15.4-.32.77-.49 1.18.56 1.1 1.16 2.18 1.78 3.27a5 5 0 0 1 1.92-.39 5.11 5.11 0 1 1 -5.1 5.63h-.59a2 2 0 0 1 -.84 1.18c.14.34.33.67.52 1h.8v.67h-.54a.49.49 0 0 1 -.39.15.57.57 0 0 1 -.39-.15h-.7v-.62h.64c-.13-.26-.26-.52-.41-.8a1.38 1.38 0 0 1 -.67.11 2 2 0 0 1 -2-2 2 2 0 0 1 .08-.6c-1.93-1.35-3.89-2.66-5.85-4a3.46 3.46 0 0 1 -.19.54 5 5 0 0 1 2 4.07 5.12 5.12 0 1 1 -5.13-5.11 4.34 4.34 0 0 1 1.88.41" fill="#fff"/><path d="m24.34 26.3a1.35 1.35 0 0 0 1.36 1.36 1.37 1.37 0 0 0 1.38-1.36 1.4 1.4 0 0 0 -1.38-1.39 1.33 1.33 0 0 0 -1.36 1.39z" fill="#4679bb"/><path d="m17.26 23.87c-.08.28-.19.6-.28.9a3.29 3.29 0 0 1 -2.24 2s-.08 0-.15 0a.53.53 0 0 1 -.49-.52.44.44 0 0 1 .21-.41.08.08 0 0 0 .07-.06 3 3 0 0 0 1.29-1.44c.13-.42.26-.89.41-1.38a3.46 3.46 0 0 0 -1.45-.31 3.59 3.59 0 1 0 3.6 3.6 3.78 3.78 0 0 0 -.97-2.38z" fill="#4679bb"/><path d="m27.06 24.75c.67-1.68 1.37-3.35 2-5 .43.8.84 1.62 1.29 2.4a5 5 0 0 0 -2.09 3.63h-.6a1.79 1.79 0 0 0 -.6-1s0-.01 0-.03z" fill="#fff"/><g fill="#4679bb"><path d="m31.1 23.51a3.37 3.37 0 0 0 -1.29 2.25h2.46q-.56-1.12-1.17-2.25z"/><path d="m33.82 26.05a1 1 0 0 1 .06.23.54.54 0 0 1 -.53.52h-3.54a3.58 3.58 0 0 0 7.11-.54 3.58 3.58 0 0 0 -3.57-3.6 3.84 3.84 0 0 0 -1.21.2c.58 1.08 1.1 2.14 1.68 3.19z"/><path d="m24.56 24.56c-.15-.34-.34-.67-.52-1h-.82v-.67h.54a.46.46 0 0 1 .35-.15.74.74 0 0 1 .39.15h.69v.67h-.59q.2.39.39.81h.06a2.18 2.18 0 0 1 .61-.11h.1c.63-1.59 1.3-3.2 2-4.77h-9.25c-.07.32-.19.62-.28 1 2.05 1.42 4.11 2.8 6.16 4.23.08-.07.11-.1.17-.16z"/><path d="m27.06 24.75 2-5c.39.74.82 1.58 1.29 2.4a5.07 5.07 0 0 0 -2.11 3.61h.05-.61a1.92 1.92 0 0 0 -.62-1"/></g></svg>