<svg viewBox="0 0 48 48" xmlns="http://www.w3.org/2000/svg"><path d="m35.4 47h-22.8a1.12 1.12 0 0 1 -1.11-1.12v-11a1.11 1.11 0 0 1 1.11-1.11h22.8a1.11 1.11 0 0 1 1.11 1.11v11a1.12 1.12 0 0 1 -1.11 1.12z" fill="#fff" stroke="#272525" stroke-width=".53"/><path d="m26.88 30.89h-19.16l16.16-28.18 16.17 28.18z" fill="#fff"/><path d="m39.53 32.62a2.39 2.39 0 0 0 2-3.57l-15.48-26.86a2.37 2.37 0 0 0 -4.1 0l-15.52 26.86a2.38 2.38 0 0 0 2.05 3.56h31.05" fill="#ed1c24"/><path d="m9.85 29.44h28.31l-14.16-24.49z" fill="#fff"/><path d="m23.9 23.89a2.1 2.1 0 1 1 -2.1 2.11 2.1 2.1 0 0 1 2.1-2.1" fill="#1f1d1e"/><path d="m23.6 22.84h.63l2.36-9.33a2.67 2.67 0 0 0 .06-.56 2.74 2.74 0 0 0 -5.47 0 3.53 3.53 0 0 0 .05.56z" fill="#1f1d1e"/><g fill="#1d1d1b"><path d="m19.42 39.35-.71-1.28h-.5v1.28h-.58v-3.27h1.11a2.26 2.26 0 0 1 .47.05 1 1 0 0 1 .38.16.94.94 0 0 1 .26.3 1 1 0 0 1 .09.46 1 1 0 0 1 -.18.61 1.06 1.06 0 0 1 -.47.33l.78 1.36zm-1.21-1.74h.47a.84.84 0 0 0 .51-.14.49.49 0 0 0 .18-.42.41.41 0 0 0 -.18-.39.92.92 0 0 0 -.51-.12h-.47z"/><path d="m20.87 36.47a.37.37 0 0 1 -.26-.09.34.34 0 0 1 0-.48.37.37 0 0 1 .26-.09.35.35 0 0 1 .25.09.34.34 0 0 1 0 .48.35.35 0 0 1 -.25.09zm-.29.43h.57v2.45h-.57z"/><path d="m21.91 38.7a1.46 1.46 0 0 0 .33.2.85.85 0 0 0 .35.08.43.43 0 0 0 .3-.09.26.26 0 0 0 .09-.21.2.2 0 0 0 0-.13.4.4 0 0 0 -.12-.1l-.17-.09-.19-.07-.25-.11a1.64 1.64 0 0 1 -.25-.18 1 1 0 0 1 -.16-.2.6.6 0 0 1 -.06-.27.66.66 0 0 1 .22-.53 1 1 0 0 1 .65-.21 1.11 1.11 0 0 1 .46.1 1.54 1.54 0 0 1 .36.2l-.27.35a1.35 1.35 0 0 0 -.26-.15.67.67 0 0 0 -.28-.06.41.41 0 0 0 -.27.08.23.23 0 0 0 -.09.19.21.21 0 0 0 .05.13.35.35 0 0 0 .11.09.59.59 0 0 0 .16.07l.19.08.25.1a.88.88 0 0 1 .23.14.87.87 0 0 1 .17.21.65.65 0 0 1 .06.29.73.73 0 0 1 -.06.3.88.88 0 0 1 -.19.24.86.86 0 0 1 -.3.16 1.36 1.36 0 0 1 -.91 0 1.49 1.49 0 0 1 -.43-.24z"/><path d="m24.33 36.47a.35.35 0 0 1 -.25-.09.34.34 0 0 1 0-.48.35.35 0 0 1 .25-.09.37.37 0 0 1 .26.09.34.34 0 0 1 0 .48.37.37 0 0 1 -.26.09zm-.33.43h.58v2.45h-.58z"/><path d="m25.35 36.9h.48v.33a1.93 1.93 0 0 1 .36-.28.78.78 0 0 1 .44-.12.66.66 0 0 1 .58.26 1.24 1.24 0 0 1 .18.72v1.54h-.58v-1.46a.74.74 0 0 0 -.09-.43.32.32 0 0 0 -.29-.13.51.51 0 0 0 -.28.08 1.35 1.35 0 0 0 -.28.23v1.71h-.58z"/><path d="m28 39.79a.49.49 0 0 1 .09-.28.76.76 0 0 1 .26-.24.41.41 0 0 1 -.16-.16.49.49 0 0 1 -.06-.25.47.47 0 0 1 .08-.26.69.69 0 0 1 .19-.19.84.84 0 0 1 -.22-.27.7.7 0 0 1 -.1-.38.79.79 0 0 1 .08-.38.83.83 0 0 1 .21-.28 1 1 0 0 1 .31-.17 1.1 1.1 0 0 1 .37-.06h.19.17.88v.42h-.45a.77.77 0 0 1 .1.18.86.86 0 0 1 0 .24 1 1 0 0 1 -.07.36.86.86 0 0 1 -.2.26 1 1 0 0 1 -.3.16 1.36 1.36 0 0 1 -.36 0h-.17l-.17-.06a.76.76 0 0 0 -.08.11.17.17 0 0 0 0 .13.2.2 0 0 0 .09.17.58.58 0 0 0 .32.16h.44a1.24 1.24 0 0 1 .67.14.5.5 0 0 1 .23.46.69.69 0 0 1 -.09.34.9.9 0 0 1 -.27.28 1.74 1.74 0 0 1 -.41.18 2.21 2.21 0 0 1 -.54.07 2.59 2.59 0 0 1 -.41 0 1.33 1.33 0 0 1 -.32-.12.85.85 0 0 1 -.22-.2.54.54 0 0 1 -.08-.36zm.48-.08a.27.27 0 0 0 .17.26 1 1 0 0 0 .46.09.85.85 0 0 0 .48-.12.33.33 0 0 0 .18-.27c0-.1 0-.17-.11-.2a.85.85 0 0 0 -.32 0h-.34a1.55 1.55 0 0 1 -.33 0 .38.38 0 0 0 -.2.24zm.57-1.5a.41.41 0 0 0 .3-.13.6.6 0 0 0 0-.72.38.38 0 0 0 -.3-.13.42.42 0 0 0 -.31.13.6.6 0 0 0 0 .72.42.42 0 0 0 .26.13z"/><path d="m15.33 40.82h.57v1.32a1.33 1.33 0 0 1 .34-.22.81.81 0 0 1 .37-.09.91.91 0 0 1 .41.09.81.81 0 0 1 .3.25 1 1 0 0 1 .19.4 1.84 1.84 0 0 1 0 1.07 1.39 1.39 0 0 1 -.23.42 1.06 1.06 0 0 1 -.34.26.89.89 0 0 1 -.39.09.81.81 0 0 1 -.34-.08 1 1 0 0 1 -.33-.23l-.05.25h-.45zm.57 2.91a.83.83 0 0 0 .26.16.74.74 0 0 0 .24 0 .52.52 0 0 0 .41-.22 1 1 0 0 0 .16-.63 1.1 1.1 0 0 0 -.12-.57.45.45 0 0 0 -.41-.21.82.82 0 0 0 -.54.27z"/><path d="m18 43.12a1.53 1.53 0 0 1 .09-.54 1.26 1.26 0 0 1 .26-.4 1.18 1.18 0 0 1 .37-.26 1.12 1.12 0 0 1 .44-.09 1.17 1.17 0 0 1 .45.09 1.18 1.18 0 0 1 .37.26 1.46 1.46 0 0 1 .26.4 1.53 1.53 0 0 1 .09.54 1.55 1.55 0 0 1 -.09.55 1.51 1.51 0 0 1 -.26.41 1.15 1.15 0 0 1 -.37.25 1.38 1.38 0 0 1 -.45.08 1.32 1.32 0 0 1 -.44-.08 1.15 1.15 0 0 1 -.37-.25 1.31 1.31 0 0 1 -.26-.41 1.55 1.55 0 0 1 -.09-.55zm.59 0a1.07 1.07 0 0 0 .15.6.47.47 0 0 0 .42.22.5.5 0 0 0 .43-.22 1.07 1.07 0 0 0 .15-.6 1.05 1.05 0 0 0 -.15-.59.5.5 0 0 0 -.43-.22.47.47 0 0 0 -.42.22 1.05 1.05 0 0 0 -.16.59z"/><path d="m20.89 40.82h.58v2.93a.21.21 0 0 0 0 .15.09.09 0 0 0 .08 0h.09l.08.43a.87.87 0 0 1 -.31 0 .49.49 0 0 1 -.43-.18.88.88 0 0 1 -.13-.51z"/><path d="m22.25 40.82h.57v2.93a.27.27 0 0 0 0 .15.12.12 0 0 0 .09 0h.09l.07.43a.81.81 0 0 1 -.3 0 .51.51 0 0 1 -.44-.18 1 1 0 0 1 -.12-.51z"/><path d="m23.5 43.69a.68.68 0 0 1 .34-.61 2.88 2.88 0 0 1 1.1-.3 1.1 1.1 0 0 0 0-.18.48.48 0 0 0 -.08-.16.32.32 0 0 0 -.13-.1.46.46 0 0 0 -.21 0 .89.89 0 0 0 -.36.07 2.06 2.06 0 0 0 -.33.17l-.21-.38a2 2 0 0 1 .46-.23 1.57 1.57 0 0 1 .54-.1.85.85 0 0 1 .69.28 1.2 1.2 0 0 1 .23.79v1.45h-.47l-.07-.31a2.71 2.71 0 0 1 -.35.24 1 1 0 0 1 -.41.09.74.74 0 0 1 -.53-.2.7.7 0 0 1 -.21-.52zm.56 0a.3.3 0 0 0 .1.24.37.37 0 0 0 .25.07.5.5 0 0 0 .27-.07 1.13 1.13 0 0 0 .26-.2v-.55a3.51 3.51 0 0 0 -.42.08 1.16 1.16 0 0 0 -.27.11.43.43 0 0 0 -.15.15.31.31 0 0 0 -.04.13z"/><path d="m26.22 41.9h.47v.43a1.06 1.06 0 0 1 .32-.37.7.7 0 0 1 .38-.13.58.58 0 0 1 .28.06l-.1.5h-.12-.14a.48.48 0 0 0 -.3.11.82.82 0 0 0 -.28.39v1.5h-.57z"/><path d="m27.88 43.12a1.61 1.61 0 0 1 .09-.54 1.55 1.55 0 0 1 .23-.4 1 1 0 0 1 .34-.25.86.86 0 0 1 .38-.1.8.8 0 0 1 .36.08 1.52 1.52 0 0 1 .29.2v-.4-.89h.57v3.53h-.47v-.27a1.28 1.28 0 0 1 -.32.24.82.82 0 0 1 -.38.09.87.87 0 0 1 -.73-.34 1.42 1.42 0 0 1 -.36-.95zm.6 0a1.12 1.12 0 0 0 .14.61.47.47 0 0 0 .41.21.7.7 0 0 0 .52-.28v-1.14a.75.75 0 0 0 -.5-.21.51.51 0 0 0 -.41.21 1 1 0 0 0 -.16.6z"/><path d="m30.88 43.7a1.46 1.46 0 0 0 .33.2.78.78 0 0 0 .35.08.4.4 0 0 0 .29-.09.24.24 0 0 0 .1-.21.21.21 0 0 0 -.05-.13.4.4 0 0 0 -.12-.1l-.17-.09-.19-.07-.24-.11a.93.93 0 0 1 -.18-.18.74.74 0 0 1 -.16-.2.5.5 0 0 1 -.07-.27.66.66 0 0 1 .23-.53 1 1 0 0 1 .66-.21 1.15 1.15 0 0 1 .46.1 1.68 1.68 0 0 1 .35.2l-.26.35-.26-.15a.71.71 0 0 0 -.28-.06.38.38 0 0 0 -.27.08.23.23 0 0 0 -.09.19.2.2 0 0 0 0 .13l.11.09.17.07.19.08.22.13a1.09 1.09 0 0 1 .23.14.83.83 0 0 1 .16.21.65.65 0 0 1 .06.29.73.73 0 0 1 -.06.3.69.69 0 0 1 -.18.24.86.86 0 0 1 -.3.16 1.31 1.31 0 0 1 -.41.06 1.24 1.24 0 0 1 -.5-.1 1.37 1.37 0 0 1 -.43-.24z"/></g></svg>