<svg viewBox="0 0 48 48" xmlns="http://www.w3.org/2000/svg"><path d="m37.21 47h-26.42a1.29 1.29 0 0 1 -1.29-1.29v-5.5a1.29 1.29 0 0 1 1.29-1.29h26.42a1.29 1.29 0 0 1 1.29 1.29v5.5a1.29 1.29 0 0 1 -1.29 1.29z" fill="#fff" stroke="#272525" stroke-width=".53"/><path d="m27.34 35.63h-22.2l18.72-32.65 18.73 32.65z" fill="#fff"/><path d="m42 37.63a2.76 2.76 0 0 0 2.38-1.39 2.74 2.74 0 0 0 0-2.74l-18-31.12a2.75 2.75 0 0 0 -4.76 0l-17.98 31.12a2.69 2.69 0 0 0 0 2.74 2.73 2.73 0 0 0 2.36 1.38h36" fill="#ed1c24"/><path d="m7.61 33.95h32.79l-16.4-28.37z" fill="#fff"/><path d="m23.88 27.52a2.44 2.44 0 1 1 -2.43 2.48 2.43 2.43 0 0 1 2.43-2.43" fill="#1f1d1e"/><path d="m23.54 26.3h.73l2.73-10.81a3.5 3.5 0 0 0 .07-.65 3.17 3.17 0 0 0 -6.34 0 2.81 2.81 0 0 0 .07.65z" fill="#1f1d1e"/><g fill="#1d1d1b"><path d="m12.5 43.94a1.75 1.75 0 0 0 .48.32 1.32 1.32 0 0 0 .54.12.84.84 0 0 0 .51-.13.47.47 0 0 0 .17-.37.39.39 0 0 0 0-.2.44.44 0 0 0 -.12-.15l-.19-.12-.25-.1-.54-.24a1.91 1.91 0 0 1 -.28-.15 1.33 1.33 0 0 1 -.26-.21 1.49 1.49 0 0 1 -.18-.3.92.92 0 0 1 -.07-.38 1 1 0 0 1 .1-.44 1.31 1.31 0 0 1 .27-.35 1.22 1.22 0 0 1 .42-.23 1.51 1.51 0 0 1 .53-.09 1.66 1.66 0 0 1 .66.14 1.75 1.75 0 0 1 .55.36l-.36.45a1.51 1.51 0 0 0 -.39-.25 1.14 1.14 0 0 0 -.46-.09.75.75 0 0 0 -.45.12.41.41 0 0 0 -.18.35.42.42 0 0 0 0 .2.62.62 0 0 0 .14.14l.2.11.24.1.53.23a1.59 1.59 0 0 1 .32.16 1.1 1.1 0 0 1 .25.23.9.9 0 0 1 .16.29 1.08 1.08 0 0 1 .06.38 1.13 1.13 0 0 1 -.09.45 1.25 1.25 0 0 1 -.28.37 1.39 1.39 0 0 1 -.45.25 1.78 1.78 0 0 1 -.59.09 2 2 0 0 1 -.76-.15 2 2 0 0 1 -.65-.42z"/><path d="m15.67 42.52h-.42v-.52h.46l.08-.8h.58v.8h.75v.55h-.75v1.4c0 .35.13.52.41.52h.16l.15-.05.12.51-.28.08a1.66 1.66 0 0 1 -.32 0 1.12 1.12 0 0 1 -.44-.08.7.7 0 0 1 -.29-.22.85.85 0 0 1 -.16-.33 2 2 0 0 1 -.05-.44z"/><path d="m17.73 42h.57l.05.53a1.3 1.3 0 0 1 .37-.45.81.81 0 0 1 .46-.15.83.83 0 0 1 .34.06l-.12.6h-.15-.16a.66.66 0 0 0 -.37.14 1.21 1.21 0 0 0 -.33.47v1.8h-.69z"/><path d="m19.94 42h.69v1.76a.93.93 0 0 0 .11.52.4.4 0 0 0 .35.15.57.57 0 0 0 .34-.1 1.5 1.5 0 0 0 .31-.31v-2.02h.69v3h-.56l-.06-.43a1.75 1.75 0 0 1 -.42.36.93.93 0 0 1 -.53.14.78.78 0 0 1 -.69-.3 1.43 1.43 0 0 1 -.22-.87z"/><path d="m23.12 43.45a1.76 1.76 0 0 1 .12-.66 1.23 1.23 0 0 1 .32-.48 1.45 1.45 0 0 1 .44-.31 1.55 1.55 0 0 1 .56-.11 1.12 1.12 0 0 1 .5.1 2 2 0 0 1 .37.24l-.34.44a1.06 1.06 0 0 0 -.23-.16.58.58 0 0 0 -.26-.06.74.74 0 0 0 -.59.27 1.14 1.14 0 0 0 -.22.72 1.11 1.11 0 0 0 .22.71.71.71 0 0 0 .57.27.73.73 0 0 0 .33-.08 1.34 1.34 0 0 0 .28-.18l.28.44a1.49 1.49 0 0 1 -.46.29 1.53 1.53 0 0 1 -1.06 0 1.31 1.31 0 0 1 -.46-.3 1.5 1.5 0 0 1 -.3-.49 1.89 1.89 0 0 1 -.07-.65z"/><path d="m26.18 42.52h-.42v-.52h.46l.08-.8h.58v.8h.75v.55h-.75v1.4c0 .35.14.52.41.52h.16l.15-.05.12.51a1.58 1.58 0 0 1 -.28.08 1.66 1.66 0 0 1 -.32 0 1.15 1.15 0 0 1 -.44-.08.7.7 0 0 1 -.29-.22 1 1 0 0 1 -.16-.33 2 2 0 0 1 -.05-.44z"/><path d="m28.19 42h.69v1.76a.93.93 0 0 0 .11.52.4.4 0 0 0 .35.15.57.57 0 0 0 .34-.1 1.5 1.5 0 0 0 .32-.33v-2h.69v3h-.56l-.06-.43a1.75 1.75 0 0 1 -.42.36.93.93 0 0 1 -.53.14.78.78 0 0 1 -.69-.3 1.43 1.43 0 0 1 -.22-.87z"/><path d="m31.56 42h.57v.53a1.22 1.22 0 0 1 .38-.45.81.81 0 0 1 .49-.18.8.8 0 0 1 .34.06l-.12.6a.4.4 0 0 0 -.15 0h-.16a.66.66 0 0 0 -.36.14 1 1 0 0 0 -.33.47v1.8h-.69z"/><path d="m33.54 43.45a1.67 1.67 0 0 1 .12-.65 1.31 1.31 0 0 1 .3-.48 1.22 1.22 0 0 1 .44-.32 1.25 1.25 0 0 1 .5-.11 1.47 1.47 0 0 1 .53.1 1.1 1.1 0 0 1 .38.29 1.28 1.28 0 0 1 .23.45 1.94 1.94 0 0 1 .08.56 1.33 1.33 0 0 1 0 .32h-1.91a1 1 0 0 0 .28.62.86.86 0 0 0 .59.22 1 1 0 0 0 .36-.06 1.66 1.66 0 0 0 .33-.16l.23.43a1.71 1.71 0 0 1 -.47.23 1.6 1.6 0 0 1 -.53.11 1.57 1.57 0 0 1 -.58-.1 1.44 1.44 0 0 1 -.46-.31 1.47 1.47 0 0 1 -.31-.48 1.88 1.88 0 0 1 -.11-.66zm2-.26a.93.93 0 0 0 -.15-.56.53.53 0 0 0 -.45-.19.65.65 0 0 0 -.46.18.89.89 0 0 0 -.25.57z"/></g></svg>