<svg viewBox="0 0 48 48" xmlns="http://www.w3.org/2000/svg"><path d="m11.68 41.24h-8.13l20.21-35.04 20.31 35.04z" fill="#fff" fill-rule="evenodd"/><path d="m43.52 43.88a3 3 0 0 0 2.58-4.48l-19.52-33.79a3 3 0 0 0 -2.58-1.49 3 3 0 0 0 -2.58 1.48l-19.52 33.8a3 3 0 0 0 2.59 4.47h39" fill="#ec1c24" fill-rule="evenodd"/><path d="m6.21 39.9h35.58l-17.79-30.81z" fill="#fff" fill-rule="evenodd"/><path d="m17.42 30.63a6.62 6.62 0 0 1 5.24-6.48l.05.34a6.29 6.29 0 0 0 -4.95 6.15h-.34" fill="#1a1718" fill-rule="evenodd"/><path d="m30.34 30.64a6.29 6.29 0 0 0 -4.95-6.15l.05-.34a6.62 6.62 0 0 1 5.24 6.48h-.34" fill="#1a1718" fill-rule="evenodd"/><path d="m25.35 24.81a6.82 6.82 0 0 0 -1.3-.15 7 7 0 0 0 -1.29.14l-.36-2.45h3.31z" fill="#1a1718" fill-rule="evenodd"/><path d="m25.07 24.42a8.07 8.07 0 0 0 -1-.09 6.24 6.24 0 0 0 -1 .09l-.26-1.74h2.56l-.26 1.74" fill="#fff" fill-rule="evenodd"/><g fill="#1a1718"><path d="m17.95 23.02-2.84 5.04-.34-.08 2.99-5.3z" fill-rule="evenodd"/><path d="m30.15 23.02 2.84 5.04.34-.08-2.98-5.3z" fill-rule="evenodd"/><path d="m17.76 22.68h4.96v.34h-4.96z"/><path d="m25.38 22.68h4.98v.34h-4.98z"/><path d="m14.77 27.98h.34v10.6h-.34z"/><path d="m32.99 27.98h.34v10.6h-.34z"/><path d="m14.77 38.25h18.57v.33h-18.57z"/><path d="m30.35 30.64h.33v7.62h-.33z"/><path d="m17.42 30.64h.34v7.62h-.34z"/><path d="m15.11 30.64h2.31v.33h-2.31z"/><path d="m15.11 32.53h2.31v.34h-2.31z"/><path d="m15.11 34.44h2.31v.34h-2.31z"/><path d="m15.11 36.34h2.31v.33h-2.31z"/><path d="m30.68 30.64h2.31v.33h-2.31z"/><path d="m30.68 32.53h2.31v.34h-2.31z"/><path d="m30.68 34.44h2.31v.34h-2.31z"/><path d="m30.68 36.34h2.31v.33h-2.31z"/><path d="m17.65 23.1 2.13 2.67.27-.2-2.19-2.74z" fill-rule="evenodd"/><path d="m30.46 23.1-2.14 2.67-.27-.2 2.19-2.74z" fill-rule="evenodd"/><path d="m20.36 22.88 1 1.9-.29.15-1.07-2.06z" fill-rule="evenodd"/><path d="m27.75 22.87-1 1.89.29.16 1.07-2.05z" fill-rule="evenodd"/><path d="m14.94 28.38 2.82.79.09-.3-2.89-.84z" fill-rule="evenodd"/><path d="m33.18 28.36-2.82.81-.08-.31 2.89-.83z" fill-rule="evenodd"/><path d="m18.52 27.36-2.4-1.42.16-.28 2.4 1.41z" fill-rule="evenodd"/><path d="m29.61 27.34 2.41-1.43-.16-.27-2.4 1.42z" fill-rule="evenodd"/><path d="m18.74 30.63a5.31 5.31 0 0 1 10.61 0v7.62h-10.61z" fill-rule="evenodd"/></g></svg>