<svg viewBox="0 0 48 48" xmlns="http://www.w3.org/2000/svg"><path d="m46.5 31.71a2.8 2.8 0 0 1 -2.81 2.8h-39.38a2.8 2.8 0 0 1 -2.81-2.8v-15.42a2.8 2.8 0 0 1 2.81-2.8h39.38a2.8 2.8 0 0 1 2.81 2.8z" fill="#fff" stroke="#0079c1"/><path d="m45.17 31.71a1.47 1.47 0 0 1 -1.48 1.47h-39.38a1.47 1.47 0 0 1 -1.48-1.47v-15.42a1.47 1.47 0 0 1 1.48-1.47h39.38a1.47 1.47 0 0 1 1.48 1.47z" fill="#0079c1"/><g fill="#fff"><path d="m7.08 17.41h.92v2.82a3.06 3.06 0 0 0 0 .67 1.13 1.13 0 0 0 .21.44.73.73 0 0 0 .31.24 1 1 0 0 0 .4.07 1.16 1.16 0 0 0 .42-.07.82.82 0 0 0 .32-.24 1.13 1.13 0 0 0 .21-.44 2.55 2.55 0 0 0 .07-.67v-2.82h.84v2.76a3.85 3.85 0 0 1 -.13 1 1.89 1.89 0 0 1 -.37.69 1.39 1.39 0 0 1 -.59.39 2.07 2.07 0 0 1 -.77.13 2 2 0 0 1 -.76-.13 1.39 1.39 0 0 1 -.59-.39 1.75 1.75 0 0 1 -.37-.69 3.47 3.47 0 0 1 -.14-1z"/><path d="m11.94 18.64h.72l.06.49a2.6 2.6 0 0 1 .53-.41 1.26 1.26 0 0 1 .67-.17 1 1 0 0 1 .87.37 1.89 1.89 0 0 1 .3 1.08v2.31h-.87v-2.2a1.13 1.13 0 0 0 -.13-.64.5.5 0 0 0 -.44-.19.89.89 0 0 0 -.43.11 2.85 2.85 0 0 0 -.41.35v2.57h-.87z"/><path d="m16.18 21.34a3 3 0 0 0 .49.31 1.32 1.32 0 0 0 .53.11.66.66 0 0 0 .44-.13.39.39 0 0 0 .15-.32.37.37 0 0 0 -.07-.2l-.18-.11a1.57 1.57 0 0 0 -.26-.12l-.28-.16a3.76 3.76 0 0 1 -.37-.16 1.85 1.85 0 0 1 -.33-.21 1.13 1.13 0 0 1 -.24-.3.74.74 0 0 1 -.1-.4 1 1 0 0 1 .36-.8 1.5 1.5 0 0 1 1-.3 1.73 1.73 0 0 1 .69.13 2.46 2.46 0 0 1 .53.31l-.4.52a2.65 2.65 0 0 0 -.39-.23 1.2 1.2 0 0 0 -.42-.08.67.67 0 0 0 -.41.11.37.37 0 0 0 -.13.29.29.29 0 0 0 .06.19.58.58 0 0 0 .17.14l.25.12.29.1.37.15a1.33 1.33 0 0 1 .34.22 1 1 0 0 1 .25.31 1 1 0 0 1 .09.44 1 1 0 0 1 -.09.44 1 1 0 0 1 -.27.36 1.22 1.22 0 0 1 -.45.25 2 2 0 0 1 -.62.09 2 2 0 0 1 -.75-.15 2.61 2.61 0 0 1 -.64-.36z"/><path d="m19.34 18.64h.86v2.19a1.16 1.16 0 0 0 .14.65.5.5 0 0 0 .43.19.8.8 0 0 0 .43-.12 1.78 1.78 0 0 0 .39-.39v-2.52h.86v3.68h-.7l-.07-.54a2.46 2.46 0 0 1 -.52.46 1.31 1.31 0 0 1 -.67.17 1 1 0 0 1 -.86-.38 1.83 1.83 0 0 1 -.29-1.03z"/><path d="m24 18a.55.55 0 0 1 -.38-.13.46.46 0 0 1 -.15-.36.45.45 0 0 1 .15-.35.51.51 0 0 1 .38-.16.5.5 0 0 1 .38.14.45.45 0 0 1 .15.35.46.46 0 0 1 -.15.36.53.53 0 0 1 -.38.15zm-.43.65h.86v3.68h-.86z"/><path d="m25.64 19.32h-.53v-.65h.57l.11-1h.72v1h.94v.68h-.94v1.75c0 .43.17.65.52.65h.2l.18-.06.15.63a2.31 2.31 0 0 1 -.34.1 2.71 2.71 0 0 1 -.41 0 1.21 1.21 0 0 1 -.54-.1.9.9 0 0 1 -.36-.27 1.19 1.19 0 0 1 -.21-.42 2.38 2.38 0 0 1 -.06-.55z"/><path d="m28 21.33a1 1 0 0 1 .52-.92 4.24 4.24 0 0 1 1.6-.41 1.26 1.26 0 0 0 0-.27.71.71 0 0 0 -.12-.23.53.53 0 0 0 -.2-.16.71.71 0 0 0 -.31-.06 1.41 1.41 0 0 0 -.54.11 3.33 3.33 0 0 0 -.5.25l-.35-.64a3.32 3.32 0 0 1 .68-.34 2.26 2.26 0 0 1 .83-.14 1.26 1.26 0 0 1 1 .4 1.82 1.82 0 0 1 .39 1.22v2.18h-.71l-.06-.41a2.75 2.75 0 0 1 -.53.36 1.37 1.37 0 0 1 -.61.14 1.09 1.09 0 0 1 -.79-.3 1.06 1.06 0 0 1 -.3-.78zm.84-.07a.41.41 0 0 0 .15.36.54.54 0 0 0 .37.11.87.87 0 0 0 .42-.1 2.27 2.27 0 0 0 .39-.3v-.83a3.94 3.94 0 0 0 -.63.12 1.81 1.81 0 0 0 -.41.17.52.52 0 0 0 -.22.22.45.45 0 0 0 -.12.25z"/><path d="m32 17h.86v1.37.61a2.23 2.23 0 0 1 .51-.33 1.33 1.33 0 0 1 .55-.12 1.38 1.38 0 0 1 .62.13 1.26 1.26 0 0 1 .46.37 1.7 1.7 0 0 1 .28.59 2.66 2.66 0 0 1 .1.77 2.49 2.49 0 0 1 -.13.85 2.18 2.18 0 0 1 -.35.62 1.54 1.54 0 0 1 -.5.39 1.39 1.39 0 0 1 -.6.14 1.19 1.19 0 0 1 -.51-.12 1.77 1.77 0 0 1 -.49-.35l-.08.38h-.72zm.86 4.37a1.37 1.37 0 0 0 .39.24 1.21 1.21 0 0 0 .35.07.77.77 0 0 0 .62-.32 1.58 1.58 0 0 0 .25-.95 1.69 1.69 0 0 0 -.19-.86.66.66 0 0 0 -.61-.31 1.21 1.21 0 0 0 -.81.41z"/><path d="m36.26 17h.86v4.4a.32.32 0 0 0 .06.22.18.18 0 0 0 .13.06h.13l.12.64a1.19 1.19 0 0 1 -.46.08.71.71 0 0 1 -.65-.28 1.3 1.3 0 0 1 -.19-.76z"/><path d="m38.05 20.48a2.29 2.29 0 0 1 .14-.81 2.18 2.18 0 0 1 .38-.61 1.75 1.75 0 0 1 .55-.38 1.51 1.51 0 0 1 .63-.13 1.69 1.69 0 0 1 .66.12 1.4 1.4 0 0 1 .47.36 1.49 1.49 0 0 1 .29.56 2.24 2.24 0 0 1 .1.7 1.53 1.53 0 0 1 0 .41h-2.38a1.23 1.23 0 0 0 .35.77 1 1 0 0 0 .74.27 1.23 1.23 0 0 0 .44-.07 1.73 1.73 0 0 0 .41-.2l.3.54a2.7 2.7 0 0 1 -.59.29 2.14 2.14 0 0 1 -.67.11 2.09 2.09 0 0 1 -.72-.13 1.73 1.73 0 0 1 -.57-.38 1.68 1.68 0 0 1 -.39-.61 2.21 2.21 0 0 1 -.14-.81zm2.47-.33a1.11 1.11 0 0 0 -.19-.69.66.66 0 0 0 -.56-.25.82.82 0 0 0 -.58.24 1.17 1.17 0 0 0 -.31.7z"/><path d="m8.11 25.21a1 1 0 0 0 -.41-.09c-.31 0-.46.2-.46.62v.4h.76v.68h-.76v3h-.86v-3h-.5v-.65h.5v-.39a2.26 2.26 0 0 1 .06-.53 1.2 1.2 0 0 1 .22-.42 1.19 1.19 0 0 1 .34-.3 1.52 1.52 0 0 1 .56-.1 2.21 2.21 0 0 1 .37 0l.3.09z"/><path d="m8.29 28a2.14 2.14 0 0 1 .14-.82 1.56 1.56 0 0 1 .39-.6 1.51 1.51 0 0 1 .56-.38 1.62 1.62 0 0 1 .66-.13 1.65 1.65 0 0 1 .66.13 1.51 1.51 0 0 1 .56.38 1.67 1.67 0 0 1 .38.6 2.14 2.14 0 0 1 .15.82 2.1 2.1 0 0 1 -.15.82 1.8 1.8 0 0 1 -.38.61 1.61 1.61 0 0 1 -.56.37 1.65 1.65 0 0 1 -.66.13 1.74 1.74 0 0 1 -1.22-.5 1.68 1.68 0 0 1 -.39-.61 2.11 2.11 0 0 1 -.14-.82zm.88 0a1.56 1.56 0 0 0 .23.89.74.74 0 0 0 .64.33.72.72 0 0 0 .63-.33 1.49 1.49 0 0 0 .23-.89 1.54 1.54 0 0 0 -.23-.9.72.72 0 0 0 -.63-.33.74.74 0 0 0 -.64.33 1.62 1.62 0 0 0 -.23.9z"/><path d="m12.65 26.14h.71l.06.65a1.52 1.52 0 0 1 .47-.55 1 1 0 0 1 .57-.19 1 1 0 0 1 .42.07l-.15.75h-.18-.2a.82.82 0 0 0 -.46.17 1.26 1.26 0 0 0 -.41.59v2.25h-.86z"/><path d="m16.74 28a2.14 2.14 0 0 1 .15-.82 1.71 1.71 0 0 1 .4-.6 1.62 1.62 0 0 1 .59-.38 1.89 1.89 0 0 1 .7-.13 1.51 1.51 0 0 1 .63.12 1.66 1.66 0 0 1 .46.3l-.42.55a1.74 1.74 0 0 0 -.3-.2.68.68 0 0 0 -.32-.07.92.92 0 0 0 -.73.33 1.42 1.42 0 0 0 -.28.9 1.37 1.37 0 0 0 .28.89.88.88 0 0 0 .71.33.91.91 0 0 0 .41-.09 1.74 1.74 0 0 0 .35-.22l.36.55a2 2 0 0 1 -.58.35 1.76 1.76 0 0 1 -.63.12 1.78 1.78 0 0 1 -.7-.13 1.56 1.56 0 0 1 -.57-.37 1.78 1.78 0 0 1 -.37-.61 2.31 2.31 0 0 1 -.14-.82z"/><path d="m20 28a2.14 2.14 0 0 1 .15-.82 1.67 1.67 0 0 1 .38-.6 1.59 1.59 0 0 1 .56-.38 1.65 1.65 0 0 1 .66-.13 1.74 1.74 0 0 1 .67.13 1.47 1.47 0 0 1 .55.38 1.83 1.83 0 0 1 .39.6 2.14 2.14 0 0 1 .15.82 2.1 2.1 0 0 1 -.15.82 2 2 0 0 1 -.39.61 1.57 1.57 0 0 1 -.55.37 1.74 1.74 0 0 1 -.67.13 1.65 1.65 0 0 1 -.66-.13 1.71 1.71 0 0 1 -.56-.37 1.8 1.8 0 0 1 -.38-.61 2.1 2.1 0 0 1 -.15-.82zm.89 0a1.56 1.56 0 0 0 .23.89.72.72 0 0 0 .63.33.75.75 0 0 0 .64-.33 1.56 1.56 0 0 0 .23-.89 1.62 1.62 0 0 0 -.23-.9.75.75 0 0 0 -.64-.33.72.72 0 0 0 -.63.33 1.62 1.62 0 0 0 -.21.9z"/><path d="m24.14 28.83a1 1 0 0 1 .51-.92 4.35 4.35 0 0 1 1.65-.45 1.24 1.24 0 0 0 0-.27.71.71 0 0 0 -.12-.23.53.53 0 0 0 -.2-.16.75.75 0 0 0 -.31-.06 1.41 1.41 0 0 0 -.54.11 3.33 3.33 0 0 0 -.5.25l-.31-.57a3.32 3.32 0 0 1 .68-.34 2.21 2.21 0 0 1 .82-.14 1.28 1.28 0 0 1 1 .4 1.87 1.87 0 0 1 .34 1.19v2.18h-.71l-.07-.41a2.75 2.75 0 0 1 -.53.36 1.4 1.4 0 0 1 -.61.14 1.08 1.08 0 0 1 -.79-.3 1.06 1.06 0 0 1 -.31-.78zm.84-.07a.4.4 0 0 0 .14.36.59.59 0 0 0 .38.11.8.8 0 0 0 .41-.1 1.7 1.7 0 0 0 .39-.3v-.83a3.94 3.94 0 0 0 -.63.12 2 2 0 0 0 -.41.17.66.66 0 0 0 -.22.22.54.54 0 0 0 -.04.25z"/><path d="m28 28a2.14 2.14 0 0 1 .14-.82 1.88 1.88 0 0 1 .41-.6 1.62 1.62 0 0 1 .59-.38 1.82 1.82 0 0 1 .7-.13 1.54 1.54 0 0 1 .63.12 1.77 1.77 0 0 1 .45.3l-.41.55a1.74 1.74 0 0 0 -.3-.2.72.72 0 0 0 -.33-.07.88.88 0 0 0 -.72.33 1.59 1.59 0 0 0 0 1.79.89.89 0 0 0 .71.33 1 1 0 0 0 .42-.09 1.66 1.66 0 0 0 .34-.22l.36.55a2 2 0 0 1 -.58.35 1.76 1.76 0 0 1 -.63.12 1.82 1.82 0 0 1 -.7-.13 1.65 1.65 0 0 1 -.57-.37 1.78 1.78 0 0 1 -.37-.61 2.31 2.31 0 0 1 -.14-.82z"/><path d="m31.68 24.52h.86v1.37.71a4.15 4.15 0 0 1 .52-.39 1.27 1.27 0 0 1 .66-.16 1 1 0 0 1 .86.37 1.89 1.89 0 0 1 .27 1.09v2.31h-.85v-2.2a1 1 0 0 0 -.14-.64.49.49 0 0 0 -.44-.19.82.82 0 0 0 -.42.11 3.5 3.5 0 0 0 -.42.35v2.57h-.86z"/><path d="m35.62 28a2.09 2.09 0 0 1 .15-.81 1.8 1.8 0 0 1 .38-.61 1.6 1.6 0 0 1 .54-.38 1.55 1.55 0 0 1 .63-.13 1.69 1.69 0 0 1 .66.12 1.44 1.44 0 0 1 .48.36 1.85 1.85 0 0 1 .29.56 2.58 2.58 0 0 1 .09.7 1.53 1.53 0 0 1 0 .41h-2.38a1.23 1.23 0 0 0 .35.77 1.05 1.05 0 0 0 .74.27 1.33 1.33 0 0 0 .45-.07 1.93 1.93 0 0 0 .41-.2l.29.54a2.7 2.7 0 0 1 -.59.29 2.14 2.14 0 0 1 -.67.11 2.08 2.08 0 0 1 -.71-.13 1.77 1.77 0 0 1 -.58-.38 1.82 1.82 0 0 1 -.39-.61 2.21 2.21 0 0 1 -.14-.81zm2.47-.33a1.18 1.18 0 0 0 -.18-.69.67.67 0 0 0 -.57-.25.82.82 0 0 0 -.58.24 1.16 1.16 0 0 0 -.3.7z"/><path d="m39.7 28.84a2.72 2.72 0 0 0 .5.31 1.27 1.27 0 0 0 .52.11.71.71 0 0 0 .45-.13.42.42 0 0 0 .14-.32.31.31 0 0 0 -.07-.2.71.71 0 0 0 -.18-.15 1.45 1.45 0 0 0 -.25-.12l-.29-.12a3.76 3.76 0 0 1 -.37-.16 1.85 1.85 0 0 1 -.33-.21 1.13 1.13 0 0 1 -.24-.3.84.84 0 0 1 -.09-.4 1 1 0 0 1 .36-.8 1.47 1.47 0 0 1 1-.3 1.73 1.73 0 0 1 .69.13 2.46 2.46 0 0 1 .53.31l-.4.52a2.65 2.65 0 0 0 -.39-.23 1.16 1.16 0 0 0 -.42-.08.62.62 0 0 0 -.4.11.38.38 0 0 0 -.14.29.29.29 0 0 0 .07.19.47.47 0 0 0 .17.14l.24.12.29.1.37.15a1.59 1.59 0 0 1 .35.22.92.92 0 0 1 .24.31.87.87 0 0 1 .1.44.92.92 0 0 1 -.1.44 1 1 0 0 1 -.27.36 1.22 1.22 0 0 1 -.45.25 2 2 0 0 1 -.62.09 2 2 0 0 1 -.75-.15 2.61 2.61 0 0 1 -.64-.36z"/></g></svg>