<svg viewBox="0 0 48 48" xmlns="http://www.w3.org/2000/svg"><path d="m46.5 35.73a3 3 0 0 1 -3 3h-39a3 3 0 0 1 -3-3v-23.46a3 3 0 0 1 3-3h39a3 3 0 0 1 3 3z" fill="#fff" stroke="#0079c1"/><path d="m45.09 35.73a1.58 1.58 0 0 1 -1.58 1.58h-39a1.58 1.58 0 0 1 -1.58-1.58v-23.46a1.58 1.58 0 0 1 1.58-1.58h39a1.58 1.58 0 0 1 1.58 1.58z" fill="#0079c1"/><g fill="#fff"><path d="m6.87 13.65h.87v2.82a3.06 3.06 0 0 0 .07.67 1.13 1.13 0 0 0 .21.44.73.73 0 0 0 .31.24 1 1 0 0 0 .4.07 1.07 1.07 0 0 0 .41-.07.78.78 0 0 0 .33-.24 1.13 1.13 0 0 0 .21-.44 2.55 2.55 0 0 0 .07-.67v-2.82h.83v2.75a3.91 3.91 0 0 1 -.12 1 1.89 1.89 0 0 1 -.37.69 1.45 1.45 0 0 1 -.59.39 2.07 2.07 0 0 1 -.77.13 2.11 2.11 0 0 1 -.73-.09 1.42 1.42 0 0 1 -.58-.39 1.9 1.9 0 0 1 -.42-.69 3.88 3.88 0 0 1 -.13-1z"/><path d="m11.73 14.87h.71l.06.5a3 3 0 0 1 .54-.41 1.24 1.24 0 0 1 .67-.18 1 1 0 0 1 .86.38 1.89 1.89 0 0 1 .27 1.09v2.31h-.84v-2.2a1.17 1.17 0 0 0 -.13-.65.53.53 0 0 0 -.45-.18.73.73 0 0 0 -.42.11 3.3 3.3 0 0 0 -.42.34v2.58h-.86z"/><path d="m16 17.58a2.16 2.16 0 0 0 .49.3 1.17 1.17 0 0 0 .51.12.66.66 0 0 0 .44-.12.39.39 0 0 0 .14-.32.36.36 0 0 0 -.06-.2.65.65 0 0 0 -.18-.15 1.58 1.58 0 0 0 -.26-.13l-.29-.08-.37-.16a1.33 1.33 0 0 1 -.34-.22 1.09 1.09 0 0 1 -.23-.29.77.77 0 0 1 -.1-.4 1 1 0 0 1 .36-.8 1.49 1.49 0 0 1 1-.31 1.67 1.67 0 0 1 .69.14 2.32 2.32 0 0 1 .54.31l-.4.52a2.3 2.3 0 0 0 -.4-.23 1 1 0 0 0 -.41-.08.59.59 0 0 0 -.41.11.37.37 0 0 0 -.13.29.29.29 0 0 0 .06.19.61.61 0 0 0 .17.14 1.33 1.33 0 0 0 .24.11l.29.11a3 3 0 0 1 .38.15 1.52 1.52 0 0 1 .34.22 1.1 1.1 0 0 1 .25.31 1 1 0 0 1 .09.44 1.08 1.08 0 0 1 -.09.44 1.09 1.09 0 0 1 -.28.36 1.22 1.22 0 0 1 -.45.25 1.91 1.91 0 0 1 -.61.09 1.93 1.93 0 0 1 -.75-.15 2.68 2.68 0 0 1 -.65-.36z"/><path d="m19.13 14.87h.87v2.2a1.17 1.17 0 0 0 .13.65.52.52 0 0 0 .44.18.74.74 0 0 0 .42-.12 1.61 1.61 0 0 0 .4-.39v-2.52h.86v3.69h-.71l-.07-.56a2 2 0 0 1 -.52.45 1.19 1.19 0 0 1 -.66.18 1 1 0 0 1 -.86-.38 1.87 1.87 0 0 1 -.27-1.09z"/><path d="m23.77 14.23a.54.54 0 0 1 -.38-.14.44.44 0 0 1 -.15-.35.49.49 0 0 1 .15-.36.53.53 0 0 1 .38-.13.55.55 0 0 1 .38.13.49.49 0 0 1 .15.36.44.44 0 0 1 -.15.35.56.56 0 0 1 -.38.14zm-.44.64h.87v3.69h-.87z"/><path d="m25.43 15.56h-.53v-.65h.57l.11-1h.72v1h.93v.69h-.93v1.75c0 .43.17.65.51.65a.64.64 0 0 0 .2 0 .6.6 0 0 0 .19-.06l.15.64a2.75 2.75 0 0 1 -.34.1 2.71 2.71 0 0 1 -.41 0 1.46 1.46 0 0 1 -.55-.1 1.22 1.22 0 0 1 -.36-.27 1.17 1.17 0 0 1 -.2-.42 2.38 2.38 0 0 1 -.06-.55z"/><path d="m27.74 17.57a1 1 0 0 1 .51-.92 4.35 4.35 0 0 1 1.65-.45 1.24 1.24 0 0 0 0-.27.71.71 0 0 0 -.12-.23.45.45 0 0 0 -.2-.16.75.75 0 0 0 -.31-.06 1.41 1.41 0 0 0 -.54.11 3.33 3.33 0 0 0 -.5.25l-.31-.58a3.3 3.3 0 0 1 .68-.33 2.21 2.21 0 0 1 .82-.15 1.28 1.28 0 0 1 1 .41 1.84 1.84 0 0 1 .34 1.18v2.19h-.71l-.05-.41a2.32 2.32 0 0 1 -.53.35 1.28 1.28 0 0 1 -.61.15 1.08 1.08 0 0 1 -.79-.3 1.06 1.06 0 0 1 -.33-.78zm.84-.07a.43.43 0 0 0 .14.36.66.66 0 0 0 .38.11.8.8 0 0 0 .41-.1 1.7 1.7 0 0 0 .39-.3v-.83a3.94 3.94 0 0 0 -.63.12 2 2 0 0 0 -.41.17.64.64 0 0 0 -.22.21.58.58 0 0 0 -.06.26z"/><path d="m31.82 13.26h.86v1.37.61a2.41 2.41 0 0 1 .5-.33 1.43 1.43 0 0 1 .56-.13 1.38 1.38 0 0 1 .62.14 1.15 1.15 0 0 1 .45.37 1.71 1.71 0 0 1 .29.59 3.06 3.06 0 0 1 .1.77 2.76 2.76 0 0 1 -.13.85 2.18 2.18 0 0 1 -.35.62 1.58 1.58 0 0 1 -.51.39 1.35 1.35 0 0 1 -.59.14 1.19 1.19 0 0 1 -.51-.12 1.77 1.77 0 0 1 -.49-.35l-.07.38h-.68zm.86 4.37a1.37 1.37 0 0 0 .39.24 1.12 1.12 0 0 0 .35.06.76.76 0 0 0 .62-.31 1.59 1.59 0 0 0 .24-.95 1.76 1.76 0 0 0 -.18-.87.67.67 0 0 0 -.61-.3 1.17 1.17 0 0 0 -.81.41z"/><path d="m36.05 13.26h.86v4.4a.34.34 0 0 0 .06.22.18.18 0 0 0 .13.06h.13l.11.64a1.1 1.1 0 0 1 -.45.08.76.76 0 0 1 -.66-.28 1.4 1.4 0 0 1 -.18-.76z"/><path d="m37.84 16.72a2.29 2.29 0 0 1 .14-.81 2 2 0 0 1 .38-.61 1.83 1.83 0 0 1 .54-.38 1.6 1.6 0 0 1 .63-.14 1.69 1.69 0 0 1 .66.13 1.44 1.44 0 0 1 .48.36 1.65 1.65 0 0 1 .29.56 2.57 2.57 0 0 1 .1.7 2.09 2.09 0 0 1 0 .41h-2.38a1.18 1.18 0 0 0 .35.77 1 1 0 0 0 .74.27 1.27 1.27 0 0 0 .44-.07 2.22 2.22 0 0 0 .41-.2l.29.54a2.6 2.6 0 0 1 -.58.28 2 2 0 0 1 -.68.12 2.08 2.08 0 0 1 -.71-.13 1.88 1.88 0 0 1 -.58-.38 1.8 1.8 0 0 1 -.38-.61 2.09 2.09 0 0 1 -.14-.81zm2.47-.33a1.07 1.07 0 0 0 -.19-.69.64.64 0 0 0 -.56-.25.8.8 0 0 0 -.58.24 1.09 1.09 0 0 0 -.31.7z"/><path d="m12.73 21.44a1 1 0 0 0 -.41-.09c-.31 0-.46.21-.46.63v.39h.72v.69h-.72v3h-.86v-3h-.5v-.65h.49v-.41a2.19 2.19 0 0 1 .07-.53 1.2 1.2 0 0 1 .22-.42.88.88 0 0 1 .38-.27 1.34 1.34 0 0 1 .56-.1 1.5 1.5 0 0 1 .37 0 1.18 1.18 0 0 1 .3.09z"/><path d="m12.91 24.22a2.11 2.11 0 0 1 .14-.82 1.8 1.8 0 0 1 .38-.61 1.71 1.71 0 0 1 .56-.37 1.66 1.66 0 0 1 .66-.14 1.75 1.75 0 0 1 .67.14 1.71 1.71 0 0 1 .56.37 2 2 0 0 1 .38.61 2.1 2.1 0 0 1 .15.82 2.14 2.14 0 0 1 -.15.82 1.81 1.81 0 0 1 -.38.6 1.74 1.74 0 0 1 -.56.38 2 2 0 0 1 -.67.13 1.85 1.85 0 0 1 -.65-.15 1.74 1.74 0 0 1 -.56-.38 1.67 1.67 0 0 1 -.38-.6 2.14 2.14 0 0 1 -.15-.8zm.88 0a1.59 1.59 0 0 0 .23.89.72.72 0 0 0 .63.33.74.74 0 0 0 .64-.33 1.86 1.86 0 0 0 0-1.79.74.74 0 0 0 -.64-.33.72.72 0 0 0 -.63.33 1.58 1.58 0 0 0 -.23.9z"/><path d="m17.26 22.37h.74v.63a1.55 1.55 0 0 1 .47-.56 1 1 0 0 1 1-.11l-.15.75-.18-.05h-.14a.82.82 0 0 0 -.46.17 1.26 1.26 0 0 0 -.41.59v2.25h-.87z"/><path d="m21.6 20.76h.86v4.4a.34.34 0 0 0 .06.22.18.18 0 0 0 .13.06h.13l.12.64a1.19 1.19 0 0 1 -.46.08.73.73 0 0 1 -.65-.28 1.32 1.32 0 0 1 -.19-.76z"/><path d="m23.47 25.07a1 1 0 0 1 .52-.92 4.24 4.24 0 0 1 1.65-.45.84.84 0 0 0 0-.27.55.55 0 0 0 -.11-.23.47.47 0 0 0 -.21-.16.68.68 0 0 0 -.32-.04 1.4 1.4 0 0 0 -.53.11 2.92 2.92 0 0 0 -.5.25l-.32-.58a3.66 3.66 0 0 1 .69-.33 2.18 2.18 0 0 1 .82-.15 1.28 1.28 0 0 1 1 .41 1.84 1.84 0 0 1 .33 1.18v2.19h-.7l-.07-.41a2.56 2.56 0 0 1 -.53.35 1.28 1.28 0 0 1 -.61.15 1.06 1.06 0 0 1 -.79-.3 1 1 0 0 1 -.32-.8zm.84-.07a.43.43 0 0 0 .15.36.63.63 0 0 0 .38.11.83.83 0 0 0 .41-.1 2 2 0 0 0 .39-.3v-.83a3.94 3.94 0 0 0 -.63.12 1.81 1.81 0 0 0 -.41.17.56.56 0 0 0 -.22.21.48.48 0 0 0 -.07.26z"/><path d="m27.55 22.37h.71l.06.66a1.57 1.57 0 0 1 .48-.56 1 1 0 0 1 1-.11l-.15.75-.18-.05h-.21a.82.82 0 0 0 -.45.17 1.26 1.26 0 0 0 -.41.59v2.25h-.87z"/><path d="m30 26.72a.75.75 0 0 1 .13-.43 1.22 1.22 0 0 1 .39-.35.76.76 0 0 1 -.23-.24.65.65 0 0 1 -.1-.38.63.63 0 0 1 .13-.39 1 1 0 0 1 .28-.29 1.45 1.45 0 0 1 -.34-.39 1.25 1.25 0 0 1 -.14-.59 1.28 1.28 0 0 1 .12-.56 1.3 1.3 0 0 1 .32-.42 1.36 1.36 0 0 1 .46-.25 1.67 1.67 0 0 1 .55-.09 1.36 1.36 0 0 1 .29 0l.25.06h1.32v.6h-.67a.87.87 0 0 1 .15.27 1 1 0 0 1 .06.35 1.27 1.27 0 0 1 -.11.54 1 1 0 0 1 -.3.39 1.11 1.11 0 0 1 -.44.24 1.63 1.63 0 0 1 -.55.09h-.25a1.36 1.36 0 0 1 -.25-.07.58.58 0 0 0 -.13.15.39.39 0 0 0 0 .2.28.28 0 0 0 .13.25.88.88 0 0 0 .47.09h.65a2 2 0 0 1 1 .21.76.76 0 0 1 .34.7.94.94 0 0 1 -.14.51 1.26 1.26 0 0 1 -.39.41 2.07 2.07 0 0 1 -.62.27 2.9 2.9 0 0 1 -.81.1 2.87 2.87 0 0 1 -.61-.06 1.66 1.66 0 0 1 -.49-.18 1 1 0 0 1 -.32-.3.82.82 0 0 1 -.15-.44zm.72-.12a.41.41 0 0 0 .28.4 1.48 1.48 0 0 0 .69.14 1.43 1.43 0 0 0 .73-.17.51.51 0 0 0 .27-.42.29.29 0 0 0 -.17-.29 1.19 1.19 0 0 0 -.48-.08h-.5a2.37 2.37 0 0 1 -.51-.05.61.61 0 0 0 -.28.47zm.85-2.25a.59.59 0 0 0 .45-.2.72.72 0 0 0 .19-.55.74.74 0 0 0 -.18-.53.62.62 0 0 0 -.46-.19.61.61 0 0 0 -.45.18.88.88 0 0 0 0 1.09.59.59 0 0 0 .48.2z"/><path d="m33.81 24.22a2.09 2.09 0 0 1 .15-.81 1.8 1.8 0 0 1 .38-.61 1.6 1.6 0 0 1 .54-.38 1.52 1.52 0 0 1 .63-.14 1.69 1.69 0 0 1 .66.13 1.44 1.44 0 0 1 .48.36 1.85 1.85 0 0 1 .29.56 2.58 2.58 0 0 1 .06.67 1.53 1.53 0 0 1 0 .41h-2.35a1.23 1.23 0 0 0 .35.77 1.05 1.05 0 0 0 .74.27 1.33 1.33 0 0 0 .45-.07 2.58 2.58 0 0 0 .41-.2l.29.54a2.68 2.68 0 0 1 -.59.28 1.89 1.89 0 0 1 -.67.12 2.08 2.08 0 0 1 -.71-.13 1.77 1.77 0 0 1 -.58-.38 1.82 1.82 0 0 1 -.34-.61 2.29 2.29 0 0 1 -.19-.78zm2.47-.33a1.13 1.13 0 0 0 -.18-.69.65.65 0 0 0 -.57-.25.82.82 0 0 0 -.58.24 1.14 1.14 0 0 0 -.3.7z"/><path d="m10.82 29.87h.87l.59 1.92.15.54c.06.19.11.38.16.57l.15-.57c.05-.18.11-.36.16-.54l.59-1.92h.83l-1.22 3.69h-1z"/><path d="m14.7 31.72a2.29 2.29 0 0 1 .14-.81 2.18 2.18 0 0 1 .38-.61 1.75 1.75 0 0 1 .55-.38 1.52 1.52 0 0 1 .63-.14 1.69 1.69 0 0 1 .66.13 1.31 1.31 0 0 1 .47.36 1.49 1.49 0 0 1 .29.56 2.24 2.24 0 0 1 .1.7 1.53 1.53 0 0 1 0 .41h-2.38a1.23 1.23 0 0 0 .35.77 1 1 0 0 0 .74.27 1.33 1.33 0 0 0 .45-.07 2.49 2.49 0 0 0 .4-.2l.3.54a2.68 2.68 0 0 1 -.59.28 1.89 1.89 0 0 1 -.67.12 2.09 2.09 0 0 1 -.72-.13 1.73 1.73 0 0 1 -.57-.38 1.68 1.68 0 0 1 -.39-.61 2.29 2.29 0 0 1 -.14-.81zm2.47-.33a1.13 1.13 0 0 0 -.17-.69.67.67 0 0 0 -.57-.25.82.82 0 0 0 -.58.24 1.14 1.14 0 0 0 -.31.7z"/><path d="m18.74 28.26h.87v1.37.71a2.46 2.46 0 0 1 .51-.39 1.3 1.3 0 0 1 .66-.17 1 1 0 0 1 .87.38 1.89 1.89 0 0 1 .27 1.09v2.31h-.92v-2.2a1.17 1.17 0 0 0 -.13-.65.52.52 0 0 0 -.44-.18.79.79 0 0 0 -.43.11 2.7 2.7 0 0 0 -.41.34v2.58h-.87z"/><path d="m23.36 29.23a.56.56 0 0 1 -.38-.14.44.44 0 0 1 -.15-.35.49.49 0 0 1 .15-.36.55.55 0 0 1 .38-.13.56.56 0 0 1 .39.13.49.49 0 0 1 .15.36.44.44 0 0 1 -.15.35.56.56 0 0 1 -.39.14zm-.43.64h.86v3.69h-.86z"/><path d="m24.65 31.72a2.1 2.1 0 0 1 .15-.82 1.87 1.87 0 0 1 .41-.61 1.64 1.64 0 0 1 .59-.37 1.82 1.82 0 0 1 .7-.14 1.32 1.32 0 0 1 .62.13 1.66 1.66 0 0 1 .46.3l-.41.55a1.31 1.31 0 0 0 -.3-.2.72.72 0 0 0 -.33-.07.88.88 0 0 0 -.72.33 1.33 1.33 0 0 0 -.28.9 1.39 1.39 0 0 0 .27.89.89.89 0 0 0 .71.33 1 1 0 0 0 .42-.09 2 2 0 0 0 .34-.22l.36.54a1.87 1.87 0 0 1 -.58.36 1.76 1.76 0 0 1 -.63.12 2 2 0 0 1 -.7-.13 1.59 1.59 0 0 1 -.57-.38 1.65 1.65 0 0 1 -.37-.6 2.35 2.35 0 0 1 -.14-.82z"/><path d="m28.36 28.26h.86v4.4a.34.34 0 0 0 .06.22.18.18 0 0 0 .13.06h.13l.12.64a1.19 1.19 0 0 1 -.46.08.73.73 0 0 1 -.65-.28 1.32 1.32 0 0 1 -.19-.76z"/><path d="m30.15 31.72a2.29 2.29 0 0 1 .14-.81 2.18 2.18 0 0 1 .38-.61 1.75 1.75 0 0 1 .55-.38 1.52 1.52 0 0 1 .63-.14 1.69 1.69 0 0 1 .66.13 1.4 1.4 0 0 1 .47.36 1.49 1.49 0 0 1 .29.56 2.24 2.24 0 0 1 .1.7 1.53 1.53 0 0 1 0 .41h-2.37a1.23 1.23 0 0 0 .35.77 1 1 0 0 0 .74.27 1.23 1.23 0 0 0 .44-.07 2.22 2.22 0 0 0 .41-.2l.3.54a2.68 2.68 0 0 1 -.59.28 1.89 1.89 0 0 1 -.67.12 2.09 2.09 0 0 1 -.72-.13 1.73 1.73 0 0 1 -.57-.38 1.68 1.68 0 0 1 -.39-.61 2.29 2.29 0 0 1 -.15-.81zm2.47-.33a1.13 1.13 0 0 0 -.18-.69.67.67 0 0 0 -.57-.25.82.82 0 0 0 -.58.24 1.14 1.14 0 0 0 -.31.7z"/><path d="m34.23 32.58a2.4 2.4 0 0 0 .49.3 1.17 1.17 0 0 0 .53.11.66.66 0 0 0 .44-.12.39.39 0 0 0 .15-.32.37.37 0 0 0 -.07-.2.65.65 0 0 0 -.18-.15 1.58 1.58 0 0 0 -.26-.13l-.28-.07-.37-.16a1.27 1.27 0 0 1 -.33-.22 1 1 0 0 1 -.24-.29.77.77 0 0 1 -.1-.4 1 1 0 0 1 .36-.8 1.5 1.5 0 0 1 1-.31 1.74 1.74 0 0 1 .69.14 2.46 2.46 0 0 1 .53.31l-.4.52a2.65 2.65 0 0 0 -.39-.23 1 1 0 0 0 -.42-.08.61.61 0 0 0 -.41.11.37.37 0 0 0 -.13.29.29.29 0 0 0 .06.19.79.79 0 0 0 .17.14 1.17 1.17 0 0 0 .25.11l.29.11a2.87 2.87 0 0 1 .37.15 1.33 1.33 0 0 1 .34.22 1 1 0 0 1 .25.31 1 1 0 0 1 .09.44 1.08 1.08 0 0 1 -.09.44 1 1 0 0 1 -.27.36 1.22 1.22 0 0 1 -.45.25 2 2 0 0 1 -1.37-.06 2.61 2.61 0 0 1 -.64-.36z"/></g></svg>