<svg viewBox="0 0 48 48" xmlns="http://www.w3.org/2000/svg"><path d="m24 2a22 22 0 1 1 -22 22 22 22 0 0 1 22-22" fill="#ed1c24"/><path d="m24 6.41a17.59 17.59 0 1 1 -17.59 17.59 17.6 17.6 0 0 1 17.59-17.59" fill="#fff"/><path d="m40.13 28.41-5.58-3.22 5.58-3.23z" fill="#262425"/><path d="m7.86 21.96v6.45l5.6-3.22z" fill="#262425"/><path d="m13 13.29h21.34c.5 0 .61.1.61.6q0 10.38 0 20.75c0 .5-.11.61-.61.6q-10.38 0-20.74 0c-.51 0-.61-.1-.61-.6.01-7.13.01-14.24.01-21.35z" fill="#fefefe"/><path d="m32.07 19.2c0-1.34-.11-1.4-1.41-1.12a9.31 9.31 0 0 0 -.39-2.08 1.53 1.53 0 0 0 -1.42-1.14 57.69 57.69 0 0 0 -10 0 1.6 1.6 0 0 0 -1.46 1.22 12 12 0 0 0 -.39 2.05c-1.24-.37-1.41-.24-1.4 1 0 .54-.06 1.07-.06 1.61 0 1.37.08 1.43 1.5 1.17v3.15c0 .27-.08.58.16.8s.31.57-.12.78a.42.42 0 0 0 -.23.42 22.67 22.67 0 0 0 .41 6.31c.06.18.18.34.36.33a.25.25 0 0 0 .14.06h1c.32 0 .59-.15.69-.74 0-.24.34-.14.52-.14h7.73c.18 0 .5-.08.52.13.08.56.32.71.62.74h.05 1.11a.18.18 0 0 0 .11 0 .34.34 0 0 0 .33-.33c0-.86.52-1.6.45-2.49s0-1.92 0-2.88c0-.56.25-1.21-.49-1.57-.15-.07-.14-.33 0-.45.42-.32.28-.77.29-1.17 0-1 0-2 0-2.95 1.38.3 1.51.22 1.5-1-.05-.64-.1-1.17-.12-1.71zm-13 10.44c-.39 0-.82.08-.8-.55 0-.36 0-.73 0-1.09 0-.28 0-.56 0-.84s.05-.71.57-.71.81.09.8.68 0 1.29.1 1.93-.21.6-.63.58zm1.36-.1v-.16h6.77v.16zm6.79-.78h-6.8v-.17h6.84zm-6.89-.76v-.17h7v.17zm0-.77v-.17h7v.17zm3.41-5c-1.78 0-3.56 0-5.34 0-.69 0-1-.21-.95-.92.06-1.13.06-2.26.07-3.39 0-.57.27-.8.84-.8h11c.51 0 .81.17.82.71 0 1.25 0 2.49.07 3.73 0 .62-.4.65-.86.65zm4.16 6.65c0-.56.08-1.12.08-1.68s.2-.74.75-.73.66.28.63.74v.93a4.82 4.82 0 0 0 0 .76c.08.67-.26.77-.85.78s-.64-.35-.6-.82z" fill="#222"/></svg>