<?xml version="1.0" encoding="UTF-8"?>
<svg id="Layer_1" data-name="Layer 1" xmlns="http://www.w3.org/2000/svg" width="100mm" height="100mm" viewBox="0 0 283.4646 283.4646">
  <path d="M141.7289,22.5181c65.7393,0,119.2218,53.474,119.2218,119.2057s-53.4825,119.2142-119.2218,119.2142S22.5232,207.4554,22.5232,141.7238c0-65.7317,53.4817-119.2057,119.2057-119.2057v-1.1957c-66.3882,0-120.4022,54.0055-120.4022,120.4013s54.014,120.4184,120.4022,120.4184,120.409-54.0225,120.409-120.4184S208.1324,21.3224,141.7289,21.3224v1.1957" fill="#4679bb"/>
  <path d="M141.7289,26.7208c63.4968,0,115.0192,51.5223,115.0192,115.003s-51.5224,115.0115-115.0192,115.0115S26.725,205.2215,26.725,141.7238c0-63.4807,51.5224-115.003,115.0039-115.003" fill="#4679bb"/>
  <path d="M86.3695,57.9381l-17.6977,16.2435,20.7183.8895c-25.1234,20.1885-37.4049,54.0548-28.5734,87.2817l15.4883-4.1278c-7.4903-28.0598,3.7086-56.8033,25.8113-72.8359l-1.0298,24.1871,17.7053-16.252,1.4287-33.8663-33.851-1.5197Z" fill="#fff"/>
  <path d="M236.0867,110.3321l-11.1896,17.5403c-4.8796-31.9147-28.0896-59.5076-61.2696-68.4138l-4.1108,15.4135c27.985,7.492,47.2329,31.6255,50.1081,58.8383l-20.4521-13.0052,5.2733,23.403,28.5845,18.2445,18.2292-28.61-5.173-23.4107Z" fill="#fff"/>
  <path d="M201.3725,200.0145l-11.2772-11.2865c-20.5065,20.5065-50.9976,25.086-75.9195,13.967l21.3076-11.1419-22.8877-7.2335-30.0463,15.6958,15.6457,30.1297,22.8792,7.1663-9.5883-18.4239c30.0948,11.7185,65.6067,5.4842,89.8864-18.8729Z" fill="#fff"/>
</svg>