<?xml version="1.0" encoding="UTF-8"?>
<svg id="Layer_1" data-name="Layer 1" xmlns="http://www.w3.org/2000/svg" width="100mm" height="100mm" viewBox="0 0 283.4646 283.4646">
  <path d="M141.7323,22.8363c65.5978,0,118.896,53.2982,118.896,118.896s-53.3982,118.896-118.896,118.896S22.8363,207.3301,22.8363,141.7323c-.1-65.5978,53.1982-118.896,118.896-118.896v-1.5999c-66.4978,0-120.496,54.0982-120.496,120.496s54.0982,120.496,120.496,120.496c66.4978,0,120.496-53.9982,120.496-120.496S208.1301,21.2363,141.7323,21.2363v1.5999" fill="#4679bb"/>
  <path d="M141.7323,26.4361c63.4979,0,114.8961,51.4983,114.8961,114.8962,0,63.4979-51.4983,114.8961-114.8961,114.8961-63.4979,0-114.8961-51.4983-114.8961-114.8961-.1-63.3979,51.3983-114.8962,114.8961-114.8962" fill="#4679bb"/>
  <path d="M199.9323,105.8757c-.3239-9.5019-.8638-9.9338-9.9338-7.8822-.4319-4.9669-1.1877-9.9338-2.6994-14.6847-1.6196-4.8589-4.8589-7.6663-10.0417-8.0982-23.6467-2.0515-47.1855-2.0515-70.8322,0-5.5068.4319-8.6381,3.4552-10.2577,8.6381-1.5117,4.7509-1.9436,9.7178-2.6994,14.5767-8.7461-2.5914-9.9338-1.7276-9.9338,6.9105,0,3.7792-.3239,7.5583-.4319,11.3375-.108,9.7178.5399,10.1497,10.5816,8.3141v22.243c0,1.9436-.6479,4.1031,1.0798,5.7227,2.3755,2.2675,2.1595,3.9951-.8638,5.5068-1.1877.5399-1.6196,1.7276-1.6196,3.0233.108,14.9007-1.2957,29.9093,2.9153,44.594.4319,1.2957,1.2957,2.4834,2.4834,2.3755.3239.216.6479.4319.9718.4319h7.0184c2.2675,0,4.2111-1.0798,4.8589-5.1828.3239-1.7276,2.3755-.9718,3.6712-.9718h54.6358c1.2957,0,3.5632-.5399,3.7792.8638.5399,3.9951,2.2675,5.0749,4.319,5.2908.108,0,.216.108.3239.108h7.6663c.3239,0,.5399-.216.7558-.3239,1.2957-.108,2.3755-.9718,2.3755-2.3755,0-6.0467,3.6712-11.3375,3.2393-17.6001-.5399-6.8025,0-13.605-.216-20.4074-.108-3.8871,1.7276-8.5301-3.4552-11.0135-1.0798-.5399-.9718-2.3755.108-3.1313,2.9154-2.2675,1.9436-5.3988,2.0515-8.3141.108-6.9105,0-13.8209,0-20.8394,9.7178,2.1595,10.6896,1.5117,10.5816-7.3424,0-4.2111-.3239-7.9902-.4319-11.7694ZM108.2608,179.6232c-2.6994-.108-5.8307.5399-5.6148-3.8871.108-2.5914,0-5.1828,0-7.7743h0c0-1.9436.108-3.9951,0-5.9387-.108-2.9153.3239-4.9669,4.1031-4.9669,3.4552,0,5.7227.6479,5.6148,4.7509,0,4.535.216,9.178.6479,13.7129.3239,3.8872-1.7276,4.3191-4.7509,4.1031ZM117.8706,178.9754v-1.0798h47.6174v1.0798h-47.6174ZM165.9199,173.3607h-48.3732v-1.1877h48.3732v1.1877ZM116.8989,168.0698v-1.1877h49.5609v1.1877h-49.5609ZM117.0068,162.5631v-1.1877h49.453v1.1877h-49.453ZM141.0855,127.147c-12.6332,0-25.1584-.108-37.7916.108-4.8589.108-6.9105-1.5117-6.6945-6.5865.4319-7.9902.4319-15.9804.5399-23.9706,0-3.9951,1.9436-5.6147,5.9387-5.6147,25.8062.108,51.6125.108,77.3108,0,3.5632,0,5.7227,1.1877,5.8307,5.0749.108,8.7461.3239,17.6001.4319,26.3461.108,4.319-2.8074,4.643-6.0467,4.643h-39.5192ZM170.4549,174.1165c.3239-3.9951.5399-7.8822.5399-11.8773,0-3.6712,1.4037-5.2908,5.2908-5.1828,3.9951.108,4.643,2.0515,4.427,5.2908-.108,2.1595,0,4.319,0,6.5865,0,1.8356-.216,3.5632,0,5.3988.6479,4.7509-1.8356,5.5068-5.9387,5.5068-4.427,0-4.535-2.3755-4.319-5.7227Z" fill="#fff"/>
</svg>