<svg viewBox="0 0 48 48" xmlns="http://www.w3.org/2000/svg"><path d="m37.21 47h-26.42a1.29 1.29 0 0 1 -1.29-1.29v-5.5a1.29 1.29 0 0 1 1.29-1.29h26.42a1.29 1.29 0 0 1 1.29 1.29v5.5a1.29 1.29 0 0 1 -1.29 1.29z" fill="#fff" stroke="#272525" stroke-width=".53"/><path d="m27.34 35.63h-22.2l18.72-32.65 18.73 32.65z" fill="#fff"/><path d="m42 37.63a2.76 2.76 0 0 0 2.38-1.39 2.74 2.74 0 0 0 0-2.74l-18-31.12a2.75 2.75 0 0 0 -4.76 0l-17.98 31.12a2.69 2.69 0 0 0 0 2.74 2.73 2.73 0 0 0 2.36 1.38h36" fill="#ed1c24"/><path d="m7.61 33.95h32.79l-16.4-28.37z" fill="#fff"/><path d="m23.88 27.52a2.44 2.44 0 1 1 -2.43 2.48 2.43 2.43 0 0 1 2.43-2.43" fill="#1f1d1e"/><path d="m23.54 26.3h.73l2.73-10.81a3.5 3.5 0 0 0 .07-.65 3.17 3.17 0 0 0 -6.34 0 2.81 2.81 0 0 0 .07.65z" fill="#1f1d1e"/><g fill="#1d1d1b"><path d="m15.34 41.11h1.25a2.47 2.47 0 0 1 .56.06 1.15 1.15 0 0 1 .44.16.76.76 0 0 1 .3.29 1 1 0 0 1 .1.46.89.89 0 0 1 -.16.52.85.85 0 0 1 -.51.33 1 1 0 0 1 .65.3.85.85 0 0 1 .23.63 1.05 1.05 0 0 1 -.43.87 1.62 1.62 0 0 1 -.48.21 2.74 2.74 0 0 1 -.6.07h-1.35zm1.19 1.63a1 1 0 0 0 .6-.15.52.52 0 0 0 .18-.43.42.42 0 0 0 -.19-.39 1.12 1.12 0 0 0 -.58-.12h-.54v1.09zm.09 1.76a1.25 1.25 0 0 0 .67-.16.59.59 0 0 0 .23-.5.51.51 0 0 0 -.23-.46 1.31 1.31 0 0 0 -.67-.14h-.62v1.26z"/><path d="m18.73 44.25a.83.83 0 0 1 .42-.74 3.3 3.3 0 0 1 1.32-.36.83.83 0 0 0 0-.22.64.64 0 0 0 -.1-.18.42.42 0 0 0 -.16-.13.62.62 0 0 0 -.25 0 1.26 1.26 0 0 0 -.43.08 3 3 0 0 0 -.4.21l-.25-.47a4 4 0 0 1 .55-.27 2 2 0 0 1 .66-.11 1 1 0 0 1 .83.33 1.42 1.42 0 0 1 .27.94v1.67h-.57l-.05-.33a2 2 0 0 1 -.42.29 1.17 1.17 0 0 1 -.49.11.85.85 0 0 1 -.63-.24.8.8 0 0 1 -.3-.58zm.67-.06a.34.34 0 0 0 .12.29.49.49 0 0 0 .3.09.73.73 0 0 0 .33-.08 2 2 0 0 0 .32-.24v-.66a3 3 0 0 0 -.51.09 1.72 1.72 0 0 0 -.33.14.4.4 0 0 0 -.17.17.36.36 0 0 0 -.06.2z"/><path d="m22 42.09h.57v.52a1.18 1.18 0 0 1 .38-.44.78.78 0 0 1 .45-.15.83.83 0 0 1 .34.06l-.12.6h-.15-.16a.63.63 0 0 0 -.36.14 1 1 0 0 0 -.33.47v1.71h-.62z"/><path d="m24.23 42.09h.57l.05.52a1.26 1.26 0 0 1 .37-.44.81.81 0 0 1 .46-.15.83.83 0 0 1 .34.06l-.12.6h-.15-.16a.66.66 0 0 0 -.37.14 1.13 1.13 0 0 0 -.33.47v1.71h-.69z"/><path d="m26.82 41.58a.47.47 0 0 1 -.31-.11.36.36 0 0 1 -.12-.28.37.37 0 0 1 .12-.29.49.49 0 0 1 .62 0 .37.37 0 0 1 .12.29.36.36 0 0 1 -.12.28.47.47 0 0 1 -.31.11zm-.35.51h.69v2.91h-.69z"/><path d="m27.85 43.57a1.67 1.67 0 0 1 .12-.65 1.44 1.44 0 0 1 .3-.49 1.28 1.28 0 0 1 .43-.3 1.34 1.34 0 0 1 .51-.11 1.29 1.29 0 0 1 .53.1 1.2 1.2 0 0 1 .38.29 1.23 1.23 0 0 1 .23.44 2.07 2.07 0 0 1 .08.57 1.39 1.39 0 0 1 0 .32h-1.91a1 1 0 0 0 .28.62.86.86 0 0 0 .59.22 1 1 0 0 0 .36-.06 1.66 1.66 0 0 0 .33-.16l.23.43a2.06 2.06 0 0 1 -.47.23 1.61 1.61 0 0 1 -.54.09 1.38 1.38 0 0 1 -.57-.11 1.41 1.41 0 0 1 -.46-.3 1.47 1.47 0 0 1 -.31-.48 1.88 1.88 0 0 1 -.11-.65zm2-.27a.9.9 0 0 0 -.15-.55.54.54 0 0 0 -.45-.2.7.7 0 0 0 -.47.19.94.94 0 0 0 -.24.56z"/><path d="m31.09 42.09h.57v.52a1.18 1.18 0 0 1 .38-.44.78.78 0 0 1 .45-.15.83.83 0 0 1 .34.06l-.12.6h-.15-.16a.63.63 0 0 0 -.36.14 1 1 0 0 0 -.33.47v1.71h-.69z"/></g></svg>