<svg viewBox="0 0 48 48" xmlns="http://www.w3.org/2000/svg"><path d="m24 1.8a22.2 22.2 0 1 1 -22.2 22.2 22.21 22.21 0 0 1 22.2-22.2v-.3a22.5 22.5 0 1 0 22.5 22.5 22.52 22.52 0 0 0 -22.5-22.5z" fill="#4679bb"/><path d="m24 2.47a21.46 21.46 0 1 1 -21.45 21.46 21.45 21.45 0 0 1 21.45-21.46" fill="#4679bb"/><path d="m11.62 28.84a2.26 2.26 0 0 1 -.09-.71 2.33 2.33 0 0 1 2.31-2.32 2.11 2.11 0 0 1 .9.19 2 2 0 0 1 .73.5 2.81 2.81 0 0 1 .5.75 2.24 2.24 0 0 1 .19.9 2.54 2.54 0 0 1 -.11.7h14.17a2 2 0 0 1 -.1-.71 2.45 2.45 0 0 1 .19-.9 2.18 2.18 0 0 1 .51-.75 2.81 2.81 0 0 1 .72-.5 2.23 2.23 0 0 1 1.8 0 2 2 0 0 1 .74.5 2.3 2.3 0 0 1 .69 1.65 2.71 2.71 0 0 1 -.09.71l8-1.62v-7a2.37 2.37 0 0 0 -2.35-2.36h-33.71a.47.47 0 0 0 -.47.43l-.24 5.14a.48.48 0 0 0 -.49.49v4a.94.94 0 0 0 .93.94h5.21z" fill="#fff"/><g fill="#4679bb"><path d="m10.11 20.23a.47.47 0 0 0 -.47-.47h-1.38a.47.47 0 0 0 -.47.47v6.77a.45.45 0 0 0 .47.45h1.38a.47.47 0 0 0 .47-.45z"/><path d="m19.87 23a.47.47 0 0 1 -.46-.49v-2.3a.46.46 0 0 1 .46-.47h5.59a.48.48 0 0 1 .48.47v2.33a.48.48 0 0 1 -.48.49z"/><path d="m12.2 23a.49.49 0 0 1 -.49-.49v-2.3a.47.47 0 0 1 .49-.47h5.58a.48.48 0 0 1 .45.47v2.33a.47.47 0 0 1 -.45.47z"/><path d="m33.13 23a.49.49 0 0 0 .49-.49v-2.3a.49.49 0 0 0 -.49-.49h-5.58a.47.47 0 0 0 -.47.49v2.33a.49.49 0 0 0 .47.49z"/><path d="m35.22 23a.47.47 0 0 1 -.46-.49v-2.3a.46.46 0 0 1 .46-.47h4.65a1.38 1.38 0 0 1 1.38 1.38v1.4a.45.45 0 0 1 -.44.47z"/></g><path d="m13.82 26.28a1.85 1.85 0 1 1 -1.82 1.85 1.84 1.84 0 0 1 1.84-1.85" fill="#fff"/><path d="m13.82 27.21a.94.94 0 1 1 -.93.94.92.92 0 0 1 .93-.94" fill="#4679bb"/><path d="m32.42 26.26a1.86 1.86 0 1 1 -1.87 1.85 1.9 1.9 0 0 1 1.87-1.85z" fill="#fff"/><path d="m32.42 27.21a.92.92 0 0 1 .93.94.93.93 0 0 1 -1.86 0 .92.92 0 0 1 .93-.94" fill="#4679bb"/><path d="m18.66 35.67h-.49v-.61h.54l.09-.94h.68v.88h.87v.64h-.87v1.66c0 .4.16.61.48.61h.19l.17-.05.14.59a1.5 1.5 0 0 1 -.32.09 1.58 1.58 0 0 1 -.38 0 1.29 1.29 0 0 1 -.51-.09.88.88 0 0 1 -.34-.26 1.18 1.18 0 0 1 -.19-.39 2 2 0 0 1 -.06-.51z" fill="#fff"/><path d="m20.82 37.54a.94.94 0 0 1 .48-.85 3.93 3.93 0 0 1 1.54-.42 1.09 1.09 0 0 0 0-.26.65.65 0 0 0 -.11-.22.45.45 0 0 0 -.19-.14.62.62 0 0 0 -.29-.06 1.44 1.44 0 0 0 -.5.1 4.16 4.16 0 0 0 -.47.24l-.28-.54a3.8 3.8 0 0 1 .64-.31 2.15 2.15 0 0 1 .77-.14 1.16 1.16 0 0 1 1 .39 1.68 1.68 0 0 1 .32 1.1v2h-.73l-.06-.37a2.7 2.7 0 0 1 -.5.33 1.33 1.33 0 0 1 -.57.13 1 1 0 0 1 -1-1zm.78-.06a.39.39 0 0 0 .14.33.56.56 0 0 0 .35.11.76.76 0 0 0 .39-.1 1.47 1.47 0 0 0 .36-.28v-.77a4.66 4.66 0 0 0 -.58.11 1.84 1.84 0 0 0 -.39.16.63.63 0 0 0 -.2.2.48.48 0 0 0 -.07.24z" fill="#fff"/><path d="m25.31 36.67-1-1.64h.86l.39.65.16.29.15.29c0-.09.09-.19.13-.29l.14-.29.33-.65h.83l-1 1.73 1.1 1.7h-.87l-.42-.67-.17-.31-.18-.3-.15.29-.15.32-.36.67h-.84z" fill="#fff"/><path d="m28.4 34.43a.57.57 0 0 1 -.4-.13.42.42 0 0 1 -.1-.3.44.44 0 0 1 .14-.33.52.52 0 0 1 .36-.13.48.48 0 0 1 .36.13.44.44 0 0 1 .14.33.42.42 0 0 1 -.14.33.53.53 0 0 1 -.36.1zm-.4.57h.8v3.43h-.8z" fill="#fff"/></svg>