<svg viewBox="0 0 48 48" xmlns="http://www.w3.org/2000/svg"><path d="m24 1.8a22.2 22.2 0 1 1 -22.2 22.2 22.21 22.21 0 0 1 22.2-22.2v-.3a22.5 22.5 0 1 0 22.5 22.5 22.52 22.52 0 0 0 -22.5-22.5z" fill="#4679bb"/><path d="m24 2.47a21.46 21.46 0 1 1 -21.45 21.46 21.45 21.45 0 0 1 21.45-21.46" fill="#4679bb"/><path d="m11.62 28.82a2.26 2.26 0 0 1 -.09-.71 2.33 2.33 0 0 1 2.31-2.32 2.11 2.11 0 0 1 .9.19 2 2 0 0 1 .73.5 2.81 2.81 0 0 1 .5.75 2.24 2.24 0 0 1 .19.9 2.67 2.67 0 0 1 -.11.71h14.17a2 2 0 0 1 -.1-.71 2.45 2.45 0 0 1 .19-.9 2.18 2.18 0 0 1 .51-.75 2.81 2.81 0 0 1 .72-.5 2.23 2.23 0 0 1 1.8 0 2 2 0 0 1 .74.5 2.3 2.3 0 0 1 .69 1.65 2.71 2.71 0 0 1 -.09.71l8-1.62v-7a2.37 2.37 0 0 0 -2.35-2.36h-33.71a.47.47 0 0 0 -.47.43l-.24 5.14a.48.48 0 0 0 -.49.49v3.95a.94.94 0 0 0 .93.94h5.21z" fill="#fff"/><g fill="#4679bb"><path d="m10.11 20.21a.47.47 0 0 0 -.47-.47h-1.38a.47.47 0 0 0 -.47.47v6.79a.45.45 0 0 0 .47.45h1.38a.47.47 0 0 0 .47-.45z"/><path d="m19.87 23a.47.47 0 0 1 -.46-.49v-2.32a.46.46 0 0 1 .46-.47h5.59a.48.48 0 0 1 .48.47v2.33a.48.48 0 0 1 -.48.49z"/><path d="m12.2 23a.49.49 0 0 1 -.49-.49v-2.32a.47.47 0 0 1 .49-.47h5.58a.48.48 0 0 1 .45.47v2.33a.46.46 0 0 1 -.45.47z"/><path d="m33.13 23a.49.49 0 0 0 .49-.49v-2.32a.48.48 0 0 0 -.49-.48h-5.58a.47.47 0 0 0 -.47.48v2.33a.48.48 0 0 0 .47.49z"/><path d="m35.22 23a.47.47 0 0 1 -.46-.49v-2.32a.46.46 0 0 1 .46-.47h4.65a1.38 1.38 0 0 1 1.38 1.39v1.4a.45.45 0 0 1 -.44.46z"/></g><path d="m13.82 26.26a1.85 1.85 0 1 1 -1.82 1.85 1.84 1.84 0 0 1 1.84-1.85" fill="#fff"/><path d="m13.82 27.19a.94.94 0 1 1 -.93.94.94.94 0 0 1 .93-.94" fill="#4679bb"/><path d="m32.42 26.26a1.86 1.86 0 1 1 -1.87 1.85 1.88 1.88 0 0 1 1.87-1.85z" fill="#fff"/><path d="m32.42 27.19a.92.92 0 0 1 .93.94.93.93 0 1 1 -.93-.94" fill="#4679bb"/></svg>