<svg viewBox="0 0 48 48" xmlns="http://www.w3.org/2000/svg"><path d="m35.39 47h-22.8a1.11 1.11 0 0 1 -1.11-1.11v-11a1.11 1.11 0 0 1 1.11-1.11h22.8a1.11 1.11 0 0 1 1.12 1.11v11a1.12 1.12 0 0 1 -1.12 1.11z" fill="#fff" stroke="#272525" stroke-width=".53"/><path d="m39.54 32.62a2.38 2.38 0 0 0 2-3.56l-15.49-26.87a2.39 2.39 0 0 0 -2.05-1.19 2.34 2.34 0 0 0 -2 1.18l-15.57 26.88a2.37 2.37 0 0 0 2 3.55h31.11" fill="#ed1c24"/><path d="m9.85 29.45h28.31l-14.17-24.49z" fill="#fff"/><path d="m23.9 23.89a2.1 2.1 0 1 1 -2.1 2.11 2.09 2.09 0 0 1 2.1-2.1" fill="#1f1d1e"/><path d="m23.6 22.84h.63l2.36-9.33a2.54 2.54 0 0 0 .05-.56 2.74 2.74 0 0 0 -5.47 0 5.29 5.29 0 0 0 0 .56l2.38 9.33" fill="#1f1d1e"/><g fill="#1d1d1b"><path d="m16 38.68a1.56 1.56 0 0 0 .4.27 1 1 0 0 0 .45.1.67.67 0 0 0 .43-.11.4.4 0 0 0 .14-.31.33.33 0 0 0 0-.17.53.53 0 0 0 -.1-.12.83.83 0 0 0 -.16-.09l-.2-.1-.47-.15a1.41 1.41 0 0 1 -.24-.13.72.72 0 0 1 -.21-.18.78.78 0 0 1 -.16-.24.8.8 0 0 1 -.05-.32.73.73 0 0 1 .08-.36.93.93 0 0 1 .23-.3 1.11 1.11 0 0 1 .34-.19 1.33 1.33 0 0 1 .45-.07 1.5 1.5 0 0 1 .55.11 1.77 1.77 0 0 1 .45.3l-.29.38a1.52 1.52 0 0 0 -.33-.21 1 1 0 0 0 -.38-.08.61.61 0 0 0 -.38.11.34.34 0 0 0 -.14.28.27.27 0 0 0 0 .16.34.34 0 0 0 .12.12.69.69 0 0 0 .17.1l.19.08.45.19a2.1 2.1 0 0 1 .26.13 1.29 1.29 0 0 1 .21.19 1 1 0 0 1 .14.24 1 1 0 0 1 .05.32.91.91 0 0 1 0 .37 1 1 0 0 1 -.61.52 1.48 1.48 0 0 1 -.49.08 1.59 1.59 0 0 1 -.64-.13 1.73 1.73 0 0 1 -.54-.35z"/><path d="m18.56 37h.57v1.47a.76.76 0 0 0 .09.43.34.34 0 0 0 .29.12.44.44 0 0 0 .28-.08 1.07 1.07 0 0 0 .27-.26v-1.68h.57v2.5h-.47v-.36a1.22 1.22 0 0 1 -.35.3.78.78 0 0 1 -.44.12.65.65 0 0 1 -.57-.25 1.25 1.25 0 0 1 -.18-.73z"/><path d="m21.21 38.27a1.57 1.57 0 0 1 .09-.54 1.31 1.31 0 0 1 .23-.4 1 1 0 0 1 .33-.25.81.81 0 0 1 .39-.1.8.8 0 0 1 .36.08 2 2 0 0 1 .29.19v-.39-.86h.57v3.5h-.47v-.27a1 1 0 0 1 -.32.23.75.75 0 0 1 -.38.1.89.89 0 0 1 -.74-.34 1.47 1.47 0 0 1 -.35-.95zm.6 0a1 1 0 0 0 .14.61.45.45 0 0 0 .41.2.7.7 0 0 0 .52-.27v-1.14a1.15 1.15 0 0 0 -.26-.17.67.67 0 0 0 -.24 0 .51.51 0 0 0 -.41.21 1 1 0 0 0 -.16.56z"/><path d="m24 38.27a1.57 1.57 0 0 1 .09-.54 1.31 1.31 0 0 1 .23-.4 1 1 0 0 1 .33-.25.81.81 0 0 1 .39-.1.8.8 0 0 1 .36.08 2 2 0 0 1 .29.19v-.39-.86h.57v3.5h-.46v-.27a1 1 0 0 1 -.32.23.75.75 0 0 1 -.38.1.89.89 0 0 1 -.74-.34 1.47 1.47 0 0 1 -.36-.95zm.6 0a1 1 0 0 0 .14.61.45.45 0 0 0 .41.2.7.7 0 0 0 .52-.27v-1.14a1.15 1.15 0 0 0 -.26-.17.67.67 0 0 0 -.24 0 .51.51 0 0 0 -.41.21 1 1 0 0 0 -.13.56z"/><path d="m26.84 38.27a1.37 1.37 0 0 1 .1-.54 1.18 1.18 0 0 1 .25-.4.9.9 0 0 1 .36-.25.92.92 0 0 1 .45-.08 1 1 0 0 1 .44.09 1 1 0 0 1 .32.24 1.08 1.08 0 0 1 .19.37 1.72 1.72 0 0 1 .07.47 1 1 0 0 1 0 .27h-1.62a.81.81 0 0 0 .23.51.72.72 0 0 0 .5.19.93.93 0 0 0 .29 0 1.22 1.22 0 0 0 .28-.14l.19.36a1.76 1.76 0 0 1 -.39.19 1.12 1.12 0 0 1 -.45.08 1.19 1.19 0 0 1 -.47-.09 1.14 1.14 0 0 1 -.39-.25 1.26 1.26 0 0 1 -.26-.4 1.55 1.55 0 0 1 -.09-.62zm1.65-.22a.81.81 0 0 0 -.13-.46.42.42 0 0 0 -.37-.16.53.53 0 0 0 -.39.16.7.7 0 0 0 -.2.46z"/><path d="m29.54 37h.46v.34a1.93 1.93 0 0 1 .36-.28.84.84 0 0 1 .45-.12.65.65 0 0 1 .57.26 1.24 1.24 0 0 1 .18.72v1.58h-.57v-1.5a.8.8 0 0 0 .01-.4.35.35 0 0 0 -.3-.12.51.51 0 0 0 -.28.08 1.29 1.29 0 0 0 -.28.23v1.71h-.57z"/><path d="m16.22 44.94a.49.49 0 0 1 .09-.28.76.76 0 0 1 .26-.24.41.41 0 0 1 -.16-.16.49.49 0 0 1 -.06-.25.47.47 0 0 1 .08-.26.68.68 0 0 1 .19-.19.71.71 0 0 1 -.22-.26.7.7 0 0 1 -.1-.38.76.76 0 0 1 .08-.38.83.83 0 0 1 .21-.28 1 1 0 0 1 .31-.26 1.1 1.1 0 0 1 .37-.06h.19.17.88v.43h-.45a.77.77 0 0 1 .1.18.85.85 0 0 1 0 .23 1.06 1.06 0 0 1 -.07.37.82.82 0 0 1 -.2.25.81.81 0 0 1 -.3.17 1.36 1.36 0 0 1 -.36 0h-.13l-.17-.06-.08.1a.21.21 0 0 0 0 .14.18.18 0 0 0 .09.16.56.56 0 0 0 .31.07h.44a1.24 1.24 0 0 1 .67.14.5.5 0 0 1 .23.46.69.69 0 0 1 -.09.34.78.78 0 0 1 -.27.27 1.42 1.42 0 0 1 -.41.19 2.23 2.23 0 0 1 -.54.06 1.78 1.78 0 0 1 -.41 0 .82.82 0 0 1 -.32-.12.58.58 0 0 1 -.21-.2.44.44 0 0 1 -.12-.18zm.48-.08a.27.27 0 0 0 .17.26 1 1 0 0 0 .46.09.85.85 0 0 0 .48-.12.34.34 0 0 0 .18-.28.18.18 0 0 0 -.11-.19.85.85 0 0 0 -.32 0h-.34a1.55 1.55 0 0 1 -.33 0 .38.38 0 0 0 -.19.24zm.57-1.5a.41.41 0 0 0 .3-.13.51.51 0 0 0 .12-.36.49.49 0 0 0 -.12-.36.38.38 0 0 0 -.3-.13.45.45 0 0 0 -.31.12.53.53 0 0 0 -.12.37.51.51 0 0 0 .12.36.42.42 0 0 0 .31.13z"/><path d="m19 42h.57v1.47a.76.76 0 0 0 .09.43.34.34 0 0 0 .29.12.49.49 0 0 0 .25-.02 1.26 1.26 0 0 0 .26-.26v-1.74h.54v2.5h-.47v-.36a1.19 1.19 0 0 1 -.34.3.84.84 0 0 1 -.45.12.65.65 0 0 1 -.57-.25 1.25 1.25 0 0 1 -.18-.73z"/><path d="m21.76 42h.48v.34a1.93 1.93 0 0 1 .36-.28.78.78 0 0 1 .5-.06.66.66 0 0 1 .58.26 1.24 1.24 0 0 1 .18.72v1.52h-.58v-1.5a.8.8 0 0 0 -.09-.44.34.34 0 0 0 -.29-.12.51.51 0 0 0 -.28.08 1.09 1.09 0 0 0 -.28.23v1.75h-.58z"/><path d="m25.82 41.42a.65.65 0 0 0 -.27-.05c-.21 0-.31.13-.31.41v.22h.48v.46h-.48v2h-.58v-2h-.33v-.43h.33v-.25a1.29 1.29 0 0 1 .05-.35.82.82 0 0 1 .14-.28.73.73 0 0 1 .26-.19 1 1 0 0 1 .37-.06h.25l.2.07z"/><path d="m26.44 41.62a.38.38 0 0 1 -.26-.1.31.31 0 0 1 -.1-.23.33.33 0 0 1 .1-.24.37.37 0 0 1 .26-.09.35.35 0 0 1 .25.09.3.3 0 0 1 .1.24.28.28 0 0 1 -.1.23.36.36 0 0 1 -.25.1zm-.29.42h.57v2.46h-.57z"/><path d="m27.46 42h.47v.44a1.06 1.06 0 0 1 .32-.37.7.7 0 0 1 .38-.13.58.58 0 0 1 .37.06l-.1.5h-.12-.14a.48.48 0 0 0 -.3.11.82.82 0 0 0 -.34.39v1.5h-.57z"/><path d="m29.11 43.27a1.37 1.37 0 0 1 .1-.54 1.18 1.18 0 0 1 .25-.4 1.07 1.07 0 0 1 .36-.25.92.92 0 0 1 .42-.1 1 1 0 0 1 .44.09.87.87 0 0 1 .32.24.93.93 0 0 1 .19.37 1.41 1.41 0 0 1 .07.47 1 1 0 0 1 0 .27h-1.59a.82.82 0 0 0 .24.51.68.68 0 0 0 .49.19 1 1 0 0 0 .3 0 1.16 1.16 0 0 0 .27-.14l.19.36a1.42 1.42 0 0 1 -.39.19 1.12 1.12 0 0 1 -.45.08 1.19 1.19 0 0 1 -.47-.09 1.14 1.14 0 0 1 -.39-.25 1.09 1.09 0 0 1 -.25-.4 1.35 1.35 0 0 1 -.1-.6zm1.65-.22a.81.81 0 0 0 -.12-.46.45.45 0 0 0 -.38-.16.53.53 0 0 0 -.39.16.7.7 0 0 0 -.2.46z"/></g></svg>