<svg viewBox="0 0 48 48" xmlns="http://www.w3.org/2000/svg"><path d="m44 44.32a3.06 3.06 0 0 0 2.63-4.58l-20-34.53a3.06 3.06 0 0 0 -2.63-1.53 3 3 0 0 0 -2.64 1.52l-19.94 34.55a3 3 0 0 0 0 3 3 3 0 0 0 2.63 1.52h39.95" fill="#ed1c24"/><path d="m5.82 40.24h36.38l-18.21-31.47z" fill="#fff"/><g fill="#1d1d1b"><path d="m13.94 29.79h4.34v1.07h-3.06v2h2.61v1.14h-2.61v3h-1.28z"/><path d="m18.91 34.29a3.21 3.21 0 0 1 .21-1.2 2.53 2.53 0 0 1 .57-.89 2.4 2.4 0 0 1 .82-.56 2.43 2.43 0 0 1 1-.19 2.5 2.5 0 0 1 1 .19 2.4 2.4 0 0 1 .82.56 2.65 2.65 0 0 1 .56.89 3.36 3.36 0 0 1 0 2.39 2.81 2.81 0 0 1 -.56.9 2.52 2.52 0 0 1 -.82.55 2.69 2.69 0 0 1 -1 .18 2.61 2.61 0 0 1 -1-.18 2.52 2.52 0 0 1 -.82-.55 2.66 2.66 0 0 1 -.57-.9 3.19 3.19 0 0 1 -.21-1.19zm1.3 0a2.22 2.22 0 0 0 .34 1.3 1.05 1.05 0 0 0 .93.49 1.07 1.07 0 0 0 .93-.49 2.22 2.22 0 0 0 .34-1.3 2.27 2.27 0 0 0 -.34-1.29 1.07 1.07 0 0 0 -.93-.49 1.05 1.05 0 0 0 -.93.49 2.27 2.27 0 0 0 -.34 1.29z"/><path d="m25.3 31.58h1.05l.09 1a2.23 2.23 0 0 1 .69-.81 1.43 1.43 0 0 1 .84-.28 1.31 1.31 0 0 1 .61.11l-.22 1.1-.26-.07h-.3a1.16 1.16 0 0 0 -.67.25 1.92 1.92 0 0 0 -.6.86v3.26h-1.23z"/><path d="m29 34.29a3.42 3.42 0 0 1 .19-1.19 2.84 2.84 0 0 1 .51-.89 2.17 2.17 0 0 1 .73-.56 1.86 1.86 0 0 1 .85-.2 1.67 1.67 0 0 1 .78.16 2.76 2.76 0 0 1 .64.43v-.87-2h1.26v7.83h-1l-.09-.58a2.77 2.77 0 0 1 -.7.5 1.73 1.73 0 0 1 -.83.21 2 2 0 0 1 -1.63-.74 3.28 3.28 0 0 1 -.71-2.1zm1.3 0a2.34 2.34 0 0 0 .32 1.34 1 1 0 0 0 .91.46 1.49 1.49 0 0 0 1.13-.61v-2.54a2.05 2.05 0 0 0 -.56-.35 1.71 1.71 0 0 0 -.54-.1 1.1 1.1 0 0 0 -.89.47 2.06 2.06 0 0 0 -.4 1.31z"/></g></svg>