<svg viewBox="0 0 48 48" xmlns="http://www.w3.org/2000/svg"><path d="m44 44.32a3.1 3.1 0 0 0 2.63-1.54 3 3 0 0 0 0-3l-20-34.53a3 3 0 0 0 -5.28 0l-19.93 34.49a3 3 0 0 0 0 3 3 3 0 0 0 2.63 1.56h39.91" fill="#ed1c24"/><path d="m5.82 40.24h36.37l-18.19-31.47z" fill="#fff"/><g fill="#1d1d1b"><path d="m13.35 32.94a4.33 4.33 0 0 1 .27-1.58 3.4 3.4 0 0 1 .72-1.18 3 3 0 0 1 1.09-.74 3.58 3.58 0 0 1 1.36-.25 3 3 0 0 1 .69.07 2.48 2.48 0 0 1 .58.21 2.64 2.64 0 0 1 .49.29 3.16 3.16 0 0 1 .38.34l-.7.79a2.66 2.66 0 0 0 -.6-.43 1.86 1.86 0 0 0 -.83-.16 2.07 2.07 0 0 0 -.88.18 1.87 1.87 0 0 0 -.67.52 2.21 2.21 0 0 0 -.43.82 3.31 3.31 0 0 0 -.16 1.08 3 3 0 0 0 .56 1.93 2 2 0 0 0 1.64.7 1.91 1.91 0 0 0 .59-.08 1.08 1.08 0 0 0 .45-.24v-1.55h-1.37v-1h2.47v3.17a3.22 3.22 0 0 1 -1 .61 3.86 3.86 0 0 1 -2.68 0 3 3 0 0 1 -1.07-.71 3.26 3.26 0 0 1 -.7-1.17 4.55 4.55 0 0 1 -.2-1.62z"/><path d="m20.29 35.06a1.5 1.5 0 0 1 .76-1.34 6 6 0 0 1 2.42-.66 1.75 1.75 0 0 0 0-.4 1.08 1.08 0 0 0 -.17-.34.89.89 0 0 0 -.3-.24 1.19 1.19 0 0 0 -.46-.08 1.91 1.91 0 0 0 -.78.16 3.85 3.85 0 0 0 -.73.37l-.47-.85a5.57 5.57 0 0 1 1-.49 3.38 3.38 0 0 1 1.17-.19 1.84 1.84 0 0 1 1.51.6 2.66 2.66 0 0 1 .5 1.73v3.2h-1l-.1-.59a3.81 3.81 0 0 1 -.77.51 2 2 0 0 1 -.9.21 1.59 1.59 0 0 1 -1.16-.43 1.52 1.52 0 0 1 -.52-1.17zm1.24-.1a.64.64 0 0 0 .21.53.89.89 0 0 0 .56.16 1.21 1.21 0 0 0 .6-.15 2.65 2.65 0 0 0 .57-.44v-1.21a4.83 4.83 0 0 0 -.92.18 2.48 2.48 0 0 0 -.6.24 1 1 0 0 0 -.33.32.78.78 0 0 0 -.09.41z"/><path d="m26.47 32.11h-.77v-.94l.83-.06.16-1.47h1v1.47h1.38v1h-1.33v2.58c0 .63.25.94.76.94a1.43 1.43 0 0 0 .29 0 1.07 1.07 0 0 0 .27-.09l.22.94a4.5 4.5 0 0 1 -.5.13 2.91 2.91 0 0 1 -.6.06 1.94 1.94 0 0 1 -.8-.14 1.3 1.3 0 0 1 -.52-.4 1.56 1.56 0 0 1 -.3-.62 3.18 3.18 0 0 1 -.09-.79z"/><path d="m29.79 33.82a3.19 3.19 0 0 1 .21-1.19 2.74 2.74 0 0 1 .55-.89 2.46 2.46 0 0 1 .8-.56 2.15 2.15 0 0 1 .92-.2 2.27 2.27 0 0 1 1 .19 1.92 1.92 0 0 1 .7.52 2.2 2.2 0 0 1 .42.82 3.37 3.37 0 0 1 .15 1 2.41 2.41 0 0 1 -.06.6h-3.48a1.81 1.81 0 0 0 .51 1.13 1.53 1.53 0 0 0 1.08.4 2 2 0 0 0 .66-.11 3.29 3.29 0 0 0 .6-.29l.43.79a4 4 0 0 1 -.86.42 3 3 0 0 1 -1 .16 2.84 2.84 0 0 1 -1.05-.19 2.5 2.5 0 0 1 -.84-.55 2.72 2.72 0 0 1 -.53-.87 3.2 3.2 0 0 1 -.21-1.18zm3.62-.49a1.66 1.66 0 0 0 -.27-1 1 1 0 0 0 -.83-.36 1.18 1.18 0 0 0 -.85.34 1.73 1.73 0 0 0 -.45 1z"/></g></svg>