<svg viewBox="0 0 48 48" xmlns="http://www.w3.org/2000/svg"><path d="m37.09 38.51h-26.18a1.28 1.28 0 0 0 -1.28 1.28v5.93a1.28 1.28 0 0 0 1.28 1.28h26.18a1.28 1.28 0 0 0 1.28-1.28v-5.93a1.28 1.28 0 0 0 -1.28-1.28z" fill="#fff" stroke="#272525" stroke-width=".53"/><path d="m24 1.18a18 18 0 1 1 -18 18 18 18 0 0 1 18-18v-.18a18.16 18.16 0 1 0 18.16 18.16 18.19 18.19 0 0 0 -18.16-18.16z" fill="#4679bb"/><path d="m24 1.64a17.48 17.48 0 1 1 -17.48 17.48 17.49 17.49 0 0 1 17.48-17.48" fill="#4679bb"/><path d="m23.09 26.36-4.82-4.82h20.53v-4.82h-20.53l4.82-4.82h-7.23l-7.24 7.23 7.24 7.23z" fill="#fff"/><g fill="#1d1d1b"><path d="m16.11 40.64h2.36v.59h-1.66v1h1.41v.59h-1.41v1.18h1.72v.58h-2.42z"/><path d="m19.86 43-.86-1.38h.75l.33.56c0 .08.09.16.13.25l.14.24.12-.24c0-.09.07-.17.11-.25l.28-.56h.72l-.87 1.49.93 1.45h-.74l-.36-.56-.15-.26-.15-.26-.12.26a2.1 2.1 0 0 0 -.12.26l-.32.58h-.72z"/><path d="m21.84 43.09a1.67 1.67 0 0 1 .12-.65 1.49 1.49 0 0 1 .32-.48 1.37 1.37 0 0 1 .48-.31 1.47 1.47 0 0 1 .56-.1 1.12 1.12 0 0 1 .5.1 1.13 1.13 0 0 1 .36.24l-.33.44a1.11 1.11 0 0 0 -.24-.16.58.58 0 0 0 -.26-.06.72.72 0 0 0 -.58.27 1.06 1.06 0 0 0 -.22.71 1.09 1.09 0 0 0 .22.72.7.7 0 0 0 .56.26.77.77 0 0 0 .34-.07 1.27 1.27 0 0 0 .27-.18l.29.44a1.58 1.58 0 0 1 -.46.28 1.54 1.54 0 0 1 -.51.1 1.74 1.74 0 0 1 -.56-.1 1.25 1.25 0 0 1 -.45-.31 1.31 1.31 0 0 1 -.3-.48 1.9 1.9 0 0 1 -.11-.66z"/><path d="m24.47 43.09a1.83 1.83 0 0 1 .11-.64 1.42 1.42 0 0 1 .31-.49 1.48 1.48 0 0 1 .43-.31 1.24 1.24 0 0 1 .5-.1 1.25 1.25 0 0 1 .53.1 1 1 0 0 1 .38.29 1.23 1.23 0 0 1 .23.44 1.69 1.69 0 0 1 .08.56 1.42 1.42 0 0 1 0 .33h-1.9a1 1 0 0 0 .28.62.84.84 0 0 0 .59.21 1.11 1.11 0 0 0 .68-.21l.24.43a2.28 2.28 0 0 1 -.47.23 1.61 1.61 0 0 1 -.54.09 1.56 1.56 0 0 1 -.57-.11 1.31 1.31 0 0 1 -.46-.3 1.33 1.33 0 0 1 -.31-.48 1.69 1.69 0 0 1 -.11-.66zm2-.26a1 1 0 0 0 -.14-.55.54.54 0 0 0 -.46-.2.63.63 0 0 0 -.46.19 1 1 0 0 0 -.25.56z"/><path d="m28.39 44.8v.93h-.69v-4.11h.57l.05.31a3 3 0 0 1 .42-.27 1 1 0 0 1 .47-.11 1.07 1.07 0 0 1 .49.1 1 1 0 0 1 .36.31 1.38 1.38 0 0 1 .23.47 2.33 2.33 0 0 1 .08.62 2.3 2.3 0 0 1 -.1.67 1.59 1.59 0 0 1 -.28.5 1.24 1.24 0 0 1 -.41.31 1.12 1.12 0 0 1 -.47.11.85.85 0 0 1 -.38-.09 1.21 1.21 0 0 1 -.38-.24zm0-1a1 1 0 0 0 .31.19.79.79 0 0 0 .29.06.61.61 0 0 0 .49-.26 1.23 1.23 0 0 0 .2-.76 1.36 1.36 0 0 0 -.15-.69.54.54 0 0 0 -.49-.24 1 1 0 0 0 -.65.33z"/><path d="m31.19 42.17h-.42v-.52h.45l.09-.81h.57v.81h.75v.55h-.75v1.4q0 .51.42.51h.16.14l.12.51-.27.07a1.15 1.15 0 0 1 -.33 0 1.1 1.1 0 0 1 -.43-.08.8.8 0 0 1 -.29-.22.89.89 0 0 1 -.16-.34 1.88 1.88 0 0 1 0-.43z"/></g></svg>