<svg viewBox="0 0 48 48" xmlns="http://www.w3.org/2000/svg"><circle cx="24" cy="24" fill="#e30613" r="22.5"/><circle cx="24" cy="24" fill="#fff" r="18.02"/><circle cx="16.01" cy="23.68" r="1.93"/><circle cx="31.3" cy="23.68" r="1.93"/><path d="m14.7 15.61a1.26 1.26 0 0 0 -1.26 1.13l-.5 2.84a.74.74 0 0 0 -.54.71 1.72 1.72 0 0 0 0 .29l.66 3.09h.78a2.14 2.14 0 0 1 4.28 0h11a2.14 2.14 0 1 1 4.28 0h2.25v-9.15s0-.53-.48-.53h-15.17c-.49 0-.48.53-.48.53v4.29h-1v-2.64s0-.54-.46-.54z"/><g fill="#fff"><circle cx="16.01" cy="23.68" r=".97"/><path d="m31.3 22.71a1 1 0 1 1 -1 1 1 1 0 0 1 1-1z"/><path d="m13.85 18.81h2.92v-2.42h-1.93s-.57 0-.62.37z"/></g><path d="m12.39 30.87 1.84-1.84h1.84l-1.21 1.21h4.93v1.25h-4.93l1.21 1.21h-1.84z"/><path d="m33.69 32.7h-1.83l1.21-1.21h-4.93v-1.25h4.93l-1.21-1.21h1.83l1.84 1.84z"/></svg>