<svg viewBox="0 0 48 48" xmlns="http://www.w3.org/2000/svg"><path d="m24 .24a23.76 23.76 0 1 1 -23.76 23.76 23.79 23.79 0 0 1 23.76-23.76v-.24a24 24 0 1 0 24 24 24 24 0 0 0 -24-24z" fill="#4679bb"/><path d="m24 1.08a22.92 22.92 0 1 1 -22.92 22.92 22.93 22.93 0 0 1 22.92-22.92" fill="#4679bb"/><g fill="#fff"><path d="m13 7.3-3.56 3.24 4.13.17a16.79 16.79 0 0 0 -5.7 17.4l3.13-.82a13.64 13.64 0 0 1 5.1-14.52l-.2 4.82 3.53-3.24.28-6.75z"/><path d="m42.81 17.74-2.23 3.5a16.76 16.76 0 0 0 -12.22-13.64l-.82 3.07a13.64 13.64 0 0 1 10 11.73l-4.07-2.59 1 4.66 5.69 3.64 3.64-5.7z"/><path d="m35.89 35.62-2.25-2.25a13.6 13.6 0 0 1 -15.13 2.78l4.24-2.22-4.56-1.44-6 3.13 3.12 6 4.56 1.43-1.87-3.67a16.74 16.74 0 0 0 17.89-3.76z"/></g></svg>