<svg viewBox="0 0 48 48" xmlns="http://www.w3.org/2000/svg"><circle cx="24" cy="24" fill="#ed1c24" r="22.5"/><circle cx="24" cy="24" fill="#fff" r="18.02"/><path d="m27 15.06c0-.73-.24-1-.61-1s-.64.38-.64 1 .24.85.64.85.61-.37.61-.85z" fill="#fff"/><g fill="#1d1d1b"><path d="m21 12.32h.72l1.22 2.21.4.83c0-.2 0-.42-.06-.65s0-.46 0-.68v-1.71h.66v3.93h-.71l-1.23-2.25-.4-.84q0 .32.06.66v.67 1.72h-.66z"/><path d="m24.67 14.78a1.69 1.69 0 0 1 .11-.66 1.47 1.47 0 0 1 .31-.48 1.25 1.25 0 0 1 .45-.31 1.3 1.3 0 0 1 .52-.1 1.4 1.4 0 0 1 .54.1 1.22 1.22 0 0 1 .44.31 1.47 1.47 0 0 1 .31.48 1.85 1.85 0 0 1 0 1.31 1.64 1.64 0 0 1 -.31.49 1.32 1.32 0 0 1 -.44.3 1.62 1.62 0 0 1 -.54.1 1.5 1.5 0 0 1 -.52-.1 1.37 1.37 0 0 1 -.45-.3 1.64 1.64 0 0 1 -.31-.49 1.67 1.67 0 0 1 -.11-.65zm.7 0a1.27 1.27 0 0 0 .19.71.62.62 0 0 0 1 0 1.19 1.19 0 0 0 .19-.71 1.2 1.2 0 0 0 -.19-.72.61.61 0 0 0 -1 0 1.28 1.28 0 0 0 -.19.72z"/><path d="m11.79 24.45a.81.81 0 0 1 .42-.73 3.3 3.3 0 0 1 1.32-.36.83.83 0 0 0 0-.22.4.4 0 0 0 -.1-.18.34.34 0 0 0 -.16-.13.6.6 0 0 0 -.25 0 1.09 1.09 0 0 0 -.43.08 2.87 2.87 0 0 0 -.39.2l-.26-.46a4 4 0 0 1 .55-.27 2 2 0 0 1 .66-.11 1 1 0 0 1 .83.32 1.47 1.47 0 0 1 .27.95v1.75h-.57l-.05-.33a1.92 1.92 0 0 1 -.42.28 1 1 0 0 1 -.49.12.85.85 0 0 1 -.63-.24.82.82 0 0 1 -.3-.67zm.68-.05a.34.34 0 0 0 .11.29.5.5 0 0 0 .31.09.63.63 0 0 0 .33-.09 1.24 1.24 0 0 0 .31-.24v-.66a4.19 4.19 0 0 0 -.51.1 1.41 1.41 0 0 0 -.32.13.51.51 0 0 0 -.18.18.35.35 0 0 0 -.05.2z"/><path d="m15.06 21h.69v1.1.49a2.11 2.11 0 0 1 .4-.26 1 1 0 0 1 .45-.1 1.07 1.07 0 0 1 .49.1 1 1 0 0 1 .37.3 1.38 1.38 0 0 1 .23.47 2.39 2.39 0 0 1 .08.62 2.06 2.06 0 0 1 -.11.68 1.62 1.62 0 0 1 -.28.5 1.2 1.2 0 0 1 -.4.31 1.12 1.12 0 0 1 -.47.11.92.92 0 0 1 -.42-.1 1.53 1.53 0 0 1 -.39-.27l-.06.3h-.54zm.69 3.49a.79.79 0 0 0 .31.19.74.74 0 0 0 .28.06.59.59 0 0 0 .49-.26 1.17 1.17 0 0 0 .2-.76 1.36 1.36 0 0 0 -.15-.69.52.52 0 0 0 -.48-.24 1 1 0 0 0 -.65.33z"/><path d="m18.44 22.3h.56v.4a2.6 2.6 0 0 1 .43-.33 1 1 0 0 1 .54-.14.78.78 0 0 1 .69.3 1.51 1.51 0 0 1 .22.87v1.85h-.69v-1.76a.93.93 0 0 0 -.11-.52.41.41 0 0 0 -.36-.15.59.59 0 0 0 -.34.1 2.83 2.83 0 0 0 -.33.27v2.06h-.69z"/><path d="m21.61 23.78a1.9 1.9 0 0 1 .11-.66 1.47 1.47 0 0 1 .31-.48 1.25 1.25 0 0 1 .45-.31 1.35 1.35 0 0 1 .53-.1 1.39 1.39 0 0 1 .53.1 1.25 1.25 0 0 1 .45.31 1.45 1.45 0 0 1 .3.48 1.85 1.85 0 0 1 0 1.31 1.61 1.61 0 0 1 -.3.49 1.37 1.37 0 0 1 -.45.3 1.61 1.61 0 0 1 -.53.1 1.56 1.56 0 0 1 -.53-.1 1.37 1.37 0 0 1 -.45-.3 1.64 1.64 0 0 1 -.31-.49 1.88 1.88 0 0 1 -.11-.65zm.71 0a1.27 1.27 0 0 0 .18.71.57.57 0 0 0 .51.26.59.59 0 0 0 .51-.26 1.51 1.51 0 0 0 0-1.43.6.6 0 0 0 -.51-.27.58.58 0 0 0 -.51.27 1.28 1.28 0 0 0 -.18.72z"/><path d="m25.1 22.3h.57v.52a1.18 1.18 0 0 1 .38-.44.78.78 0 0 1 .45-.15.83.83 0 0 1 .34.06l-.12.6h-.15-.16a.61.61 0 0 0 -.36.13 1 1 0 0 0 -.33.48v1.8h-.62z"/><path d="m27.33 22.3h.57l.05.4a1.8 1.8 0 0 1 .4-.33.86.86 0 0 1 .5-.14.81.81 0 0 1 .51.14.85.85 0 0 1 .3.39 2.18 2.18 0 0 1 .44-.38.9.9 0 0 1 .51-.15.81.81 0 0 1 .69.3 1.43 1.43 0 0 1 .22.87v1.85h-.69v-1.76a.84.84 0 0 0 -.12-.52.37.37 0 0 0 -.33-.15.91.91 0 0 0 -.62.37v2.06h-.66v-1.76a.93.93 0 0 0 -.1-.49.41.41 0 0 0 -.35-.15.93.93 0 0 0 -.62.37v2.06h-.69z"/><path d="m32.27 24.45a.81.81 0 0 1 .41-.73 3.41 3.41 0 0 1 1.32-.36.83.83 0 0 0 0-.22.51.51 0 0 0 -.09-.18.43.43 0 0 0 -.17-.13.57.57 0 0 0 -.24 0 1 1 0 0 0 -.43.08 3 3 0 0 0 -.4.2l-.25-.46a3.4 3.4 0 0 1 .54-.27 2 2 0 0 1 .66-.11 1 1 0 0 1 .83.32 1.47 1.47 0 0 1 .27.95v1.75h-.57v-.33a1.92 1.92 0 0 1 -.42.28 1 1 0 0 1 -.49.12.82.82 0 0 1 -.87-.87zm.67-.05a.37.37 0 0 0 .11.29.5.5 0 0 0 .31.09.63.63 0 0 0 .33-.09 1.24 1.24 0 0 0 .31-.24v-.66a3.65 3.65 0 0 0 -.5.1 1.33 1.33 0 0 0 -.33.13.62.62 0 0 0 -.18.18.46.46 0 0 0 -.05.2z"/><path d="m35.53 21h.69v3.52a.25.25 0 0 0 .05.17.11.11 0 0 0 .1.05h.11l.09.52a1 1 0 0 1 -.37.06.6.6 0 0 1 -.52-.22 1.08 1.08 0 0 1 -.15-.61z"/><path d="m17.56 30h.69v3.52a.25.25 0 0 0 .05.17.11.11 0 0 0 .1 0h.11l.09.52a1 1 0 0 1 -.37.06.6.6 0 0 1 -.52-.22 1.08 1.08 0 0 1 -.15-.61z"/><path d="m19 32.78a1.69 1.69 0 0 1 .12-.66 1.33 1.33 0 0 1 .31-.48 1.31 1.31 0 0 1 .44-.31 1.39 1.39 0 0 1 .53-.1 1.35 1.35 0 0 1 .53.1 1.25 1.25 0 0 1 .45.31 1.47 1.47 0 0 1 .31.48 1.69 1.69 0 0 1 .11.66 1.67 1.67 0 0 1 -.11.65 1.64 1.64 0 0 1 -.31.49 1.37 1.37 0 0 1 -.45.3 1.56 1.56 0 0 1 -.53.1 1.61 1.61 0 0 1 -.53-.1 1.43 1.43 0 0 1 -.44-.3 1.46 1.46 0 0 1 -.31-.49 1.67 1.67 0 0 1 -.12-.65zm.71 0a1.27 1.27 0 0 0 .18.71.59.59 0 0 0 .51.26.57.57 0 0 0 .51-.26 1.44 1.44 0 0 0 0-1.43.58.58 0 0 0 -.51-.27.6.6 0 0 0 -.51.27 1.28 1.28 0 0 0 -.19.72z"/><path d="m22.28 33.45a.81.81 0 0 1 .42-.73 3.3 3.3 0 0 1 1.3-.36.83.83 0 0 0 0-.22.52.52 0 0 0 -.1-.18.34.34 0 0 0 -.16-.13.62.62 0 0 0 -.25 0 1.06 1.06 0 0 0 -.43.08 3 3 0 0 0 -.4.2l-.25-.46a4 4 0 0 1 .55-.27 2 2 0 0 1 .66-.11 1 1 0 0 1 .83.32 1.47 1.47 0 0 1 .27.95v1.75h-.57l-.05-.33a1.92 1.92 0 0 1 -.42.28 1 1 0 0 1 -.49.12.89.89 0 0 1 -.64-.24.85.85 0 0 1 -.27-.67zm.72-.05a.34.34 0 0 0 .12.29.49.49 0 0 0 .3.09.63.63 0 0 0 .33-.09 1.27 1.27 0 0 0 .32-.24v-.66a3.84 3.84 0 0 0 -.51.1 1.75 1.75 0 0 0 -.33.13.48.48 0 0 0 -.17.18.36.36 0 0 0 -.06.2z"/><path d="m25.36 32.78a1.88 1.88 0 0 1 .11-.65 1.46 1.46 0 0 1 .28-.49 1.17 1.17 0 0 1 .4-.3 1 1 0 0 1 .46-.11 1.1 1.1 0 0 1 .43.08 2.19 2.19 0 0 1 .35.24v-.47-1.08h.69v4.24h-.57v-.32a1.31 1.31 0 0 1 -.38.27.89.89 0 0 1 -.45.12 1.1 1.1 0 0 1 -.89-.41 1.75 1.75 0 0 1 -.43-1.12zm.72 0a1.33 1.33 0 0 0 .17.73.55.55 0 0 0 .5.25.82.82 0 0 0 .61-.33v-1.43a1 1 0 0 0 -.3-.19 1 1 0 0 0 -.3-.05.58.58 0 0 0 -.48.25 1.16 1.16 0 0 0 -.2.76z"/><path d="m29 33.47a2.06 2.06 0 0 0 .39.24 1 1 0 0 0 .43.09.56.56 0 0 0 .35-.1.31.31 0 0 0 .11-.26.24.24 0 0 0 0-.16l-.14-.12a1 1 0 0 0 -.21-.1l-.32-.06-.29-.13a1.24 1.24 0 0 1 -.27-.17.88.88 0 0 1 -.19-.24.66.66 0 0 1 -.07-.32.81.81 0 0 1 .28-.64 1.42 1.42 0 0 1 1.34-.13 1.94 1.94 0 0 1 .43.24l-.32.42a2 2 0 0 0 -.32-.18.72.72 0 0 0 -.33-.07.5.5 0 0 0 -.33.09.3.3 0 0 0 -.05.39.47.47 0 0 0 .13.11l.2.09.23.08.3.12a1.27 1.27 0 0 1 .27.18.66.66 0 0 1 .2.24.8.8 0 0 1 .08.36.85.85 0 0 1 -.08.35.77.77 0 0 1 -.22.29 1 1 0 0 1 -.36.2 1.75 1.75 0 0 1 -.49.07 1.61 1.61 0 0 1 -.6-.12 1.79 1.79 0 0 1 -.51-.29z"/></g></svg>