<svg viewBox="0 0 48 48" xmlns="http://www.w3.org/2000/svg"><path d="m20.09 1.86a22.48 22.48 0 1 0 26.07 18.22 22.49 22.49 0 0 0 -26.07-18.22" fill="#eb2027"/><path d="m20.88 6.29a18 18 0 1 0 20.82 14.59 18 18 0 0 0 -20.82-14.59" fill="#fff"/><path d="m18 18.62a1.52 1.52 0 1 1 -1.54 1.52 1.54 1.54 0 0 1 1.54-1.52" fill="#221f1f"/><path d="m18 19.38a.76.76 0 1 1 -.76.76.74.74 0 0 1 .76-.76z" fill="#fff"/><path d="m30.05 18.62a1.52 1.52 0 1 1 -1.52 1.52 1.53 1.53 0 0 1 1.52-1.52" fill="#221f1f"/><circle cx="30.05" cy="20.14" fill="#fff" r=".76"/><path d="m15.64 16.92.41-2.28a.94.94 0 0 1 .92-.8h2.58a.39.39 0 0 1 .39.37v2.1h.76v-3.43a.39.39 0 0 1 .39-.39h12a.38.38 0 0 1 .37.39v7.26h-1.74a1.69 1.69 0 0 0 -3.37 0h-8.69a1.69 1.69 0 0 0 -3.37 0h-.61l-.56-2.54s0-.07 0-.11a.66.66 0 0 1 .54-.55" fill="#221f1f"/><path d="m18.59 14.45v1.87h-2.26l.27-1.59a.4.4 0 0 1 .37-.31h1.62z" fill="#fff"/><path d="m28.38 20.14h.61l.36-.98h1.4l.82.98h1.03l-1.37-1.95v-.05h-2.9z" fill="#221f1f"/><path d="m15.6 33.79a1.59 1.59 0 0 1 -.07-.5 1.64 1.64 0 0 1 1.63-1.63 1.51 1.51 0 0 1 .63.13 1.59 1.59 0 0 1 .52.35 1.83 1.83 0 0 1 .35.52 1.55 1.55 0 0 1 .13.63 1.82 1.82 0 0 1 -.07.5h9.92a1.59 1.59 0 0 1 -.07-.5 1.69 1.69 0 0 1 .13-.63 1.33 1.33 0 0 1 .35-.52 1.83 1.83 0 0 1 .52-.35 1.55 1.55 0 0 1 .63-.13 1.62 1.62 0 0 1 .63.13 1.41 1.41 0 0 1 .52.35 2.06 2.06 0 0 1 .35.52 2 2 0 0 1 .13.63 1.42 1.42 0 0 1 -.08.5l5.61-1.13v-4.87a1.64 1.64 0 0 0 -1.64-1.65h-23.64a.34.34 0 0 0 -.33.3l-.17 3.56a.33.33 0 0 0 -.33.33v2.78a.65.65 0 0 0 .65.65h3.64z" fill="#231f20"/><g fill="#fff"><path d="m14.55 27.77a.33.33 0 0 0 -.34-.33h-1a.33.33 0 0 0 -.33.33v4.72a.32.32 0 0 0 .33.32h1a.33.33 0 0 0 .34-.32z"/><path d="m21.38 29.73a.33.33 0 0 1 -.33-.33v-1.63a.33.33 0 0 1 .33-.33h3.91a.32.32 0 0 1 .33.33v1.63a.33.33 0 0 1 -.33.33z"/><path d="m16 29.73a.33.33 0 0 1 -.33-.33v-1.63a.33.33 0 0 1 .33-.33h3.91a.32.32 0 0 1 .31.33v1.63a.32.32 0 0 1 -.31.33z"/><path d="m30.66 29.73a.33.33 0 0 0 .34-.33v-1.63a.32.32 0 0 0 -.33-.33h-3.92a.33.33 0 0 0 -.33.33v1.63a.33.33 0 0 0 .33.33z"/><path d="m32.12 29.73a.33.33 0 0 1 -.33-.33v-1.63a.33.33 0 0 1 .33-.33h3.26a1 1 0 0 1 1 1v1a.32.32 0 0 1 -.32.33z"/></g><path d="m17.14 32a1.3 1.3 0 1 1 -1.3 1.3 1.3 1.3 0 0 1 1.3-1.3" fill="#231f20"/><path d="m17.14 32.66a.66.66 0 0 1 .65.65.65.65 0 0 1 -1.3 0 .64.64 0 0 1 .65-.65" fill="#fff"/><path d="m30.18 32a1.31 1.31 0 1 1 -1.32 1.3 1.33 1.33 0 0 1 1.32-1.3z" fill="#231f20"/><path d="m30.18 32.66a.64.64 0 0 1 .65.65.65.65 0 1 1 -1.3 0 .64.64 0 0 1 .65-.65" fill="#fff"/></svg>