<svg viewBox="0 0 48 48" xmlns="http://www.w3.org/2000/svg"><circle cx="24" cy="24" fill="#ed1c24" r="22.5"/><circle cx="24" cy="24" fill="#fff" r="18.03"/><path d="m36 21.8a5.68 5.68 0 0 1 3.43 5.2h-.89a4.77 4.77 0 0 1 -8.94 2.33h-8.32a2.16 2.16 0 0 1 -2.28-2.33 5.24 5.24 0 0 0 -1.93-4.08l-.26.45a4.78 4.78 0 1 1 -3.09-1.12 4.73 4.73 0 0 1 1.68.31l.27-.45a5.49 5.49 0 0 0 -2-.36h-.17v-1.91h1.21a4.09 4.09 0 0 0 3.48-2.08c.38-.66 2.05-3.32 2.05-3.32s.1-.18.21-.13a.18.18 0 0 1 .09.23c0 .07-.93 4.21-.93 4.21s-.11.53.18.73.61-.07.7-.14l1.37-1.08 1.3-2.26s.13-.28 0-.28a1 1 0 0 1 -1.16-1v-1.2h-.41v-.17a1.83 1.83 0 1 1 3.66 0 1.76 1.76 0 0 1 -.36 1.09v.71h.36l2.33 1 2.26 2.46a2.2 2.2 0 0 1 .66 1.8h4.5s1-.06 1 1.39z"/><g fill="#fff"><path d="m15.78 25.07a2.86 2.86 0 1 1 -2.08-.9 3.08 3.08 0 0 1 .68.08l-.58 1h-.1a1.82 1.82 0 1 0 1.82 1.75 1.86 1.86 0 0 0 -.3-1z"/><path d="m33.56 24.17h.2a2.86 2.86 0 1 1 -1.74.59l.4 1a1.76 1.76 0 0 0 -.42 1.24 1.82 1.82 0 1 0 2-1.81z"/><path d="m29.08 26.05a4.73 4.73 0 0 1 1.51-2.59c.1-.1.15-.4-.07-.4h-1.83v3s0 .23.16.23.22-.18.23-.24z"/><path d="m25.42 20.42a2.37 2.37 0 0 1 -1.21-1.52l-3.84 2.23 3.81 1.24z"/></g></svg>