<svg viewBox="0 0 48 48" xmlns="http://www.w3.org/2000/svg"><circle cx="24" cy="24" fill="#ec1d24" r="22.5"/><circle cx="24" cy="24" fill="#fff" r="18.03"/><path d="m30.74 24.2a2.81 2.81 0 0 0 2.77-1.89 2.39 2.39 0 0 0 2.61-2.13 2.71 2.71 0 0 0 -.79-2 2 2 0 0 0 .38-2.84 2.15 2.15 0 0 0 -2.54-.57 2 2 0 0 0 -1-2.68 2.19 2.19 0 0 0 -2.33.48 2.39 2.39 0 0 0 -1.92-2.71 2.43 2.43 0 0 0 -2.64 1.51 2.7 2.7 0 0 0 -3.12-2.15 2.72 2.72 0 0 0 -2.16 3.14 2.73 2.73 0 0 0 -3.8-.38 3.13 3.13 0 0 0 -1 1.92 3.36 3.36 0 0 0 -3.35 3.38 3.7 3.7 0 0 0 1.31 2.62 3.39 3.39 0 0 0 2.26 4.21 4.8 4.8 0 0 0 1.85 0l13.45.05" fill="#fde500"/><path d="m15.92 35.22a1.5 1.5 0 0 1 -.68-1.17v-3.76a1.38 1.38 0 0 1 1.24-1.37l.72-4.38a2.34 2.34 0 0 1 2.23-1.88h9.16a2.34 2.34 0 0 1 2.23 1.88l.73 4.38a1.43 1.43 0 0 1 1.24 1.37v3.76a1.56 1.56 0 0 1 -.68 1.17v3a1.81 1.81 0 0 1 -2.71 0v-2.77c-1.47.07-3.91.17-5.38.2s-3.89-.13-5.38-.2v2.74c-.07 0-.13.14-.17.17a1.79 1.79 0 0 1 -2.54-.17v-3" fill="#221f1f"/><path d="m19.53 34.32c1.24.08 3.25.09 4.49.09s3.25 0 4.47-.09v-.62h-9v.62" fill="#fff"/><g fill="#221f1f"><path d="m22.04 21.69h-1.25l-.45.31.3.2h1.3l.41-.23z"/><path d="m15.03 17.86-.48.38-1.67-1.69.86-.77z"/><path d="m18.05 12.76 2.18 4.39-.27.13-3.19-4.59 1.14.58z"/><path d="m18.74 21.93-.15.27-4.82-.45 1.16-.39-.2-.45z"/><path d="m16.26 18.37 3.73 2.61-.16.38-4.56-2.54h.99z"/><path d="m20.34 18.85-.35.44-5.33-3.79.74-.48z"/><path d="m31.76 12.53.53.54-4.93 3.07-.19-.2z"/><path d="m27.62 19.61.15.48 6.5-1.66-.59-.38.31-1.25z"/><path d="m32.69 21.62-.23-.61-4.76.74.07.35z"/><path d="m26.88 21.69-.38-.3-.41.33.44.41z"/><path d="m21.74 12.92.51.66h.76v-.92h-1.27z"/><path d="m27.49 13.17-.45.48-1.4-.35.66-.96z"/><path d="m31.47 15.18-.07 1.18 1.57-.04v-.54z"/><path d="m27.87 17.28-.96-.08v.59h.93z"/></g><path d="m17.8 25.83a2.12 2.12 0 0 1 1.75-1.67c.76 0 2-.13 2.8-.16h3.29c.79 0 2 .13 2.81.16a2.18 2.18 0 0 1 1.75 1.67l.21 1.27a.91.91 0 0 1 -.76 1c-.07 0-.18 0-.21 0-1.51 0-3.93-.11-5.45-.18s-3.93.14-5.45.18a.87.87 0 0 1 -1-.82v-.2l.22-1.27" fill="#fff"/><path d="m19.51 31c1.24-.07 3.26-.1 4.49-.1s3.26 0 4.48.1v.61h-9v-.61" fill="#fff"/><path d="m17.5 32.3a1.23 1.23 0 0 0 1.24-1.24 1.25 1.25 0 0 0 -1.24-1.25 1.28 1.28 0 0 0 -1.27 1.25 1.25 1.25 0 0 0 1.27 1.24" fill="#fff"/><path d="m30.51 32.3a1.26 1.26 0 0 0 1.27-1.24 1.27 1.27 0 0 0 -2.54 0 1.25 1.25 0 0 0 1.27 1.24" fill="#fff"/><path d="m24 32.3h4.48v.73h-8.96v-.73z" fill="#fff"/><path d="m24 13.93a2.18 2.18 0 0 1 -.13 1.07 2.27 2.27 0 0 0 -.28.76 3.62 3.62 0 0 1 -.51-.86 4 4 0 0 0 0 2.67 3.4 3.4 0 0 1 -1-1.47 2.51 2.51 0 0 0 .59 2.9 2.88 2.88 0 0 0 -1.88 0 2.9 2.9 0 0 1 1 1.37 3 3 0 0 0 1.52 1.63 2.44 2.44 0 0 1 -.21-.61 1.43 1.43 0 0 0 -.32-.83 1.37 1.37 0 0 1 .55.28 2.68 2.68 0 0 1 .44-1.84 1.29 1.29 0 0 0 .22.58 2.12 2.12 0 0 0 .34-.27 2 2 0 0 1 -.33 1.37 2.84 2.84 0 0 0 .54-.18 2.07 2.07 0 0 1 -.64.86 1.59 1.59 0 0 0 .58 0 1.3 1.3 0 0 1 -.48.64 2.36 2.36 0 0 0 2.36-2.36 2.86 2.86 0 0 1 -1 .34 3.74 3.74 0 0 0 1.08-2.42 2.69 2.69 0 0 1 -1.37.61 2.12 2.12 0 0 0 .29-2.23 3.54 3.54 0 0 1 -1.21 1.37 3.25 3.25 0 0 0 -.13-3.6l.05.25" fill="#221f1f"/></svg>