<svg viewBox="0 0 48 48" xmlns="http://www.w3.org/2000/svg"><path d="m37.1 38.51h-26.2a1.29 1.29 0 0 0 -1.28 1.28v5.93a1.29 1.29 0 0 0 1.28 1.28h26.2a1.29 1.29 0 0 0 1.28-1.28v-5.93a1.29 1.29 0 0 0 -1.28-1.28z" fill="#fff" stroke="#272525" stroke-width=".53"/><rect fill="#4679bb" height="36.33" rx="2.02" width="24.25" x="11.88" y="1"/><path d="m12.07 3a1.83 1.83 0 0 1 1.83-1.81h20.2a1.83 1.83 0 0 1 1.83 1.81v32.31a1.83 1.83 0 0 1 -1.83 1.83h-20.2a1.83 1.83 0 0 1 -1.83-1.83z" fill="#fff"/><path d="m12.93 3a1 1 0 0 1 1-1h20.17a1 1 0 0 1 1 1v32.31a1 1 0 0 1 -1 .95h-20.2a1 1 0 0 1 -1-.95v-32.31" fill="#4679bb"/><path d="m21.47 34.43v-20.34l-5.08 5.07v-7.61l7.62-7.63 7.6 7.63v7.61l-5.06-5.07v20.34z" fill="#fff"/><g fill="#1d1d1b"><path d="m15.81 40.61h2.36v.58h-1.67v1h1.42v.58h-1.42v1.16h1.73v.59h-2.42z"/><path d="m19.56 43-.88-1.41h.75l.33.56c0 .08.09.16.13.25l.14.25c0-.08.07-.16.12-.25s.07-.17.11-.25l.28-.56h.71l-.86 1.49.93 1.46h-.72l-.36-.54-.15-.27-.15-.25-.13.25-.12.27-.32.58h-.72z"/><path d="m21.54 43.06a1.67 1.67 0 0 1 .12-.65 1.44 1.44 0 0 1 .32-.49 1.52 1.52 0 0 1 1-.41 1.16 1.16 0 0 1 .51.1 1.61 1.61 0 0 1 .36.24l-.33.44a1.11 1.11 0 0 0 -.24-.16.58.58 0 0 0 -.26-.05.74.74 0 0 0 -.58.26 1.09 1.09 0 0 0 -.22.72 1.06 1.06 0 0 0 .22.71.68.68 0 0 0 .56.23.81.81 0 0 0 .34-.08 1.78 1.78 0 0 0 .27-.17l.29.43a1.53 1.53 0 0 1 -.47.29 1.43 1.43 0 0 1 -.5.09 1.47 1.47 0 0 1 -.56-.1 1.3 1.3 0 0 1 -.75-.79 1.88 1.88 0 0 1 -.08-.61z"/><path d="m24.17 43.06a1.88 1.88 0 0 1 .11-.65 1.63 1.63 0 0 1 .3-.48 1.22 1.22 0 0 1 .44-.31 1.25 1.25 0 0 1 .5-.11 1.43 1.43 0 0 1 .53.1 1.1 1.1 0 0 1 .38.29 1.28 1.28 0 0 1 .23.45 2 2 0 0 1 .08.56 1.33 1.33 0 0 1 0 .32h-1.9a.92.92 0 0 0 .28.62.8.8 0 0 0 .59.22 1 1 0 0 0 .36-.06 1.59 1.59 0 0 0 .32-.16l.24.43a1.87 1.87 0 0 1 -.47.23 1.61 1.61 0 0 1 -.54.09 1.52 1.52 0 0 1 -.57-.1 1.21 1.21 0 0 1 -.46-.31 1.33 1.33 0 0 1 -.31-.48 1.67 1.67 0 0 1 -.11-.65zm2-.26a.93.93 0 0 0 -.15-.56.51.51 0 0 0 -.45-.19.62.62 0 0 0 -.46.19.89.89 0 0 0 -.25.56z"/><path d="m28.09 44.77v.92h-.69v-4.11h.6l.05.32a1.68 1.68 0 0 1 .42-.27 1 1 0 0 1 .47-.12 1.1 1.1 0 0 1 .49.11 1 1 0 0 1 .36.3 1.38 1.38 0 0 1 .23.47 2.39 2.39 0 0 1 .08.62 2.06 2.06 0 0 1 -.11.68 1.64 1.64 0 0 1 -.27.49 1.12 1.12 0 0 1 -.41.31 1 1 0 0 1 -.47.11 1.09 1.09 0 0 1 -.39-.08 1.94 1.94 0 0 1 -.37-.24zm0-1a1.18 1.18 0 0 0 .31.19 1 1 0 0 0 .28.05.62.62 0 0 0 .5-.25 1.25 1.25 0 0 0 .2-.76 1.3 1.3 0 0 0 -.16-.69.51.51 0 0 0 -.48-.25 1 1 0 0 0 -.65.33z"/><path d="m30.89 42.13h-.42v-.52h.45l.09-.8h.57v.8h.75v.55h-.75v1.4c0 .35.14.52.42.52h.16l.14-.08.12.51-.27.08a1.69 1.69 0 0 1 -.33 0 .94.94 0 0 1 -.43-.08.64.64 0 0 1 -.29-.22.85.85 0 0 1 -.16-.33 1.52 1.52 0 0 1 -.05-.44z"/></g></svg>