<svg viewBox="0 0 48 48" xmlns="http://www.w3.org/2000/svg"><path d="m36.45 47h-24.9a1.12 1.12 0 0 1 -1.11-1.12v-11a1.11 1.11 0 0 1 1.11-1.11h24.9a1.11 1.11 0 0 1 1.11 1.11v11a1.12 1.12 0 0 1 -1.11 1.12z" fill="#fff" stroke="#272525" stroke-width=".53"/><path d="m26.88 30.89h-19.16l16.16-28.18 16.17 28.18z" fill="#fff"/><path d="m39.53 32.62a2.39 2.39 0 0 0 2-3.57l-15.48-26.86a2.37 2.37 0 0 0 -4.1 0l-15.52 26.86a2.38 2.38 0 0 0 2.05 3.56h31.05" fill="#ed1c24"/><path d="m9.85 29.44h28.31l-14.16-24.49z" fill="#fff"/><path d="m23.9 23.89a2.1 2.1 0 1 1 -2.1 2.11 2.1 2.1 0 0 1 2.1-2.1" fill="#1f1d1e"/><path d="m23.6 22.84h.63l2.36-9.33a2.67 2.67 0 0 0 .06-.56 2.74 2.74 0 0 0 -5.47 0 3.53 3.53 0 0 0 .05.56z" fill="#1f1d1e"/><g fill="#1d1d1b"><path d="m14.14 39.39-.7-1.28h-.5v1.28h-.58v-3.27h1.1a2.44 2.44 0 0 1 .48.05 1.19 1.19 0 0 1 .38.17.79.79 0 0 1 .25.29 1.08 1.08 0 0 1 .09.46 1 1 0 0 1 -.17.61 1 1 0 0 1 -.49.3l.78 1.36zm-1.2-1.74h.46a.79.79 0 0 0 .52-.14.51.51 0 0 0 .17-.42.43.43 0 0 0 -.17-.39 1 1 0 0 0 -.52-.11h-.46z"/><path d="m15.09 38.17a1.33 1.33 0 0 1 .1-.54 1.13 1.13 0 0 1 .25-.41 1.23 1.23 0 0 1 .36-.22 1.06 1.06 0 0 1 .42-.09 1.15 1.15 0 0 1 .44.08.87.87 0 0 1 .32.24 1 1 0 0 1 .19.37 1.45 1.45 0 0 1 .07.47.91.91 0 0 1 0 .27h-1.59a.82.82 0 0 0 .24.52.67.67 0 0 0 .49.18 1 1 0 0 0 .3 0 1.11 1.11 0 0 0 .27-.13l.19.36a1.42 1.42 0 0 1 -.39.19 1.33 1.33 0 0 1 -.45.07 1.4 1.4 0 0 1 -.47-.08 1.16 1.16 0 0 1 -.39-.26 1.09 1.09 0 0 1 -.25-.4 1.33 1.33 0 0 1 -.1-.62zm1.65-.17a.76.76 0 0 0 -.12-.46.46.46 0 0 0 -.38-.17.57.57 0 0 0 -.39.16.73.73 0 0 0 -.2.47z"/><path d="m17.79 36.94h.47v.33a2.2 2.2 0 0 1 .34-.28.88.88 0 0 1 .85 0 .75.75 0 0 1 .24.33 2.17 2.17 0 0 1 .37-.32.76.76 0 0 1 .42-.12.68.68 0 0 1 .58.25 1.24 1.24 0 0 1 .18.72v1.54h-.58v-1.46a.76.76 0 0 0 -.09-.43.34.34 0 0 0 -.28-.13.79.79 0 0 0 -.52.31v1.71h-.57v-1.46a.76.76 0 0 0 -.09-.43.36.36 0 0 0 -.29-.13.79.79 0 0 0 -.52.31v1.71h-.57z"/><path d="m21.84 38.17a1.38 1.38 0 0 1 .1-.55 1.11 1.11 0 0 1 .26-.4 1.05 1.05 0 0 1 .37-.25 1.08 1.08 0 0 1 .44-.09 1.12 1.12 0 0 1 .44.09 1.05 1.05 0 0 1 .37.25 1.11 1.11 0 0 1 .26.4 1.38 1.38 0 0 1 .1.55 1.33 1.33 0 0 1 -.1.54 1.15 1.15 0 0 1 -.26.41 1.05 1.05 0 0 1 -.37.25 1.11 1.11 0 0 1 -.44.08 1.08 1.08 0 0 1 -.44-.08 1.05 1.05 0 0 1 -.37-.25 1.15 1.15 0 0 1 -.26-.41 1.33 1.33 0 0 1 -.1-.54zm.59 0a1 1 0 0 0 .15.59.5.5 0 0 0 .42.24.47.47 0 0 0 .42-.22 1 1 0 0 0 .16-.59 1 1 0 0 0 -.16-.6.47.47 0 0 0 -.42-.22.5.5 0 0 0 -.43.22 1.07 1.07 0 0 0 -.14.58z"/><path d="m24.41 36.94h.59l.39 1.27.1.37.1.37c0-.12.07-.25.11-.37l.1-.37.39-1.27h.56l-.84 2.45h-.66z"/><path d="m27 38.73a.69.69 0 0 1 .34-.61 2.88 2.88 0 0 1 1.1-.3 1.1 1.1 0 0 0 0-.18.36.36 0 0 0 -.08-.15.35.35 0 0 0 -.13-.11.65.65 0 0 0 -.21 0 1.1 1.1 0 0 0 -.36.07l-.33.17-.21-.38a2.47 2.47 0 0 1 .46-.23 1.57 1.57 0 0 1 .54-.09.85.85 0 0 1 .69.27 1.22 1.22 0 0 1 .23.79v1.45h-.47l-.05-.27a1.56 1.56 0 0 1 -.35.24 1 1 0 0 1 -.41.09.67.67 0 0 1 -.73-.72zm.56 0a.27.27 0 0 0 .1.24.37.37 0 0 0 .25.07.5.5 0 0 0 .27-.07.91.91 0 0 0 .26-.2v-.55a3.51 3.51 0 0 0 -.42.08 1.14 1.14 0 0 0 -.27.12.41.41 0 0 0 -.15.14.33.33 0 0 0 -.05.13z"/><path d="m29.71 35.86h.57v1.32a1.33 1.33 0 0 1 .34-.22 1 1 0 0 1 .37-.08.91.91 0 0 1 .41.09.81.81 0 0 1 .3.25 1 1 0 0 1 .19.39 1.61 1.61 0 0 1 .07.51 1.7 1.7 0 0 1 -.09.57 1.46 1.46 0 0 1 -.23.41.94.94 0 0 1 -.34.26.89.89 0 0 1 -.39.09.68.68 0 0 1 -.34-.08 1 1 0 0 1 -.33-.23l-.05.25h-.45zm.57 2.91a.83.83 0 0 0 .26.16.74.74 0 0 0 .24 0 .51.51 0 0 0 .41-.21 1.06 1.06 0 0 0 .16-.64 1.15 1.15 0 0 0 -.12-.57.45.45 0 0 0 -.41-.21.84.84 0 0 0 -.54.28z"/><path d="m32.53 35.86h.57v2.93a.27.27 0 0 0 0 .15.12.12 0 0 0 .09 0h.09l.07.43a.65.65 0 0 1 -.3.05.51.51 0 0 1 -.44-.18.92.92 0 0 1 -.12-.51z"/><path d="m33.72 38.17a1.33 1.33 0 0 1 .1-.54 1.13 1.13 0 0 1 .25-.41 1.23 1.23 0 0 1 .36-.25 1.06 1.06 0 0 1 .42-.09 1.15 1.15 0 0 1 .44.08 1 1 0 0 1 .32.24 1 1 0 0 1 .19.37 1.45 1.45 0 0 1 .07.47.91.91 0 0 1 0 .27h-1.59a.82.82 0 0 0 .24.52.67.67 0 0 0 .48.17 1 1 0 0 0 .3 0 1.11 1.11 0 0 0 .27-.13l.19.36a1.42 1.42 0 0 1 -.39.19 1.33 1.33 0 0 1 -.45.07 1.4 1.4 0 0 1 -.47-.08 1.16 1.16 0 0 1 -.39-.26 1.26 1.26 0 0 1 -.26-.4 1.53 1.53 0 0 1 -.08-.58zm1.65-.17a.76.76 0 0 0 -.12-.46.46.46 0 0 0 -.38-.17.57.57 0 0 0 -.39.16.73.73 0 0 0 -.2.47z"/><path d="m17 40.86h.57v1.32a1.46 1.46 0 0 1 .33-.22 1 1 0 0 1 .38-.08.91.91 0 0 1 .41.09.81.81 0 0 1 .3.25 1.18 1.18 0 0 1 .19.39 2 2 0 0 1 .07.51 1.7 1.7 0 0 1 -.09.57 1.46 1.46 0 0 1 -.23.41.94.94 0 0 1 -.34.26.92.92 0 0 1 -.39.09.74.74 0 0 1 -.35-.08 1.12 1.12 0 0 1 -.32-.23l-.05.25h-.48zm.57 2.91a.73.73 0 0 0 .26.16.69.69 0 0 0 .17.07.51.51 0 0 0 .41-.21 1.06 1.06 0 0 0 .16-.64 1.15 1.15 0 0 0 -.12-.57.45.45 0 0 0 -.41-.21.84.84 0 0 0 -.54.28z"/><path d="m19.61 43.73a.7.7 0 0 1 .35-.61 2.83 2.83 0 0 1 1.1-.3.57.57 0 0 0 0-.18.36.36 0 0 0 -.08-.15.35.35 0 0 0 -.13-.11.65.65 0 0 0 -.21 0 1.15 1.15 0 0 0 -.36.07l-.33.17-.21-.38a2.82 2.82 0 0 1 .46-.23 1.63 1.63 0 0 1 .55-.09.85.85 0 0 1 .69.27 1.22 1.22 0 0 1 .22.79v1.45h-.47v-.27a1.56 1.56 0 0 1 -.35.24 1 1 0 0 1 -.41.09.67.67 0 0 1 -.73-.72zm.56 0a.27.27 0 0 0 .1.24.39.39 0 0 0 .25.07.55.55 0 0 0 .28-.07 1.07 1.07 0 0 0 .26-.2v-.55a2.87 2.87 0 0 0 -.42.08 1.06 1.06 0 0 0 -.28.12.37.37 0 0 0 -.14.14.34.34 0 0 0 -.05.13z"/><path d="m22.33 41.94h.48v.43a.92.92 0 0 1 .31-.36.62.62 0 0 1 .38-.13.7.7 0 0 1 .28 0l-.1.5h-.12-.13a.58.58 0 0 0 -.31.11.84.84 0 0 0 -.27.39v1.5h-.58z"/><path d="m24.2 41.94h.47v.43a1 1 0 0 1 .33-.37.65.65 0 0 1 .39-.13.74.74 0 0 1 .28 0l-.11.5h-.12-.13a.58.58 0 0 0 -.31.11 1 1 0 0 0 -.27.39v1.5h-.53z"/><path d="m26.35 41.51a.35.35 0 0 1 -.25-.09.3.3 0 0 1 -.1-.24.29.29 0 0 1 .1-.23.32.32 0 0 1 .25-.1.35.35 0 0 1 .26.1.33.33 0 0 1 .1.23.33.33 0 0 1 -.1.24.39.39 0 0 1 -.26.09zm-.29.43h.58v2.45h-.58z"/><path d="m27.21 43.17a1.33 1.33 0 0 1 .1-.54 1.13 1.13 0 0 1 .25-.41 1 1 0 0 1 .36-.25 1.06 1.06 0 0 1 .42-.09 1.19 1.19 0 0 1 .44.08 1 1 0 0 1 .32.24 1.18 1.18 0 0 1 .19.37 1.78 1.78 0 0 1 .07.47.91.91 0 0 1 0 .27h-1.59a.81.81 0 0 0 .23.52.71.71 0 0 0 .5.18.93.93 0 0 0 .29 0 1.17 1.17 0 0 0 .28-.13l.19.36a1.76 1.76 0 0 1 -.39.19 1.33 1.33 0 0 1 -.45.07 1.4 1.4 0 0 1 -.47-.08 1.16 1.16 0 0 1 -.39-.26 1.11 1.11 0 0 1 -.26-.4 1.53 1.53 0 0 1 -.09-.59zm1.65-.17a.76.76 0 0 0 -.13-.46.43.43 0 0 0 -.37-.17.57.57 0 0 0 -.39.16.73.73 0 0 0 -.2.47z"/><path d="m29.91 41.94h.47v.43a1 1 0 0 1 .31-.36.65.65 0 0 1 .39-.13.74.74 0 0 1 .28 0l-.11.5h-.12-.13a.58.58 0 0 0 -.31.11 1 1 0 0 0 -.27.39v1.5h-.57z"/></g></svg>