<svg viewBox="0 0 48 48" xmlns="http://www.w3.org/2000/svg"><path d="m24 1.8a22.2 22.2 0 1 1 -22.2 22.2 22.21 22.21 0 0 1 22.2-22.2v-.3a22.5 22.5 0 1 0 22.5 22.5 22.52 22.52 0 0 0 -22.5-22.5z" fill="#4679bb"/><path d="m24 2.47a21.46 21.46 0 1 1 -21.45 21.46 21.45 21.45 0 0 1 21.45-21.46" fill="#4679bb"/><g fill="#fff"><path d="m12.89 22.86h-1.06v-1.29l1.17-.07.21-2h1.43v2h1.86v1.36h-1.88v3.51c0 .86.35 1.29 1 1.29a1.87 1.87 0 0 0 .4 0 2.29 2.29 0 0 0 .37-.12l.3 1.27a5.24 5.24 0 0 1 -.69.19 3.48 3.48 0 0 1 -.81.08 2.66 2.66 0 0 1 -1.09-.19 1.74 1.74 0 0 1 -.72-.55 2.2 2.2 0 0 1 -.41-.84 4.55 4.55 0 0 1 -.12-1.09z"/><path d="m17.5 26.88a2 2 0 0 1 1-1.83 8.24 8.24 0 0 1 3.3-.9 2.35 2.35 0 0 0 -.07-.54 1.49 1.49 0 0 0 -.24-.47 1 1 0 0 0 -.4-.31 1.48 1.48 0 0 0 -.63-.12 2.87 2.87 0 0 0 -1.07.21 6.18 6.18 0 0 0 -1 .51l-.63-1.15a7 7 0 0 1 1.37-.68 4.82 4.82 0 0 1 1.64-.28 2.52 2.52 0 0 1 2.07.82 3.61 3.61 0 0 1 .67 2.36v4.36h-1.4l-.11-.81a5.61 5.61 0 0 1 -1.06.71 2.67 2.67 0 0 1 -1.24.24 2.16 2.16 0 0 1 -1.59-.59 2.11 2.11 0 0 1 -.61-1.53zm1.69-.13a.84.84 0 0 0 .29.72 1.17 1.17 0 0 0 .75.22 1.65 1.65 0 0 0 .83-.21 3.89 3.89 0 0 0 .78-.6v-1.65a9.17 9.17 0 0 0 -1.26.24 3.83 3.83 0 0 0 -.82.34 1.3 1.3 0 0 0 -.44.43 1 1 0 0 0 -.13.51z"/><path d="m27.12 25-2.19-3.5h1.86l.82 1.39c.11.2.23.41.34.63l.34.62h.06c.09-.2.18-.41.28-.62l.29-.63.7-1.39h1.79l-2.18 3.72 2.34 3.64h-1.86l-.9-1.45-.36-.66-.39-.65h-.06c-.11.21-.21.43-.32.64s-.21.44-.32.67l-.78 1.45h-1.8z"/><path d="m33.75 20.21a1.11 1.11 0 0 1 -.77-.27.91.91 0 0 1 -.3-.71.93.93 0 0 1 .3-.71 1.12 1.12 0 0 1 .77-.28 1.09 1.09 0 0 1 .76.28.93.93 0 0 1 .3.71.91.91 0 0 1 -.3.71 1.09 1.09 0 0 1 -.76.27zm-.87 1.29h1.72v7.36h-1.72z"/></g></svg>