<svg viewBox="0 0 48 48" xmlns="http://www.w3.org/2000/svg"><path d="m46.4 27.68a1.84 1.84 0 0 1 -1.83 1.83h-41.13a1.84 1.84 0 0 1 -1.84-1.83v-7.35a1.85 1.85 0 0 1 1.84-1.84h41.13a1.85 1.85 0 0 1 1.83 1.84z" fill="#fff"/><path d="m46.5 27.68v-7.35a1.93 1.93 0 0 0 -1.93-1.94h-41.13a1.94 1.94 0 0 0 -1.94 1.94v7.35a1.93 1.93 0 0 0 1.94 1.93h41.13a1.92 1.92 0 0 0 1.93-1.93z" fill="#4679bb"/><path d="m46.3 27.68a1.73 1.73 0 0 1 -1.73 1.73h-41.13a1.74 1.74 0 0 1 -1.74-1.73v-7.35a1.74 1.74 0 0 1 1.74-1.74h41.13a1.73 1.73 0 0 1 1.73 1.74z" fill="#fff"/><path d="m45.48 27.66a.93.93 0 0 1 -.93.93h-41.07a.94.94 0 0 1 -.94-.93v-7.32a.94.94 0 0 1 .94-.92h41.07a.93.93 0 0 1 .93.92z" fill="#4679bb"/><path d="m34 25.69a.67.67 0 0 0 -.06.12.9.9 0 0 1 -1.15.09.5.5 0 0 1 -.19-.35.6.6 0 0 1 .23-.42.56.56 0 0 0 .17-.07h.23.05.12.12.48v.66.05z" fill="#4679bb"/><g fill="#fff"><path d="m10.46 22.17h-1.46v-.79h4v.79h-1.61v4.44h-.93z"/><path d="m13 24.65a2.41 2.41 0 0 1 .15-.87 2.06 2.06 0 0 1 .41-.65 1.75 1.75 0 0 1 .6-.4 1.82 1.82 0 0 1 .7-.14 2 2 0 0 1 .71.14 1.81 1.81 0 0 1 .59.4 2.27 2.27 0 0 1 .42.65 2.63 2.63 0 0 1 0 1.75 2.09 2.09 0 0 1 -.42.64 1.67 1.67 0 0 1 -.59.4 1.76 1.76 0 0 1 -.71.14 1.65 1.65 0 0 1 -.7-.14 1.62 1.62 0 0 1 -.6-.4 1.9 1.9 0 0 1 -.41-.64 2.42 2.42 0 0 1 -.15-.88zm.94 0a1.65 1.65 0 0 0 .24 1 .82.82 0 0 0 1.36 0 1.65 1.65 0 0 0 .25-1 1.67 1.67 0 0 0 -.25-.95.82.82 0 0 0 -1.36 0 1.67 1.67 0 0 0 -.29.95z"/><path d="m17.67 21h.92v4.68a.36.36 0 0 0 .07.24.17.17 0 0 0 .13.07h.06.09l.12.69a1.32 1.32 0 0 1 -.49.08.79.79 0 0 1 -.7-.3 1.41 1.41 0 0 1 -.2-.8z"/><path d="m19.92 21h.92v4.68a.31.31 0 0 0 .07.24.16.16 0 0 0 .09.08h.06.09l.12.69a1.36 1.36 0 0 1 -.49.08.79.79 0 0 1 -.7-.3 1.41 1.41 0 0 1 -.2-.8z"/><path d="m23.89 22.69h.76l.06.69a1.62 1.62 0 0 1 .5-.59 1.11 1.11 0 0 1 .61-.2 1.17 1.17 0 0 1 .45.08l-.16.8h-.2-.21a.85.85 0 0 0 -.49.18 1.39 1.39 0 0 0 -.44.62v2.4h-.92z"/><path d="m26.62 24.65a2.41 2.41 0 0 1 .15-.87 2.06 2.06 0 0 1 .41-.65 1.75 1.75 0 0 1 .6-.4 1.86 1.86 0 0 1 .7-.14 1.91 1.91 0 0 1 .71.14 1.86 1.86 0 0 1 .6.4 2.25 2.25 0 0 1 .41.65 2.63 2.63 0 0 1 0 1.75 2.07 2.07 0 0 1 -.41.64 1.71 1.71 0 0 1 -.6.4 1.73 1.73 0 0 1 -.71.14 1.68 1.68 0 0 1 -.7-.14 1.62 1.62 0 0 1 -.6-.4 1.9 1.9 0 0 1 -.41-.64 2.42 2.42 0 0 1 -.15-.88zm.94 0a1.58 1.58 0 0 0 .25 1 .76.76 0 0 0 .67.36.77.77 0 0 0 .68-.36 1.58 1.58 0 0 0 .25-1 1.6 1.6 0 0 0 -.25-.95.77.77 0 0 0 -.68-.36.76.76 0 0 0 -.67.36 1.6 1.6 0 0 0 -.25.95z"/><path d="m31.08 25.56a1.11 1.11 0 0 1 .55-1 4.41 4.41 0 0 1 1.76-.48.92.92 0 0 0 0-.29.58.58 0 0 0 -.12-.25.62.62 0 0 0 -.22-.17.78.78 0 0 0 -.33-.06 1.39 1.39 0 0 0 -.57.12 2.94 2.94 0 0 0 -.53.27l-.34-.62a3.82 3.82 0 0 1 .73-.36 2.5 2.5 0 0 1 .88-.15 1.34 1.34 0 0 1 1.11.43 1.93 1.93 0 0 1 .36 1.26v2.32h-.75l-.07-.43a3 3 0 0 1 -.57.38 1.44 1.44 0 0 1 -.65.15 1.14 1.14 0 0 1 -.84-.32 1.1 1.1 0 0 1 -.4-.8zm.9-.07a.46.46 0 0 0 .15.38.66.66 0 0 0 .41.12 1 1 0 0 0 .44-.11 2.19 2.19 0 0 0 .41-.32v-.88a3.46 3.46 0 0 0 -.67.13 1.59 1.59 0 0 0 -.43.18.65.65 0 0 0 -.24.22.55.55 0 0 0 -.05.28z"/><path d="m35.27 24.65a2.58 2.58 0 0 1 .14-.86 2.06 2.06 0 0 1 .38-.65 1.76 1.76 0 0 1 .53-.41 1.48 1.48 0 0 1 .62-.14 1.26 1.26 0 0 1 .57.12 2.32 2.32 0 0 1 .49.29v-.63-1.37h.92v5.64h-.82l-.1-.45a2.09 2.09 0 0 1 -.5.37 1.31 1.31 0 0 1 -.61.15 1.43 1.43 0 0 1 -1.18-.54 2.37 2.37 0 0 1 -.44-1.52zm1 0a1.74 1.74 0 0 0 .22 1 .76.76 0 0 0 .66.33 1.12 1.12 0 0 0 .83-.44v-1.86a1.46 1.46 0 0 0 -.41-.26 1.07 1.07 0 0 0 -.39-.07.79.79 0 0 0 -.65.34 1.48 1.48 0 0 0 -.3.96z"/></g></svg>