<svg viewBox="0 0 48 48" xmlns="http://www.w3.org/2000/svg"><path d="m46.5 31a2.67 2.67 0 0 1 -2.67 2.67h-39.66a2.67 2.67 0 0 1 -2.67-2.67v-14a2.67 2.67 0 0 1 2.67-2.7h39.66a2.67 2.67 0 0 1 2.67 2.7z" fill="#fff" stroke="#0079c1"/><path d="m45.24 31a1.41 1.41 0 0 1 -1.41 1.41h-39.66a1.41 1.41 0 0 1 -1.41-1.41v-14a1.41 1.41 0 0 1 1.41-1.41h39.66a1.41 1.41 0 0 1 1.41 1.41z" fill="#0079c1"/><g fill="#fff"><path d="m7.19 17.78h.87v2.82a2.6 2.6 0 0 0 .07.67 1.2 1.2 0 0 0 .2.44.68.68 0 0 0 .31.23 1.07 1.07 0 0 0 .41.07 1.1 1.1 0 0 0 .41-.07.71.71 0 0 0 .32-.23 1.2 1.2 0 0 0 .21-.44 2.56 2.56 0 0 0 .08-.67v-2.82h.83v2.75a3.4 3.4 0 0 1 -.13 1 1.69 1.69 0 0 1 -.37.69 1.35 1.35 0 0 1 -.58.4 2.35 2.35 0 0 1 -.77.12 2.3 2.3 0 0 1 -.77-.12 1.38 1.38 0 0 1 -.59-.4 1.81 1.81 0 0 1 -.37-.69 3.4 3.4 0 0 1 -.13-1z"/><path d="m12.05 19h.71l.06.5a2.45 2.45 0 0 1 .54-.42 1.31 1.31 0 0 1 .67-.17 1 1 0 0 1 .86.38 1.83 1.83 0 0 1 .27 1.08v2.31h-.86v-2.19a1.14 1.14 0 0 0 -.14-.65.5.5 0 0 0 -.44-.19.74.74 0 0 0 -.42.12 2.32 2.32 0 0 0 -.42.34v2.57h-.86z"/><path d="m16.28 21.71a2.21 2.21 0 0 0 .5.3 1.27 1.27 0 0 0 .52.11.71.71 0 0 0 .45-.12.43.43 0 0 0 .14-.32.29.29 0 0 0 -.07-.2.45.45 0 0 0 -.18-.15 1.46 1.46 0 0 0 -.25-.13l-.29-.12-.37-.15a1.9 1.9 0 0 1 -.33-.22 1 1 0 0 1 -.24-.3.82.82 0 0 1 -.09-.4 1 1 0 0 1 .36-.79 1.42 1.42 0 0 1 1-.31 1.93 1.93 0 0 1 .69.13 3 3 0 0 1 .53.31l-.4.53a2 2 0 0 0 -.39-.23 1 1 0 0 0 -.42-.09.56.56 0 0 0 -.4.12.37.37 0 0 0 -.14.29.32.32 0 0 0 .07.19.61.61 0 0 0 .17.14 1.33 1.33 0 0 0 .24.11l.29.1.37.16a2 2 0 0 1 .35.21 1 1 0 0 1 .24.31.89.89 0 0 1 .1.44 1 1 0 0 1 -.1.45 1 1 0 0 1 -.27.36 1.37 1.37 0 0 1 -.45.24 2 2 0 0 1 -.62.09 2.21 2.21 0 0 1 -.75-.14 2.34 2.34 0 0 1 -.64-.37z"/><path d="m19.44 19h.86v2.2a1.12 1.12 0 0 0 .14.64.48.48 0 0 0 .43.19.77.77 0 0 0 .43-.12 1.78 1.78 0 0 0 .39-.39v-2.52h.86v3.68h-.7l-.07-.54a2 2 0 0 1 -.52.46 1.31 1.31 0 0 1 -.67.17 1 1 0 0 1 -.86-.38 1.83 1.83 0 0 1 -.27-1.08z"/><path d="m24.08 18.36a.56.56 0 0 1 -.38-.14.45.45 0 0 1 -.15-.35.46.46 0 0 1 .15-.36.56.56 0 0 1 .38-.14.56.56 0 0 1 .39.14.46.46 0 0 1 .15.36.45.45 0 0 1 -.15.35.56.56 0 0 1 -.39.14zm-.43.64h.86v3.68h-.86z"/><path d="m25.74 19.68h-.52v-.68h.57l.1-1h.72v1h.94v.68h-.94v1.76c0 .43.17.64.52.64a.71.71 0 0 0 .2 0 .76.76 0 0 0 .18-.06l.15.64-.34.09a1.78 1.78 0 0 1 -.41 0 1.27 1.27 0 0 1 -.54-.1.82.82 0 0 1 -.37-.25 1.17 1.17 0 0 1 -.2-.42 1.81 1.81 0 0 1 -.07-.54z"/><path d="m28.05 21.69a1 1 0 0 1 .52-.91 3.92 3.92 0 0 1 1.65-.45.86.86 0 0 0 0-.28.7.7 0 0 0 -.11-.23.56.56 0 0 0 -.21-.16.87.87 0 0 0 -.31-.05 1.39 1.39 0 0 0 -.53.1 3 3 0 0 0 -.5.26l-.32-.58a4.43 4.43 0 0 1 .69-.34 2.39 2.39 0 0 1 .82-.14 1.26 1.26 0 0 1 1 .41 1.79 1.79 0 0 1 .34 1.18v2.18h-.7l-.07-.4a2.56 2.56 0 0 1 -.53.35 1.4 1.4 0 0 1 -.61.14 1.1 1.1 0 0 1 -.79-.29 1 1 0 0 1 -.34-.79zm.84-.07a.44.44 0 0 0 .11.38.63.63 0 0 0 .38.11.84.84 0 0 0 .41-.11 2.27 2.27 0 0 0 .39-.3v-.82a3.94 3.94 0 0 0 -.63.12 1.45 1.45 0 0 0 -.41.17.56.56 0 0 0 -.22.21.47.47 0 0 0 -.03.24z"/><path d="m32.13 17.39h.87v1.36.62a2 2 0 0 1 .51-.33 1.24 1.24 0 0 1 .56-.13 1.33 1.33 0 0 1 .61.13 1.29 1.29 0 0 1 .46.38 1.74 1.74 0 0 1 .28.58 2.73 2.73 0 0 1 .1.78 2.47 2.47 0 0 1 -.13.84 1.91 1.91 0 0 1 -.35.63 1.45 1.45 0 0 1 -.5.39 1.37 1.37 0 0 1 -.59.13 1.27 1.27 0 0 1 -.52-.12 1.88 1.88 0 0 1 -.49-.34l-.08.37h-.68zm.87 4.36a1 1 0 0 0 .39.24 1 1 0 0 0 .36.07.75.75 0 0 0 .61-.32 1.5 1.5 0 0 0 .25-.95 1.59 1.59 0 0 0 -.19-.86.67.67 0 0 0 -.61-.31 1.19 1.19 0 0 0 -.81.38z"/><path d="m36.36 17.39h.86v4.39a.3.3 0 0 0 .06.22.17.17 0 0 0 .13.07h.06.08l.11.65a1.2 1.2 0 0 1 -.46.07.73.73 0 0 1 -.65-.27 1.32 1.32 0 0 1 -.19-.76z"/><path d="m38.15 20.84a2 2 0 0 1 .15-.8 1.63 1.63 0 0 1 .38-.61 1.5 1.5 0 0 1 .54-.39 1.69 1.69 0 0 1 .63-.13 1.53 1.53 0 0 1 .66.13 1.22 1.22 0 0 1 .48.36 1.59 1.59 0 0 1 .28.55 2.3 2.3 0 0 1 .1.71 1.45 1.45 0 0 1 0 .4h-2.37a1.18 1.18 0 0 0 .35.77 1.06 1.06 0 0 0 .74.28 1.33 1.33 0 0 0 .45-.08 1.55 1.55 0 0 0 .41-.2l.29.55a3.22 3.22 0 0 1 -.59.28 1.89 1.89 0 0 1 -.67.11 1.83 1.83 0 0 1 -.71-.13 1.62 1.62 0 0 1 -.58-.38 1.69 1.69 0 0 1 -.39-.6 2.31 2.31 0 0 1 -.15-.82zm2.47-.33a1.12 1.12 0 0 0 -.18-.68.65.65 0 0 0 -.57-.25.85.85 0 0 0 -.58.23 1.19 1.19 0 0 0 -.3.7z"/><path d="m6.8 25.57a1 1 0 0 0 -.41-.09c-.31 0-.46.21-.46.62v.4h.72v.68h-.72v3h-.87v-3h-.49v-.64h.49v-.38a2.19 2.19 0 0 1 .07-.53 1.2 1.2 0 0 1 .22-.42.94.94 0 0 1 .38-.27 1.34 1.34 0 0 1 .56-.1 2.22 2.22 0 0 1 .37 0l.3.09z"/><path d="m7 28.34a2.09 2.09 0 0 1 .14-.81 1.76 1.76 0 0 1 .94-1 1.65 1.65 0 0 1 .66-.13 1.7 1.7 0 0 1 .67.13 1.64 1.64 0 0 1 .56.38 1.71 1.71 0 0 1 .38.61 2.29 2.29 0 0 1 0 1.63 1.71 1.71 0 0 1 -.38.61 1.64 1.64 0 0 1 -.56.38 1.89 1.89 0 0 1 -.67.12 1.84 1.84 0 0 1 -.66-.12 1.76 1.76 0 0 1 -.94-1 2.11 2.11 0 0 1 -.14-.8zm.88 0a1.56 1.56 0 0 0 .23.89.71.71 0 0 0 .63.34.72.72 0 0 0 .64-.34 1.84 1.84 0 0 0 0-1.78.74.74 0 0 0 -.64-.33.72.72 0 0 0 -.63.33 1.56 1.56 0 0 0 -.25.89z"/><path d="m11.33 26.5h.72l.06.65a1.51 1.51 0 0 1 .47-.55 1 1 0 0 1 .57-.19 1 1 0 0 1 .42.08l-.15.75a.83.83 0 0 0 -.18 0h-.2a.82.82 0 0 0 -.46.17 1.31 1.31 0 0 0 -.41.59v2.25h-.87z"/><path d="m15.43 28.34a2.09 2.09 0 0 1 .15-.81 1.72 1.72 0 0 1 1-1 1.89 1.89 0 0 1 .7-.13 1.54 1.54 0 0 1 .63.12 1.7 1.7 0 0 1 .45.31l-.41.54a1.25 1.25 0 0 0 -.3-.19.71.71 0 0 0 -.32-.07.92.92 0 0 0 -.73.33 1.55 1.55 0 0 0 0 1.78.86.86 0 0 0 .71.34.8.8 0 0 0 .41-.1 1.33 1.33 0 0 0 .34-.22l.36.55a1.69 1.69 0 0 1 -.57.35 1.76 1.76 0 0 1 -.63.12 2 2 0 0 1 -.7-.12 1.59 1.59 0 0 1 -.57-.38 1.71 1.71 0 0 1 -.38-.61 2.31 2.31 0 0 1 -.14-.81z"/><path d="m18.9 29.19a1 1 0 0 1 .52-.91 3.92 3.92 0 0 1 1.65-.45.86.86 0 0 0 0-.28.7.7 0 0 0 -.11-.23.56.56 0 0 0 -.21-.16.87.87 0 0 0 -.31-.05 1.39 1.39 0 0 0 -.53.1 3 3 0 0 0 -.5.26l-.32-.58a4.43 4.43 0 0 1 .69-.34 2.39 2.39 0 0 1 .82-.14 1.26 1.26 0 0 1 1 .41 1.79 1.79 0 0 1 .33 1.18v2.18h-.7l-.07-.4a2.56 2.56 0 0 1 -.53.35 1.4 1.4 0 0 1 -.61.14 1.1 1.1 0 0 1 -.79-.29 1 1 0 0 1 -.33-.79zm.84-.07a.44.44 0 0 0 .15.37.63.63 0 0 0 .38.11.84.84 0 0 0 .41-.11 2.27 2.27 0 0 0 .39-.3v-.82a3.94 3.94 0 0 0 -.63.12 1.45 1.45 0 0 0 -.41.17.56.56 0 0 0 -.22.21.47.47 0 0 0 -.07.25z"/><path d="m23 26.5h.71l.06.65a1.53 1.53 0 0 1 .48-.55 1 1 0 0 1 .57-.19 1 1 0 0 1 .42.08l-.15.75a.83.83 0 0 0 -.18 0h-.21a.82.82 0 0 0 -.45.17 1.4 1.4 0 0 0 -.42.59v2.25h-.83z"/><path d="m25.42 29.19a1 1 0 0 1 .52-.91 3.92 3.92 0 0 1 1.65-.45 1.26 1.26 0 0 0 0-.28.72.72 0 0 0 -.12-.23.53.53 0 0 0 -.2-.16.91.91 0 0 0 -.31-.05 1.44 1.44 0 0 0 -.54.1 3.4 3.4 0 0 0 -.5.26l-.31-.58a3.7 3.7 0 0 1 .69-.34 2.39 2.39 0 0 1 .82-.14 1.26 1.26 0 0 1 1 .41 1.79 1.79 0 0 1 .33 1.18v2.18h-.71l-.06-.4a2.5 2.5 0 0 1 -.52.35 1.44 1.44 0 0 1 -.62.14 1.13 1.13 0 0 1 -.79-.29 1.06 1.06 0 0 1 -.33-.79zm.84-.07a.44.44 0 0 0 .15.37.6.6 0 0 0 .37.11.88.88 0 0 0 .42-.11 2.27 2.27 0 0 0 .39-.3v-.82a3.94 3.94 0 0 0 -.63.12 1.45 1.45 0 0 0 -.41.17.56.56 0 0 0 -.22.21.47.47 0 0 0 -.07.25z"/><path d="m29 26.5h.88l.58 1.91.16.55.15.56c.06-.19.11-.37.16-.56s.1-.37.16-.55l.58-1.91h.83l-1.25 3.68h-1z"/><path d="m32.9 29.19a1 1 0 0 1 .52-.91 4 4 0 0 1 1.65-.45.86.86 0 0 0 0-.28.7.7 0 0 0 -.11-.23.53.53 0 0 0 -.2-.16 1 1 0 0 0 -.32-.05 1.39 1.39 0 0 0 -.53.1 3.4 3.4 0 0 0 -.5.26l-.32-.58a4.43 4.43 0 0 1 .69-.34 2.43 2.43 0 0 1 .82-.14 1.28 1.28 0 0 1 1 .41 1.84 1.84 0 0 1 .33 1.18v2.18h-.7l-.07-.4a2.56 2.56 0 0 1 -.53.35 1.4 1.4 0 0 1 -.61.14 1.1 1.1 0 0 1 -.79-.29 1.07 1.07 0 0 1 -.33-.79zm.84-.07a.44.44 0 0 0 .15.37.63.63 0 0 0 .38.11.81.81 0 0 0 .41-.11 1.7 1.7 0 0 0 .39-.3v-.82a3.94 3.94 0 0 0 -.63.12 1.58 1.58 0 0 0 -.41.17.64.64 0 0 0 -.22.21.59.59 0 0 0 -.07.25z"/><path d="m37 26.5h.72l.06.5a2.65 2.65 0 0 1 .53-.42 1.36 1.36 0 0 1 .67-.17 1 1 0 0 1 .87.38 1.83 1.83 0 0 1 .27 1.08v2.31h-.87v-2.18a1.15 1.15 0 0 0 -.13-.65.5.5 0 0 0 -.44-.19.8.8 0 0 0 -.43.12 2.7 2.7 0 0 0 -.41.34v2.57h-.84z"/><path d="m41.22 29.21a2.4 2.4 0 0 0 .49.3 1.36 1.36 0 0 0 .53.11.66.66 0 0 0 .44-.12.41.41 0 0 0 .15-.32.35.35 0 0 0 -.07-.2.65.65 0 0 0 -.18-.15 1.58 1.58 0 0 0 -.26-.13l-.32-.12-.37-.15a1.9 1.9 0 0 1 -.33-.22 1 1 0 0 1 -.24-.3.82.82 0 0 1 -.1-.4 1 1 0 0 1 .36-.79 1.45 1.45 0 0 1 1-.31 1.93 1.93 0 0 1 .69.13 3 3 0 0 1 .53.31l-.4.53a2 2 0 0 0 -.39-.23 1 1 0 0 0 -.42-.09.61.61 0 0 0 -.41.12.39.39 0 0 0 -.13.29.26.26 0 0 0 .07.19.56.56 0 0 0 .16.14l.25.11.29.1.37.16a1.63 1.63 0 0 1 .34.21.93.93 0 0 1 .25.31 1 1 0 0 1 .09.44 1.13 1.13 0 0 1 -.09.45 1 1 0 0 1 -.27.36 1.37 1.37 0 0 1 -.45.24 2 2 0 0 1 -.62.09 2.21 2.21 0 0 1 -.75-.14 2.34 2.34 0 0 1 -.64-.37z"/></g></svg>