<svg viewBox="0 0 48 48" xmlns="http://www.w3.org/2000/svg"><path d="m46.5 35.39a2.94 2.94 0 0 1 -2.94 2.94h-39.12a2.94 2.94 0 0 1 -2.94-2.94v-22.78a2.94 2.94 0 0 1 2.94-2.94h39.12a2.94 2.94 0 0 1 2.94 2.94z" fill="#fff" stroke="#0079c1"/><path d="m45.11 35.39a1.56 1.56 0 0 1 -1.55 1.55h-39.12a1.56 1.56 0 0 1 -1.55-1.55v-22.78a1.56 1.56 0 0 1 1.55-1.55h39.12a1.56 1.56 0 0 1 1.55 1.55z" fill="#0079c1"/><g fill="#fff"><path d="m6.79 14.13h.87v2.87a3.13 3.13 0 0 0 .07.67 1.2 1.2 0 0 0 .21.44.64.64 0 0 0 .31.23 1 1 0 0 0 .4.07 1.07 1.07 0 0 0 .41-.07.69.69 0 0 0 .33-.23 1.2 1.2 0 0 0 .21-.44 2.6 2.6 0 0 0 .07-.67v-2.87h.83v2.75a3.83 3.83 0 0 1 -.12 1 1.89 1.89 0 0 1 -.37.69 1.48 1.48 0 0 1 -.59.4 2.3 2.3 0 0 1 -.77.12 2.35 2.35 0 0 1 -.77-.09 1.44 1.44 0 0 1 -.58-.4 1.9 1.9 0 0 1 -.38-.69 3.8 3.8 0 0 1 -.13-1z"/><path d="m11.65 15.35h.71l.06.49a3.49 3.49 0 0 1 .54-.41 1.33 1.33 0 0 1 .67-.17 1 1 0 0 1 .86.38 1.83 1.83 0 0 1 .27 1.08v2.28h-.86v-2.2a1.13 1.13 0 0 0 -.13-.64.51.51 0 0 0 -.45-.19.74.74 0 0 0 -.42.12 3.3 3.3 0 0 0 -.42.34v2.57h-.86z"/><path d="m15.89 18.06a2.16 2.16 0 0 0 .49.3 1.32 1.32 0 0 0 .53.11.66.66 0 0 0 .44-.12.4.4 0 0 0 .14-.32.34.34 0 0 0 -.06-.2.93.93 0 0 0 -.18-.16l-.25-.12-.28-.12a2.87 2.87 0 0 1 -.37-.15 1.36 1.36 0 0 1 -.33-.22 1 1 0 0 1 -.24-.3.72.72 0 0 1 -.1-.4 1 1 0 0 1 .36-.79 1.44 1.44 0 0 1 1-.31 1.67 1.67 0 0 1 .69.13 2.74 2.74 0 0 1 .54.31l-.4.53a2 2 0 0 0 -.39-.23 1.06 1.06 0 0 0 -.42-.09.59.59 0 0 0 -.41.12.36.36 0 0 0 -.13.29.31.31 0 0 0 .06.19.79.79 0 0 0 .17.14l.25.11.28.1.38.16a1.94 1.94 0 0 1 .34.21 1.07 1.07 0 0 1 .25.31 1 1 0 0 1 .09.44 1.13 1.13 0 0 1 -.09.45 1 1 0 0 1 -.28.36 1.37 1.37 0 0 1 -.45.24 1.91 1.91 0 0 1 -.61.09 2.12 2.12 0 0 1 -.75-.14 2.4 2.4 0 0 1 -.65-.37z"/><path d="m19.05 15.35h.86v2.2a1.13 1.13 0 0 0 .13.64.5.5 0 0 0 .44.19.74.74 0 0 0 .42-.12 1.61 1.61 0 0 0 .4-.39v-2.52h.86v3.65h-.71l-.06-.54a2.23 2.23 0 0 1 -.52.46 1.27 1.27 0 0 1 -.66.17 1 1 0 0 1 -.86-.38 1.83 1.83 0 0 1 -.27-1.08z"/><path d="m23.69 14.7a.53.53 0 0 1 -.38-.13.45.45 0 0 1 -.15-.35.46.46 0 0 1 .15-.36.54.54 0 0 1 .38-.14.56.56 0 0 1 .38.14.46.46 0 0 1 .15.36.45.45 0 0 1 -.15.35.55.55 0 0 1 -.38.13zm-.44.65h.87v3.65h-.87z"/><path d="m25.35 16h-.53v-.64h.57l.11-1h.72v1h.93v.64h-.93v1.76c0 .43.17.64.51.64h.2a1.06 1.06 0 0 0 .19-.06l.15.64-.34.09a1.84 1.84 0 0 1 -.41 0 1.29 1.29 0 0 1 -.52-.07 1 1 0 0 1 -.36-.27 1.17 1.17 0 0 1 -.2-.42 2.23 2.23 0 0 1 -.06-.54z"/><path d="m27.66 18a1 1 0 0 1 .51-.91 4 4 0 0 1 1.65-.45 1.27 1.27 0 0 0 0-.28 1 1 0 0 0 -.12-.23.53.53 0 0 0 -.2-.16.91.91 0 0 0 -.31-.05 1.4 1.4 0 0 0 -.54.1 3.4 3.4 0 0 0 -.5.26l-.31-.58a3.92 3.92 0 0 1 .68-.34 2.48 2.48 0 0 1 .82-.14 1.28 1.28 0 0 1 1 .41 1.82 1.82 0 0 1 .34 1.18v2.19h-.68l-.07-.4a2.7 2.7 0 0 1 -.53.35 1.37 1.37 0 0 1 -.61.14 1.11 1.11 0 0 1 -.79-.29 1.06 1.06 0 0 1 -.34-.8zm.84 0a.43.43 0 0 0 .14.36.6.6 0 0 0 .38.12.81.81 0 0 0 .41-.11 1.7 1.7 0 0 0 .39-.3v-.82a3.94 3.94 0 0 0 -.63.12 1.37 1.37 0 0 0 -.4.17.59.59 0 0 0 -.23.21.54.54 0 0 0 -.06.25z"/><path d="m31.74 13.74h.86v1.36.62a1.81 1.81 0 0 1 .5-.33 1.27 1.27 0 0 1 .56-.13 1.38 1.38 0 0 1 .62.13 1.18 1.18 0 0 1 .45.38 1.66 1.66 0 0 1 .29.58 3.08 3.08 0 0 1 .1.78 2.74 2.74 0 0 1 -.12.87 2.11 2.11 0 0 1 -.35.63 1.58 1.58 0 0 1 -.51.39 1.34 1.34 0 0 1 -.59.13 1.19 1.19 0 0 1 -.55-.15 1.73 1.73 0 0 1 -.49-.34l-.07.37h-.68zm.86 4.36a1 1 0 0 0 .39.24.91.91 0 0 0 .35.07.77.77 0 0 0 .62-.32 1.56 1.56 0 0 0 .24-.95 1.69 1.69 0 0 0 -.18-.86.66.66 0 0 0 -.61-.31 1.21 1.21 0 0 0 -.81.41z"/><path d="m36 13.74h.86v4.39a.3.3 0 0 0 .06.22.16.16 0 0 0 .13.07h.08l.11.65a1.12 1.12 0 0 1 -.45.07.74.74 0 0 1 -.66-.28 1.34 1.34 0 0 1 -.18-.75z"/><path d="m37.76 17.19a2.29 2.29 0 0 1 .14-.81 1.81 1.81 0 0 1 .38-.6 1.69 1.69 0 0 1 .54-.39 1.58 1.58 0 0 1 .63-.13 1.53 1.53 0 0 1 .66.13 1.22 1.22 0 0 1 .48.36 1.6 1.6 0 0 1 .29.55 2.65 2.65 0 0 1 .12.7 2 2 0 0 1 0 .4h-2.4a1.21 1.21 0 0 0 .35.77 1 1 0 0 0 .74.27 1.23 1.23 0 0 0 .44-.07 1.42 1.42 0 0 0 .41-.2l.29.54a2.62 2.62 0 0 1 -.58.29 2.2 2.2 0 0 1 -.68.11 1.87 1.87 0 0 1 -.71-.13 1.72 1.72 0 0 1 -.58-.38 1.67 1.67 0 0 1 -.38-.6 2.31 2.31 0 0 1 -.14-.81zm2.47-.33a1.11 1.11 0 0 0 -.19-.69.66.66 0 0 0 -.56-.24.83.83 0 0 0 -.58.23 1.11 1.11 0 0 0 -.31.7z"/><path d="m10.78 21.92a1 1 0 0 0 -.4-.09c-.31 0-.47.21-.47.62v.4h.72v.68h-.72v3h-.86v-3h-.5v-.64h.5v-.38a1.79 1.79 0 0 1 .07-.53 1 1 0 0 1 .21-.42 1.08 1.08 0 0 1 .38-.28 1.57 1.57 0 0 1 .56-.09 2.13 2.13 0 0 1 .37 0l.31.09z"/><path d="m11 24.69a2.29 2.29 0 0 1 .14-.81 1.88 1.88 0 0 1 .39-.61 1.64 1.64 0 0 1 .56-.38 1.74 1.74 0 0 1 1.32 0 1.55 1.55 0 0 1 .56.38 1.88 1.88 0 0 1 .39.61 2.44 2.44 0 0 1 0 1.63 2 2 0 0 1 -.39.61 1.52 1.52 0 0 1 -.56.37 1.74 1.74 0 0 1 -1.32 0 1.61 1.61 0 0 1 -.56-.37 2 2 0 0 1 -.39-.61 2.31 2.31 0 0 1 -.14-.82zm.89 0a1.49 1.49 0 0 0 .23.89.71.71 0 0 0 .63.34.73.73 0 0 0 .64-.34 1.84 1.84 0 0 0 0-1.78.76.76 0 0 0 -.64-.34.73.73 0 0 0 -.63.34 1.49 1.49 0 0 0 -.27.89z"/><path d="m15.32 22.85h.68l.06.65a1.61 1.61 0 0 1 .47-.55 1 1 0 0 1 .57-.19 1 1 0 0 1 .42.07l-.15.75h-.18-.2a.84.84 0 0 0 -.46.17 1.39 1.39 0 0 0 -.41.59v2.25h-.86z"/><path d="m19.65 22.85h.72l.06.5a2.86 2.86 0 0 1 .5-.42 1.2 1.2 0 0 1 .62-.17 1.14 1.14 0 0 1 .65.17 1.09 1.09 0 0 1 .37.49 2.93 2.93 0 0 1 .55-.47 1.1 1.1 0 0 1 .64-.19 1 1 0 0 1 .86.38 1.83 1.83 0 0 1 .28 1.08v2.31h-.87v-2.2a1.12 1.12 0 0 0 -.14-.64.49.49 0 0 0 -.43-.19 1.15 1.15 0 0 0 -.77.46v2.57h-.86v-2.2a1.12 1.12 0 0 0 -.14-.64.49.49 0 0 0 -.43-.19 1.13 1.13 0 0 0 -.77.46v2.57h-.87z"/><path d="m25.74 24.69a2.09 2.09 0 0 1 .14-.81 1.76 1.76 0 0 1 .94-1 1.65 1.65 0 0 1 .66-.13 1.7 1.7 0 0 1 .67.13 1.64 1.64 0 0 1 .56.38 1.71 1.71 0 0 1 .38.61 2.29 2.29 0 0 1 0 1.63 1.8 1.8 0 0 1 -.38.61 1.61 1.61 0 0 1 -.56.37 1.7 1.7 0 0 1 -.67.13 1.65 1.65 0 0 1 -.66-.13 1.57 1.57 0 0 1 -.55-.37 1.68 1.68 0 0 1 -.39-.61 2.11 2.11 0 0 1 -.14-.81zm.88 0a1.56 1.56 0 0 0 .23.89.71.71 0 0 0 .63.34.72.72 0 0 0 .64-.34 1.84 1.84 0 0 0 0-1.78.75.75 0 0 0 -.64-.34.73.73 0 0 0 -.63.34 1.56 1.56 0 0 0 -.23.89z"/><path d="m30.22 23.53h-.52v-.64h.57l.1-1h.72v1h.91v.68h-.94v1.76c0 .43.17.64.52.64h.2a.76.76 0 0 0 .18-.06l.15.64-.34.09a1.78 1.78 0 0 1 -.41 0 1.27 1.27 0 0 1 -.54-.1.82.82 0 0 1 -.36-.27 1.17 1.17 0 0 1 -.2-.42 1.81 1.81 0 0 1 -.07-.54z"/><path d="m32.49 24.69a2.09 2.09 0 0 1 .14-.81 1.76 1.76 0 0 1 .94-1 1.65 1.65 0 0 1 .66-.13 1.7 1.7 0 0 1 .67.13 1.64 1.64 0 0 1 .56.38 1.71 1.71 0 0 1 .38.61 2.29 2.29 0 0 1 0 1.63 1.8 1.8 0 0 1 -.38.61 1.61 1.61 0 0 1 -.56.37 1.7 1.7 0 0 1 -.67.13 1.65 1.65 0 0 1 -.66-.13 1.57 1.57 0 0 1 -.55-.37 1.68 1.68 0 0 1 -.39-.61 2.11 2.11 0 0 1 -.14-.81zm.88 0a1.56 1.56 0 0 0 .23.89.71.71 0 0 0 .63.34.72.72 0 0 0 .64-.34 1.84 1.84 0 0 0 0-1.78.75.75 0 0 0 -.64-.34.73.73 0 0 0 -.63.34 1.56 1.56 0 0 0 -.23.89z"/><path d="m36.84 22.85h.72l.06.65a1.51 1.51 0 0 1 .47-.55 1 1 0 0 1 .57-.19 1 1 0 0 1 .42.07l-.15.75h-.18-.2a.82.82 0 0 0 -.46.17 1.31 1.31 0 0 0 -.41.59v2.25h-.87z"/><path d="m10.74 30.35h.87l.59 1.91.15.55c.06.18.11.37.16.56l.15-.56c.05-.19.11-.37.16-.55l.59-1.91h.83l-1.24 3.65h-1z"/><path d="m14.62 32.19a2.29 2.29 0 0 1 .14-.81 2 2 0 0 1 .38-.6 1.63 1.63 0 0 1 .55-.39 1.66 1.66 0 0 1 1.29 0 1.12 1.12 0 0 1 .47.36 1.45 1.45 0 0 1 .29.55 2.3 2.3 0 0 1 .1.71 1.45 1.45 0 0 1 0 .4h-2.38a1.21 1.21 0 0 0 .35.77 1 1 0 0 0 .74.27 1.33 1.33 0 0 0 .45-.07 1.5 1.5 0 0 0 .4-.2l.3.54a2.7 2.7 0 0 1 -.59.29 2.14 2.14 0 0 1 -.67.11 1.88 1.88 0 0 1 -.72-.13 1.59 1.59 0 0 1 -.57-.38 1.56 1.56 0 0 1 -.39-.6 2.31 2.31 0 0 1 -.14-.82zm2.47-.33a1.18 1.18 0 0 0 -.18-.69.69.69 0 0 0 -.57-.24.85.85 0 0 0 -.58.23 1.17 1.17 0 0 0 -.31.7z"/><path d="m18.66 28.74h.87v1.36.71a2.82 2.82 0 0 1 .51-.38 1.3 1.3 0 0 1 .66-.17 1 1 0 0 1 .87.38 1.83 1.83 0 0 1 .27 1.08v2.28h-.87v-2.2a1.13 1.13 0 0 0 -.13-.64.5.5 0 0 0 -.44-.19.8.8 0 0 0 -.43.12 2.7 2.7 0 0 0 -.41.34v2.57h-.87z"/><path d="m23.28 29.7a.55.55 0 0 1 -.38-.13.45.45 0 0 1 -.15-.35.46.46 0 0 1 .15-.36.56.56 0 0 1 .38-.14.56.56 0 0 1 .39.14.46.46 0 0 1 .15.36.45.45 0 0 1 -.15.35.56.56 0 0 1 -.39.13zm-.43.65h.86v3.65h-.86z"/><path d="m24.57 32.19a2.09 2.09 0 0 1 .15-.81 1.78 1.78 0 0 1 1-1 1.82 1.82 0 0 1 .7-.13 1.54 1.54 0 0 1 .63.12 2.11 2.11 0 0 1 .45.31l-.41.54a1.25 1.25 0 0 0 -.3-.19.73.73 0 0 0 -.33-.08.89.89 0 0 0 -.72.34 1.32 1.32 0 0 0 -.28.89 1.37 1.37 0 0 0 .27.89.92.92 0 0 0 1.13.24 1.33 1.33 0 0 0 .34-.22l.36.55a2 2 0 0 1 -.56.36 1.76 1.76 0 0 1 -.63.12 1.82 1.82 0 0 1 -.7-.13 1.56 1.56 0 0 1 -.57-.37 1.78 1.78 0 0 1 -.37-.61 2.31 2.31 0 0 1 -.16-.82z"/><path d="m28.28 28.74h.86v4.39a.3.3 0 0 0 .06.22.16.16 0 0 0 .13.07h.06.07l.12.65a1.2 1.2 0 0 1 -.46.07.71.71 0 0 1 -.65-.28 1.26 1.26 0 0 1 -.19-.75z"/><path d="m30.07 32.19a2.29 2.29 0 0 1 .14-.81 2 2 0 0 1 .38-.6 1.63 1.63 0 0 1 .55-.39 1.66 1.66 0 0 1 1.29 0 1.12 1.12 0 0 1 .47.36 1.45 1.45 0 0 1 .29.55 2.3 2.3 0 0 1 .1.71 1.45 1.45 0 0 1 0 .4h-2.38a1.21 1.21 0 0 0 .35.77 1 1 0 0 0 .74.27 1.33 1.33 0 0 0 .45-.07 1.5 1.5 0 0 0 .4-.2l.3.54a2.7 2.7 0 0 1 -.59.29 2.14 2.14 0 0 1 -.67.11 1.88 1.88 0 0 1 -.72-.13 1.59 1.59 0 0 1 -.57-.38 1.56 1.56 0 0 1 -.39-.6 2.31 2.31 0 0 1 -.14-.82zm2.47-.33a1.18 1.18 0 0 0 -.18-.69.69.69 0 0 0 -.57-.24.85.85 0 0 0 -.58.23 1.17 1.17 0 0 0 -.31.7z"/><path d="m34.15 33.06a2.4 2.4 0 0 0 .49.3 1.36 1.36 0 0 0 .53.11.66.66 0 0 0 .44-.12.41.41 0 0 0 .15-.32.35.35 0 0 0 -.07-.2.93.93 0 0 0 -.18-.16l-.26-.12-.25-.12-.37-.15a1.9 1.9 0 0 1 -.33-.22 1 1 0 0 1 -.24-.3.72.72 0 0 1 -.1-.4 1 1 0 0 1 .36-.79 1.45 1.45 0 0 1 1-.31 1.73 1.73 0 0 1 .69.13 3 3 0 0 1 .53.31l-.4.53a2 2 0 0 0 -.39-.23 1 1 0 0 0 -.42-.09.61.61 0 0 0 -.41.12.36.36 0 0 0 -.13.29.31.31 0 0 0 .06.19.79.79 0 0 0 .17.14l.25.11.29.1.37.16a1.63 1.63 0 0 1 .34.21 1.07 1.07 0 0 1 .25.31 1 1 0 0 1 .09.44 1.13 1.13 0 0 1 -.09.45 1 1 0 0 1 -.27.36 1.37 1.37 0 0 1 -.45.24 2 2 0 0 1 -.62.09 2.21 2.21 0 0 1 -.75-.14 2.34 2.34 0 0 1 -.64-.37z"/></g></svg>